<?xml version="1.0" encoding="utf-8"?>
<svg version="1.1" xmlns:xlink="http://www.w3.org/1999/xlink" width="17px" height="19px" xmlns="http://www.w3.org/2000/svg">
  <g transform="matrix(1 0 0 1 -577 -174 )">
    <path d="M 16.4278846153846 6.81222432262132  C 16.8092948717949 6.8840579710145  17 7.06763285024155  17 7.36294896030245  C 17 7.53854232304141  16.9114583333334 7.73009871875652  16.734375 7.93761814744798  L 13.0258413461538 12.1758034026465  L 13.9044471153846 18.1619407687461  C 13.9112580128206 18.217811384163  13.9146634615385 18.2976265490443  13.9146634615385 18.40138626339  C 13.9146634615385 18.5689981096409  13.87890625 18.7106700273052  13.8073918269231 18.8264020163831  C 13.7358774038462 18.942134005461  13.6320112179487 19  13.4957932692308 19  C 13.3663862179487 19  13.2301682692308 18.9521109010712  13.0871394230769 18.8563327032136  L 8.5 16.0308758664146  L 3.91286057692309 18.8563327032136  C 3.76302083333337 18.9521109010712  3.62680288461536 19  3.50420673076917 19  C 3.36117788461536 19  3.25390625 18.942134005461  3.18239182692309 18.8264020163831  C 3.11087740384619 18.7106700273052  3.07512019230774 18.5689981096409  3.07512019230774 18.40138626339  C 3.07512019230774 18.3534971644613  3.08193108974365 18.2736819995799  3.09555288461536 18.1619407687461  L 3.97415865384619 12.1758034026465  L 0.255408653846189 7.93761814744798  C 0.0851362179487296 7.72211720226846  0 7.53056080655324  0 7.36294896030245  C 0 7.06763285024155  0.190705128205082 6.8840579710145  0.572115384615358 6.81222432262132  L 5.70072115384619 5.93824826717076  L 7.99939903846155 0.490863264020192  C 8.12880608974365 0.163621088006721  8.29567307692309 0  8.5 0  C 8.70432692307691 0  8.87119391025635 0.163621088006721  9.00060096153845 0.490863264020192  L 11.2992788461538 5.93824826717076  L 16.4278846153846 6.81222432262132  Z " fill-rule="nonzero" fill="#000000" stroke="none" transform="matrix(1 0 0 1 577 174 )" />
  </g>
</svg>