<?xml version="1.0" encoding="utf-8"?>
<svg version="1.1" xmlns:xlink="http://www.w3.org/1999/xlink" width="25px" height="26px" xmlns="http://www.w3.org/2000/svg">
  <g transform="matrix(1 0 0 1 -278 -582 )">
    <path d="M 15.33203125 15.9453125  C 16.6491386217949 14.5755208333334  17.3076923076923 12.9270833333333  17.3076923076923 11  C 17.3076923076923 9.07291666666663  16.6491386217949 7.42447916666674  15.33203125 6.05468750000011  C 14.0149238782051 4.68489583333326  12.4298878205129 3.99999999999989  10.576923076923 3.99999999999989  C 8.72395833333331 3.99999999999989  7.13892227564105 4.68489583333326  5.82181490384619 6.05468750000011  C 4.50470753205127 7.42447916666674  3.84615384615381 9.07291666666663  3.84615384615381 11  C 3.84615384615381 12.9270833333333  4.50470753205127 14.5755208333334  5.82181490384619 15.9453125  C 7.13892227564105 17.3151041666666  8.72395833333331 18  10.576923076923 18  C 12.4298878205129 18  14.0149238782051 17.3151041666666  15.33203125 15.9453125  Z M 24.444110576923 22.5937499999999  C 24.8147035256411 22.9791666666666  25 23.4479166666667  25 24  C 25 24.5416666666666  24.8096955128206 25.0104166666666  24.4290865384615 25.40625  C 24.0484775641026 25.8020833333334  23.5977564102564 26  23.076923076923 26  C 22.5360576923077 26  22.0853365384615 25.8020833333334  21.7247596153846 25.40625  L 16.571514423077 20.0625000000001  C 14.7786458333333 21.3541666666666  12.7804487179487 22.0000000000001  10.576923076923 22.0000000000001  C 9.14463141025641 22.0000000000001  7.77493990384619 21.7109375  6.46784855769232 21.1328125  C 5.16075721153851 20.5546874999999  4.03395432692304 19.7734375  3.08743990384619 18.7890625  C 2.14092548076917 17.8046875  1.38972355769232 16.6328125  0.833834134615358 15.2734374999999  C 0.27794471153851 13.9140625  0 12.4895833333334  0 11  C 0 9.51041666666663  0.27794471153851 8.08593750000011  0.833834134615358 6.7265625  C 1.38972355769232 5.3671875  2.14092548076917 4.1953125  3.08743990384619 3.21093750000011  C 4.03395432692304 2.2265625  5.16075721153851 1.4453125  6.46784855769232 0.867187500000114  C 7.77493990384619 0.2890625  9.14463141025641 0  10.576923076923 0  C 12.0092147435897 0  13.37890625 0.2890625  14.6859975961538 0.867187500000114  C 15.9930889423077 1.4453125  17.119891826923 2.2265625  18.06640625 3.21093750000011  C 19.012920673077 4.1953125  19.7641225961538 5.3671875  20.3200120192308 6.7265625  C 20.8759014423077 8.08593750000011  21.1538461538462 9.51041666666663  21.1538461538462 11  C 21.1538461538462 13.2916666666666  20.5328525641026 15.3697916666666  19.2908653846154 17.234375  L 24.444110576923 22.5937499999999  Z " fill-rule="nonzero" fill="#000000" stroke="none" transform="matrix(1 0 0 1 278 582 )" />
  </g>
</svg>