<?xml version="1.0" encoding="utf-8"?>
<svg version="1.1" xmlns:xlink="http://www.w3.org/1999/xlink" width="20px" height="19px" xmlns="http://www.w3.org/2000/svg">
  <g transform="matrix(1 0 0 1 -66 -585 )">
    <path d="M 11.5494791666666 4.861328125  C 11.6276041666666 4.935546875  11.6666666666666 5.03038194444446  11.6666666666666 5.14583333333337  L 11.6666666666666 10.6875  C 11.6666666666666 10.802951388889  11.6276041666666 10.8977864583334  11.5494791666666 10.9720052083334  C 11.4713541666666 11.0462239583334  11.3715277777778 11.0833333333334  11.25 11.0833333333334  L 7.08333333333337 11.0833333333334  C 6.96180555555557 11.0833333333334  6.86197916666663 11.0462239583334  6.78385416666663 10.9720052083334  C 6.70572916666663 10.8977864583334  6.66666666666663 10.802951388889  6.66666666666663 10.6875  L 6.66666666666663 9.89583333333337  C 6.66666666666663 9.78038194444446  6.70572916666663 9.685546875  6.78385416666663 9.611328125  C 6.86197916666663 9.537109375  6.96180555555557 9.5  7.08333333333337 9.5  L 10 9.5  L 10 5.14583333333337  C 10 5.03038194444446  10.0390625 4.935546875  10.1171875 4.861328125  C 10.1953125 4.787109375  10.2951388888889 4.75  10.4166666666666 4.75  L 11.25 4.75  C 11.3715277777778 4.75  11.4713541666666 4.787109375  11.5494791666666 4.861328125  Z M 16.1328125 12.876953125  C 16.7664930555555 11.8461371527776  17.0833333333333 10.720486111111  17.0833333333333 9.5  C 17.0833333333333 8.27951388888903  16.7664930555555 7.1538628472224  16.1328125 6.123046875  C 15.4991319444445 5.0922309027776  14.6397569444445 4.2758246527776  13.5546875 3.673828125  C 12.4696180555555 3.0718315972224  11.2847222222222 2.77083333333337  10 2.77083333333337  C 8.71527777777777 2.77083333333337  7.53038194444443 3.0718315972224  6.4453125 3.673828125  C 5.36024305555557 4.2758246527776  4.50086805555557 5.0922309027776  3.8671875 6.123046875  C 3.23350694444443 7.1538628472224  2.91666666666669 8.27951388888903  2.91666666666669 9.5  C 2.91666666666669 10.720486111111  3.23350694444443 11.8461371527776  3.8671875 12.876953125  C 4.50086805555557 13.9077690972224  5.36024305555557 14.7241753472224  6.4453125 15.326171875  C 7.53038194444443 15.9281684027776  8.71527777777777 16.2291666666666  10 16.2291666666666  C 11.2847222222222 16.2291666666666  12.4696180555555 15.9281684027776  13.5546875 15.326171875  C 14.6397569444445 14.7241753472224  15.4991319444445 13.9077690972224  16.1328125 12.876953125  Z M 18.6588541666667 4.7314453125  C 19.5529513888889 6.1869574652776  20 7.77647569444446  20 9.5  C 20 11.2235243055555  19.5529513888889 12.8130425347224  18.6588541666667 14.2685546875  C 17.7647569444445 15.7240668402776  16.5516493055555 16.8765190972224  15.01953125 17.7259114583334  C 13.4874131944445 18.5753038194445  11.8142361111111 19  10 19  C 8.18576388888889 19  6.51258680555557 18.5753038194445  4.98046875 17.7259114583334  C 3.44835069444443 16.8765190972224  2.23524305555557 15.7240668402776  1.34114583333337 14.2685546875  C 0.447048611111114 12.8130425347224  0 11.2235243055555  0 9.5  C 0 7.77647569444446  0.447048611111114 6.1869574652776  1.34114583333337 4.7314453125  C 2.23524305555557 3.2759331597224  3.44835069444443 2.1234809027776  4.98046875 1.27408854166663  C 6.51258680555557 0.424696180555543  8.18576388888889 0  10 0  C 11.8142361111111 0  13.4874131944445 0.424696180555543  15.01953125 1.27408854166663  C 16.5516493055555 2.1234809027776  17.7647569444445 3.2759331597224  18.6588541666667 4.7314453125  Z " fill-rule="nonzero" fill="#000000" stroke="none" transform="matrix(1 0 0 1 66 585 )" />
  </g>
</svg>