<?xml version="1.0" encoding="utf-8"?>
<svg version="1.1" xmlns:xlink="http://www.w3.org/1999/xlink" width="22px" height="11px" xmlns="http://www.w3.org/2000/svg">
  <g transform="matrix(1 0 0 1 -287 -40 )">
    <path d="M 2.44444444444446 2.19999999999999  L 18.3333333333334 2.19999999999999  L 18.3333333333334 8.80000000000001  L 2.44444444444446 8.80000000000001  L 2.44444444444446 2.19999999999999  Z M 19.5555555555555 9.625  L 19.5555555555555 7.15  L 20.7777777777778 7.15  L 20.7777777777778 3.84999999999999  L 19.5555555555555 3.84999999999999  L 19.5555555555555 1.375  C 19.5555555555555 1.29479166666667  19.5269097222222 1.22890624999999  19.4696180555555 1.17734375000001  C 19.4123263888889 1.12578124999999  19.3391203703703 1.09999999999999  19.25 1  L 1.52777777777783 1  C 1.43865740740739 1.09999999999999  1.36545138888891 1.12578124999999  1.30815972222217 1.17734375000001  C 1.25086805555554 1.22890624999999  1.22222222222217 1.29479166666667  1.22222222222217 1.375  L 1.22222222222217 9.625  C 1.22222222222217 9.70520833333333  1.25086805555554 9.77109375000001  1.30815972222217 9.82265624999999  C 1.36545138888891 9.87421875000001  1.43865740740739 9.90000000000001  1.52777777777783 10  L 19.25 10  C 19.3391203703703 9.90000000000001  19.4123263888889 9.87421875000001  19.4696180555555 9.82265624999999  C 19.5269097222222 9.77109375000001  19.5555555555555 9.70520833333333  19.5555555555555 9.625  Z M 21.6419270833334 3.072265625  C 21.8806423611111 3.287109375  22 3.54635416666667  22 3.84999999999999  L 22 7.15  C 22 7.45364583333333  21.8806423611111 7.712890625  21.6419270833334 7.927734375  C 21.4032118055555 8.142578125  21.1151620370371 8.25  20.7777777777778 8.25  L 20.7777777777778 9.625  C 20.7777777777778 10.003125  20.6281828703703 10.3268229166667  20.3289930555555 10.59609375  C 20.0298032407408 10.8653645833333  19.6701388888889 11  19.25 11  L 1.52777777777783 11  C 1.10763888888891 11  0.747974537037067 10.8653645833333  0.448784722222172 10.59609375  C 0.149594907407391 10.3268229166667  0 10.003125  0 9.625  L 0 1.375  C 0 0.996874999999989  0.149594907407391 0.673177083333343  0.448784722222172 0.403906250000006  C 0.747974537037067 0.134635416666669  1.10763888888891 0  1.52777777777783 0  L 19.25 0  C 19.6701388888889 0  20.0298032407408 0.134635416666669  20.3289930555555 0.403906250000006  C 20.6281828703703 0.673177083333343  20.7777777777778 0.996874999999989  20.7777777777778 1.375  L 20.7777777777778 2.75  C 21.1151620370371 2.75  21.4032118055555 2.857421875  21.6419270833334 3.072265625  Z " fill-rule="nonzero" fill="#000000" stroke="none" transform="matrix(1 0 0 1 287 40 )" />
  </g>
</svg>