<?xml version="1.0" encoding="utf-8"?>
<svg version="1.1" xmlns:xlink="http://www.w3.org/1999/xlink" width="33px" height="20px" xmlns="http://www.w3.org/2000/svg">
  <g transform="matrix(1 0 0 1 -41 -55 )">
    <path d="M 32.591796875 16.296875  C 32.8639322916667 16.4947916666667  33 16.7291666666667  33 17  L 33 19  C 33 19.2708333333333  32.8639322916667 19.5052083333333  32.591796875 19.703125  C 32.3196614583333 19.9010416666667  31.9973958333333 20  31.625 20  L 1.37500000000003 20  C 1.00260416666666 20  0.680338541666657 19.9010416666667  0.408203125000028 19.703125  C 0.136067708333343 19.5052083333333  0 19.2708333333333  0 19  L 0 17  C 0 16.7291666666667  0.136067708333343 16.4947916666667  0.408203125000028 16.296875  C 0.680338541666657 16.0989583333333  1.00260416666666 16  1.37500000000003 16  L 31.625 16  C 31.9973958333333 16  32.3196614583333 16.0989583333333  32.591796875 16.296875  Z M 32.591796875 8.296875  C 32.8639322916667 8.49479166666666  33 8.72916666666666  33 9  L 33 11  C 33 11.2708333333333  32.8639322916667 11.5052083333333  32.591796875 11.703125  C 32.3196614583333 11.9010416666667  31.9973958333333 12  31.625 12  L 1.37500000000003 12  C 1.00260416666666 12  0.680338541666657 11.9010416666667  0.408203125000028 11.703125  C 0.136067708333343 11.5052083333333  0 11.2708333333333  0 11  L 0 9  C 0 8.72916666666666  0.136067708333343 8.49479166666666  0.408203125000028 8.296875  C 0.680338541666657 8.09895833333334  1.00260416666666 8  1.37500000000003 8  L 31.625 8  C 31.9973958333333 8  32.3196614583333 8.09895833333334  32.591796875 8.296875  Z M 32.591796875 0.296875  C 32.8639322916667 0.494791666666664  33 0.729166666666664  33 1  L 33 3  C 33 3.27083333333333  32.8639322916667 3.50520833333333  32.591796875 3.703125  C 32.3196614583333 3.90104166666666  31.9973958333333 4  31.625 4  L 1.37500000000003 4  C 1.00260416666666 4  0.680338541666657 3.90104166666666  0.408203125000028 3.703125  C 0.136067708333343 3.50520833333333  0 3.27083333333333  0 3  L 0 1  C 0 0.729166666666664  0.136067708333343 0.494791666666664  0.408203125000028 0.296875  C 0.680338541666657 0.0989583333333357  1.00260416666666 0  1.37500000000003 0  L 31.625 0  C 31.9973958333333 0  32.3196614583333 0.0989583333333357  32.591796875 0.296875  Z " fill-rule="nonzero" fill="#000000" stroke="none" transform="matrix(1 0 0 1 41 55 )" />
  </g>
</svg>