<?xml version="1.0" encoding="utf-8"?>
<svg version="1.1" xmlns:xlink="http://www.w3.org/1999/xlink" width="20px" height="12px" xmlns="http://www.w3.org/2000/svg">
  <g transform="matrix(1 0 0 1 -216 -38 )">
    <path d="M 9.00240384615381 1.02953586497895  C 9.15464743589746 1.13642756680738  9.23076923076923 1.26300984528839  9.23076923076923 1.409282700422  L 9.23076923076917 10.590717299578  C 9.23076923076923 10.7369901547116  9.1546474358974 10.8635724331927  9.00240384615381 10.9704641350211  C 8.85016025641016 11.0773558368495  8.66987179487177 11.1308016877637  8.46153846153834 11.1308016877637  C 8.25320512820508 11.1308016877637  8.07291666666663 11.0773558368495  7.92067307692304 10.9704641350211  L 3.91826923076928 8.1603375527426  L 0.769230769230717 8.1603375527426  C 0.560897435897516 8.1603375527426  0.380608974359063 8.10689170182841  0.228365384615358 8.00000000000001  C 0.076121794871824 7.89310829817161  0 7.76652601969057  0 7.62025316455698  L 0 4.37974683544303  C 0 4.23347398030944  0.076121794871824 4.10689170182841  0.228365384615358 4  C 0.380608974359063 3.89310829817161  0.560897435897459 3.83966244725742  0.76923076923066 3.83966244725742  L 3.91826923076928 3.83966244725742  L 7.92067307692298 1.02953586497895  C 8.07291666666663 0.92264416315055  8.25320512820514 0.869198312236328  8.46153846153834 0.869198312236328  C 8.66987179487177 0.869198312236328  8.85016025641016 0.922644163150536  9.00240384615381 1.02953586497895  Z M 13.3353365384615 4.80168776371311  C 13.6758814102564 5.17299578059074  13.8461538461538 5.5724331926864  13.8461538461539 6.00000000000002  C 13.8461538461538 6.42756680731365  13.6758814102564 6.82559774964841  13.3353365384615 7.19409282700425  C 12.9947916666666 7.56258790436005  12.5440705128204 7.8255977496484  11.983173076923 7.98312236286922  C 11.9030448717948 8.01125175808723  11.8028846153846 8.02531645569622  11.6826923076923 8.02531645569622  C 11.4743589743589 8.02531645569622  11.2940705128204 7.97327707454292  11.1418269230769 7.8691983122363  C 10.9895833333333 7.76511954992968  10.9134615384616 7.63713080168777  10.9134615384616 7.48523206751054  C 10.9134615384615 7.36708860759495  10.9615384615384 7.26722925457103  11.0576923076922 7.18565400843885  C 11.1538461538461 7.10407876230661  11.270032051282 7.03375527426163  11.4062499999999 6.9746835443038  C 11.5424679487179 6.915611814346  11.6786858974358 6.85091420534459  11.8149038461538 6.78059071729961  C 11.9511217948718 6.71026722925457  12.0673076923076 6.60900140646977  12.1634615384615 6.47679324894517  C 12.2596153846152 6.34458509142055  12.3076923076923 6.18565400843886  12.3076923076923 6.00000000000002  C 12.3076923076923 5.81434599156123  12.2596153846153 5.65541490857951  12.1634615384615 5.52320675105488  C 12.0673076923076 5.39099859353027  11.9511217948718 5.28973277074546  11.8149038461538 5.21940928270044  C 11.6786858974358 5.14908579465544  11.5424679487179 5.08438818565404  11.4062499999999 5.02531645569622  C 11.270032051282 4.96624472573842  11.153846153846 4.89592123769343  11.0576923076923 4.81434599156118  C 10.9615384615383 4.732770745429  10.9134615384616 4.63291139240506  10.9134615384615 4.5147679324895  C 10.9134615384615 4.36286919831227  10.9895833333333 4.23488045007033  11.141826923077 4.13080168776375  C 11.2940705128204 4.02672292545714  11.4743589743589 3.97468354430383  11.6826923076923 3.97468354430382  C 11.8028846153846 3.97468354430383  11.9030448717948 3.98874824191281  11.9831730769229 4.01687763713083  C 12.5440705128204 4.16877637130802  12.9947916666666 4.4303797468355  13.3353365384615 4.80168776371311  Z M 15.9014423076922 3.6160337552743  C 16.582532051282 4.34458509142057  16.9230769230768 5.13924050632913  16.9230769230768 6.00000000000002  C 16.9230769230769 6.86075949367092  16.582532051282 7.6554149085795  15.9014423076922 8.38396624472576  C 15.2203525641024 9.11251758087202  14.3189102564102 9.64275668073137  13.1971153846153 9.9746835443038  C 13.0929487179487 10.0028129395218  12.9927884615383 10.0168776371308  12.8966346153846 10.0168776371308  C 12.6802884615383 10.0168776371308  12.4959935897435 9.96343178621661  12.3437499999999 9.8565400843882  C 12.1915064102564 9.74964838255977  12.1153846153845 9.62306610407878  12.1153846153846 9.47679324894515  C 12.1153846153845 9.25738396624475  12.2716346153846 9.09142053445852  12.5841346153845 8.97890295358652  C 13.0328525641025 8.81575246132209  13.3373397435897 8.69198312236288  13.4975961538461 8.60759493670888  C 14.0905448717948 8.30379746835443  14.5532852564101 7.92264416315052  14.8858173076923 7.46413502109705  C 15.2183493589743 7.00562587904363  15.3846153846152 6.51758087201128  15.3846153846152 6.00000000000002  C 15.3846153846153 5.48241912798878  15.2183493589743 4.99437412095641  14.8858173076922 4.53586497890301  C 14.5532852564102 4.07735583684953  14.0905448717949 3.6962025316456  13.497596153846 3.39240506329117  C 13.3373397435897 3.30801687763716  13.0328525641025 3.18424753867794  12.5841346153846 3.02109704641353  C 12.2716346153846 2.90857946554154  12.1153846153845 2.7426160337553  12.1153846153845 2.5232067510549  C 12.1153846153846 2.37693389592127  12.1915064102564 2.25035161744026  12.3437499999999 2.14345991561183  C 12.4959935897435 2.03656821378343  12.676282051282 1.98312236286923  12.8846153846153 1.98312236286923  C 12.9887820512819 1.98312236286924  13.0929487179487 1.99718706047825  13.1971153846153 2.02531645569623  C 14.3189102564102 2.35724331926866  15.2203525641025 2.88748241912803  15.9014423076922 3.6160337552743  Z M 18.4735576923075 2.43459915611817  C 19.4911858974357 3.51758087201128  19.9999999999999 4.70604781997191  19.9999999999999 6.00000000000003  C 19.9999999999999 7.29395218002814  19.4911858974357 8.48241912798876  18.4735576923076 9.56540084388188  C 17.4559294871794 10.648382559775  16.1017628205128 11.4458509142054  14.4110576923076 11.957805907173  C 14.3068910256409 11.985935302391  14.2027243589743 12  14.0985576923076 12  C 13.8902243589743 12  13.7099358974358 11.9465541490858  13.5576923076923 11.8396624472574  C 13.4054487179487 11.732770745429  13.3293269230768 11.606188466948  13.3293269230769 11.4599156118144  C 13.3293269230768 11.2573839662447  13.4855769230769 11.0914205344585  13.7980769230768 10.9620253164557  C 13.8541666666666 10.9395218002813  13.9443108974357 10.9099859353024  14.0685096153845 10.873417721519  C 14.1927083333333 10.8368495077356  14.2828525641025 10.8073136427567  14.3389423076923 10.7848101265823  C 14.707532051282 10.6441631504923  15.0360576923076 10.5007032348805  15.3245192307692 10.3544303797469  C 16.310096153846 9.84247538677918  17.0793269230769 9.20393811533052  17.6322115384614 8.43881856540087  C 18.185096153846 7.67369901547116  18.4615384615383 6.86075949367092  18.4615384615384 6.00000000000002  C 18.4615384615384 5.13924050632913  18.185096153846 4.32630098452888  17.6322115384615 3.56118143459918  C 17.0793269230768 2.79606188466952  16.310096153846 2.15752461322086  15.3245192307692 1.64556962025319  C 15.0360576923076 1.49929676511958  14.7075320512819 1.35583684950779  14.3389423076922 1.21518987341777  C 14.2828525641024 1.19268635724335  14.1927083333333 1.16315049226445  14.0685096153846 1.12658227848103  C 13.9443108974358 1.09001406469765  13.8541666666666 1.06047819971872  13.7980769230769 1.03797468354433  C 13.4855769230769 0.908579465541521  13.3293269230769 0.742616033755318  13.3293269230768 0.540084388185697  C 13.3293269230769 0.39381153305208  13.4054487179487 0.267229254571077  13.5576923076922 0.160337552742668  C 13.7099358974358 0.0534458509142652  13.8902243589743 0  14.0985576923076 0  C 14.2027243589743 0  14.3068910256409 0.0140646976090437  14.4110576923076 0.0421940928270459  C 16.1017628205127 0.554149085794684  17.4559294871794 1.35161744022507  18.4735576923075 2.43459915611817  Z " fill-rule="nonzero" fill="#000000" stroke="none" transform="matrix(1 0 0 1 216 38 )" />
  </g>
</svg>