<?xml version="1.0" encoding="utf-8"?>
<svg version="1.1" xmlns:xlink="http://www.w3.org/1999/xlink" width="22px" height="12px" xmlns="http://www.w3.org/2000/svg">
  <g transform="matrix(1 0 0 1 -1450 -36 )">
    <path d="M 21.591796875 9.72916666666666  C 21.8639322916666 9.99305555555554  22 10.3055555555556  22 10.6666666666667  C 22 11.0277777777778  21.8639322916666 11.3402777777778  21.591796875 11.6041666666667  C 21.3196614583334 11.8680555555556  20.9973958333334 12  20.625 12  L 1.375 12  C 1.00260416666663 12  0.680338541666629 11.8680555555556  0.408203125 11.6041666666667  C 0.136067708333371 11.3402777777778  0 11.0277777777778  0 10.6666666666667  C 0 10.3055555555556  0.136067708333371 9.99305555555554  0.408203125 9.72916666666666  L 10.033203125 0.395833333333336  C 10.3053385416666 0.131944444444443  10.6276041666666 0  11 0  C 11.3723958333334 0  11.6946614583334 0.131944444444443  11.966796875 0.395833333333336  L 21.591796875 9.72916666666666  Z " fill-rule="nonzero" fill="#000000" stroke="none" transform="matrix(1 0 0 1 1450 36 )" />
  </g>
</svg>