<?xml version="1.0" encoding="utf-8"?>
<svg version="1.1" xmlns:xlink="http://www.w3.org/1999/xlink" width="17px" height="16px" xmlns="http://www.w3.org/2000/svg">
  <g transform="matrix(1 0 0 1 -264 -60 )">
    <path d="M 16.4278846153846 5.73660995589162  C 16.8092948717949 5.79710144927535  17 5.95169082125608  17 6.20037807183363  C 17 6.3482461667717  16.9114583333334 6.50955681579498  16.734375 6.68431001890357  L 13.0258413461538 10.2533081285444  L 13.9044471153846 15.294265910523  C 13.9112580128206 15.3413148498214  13.9146634615385 15.4085276202479  13.9146634615385 15.4959042218022  C 13.9146634615385 15.6370510396976  13.87890625 15.7563537072044  13.8073918269231 15.8538122243226  C 13.7358774038462 15.9512707414409  13.6320112179487 16  13.4957932692308 16  C 13.3663862179487 16  13.2301682692308 15.9596723377442  13.0871394230769 15.8790170132325  L 8.5 13.4996849401386  L 3.91286057692309 15.8790170132325  C 3.76302083333337 15.9596723377442  3.62680288461536 16  3.50420673076917 16  C 3.36117788461536 16  3.25390625 15.9512707414409  3.18239182692309 15.8538122243226  C 3.11087740384619 15.7563537072044  3.07512019230774 15.6370510396976  3.07512019230774 15.4959042218022  C 3.07512019230774 15.4555765595463  3.08193108974365 15.3883637891199  3.09555288461536 15.294265910523  L 3.97415865384619 10.2533081285444  L 0.255408653846189 6.68431001890357  C 0.0851362179487296 6.50283553875238  0 6.34152488972904  0 6.20037807183363  C 0 5.95169082125608  0.190705128205082 5.79710144927535  0.572115384615358 5.73660995589162  L 5.70072115384619 5.00063011972276  L 7.99939903846155 0.413358538122253  C 8.12880608974365 0.137786179374103  8.29567307692309 0  8.5 0  C 8.70432692307691 0  8.87119391025635 0.137786179374103  9.00060096153845 0.413358538122253  L 11.2992788461538 5.00063011972276  L 16.4278846153846 5.73660995589162  Z " fill-rule="nonzero" fill="#000000" stroke="none" transform="matrix(1 0 0 1 264 60 )" />
  </g>
</svg>