<?xml version="1.0" encoding="utf-8"?>
<svg version="1.1" xmlns:xlink="http://www.w3.org/1999/xlink" width="49px" height="46px" xmlns="http://www.w3.org/2000/svg">
  <g transform="matrix(1 0 0 1 -309 -101 )">
    <path d="M 2.7115885416668 0  L 46.2884114583333 0  C 47.0327690972222 0  47.6707899305555 0.249565972222172  48.2024739583333 0.748697916666572  C 48.734157986111 1.24782986111114  49 1.84678819444446  49 2.54557291666657  L 49 43.4544270833334  C 49 44.1532118055556  48.734157986111 44.7521701388889  48.2024739583333 45.2513020833334  C 47.6707899305555 45.7504340277778  47.0327690972222 46  46.2884114583333 46  L 33 46  L 33 28.1809895833334  L 40.1634114583333 28.1809895833334  L 41.1204427083333 21.2330729166666  L 33.8151041666667 21.2330729166666  L 33.8151041666667 16.80078125  C 33.8151041666667 15.6827256944445  34.0649956597222 14.8441840277778  34.5647786458333 14.28515625  C 35.0645616319445 13.7261284722222  36.0375434027778 13.4466145833334  37.4837239583333 13.4466145833334  L 41.3756510416667 13.4166666666666  L 41.3756510416667 7.21744791666657  C 40.0358072916667 7.03776041666657  38.1430121527778 6.94791666666657  35.697265625 6.94791666666657  C 32.804904513889 6.94791666666657  30.4920789930555 7.74652777777783  28.7587890625 9.34375  C 27.0254991319445 10.9409722222222  26.1588541666667 13.1970486111111  26.1588541666667 16.1119791666666  L 26.1588541666667 21.2330729166666  L 19.7786458333333 21.2330729166666  L 19.7786458333333 28.1809895833334  L 26 28.1809895833334  L 26 46  L 2.7115885416668 46  C 1.96723090277777 46  1.32921006944451 45.7504340277778  0.797526041666799 45.2513020833334  C 0.265842013889028 44.7521701388889  0 44.1532118055556  0 43.4544270833334  L 0 2.54557291666657  C 0 1.84678819444446  0.265842013889028 1.24782986111114  0.797526041666799 0.748697916666572  C 1.32921006944451 0.249565972222172  1.96723090277777 0  2.7115885416668 0  Z " fill-rule="nonzero" fill="#4167b2" stroke="none" transform="matrix(1 0 0 1 309 101 )" />
  </g>
</svg>