<?xml version="1.0" encoding="utf-8"?>
<svg version="1.1" xmlns:xlink="http://www.w3.org/1999/xlink" width="36px" height="34px" xmlns="http://www.w3.org/2000/svg">
  <g transform="matrix(1 0 0 1 -250 -258 )">
    <path d="M 18 32.4821428571429  C 18.2307692307692 32.4821428571429  18.3461538461539 32.3809523809524  18.3461538461539 32.1785714285714  C 18.3461538461539 31.9761904761905  18.2307692307692 31.875  18 31.875  C 17.1490384615385 31.875  16.4170673076923 31.606212797619  15.8040865384615 31.0686383928572  C 15.1911057692308 30.5310639880952  14.8846153846154 29.8891369047619  14.8846153846154 29.1428571428572  C 14.8846153846154 28.9404761904762  14.7692307692308 28.8392857142857  14.5384615384615 28.8392857142857  C 14.3076923076923 28.8392857142857  14.1923076923077 28.9404761904762  14.1923076923077 29.1428571428572  C 14.1923076923077 30.0662202380952  14.5637019230769 30.8536086309524  15.3064903846154 31.5050223214286  C 16.0492788461539 32.1564360119048  16.9471153846154 32.4821428571429  18 32.4821428571429  Z M 9.69230769230768 10.9285714285714  C 9.69230769230768 17.6577380952381  7.77403846153845 22.9196428571428  3.9375 26.7142857142857  L 32.0625 26.7142857142857  C 28.2259615384615 22.9196428571428  26.3076923076923 17.6577380952381  26.3076923076923 10.9285714285714  C 26.3076923076923 10.2834821428572  26.1346153846154 9.61941964285717  25.7884615384615 8.93638392857144  C 25.4423076923077 8.25334821428572  24.9447115384615 7.60193452380952  24.2956730769231 6.98214285714283  C 23.6466346153846 6.3623511904762  22.7704326923077 5.85323660714283  21.6670673076923 5.45479910714283  C 20.5637019230769 5.05636160714283  19.3413461538461 4.85714285714283  18 4.85714285714283  C 16.6586538461539 4.85714285714283  15.4362980769231 5.05636160714283  14.3329326923077 5.45479910714283  C 13.2295673076923 5.85323660714283  12.3533653846154 6.3623511904762  11.7043269230769 6.98214285714283  C 11.0552884615385 7.60193452380952  10.5576923076923 8.25334821428572  10.2115384615385 8.93638392857144  C 9.86538461538464 9.61941964285717  9.69230769230768 10.2834821428572  9.69230769230768 10.9285714285714  Z M 34.03125 25.0446428571428  C 34.6225961538462 25.6264880952381  35.2788461538461 26.1830357142857  36 26.7142857142857  C 36 27.3720238095238  35.7259615384615 27.9412202380952  35.1778846153846 28.421875  C 34.6298076923077 28.9025297619048  33.9807692307692 29.1428571428572  33.2307692307692 29.1428571428572  L 23.5384615384615 29.1428571428572  C 23.5384615384615 30.483630952381  22.9975961538461 31.6283482142857  21.9158653846154 32.5770089285714  C 20.8341346153846 33.5256696428571  19.5288461538461 34  18 34  C 16.4711538461539 34  15.1658653846154 33.5256696428571  14.0841346153846 32.5770089285714  C 13.0024038461539 31.6283482142857  12.4615384615385 30.483630952381  12.4615384615385 29.1428571428572  L 2.76923076923077 29.1428571428572  C 2.01923076923077 29.1428571428572  1.37019230769232 28.9025297619048  0.822115384615358 28.421875  C 0.274038461538453 27.9412202380952  0 27.3720238095238  0 26.7142857142857  C 0.721153846153868 26.1830357142857  1.37740384615387 25.6264880952381  1.96875 25.0446428571428  C 2.56009615384613 24.4627976190476  3.17307692307691 23.70703125  3.80769230769232 22.77734375  C 4.44230769230768 21.84765625  4.97956730769232 20.8452380952381  5.41947115384613 19.7700892857143  C 5.859375 18.6949404761905  6.21995192307691 17.3921130952381  6.50120192307691 15.8616071428572  C 6.78245192307691 14.3311011904762  6.92307692307691 12.686755952381  6.92307692307691 10.9285714285714  C 6.92307692307691 9.00595238095241  7.76682692307691 7.21930803571428  9.45432692307691 5.56863839285717  C 11.1418269230769 3.91796875  13.3557692307692 2.91555059523807  16.0961538461539 2.56138392857144  C 15.9807692307692 2.32105654761904  15.9230769230769 2.07440476190476  15.9230769230769 1.82142857142856  C 15.9230769230769 1.3154761904762  16.125 0.885416666666686  16.5288461538461 0.53125  C 16.9326923076923 0.177083333333314  17.4230769230769 0  18 0  C 18.5769230769231 0  19.0673076923077 0.177083333333314  19.4711538461539 0.53125  C 19.875 0.885416666666686  20.0769230769231 1.3154761904762  20.0769230769231 1.82142857142856  C 20.0769230769231 2.07440476190476  20.0192307692308 2.32105654761904  19.9038461538461 2.56138392857144  C 22.6442307692308 2.91555059523807  24.8581730769231 3.91796875  26.5456730769231 5.56863839285717  C 28.2331730769231 7.21930803571428  29.0769230769231 9.00595238095241  29.0769230769231 10.9285714285714  C 29.0769230769231 12.686755952381  29.2175480769231 14.3311011904762  29.4987980769231 15.8616071428572  C 29.7800480769231 17.3921130952381  30.140625 18.6949404761905  30.5805288461539 19.7700892857143  C 31.0204326923077 20.8452380952381  31.5576923076923 21.84765625  32.1923076923077 22.77734375  C 32.8269230769231 23.70703125  33.4399038461539 24.4627976190476  34.03125 25.0446428571428  Z " fill-rule="nonzero" fill="#3c5a98" stroke="none" transform="matrix(1 0 0 1 250 258 )" />
  </g>
</svg>