<?xml version="1.0" encoding="utf-8"?>
<svg version="1.1" xmlns:xlink="http://www.w3.org/1999/xlink" width="118px" height="77px" xmlns="http://www.w3.org/2000/svg">
  <g transform="matrix(1 0 0 1 -325 -207 )">
    <path d="M 325 207  L 443 207  L 443 284  L 325 284  L 325 207  " fill-rule="nonzero" fill="#cccccc" stroke="none" />
    <path d="M 330 212  L 438 212  L 438 279  L 330 279  L 330 212  " fill-rule="nonzero" fill="#ffffff" stroke="none" />
    <path d="M 392.135 230.1  C 388.901 230.1  386.36 227.559  386.36 224.325  C 386.36 221.091  388.901 218.55  392.135 218.55  C 395.369 218.55  397.91 221.091  397.91 224.325  C 397.91 227.559  395.369 230.1  392.135 230.1  " fill-rule="nonzero" fill="#cccccc" stroke="none" />
    <path d="M 332 277  L 332 242.35  L 358 226.6  L 394.4 252.333898305085  L 415.2 236.05  L 436 252.333898305085  L 436 277  L 332 277  " fill-rule="nonzero" fill="#169bd5" stroke="none" />
    <path d="M 325.5 283.5  L 325.5 207.5  L 442.5 207.5  L 442.5 283.5  L 325.5 283.5  Z " stroke-width="1" stroke="#797979" fill="none" />
  </g>
</svg>