<?xml version="1.0" encoding="utf-8"?>
<svg version="1.1" xmlns:xlink="http://www.w3.org/1999/xlink" width="32px" height="29px" xmlns="http://www.w3.org/2000/svg">
  <g transform="matrix(1 0 0 1 -19 -111 )">
    <path d="M 31.9318181818182 22.4708806818182  C 31.9772727272727 22.5669981060606  32 22.7111742424242  32 22.9034090909091  C 32 23.2741477272727  31.9242424242424 23.7581676136364  31.7727272727273 24.35546875  C 31.6212121212121 24.9527698863636  31.4621212121212 25.4230587121212  31.2954545454545 25.7663352272727  C 30.9772727272727 26.4528882575758  30.0530303030303 27.180634469697  28.5227272727273 27.9495738636364  C 27.0984848484849 28.6498579545454  25.6893939393939 29  24.2954545454545 29  C 23.8863636363636 29  23.4848484848485 28.9759706439394  23.0909090909091 28.9279119318182  C 22.6969696969697 28.879853219697  22.2613636363636 28.7940340909091  21.7840909090909 28.6704545454546  C 21.3068181818182 28.546875  20.9507575757576 28.4473248106061  20.7159090909091 28.3718039772727  C 20.4810606060606 28.2962831439394  20.0606060606061 28.1555397727273  19.4545454545455 27.9495738636364  C 18.8484848484849 27.7436079545454  18.4772727272727 27.6200284090909  18.3409090909091 27.5788352272727  C 16.8560606060606 27.0982481060606  15.530303030303 26.5284090909091  14.3636363636364 25.8693181818182  C 12.4393939393939 24.7845643939394  10.4393939393939 23.3016098484848  8.36363636363637 21.4204545454546  C 6.28787878787879 19.5392992424242  4.65151515151516 17.7267992424242  3.45454545454545 15.9829545454546  C 2.72727272727273 14.9256628787879  2.09848484848485 13.7241950757576  1.56818181818182 12.3785511363636  C 1.52272727272727 12.2549715909091  1.38636363636364 11.9185606060606  1.15909090909091 11.3693181818182  C 0.931818181818183 10.8200757575758  0.776515151515152 10.4390388257576  0.693181818181817 10.2262073863636  C 0.609848484848484 10.0133759469697  0.5 9.69069602272727  0.363636363636363 9.25816761363636  C 0.227272727272727 8.82563920454545  0.132575757575758 8.43087121212122  0.0795454545454568 8.07386363636364  C 0.0265151515151523 7.71685606060606  0 7.35298295454545  0 6.98224431818181  C 0 5.71898674242425  0.386363636363637 4.44199810606061  1.15909090909091 3.15127840909092  C 2.00757575757576 1.76444128787878  2.81060606060606 0.926846590909079  3.56818181818182 0.638494318181813  C 3.9469696969697 0.487452651515142  4.46590909090909 0.343276515151501  5.125 0.205965909090921  C 5.78409090909091 0.0686553030302974  6.31818181818182 0  6.72727272727273 0  C 6.93939393939394 0  7.09848484848485 0.0205965909090793  7.20454545454545 0.0617897727272663  C 7.47727272727273 0.14417613636364  7.87878787878788 0.665956439393938  8.40909090909091 1.62713068181819  C 8.57575757575757 1.88802083333333  8.8030303030303 2.25875946969697  9.09090909090909 2.73934659090908  C 9.37878787878788 3.2199337121212  9.64393939393939 3.65589488636364  9.88636363636363 4.04723011363636  C 10.1287878787879 4.43856534090908  10.3636363636364 4.8058712121212  10.5909090909091 5.14914772727273  C 10.6363636363636 5.20407196969697  10.7689393939394 5.37571022727273  10.9886363636364 5.6640625  C 11.2083333333333 5.95241477272727  11.3712121212121 6.19614109848486  11.4772727272727 6.39524147727273  C 11.5833333333333 6.59434185606061  11.6363636363636 6.79000946969697  11.6363636363636 6.98224431818181  C 11.6363636363636 7.25686553030303  11.4204545454545 7.60014204545455  10.9886363636364 8.01207386363636  C 10.5568181818182 8.42400568181819  10.0871212121212 8.80160984848486  9.57954545454545 9.14488636363636  C 9.0719696969697 9.48816287878788  8.60227272727273 9.8520359848485  8.17045454545455 10.2365056818182  C 7.73863636363637 10.6209753787879  7.52272727272727 10.9367897727273  7.52272727272727 11.1839488636364  C 7.52272727272727 11.3075284090909  7.56060606060606 11.4620028409091  7.63636363636363 11.6473721590909  C 7.71212121212121 11.8327414772727  7.77651515151516 11.9734848484848  7.82954545454545 12.0696022727273  C 7.88257575757576 12.1657196969697  7.98863636363637 12.3304924242424  8.14772727272727 12.5639204545454  C 8.30681818181818 12.7973484848485  8.39393939393939 12.9277935606061  8.40909090909091 12.9552556818182  C 9.56060606060606 14.8364109848485  10.8787878787879 16.4498106060606  12.3636363636364 17.7954545454546  C 13.8484848484848 19.1410984848485  15.6287878787879 20.3357007575758  17.7045454545455 21.3792613636364  C 17.7348484848485 21.3929924242424  17.8787878787879 21.4719460227273  18.1363636363636 21.6161221590909  C 18.3939393939394 21.7602982954546  18.5757575757576 21.856415719697  18.6818181818182 21.9044744318182  C 18.7878787878788 21.9525331439394  18.9431818181818 22.0108901515151  19.1477272727273 22.0795454545454  C 19.3522727272727 22.1482007575758  19.5227272727273 22.1825284090909  19.6590909090909 22.1825284090909  C 19.9318181818182 22.1825284090909  20.280303030303 21.9868607954546  20.7045454545455 21.5955255681818  C 21.1287878787879 21.2041903409091  21.530303030303 20.7785274621212  21.9090909090909 20.3185369318182  C 22.2878787878788 19.8585464015151  22.7045454545455 19.4328835227273  23.1590909090909 19.0415482954546  C 23.6136363636364 18.6502130681818  23.9924242424242 18.4545454545454  24.2954545454545 18.4545454545454  C 24.5075757575758 18.4545454545454  24.7234848484849 18.5026041666667  24.9431818181818 18.5987215909091  C 25.1628787878788 18.6948390151515  25.4318181818182 18.8424479166667  25.75 19.0415482954546  C 26.0681818181818 19.2406486742424  26.2575757575758 19.3607954545454  26.3181818181818 19.4019886363636  C 26.6969696969697 19.6079545454546  27.1022727272727 19.8207859848485  27.5340909090909 20.0404829545454  C 27.9659090909091 20.2601799242424  28.4469696969697 20.5004734848485  28.9772727272727 20.7613636363636  C 29.5075757575758 21.0222537878788  29.9166666666667 21.2282196969697  30.2045454545455 21.3792613636364  C 31.2651515151515 21.8598484848485  31.8409090909091 22.2237215909091  31.9318181818182 22.4708806818182  Z " fill-rule="nonzero" fill="#ffffff" stroke="none" transform="matrix(1 0 0 1 19 111 )" />
  </g>
</svg>