<?xml version="1.0" encoding="utf-8"?>
<svg version="1.1" xmlns:xlink="http://www.w3.org/1999/xlink" width="32px" height="29px" xmlns="http://www.w3.org/2000/svg">
  <g transform="matrix(1 0 0 1 -19 -156 )">
    <path d="M 29.5446428571429 26.16796875  C 29.6577380952381 26.0375236742424  29.7142857142857 25.8830492424242  29.7142857142857 25.7045454545455  L 29.7142857142857 9.88636363636363  C 29.3333333333333 10.3806818181818  28.9226190476191 10.8338068181818  28.4821428571429 11.2457386363636  C 25.2916666666667 14.0743371212121  22.7559523809524 16.3948863636364  20.875 18.2073863636364  C 20.2678571428571 18.797821969697  19.7738095238095 19.2578125  19.3928571428571 19.5873579545455  C 19.0119047619048 19.9169034090909  18.4970238095238 20.2498816287879  17.8482142857143 20.5862926136364  C 17.1994047619048 20.9227035984848  16.5892857142857 21.0909090909091  16.0178571428571 21.0909090909091  L 16 21.0909090909091  L 15.9821428571429 21.0909090909091  C 15.4107142857143 21.0909090909091  14.8005952380952 20.9227035984848  14.1517857142857 20.5862926136364  C 13.5029761904762 20.2498816287879  12.9880952380952 19.9169034090909  12.6071428571429 19.5873579545455  C 12.2261904761905 19.2578125  11.7321428571429 18.797821969697  11.125 18.2073863636364  C 9.24404761904762 16.3948863636364  6.70833333333334 14.0743371212121  3.51785714285714 11.2457386363636  C 3.07738095238095 10.8338068181818  2.66666666666667 10.3806818181818  2.28571428571428 9.88636363636363  L 2.28571428571428 25.7045454545455  C 2.28571428571428 25.8830492424242  2.34226190476191 26.0375236742424  2.45535714285714 26.16796875  C 2.56845238095238 26.2984138257576  2.70238095238095 26.3636363636364  2.85714285714286 26  L 29.1428571428571 26  C 29.2976190476191 26.3636363636364  29.4315476190476 26.2984138257576  29.5446428571429 26.16796875  Z M 28.8839285714286 6.76598011363637  C 29.4375 5.77047821969697  29.7142857142857 4.86766098484847  29.7142857142857 4.05752840909091  L 29.7142857142857 3.83096590909091  L 29.7142857142857 3.55291193181819  C 29.7142857142857 3.55291193181819  29.7113095238095 3.46366003787878  29.7053571428571 3.28515625  C 29.6994047619048 3.10665246212122  29.6815476190476 3.02083333333334  29.6517857142857 3.02769886363637  C 29.6220238095238 3.03456439393941  29.5892857142857 2.97277462121212  29.5535714285714 2.84232954545453  C 29.5178571428571 2.71188446969697  29.4642857142857 2.66039299242425  29.3928571428571 2.68785511363637  C 29.3214285714286 2.71531723484847  29.2380952380952 2.69815340909091  29.1428571428571 3  L 2.85714285714286 3  C 2.70238095238095 2.63636363636363  2.56845238095238 2.70158617424241  2.45535714285714 2.83203125  C 2.34226190476191 2.96247632575756  2.28571428571428 3.11695075757575  2.28571428571428 3.29545454545453  C 2.28571428571428 5.60227272727272  3.16071428571428 7.55208333333334  4.91071428571428 9.14488636363637  C 7.20833333333334 11.2320075757576  9.59523809523809 13.4083806818182  12.0714285714286 15.6740056818182  C 12.1428571428571 15.7426609848485  12.3511904761905 15.9451941287879  12.6964285714286 16.2816051136364  C 13.0416666666667 16.6180160984848  13.3154761904762 16.8754734848485  13.5178571428571 17.0539772727273  C 13.7202380952381 17.2324810606061  13.9851190476191 17.4487452651515  14.3125 17.7027698863636  C 14.6398809523809 17.9567945075758  14.9404761904762 18.1455965909091  15.2142857142857 18.2691761363636  C 15.4880952380952 18.3927556818182  15.7440476190476 18.4545454545455  15.9821428571429 18.4545454545455  L 16 18.4545454545455  L 16.0178571428571 18.4545454545455  C 16.2559523809524 18.4545454545455  16.5119047619048 18.3927556818182  16.7857142857143 18.2691761363636  C 17.0595238095238 18.1455965909091  17.3601190476191 17.9567945075758  17.6875 17.7027698863636  C 18.0148809523809 17.4487452651515  18.2797619047619 17.2324810606061  18.4821428571429 17.0539772727273  C 18.6845238095238 16.8754734848485  18.9583333333333 16.6180160984848  19.3035714285714 16.2816051136364  C 19.6488095238095 15.9451941287879  19.8571428571429 15.7426609848485  19.9285714285714 15.6740056818182  C 22.4047619047619 13.4083806818182  24.7916666666667 11.2320075757576  27.0892857142857 9.14488636363637  C 27.7321428571429 8.55445075757575  28.3303571428571 7.76148200757575  28.8839285714286 6.76598011363637  Z M 31.1607142857143 0.96803977272728  C 31.7202380952381 1.61339962121212  32 2.38920454545453  32 3.29545454545453  L 32 25.7045454545455  C 32 26.6107954545454  31.7202380952381 27.3866003787879  31.1607142857143 28.0319602272727  C 30.6011904761905 28.6773200757576  29.9285714285714 29  29.1428571428571 29  L 2.85714285714286 29  C 2.07142857142857 29  1.39880952380953 28.6773200757576  0.839285714285715 28.0319602272727  C 0.279761904761905 27.3866003787879  0 26.6107954545454  0 25.7045454545455  L 0 3.29545454545453  C 0 2.38920454545453  0.279761904761905 1.61339962121212  0.839285714285715 0.96803977272728  C 1.39880952380953 0.322679924242408  2.07142857142857 0  2.85714285714286 0  L 29.1428571428571 0  C 29.9285714285714 0  30.6011904761905 0.322679924242408  31.1607142857143 0.96803977272728  Z " fill-rule="nonzero" fill="#ffffff" stroke="none" transform="matrix(1 0 0 1 19 156 )" />
  </g>
</svg>