<?xml version="1.0" encoding="utf-8"?>
<svg version="1.1" xmlns:xlink="http://www.w3.org/1999/xlink" width="32px" height="29px" xmlns="http://www.w3.org/2000/svg">
  <g transform="matrix(1 0 0 1 -19 -199 )">
    <path d="M 18.1458333333333 19.8053385416667  C 18.2708333333333 19.9186197916667  18.3333333333333 20.0633680555555  18.3333333333333 20.2395833333333  L 18.3333333333333 23.2604166666667  C 18.3333333333333 23.4366319444445  18.2708333333333 23.5813802083333  18.1458333333333 23.6946614583333  C 18.0208333333333 23.8079427083333  17.8611111111111 23.8645833333333  17.6666666666667 23.8645833333333  L 14.3333333333333 23.8645833333333  C 14.1388888888889 23.8645833333333  13.9791666666667 23.8079427083333  13.8541666666667 23.6946614583333  C 13.7291666666667 23.5813802083333  13.6666666666667 23.4366319444445  13.6666666666667 23.2604166666667  L 13.6666666666667 20.2395833333333  C 13.6666666666667 20.0633680555555  13.7291666666667 19.9186197916667  13.8541666666667 19.8053385416667  C 13.9791666666667 19.6920572916667  14.1388888888889 19.6354166666667  14.3333333333333 19.6354166666667  L 17.6666666666667 19.6354166666667  C 17.8611111111111 19.6354166666667  18.0208333333333 19.6920572916667  18.1458333333333 19.8053385416667  Z M 21.3854166666667 6.8251953125  C 22.90625 7.95171440972223  23.6666666666667 9.30164930555554  23.6666666666667 10.875  C 23.6666666666667 11.5043402777778  23.5625 12.0707465277778  23.3541666666667 12.57421875  C 23.1458333333333 13.0776909722222  22.8298611111111 13.5119357638889  22.40625 13.876953125  C 21.9826388888889 14.2419704861111  21.6215277777778 14.5188802083333  21.3229166666667 14.7076822916667  C 21.0243055555556 14.896484375  20.6111111111111 15.123046875  20.0833333333333 15.3873697916667  C 19.6388888888889 15.6139322916667  19.3159722222222 15.7901475694444  19.1145833333333 15.916015625  C 18.9131944444444 16.0418836805555  18.7326388888889 16.1929253472222  18.5729166666667 16.369140625  C 18.4131944444444 16.5453559027778  18.3333333333333 16.7278645833333  18.3333333333333 16.9166666666667  L 18.3333333333333 17.5208333333333  C 18.3333333333333 17.6970486111111  18.2708333333333 17.841796875  18.1458333333333 17.955078125  C 18.0208333333333 18.068359375  17.8611111111111 18.125  17.6666666666667 18.125  L 14.3333333333333 18.125  C 14.1388888888889 18.125  13.9791666666667 18.068359375  13.8541666666667 17.955078125  C 13.7291666666667 17.841796875  13.6666666666667 17.6970486111111  13.6666666666667 17.5208333333333  L 13.6666666666667 16.2369791666667  C 13.6666666666667 15.7964409722222  13.7395833333333 15.3905164930555  13.8854166666667 15.0192057291667  C 14.03125 14.6478949652778  14.1979166666667 14.3489583333333  14.3854166666667 14.1223958333333  C 14.5729166666667 13.8958333333333  14.84375 13.6724175347222  15.1979166666667 13.4521484375  C 15.5520833333333 13.2318793402778  15.8368055555556 13.0713975694445  16.0520833333333 12.970703125  C 16.2673611111111 12.8700086805555  16.5763888888889 12.7378472222222  16.9791666666667 12.57421875  C 17.7152777777778 12.2595486111111  18.2361111111111 11.9889322916667  18.5416666666667 11.7623697916667  C 18.8472222222222 11.5358072916667  19 11.2274305555555  19 10.8372395833333  C 19 10.30859375  18.6979166666667 9.85861545138889  18.09375 9.4873046875  C 17.4895833333333 9.11599392361111  16.8263888888889 8.93033854166666  16.1041666666667 8.93033854166666  C 15.3263888888889 8.93033854166666  14.6666666666667 9.10026041666666  14.125 9.44010416666666  C 13.7222222222222 9.69184027777777  13.1666666666667 10.2141927083333  12.4583333333333 11.0071614583333  C 12.3333333333333 11.158203125  12.1597222222222 11.2337239583333  11.9375 11.2337239583333  C 11.7847222222222 11.2337239583333  11.6527777777778 11.1959635416667  11.5416666666667 11.1204427083333  L 9.29166666666666 9.572265625  C 9.15277777777778 9.48415798611111  9.06944444444444 9.35828993055554  9.04166666666666 9.19466145833334  C 9.01388888888889 9.03103298611111  9.04861111111111 8.88628472222223  9.14583333333334 8.76041666666666  C 10.8402777777778 6.34375  13.2638888888889 5.13541666666666  16.4166666666667 5.13541666666666  C 18.2083333333333 5.13541666666666  19.8645833333333 5.69867621527777  21.3854166666667 6.8251953125  Z M 21.1770833333333 3.37955729166666  C 19.53125 2.73763020833334  17.8055555555556 2.41666666666666  16 2.41666666666666  C 14.1944444444444 2.41666666666666  12.46875 2.73763020833334  10.8229166666667 3.37955729166666  C 9.17708333333334 4.021484375  7.76041666666667 4.88053385416666  6.57291666666667 5.95670572916666  C 5.38541666666667 7.03287760416666  4.4375 8.31673177083334  3.72916666666666 9.80826822916666  C 3.02083333333334 11.2998046875  2.66666666666666 12.8637152777778  2.66666666666666 14.5  C 2.66666666666666 16.1362847222222  3.02083333333334 17.7001953125  3.72916666666666 19.1917317708333  C 4.4375 20.6832682291667  5.38541666666667 21.9671223958333  6.57291666666667 23.0432942708333  C 7.76041666666667 24.1194661458333  9.17708333333334 24.978515625  10.8229166666667 25.6204427083333  C 12.46875 26.2623697916667  14.1944444444444 26.5833333333333  16 26.5833333333333  C 17.8055555555556 26.5833333333333  19.53125 26.2623697916667  21.1770833333333 25.6204427083333  C 22.8229166666667 24.978515625  24.2395833333333 24.1194661458333  25.4270833333333 23.0432942708333  C 26.6145833333333 21.9671223958333  27.5625 20.6832682291667  28.2708333333333 19.1917317708333  C 28.9791666666667 17.7001953125  29.3333333333333 16.1362847222222  29.3333333333333 14.5  C 29.3333333333333 12.8637152777778  28.9791666666667 11.2998046875  28.2708333333333 9.80826822916666  C 27.5625 8.31673177083334  26.6145833333333 7.03287760416666  25.4270833333333 5.95670572916666  C 24.2395833333333 4.88053385416666  22.8229166666667 4.021484375  21.1770833333333 3.37955729166666  Z M 29.8541666666667 7.2216796875  C 31.2847222222222 9.44325086805554  32 11.8693576388889  32 14.5  C 32 17.1306423611111  31.2847222222222 19.5567491319444  29.8541666666667 21.7783203125  C 28.4236111111111 23.9998914930555  26.4826388888889 25.7588975694445  24.03125 27.0553385416667  C 21.5798611111111 28.3517795138889  18.9027777777778 29  16 29  C 13.0972222222222 29  10.4201388888889 28.3517795138889  7.96875 27.0553385416667  C 5.51736111111111 25.7588975694445  3.57638888888889 23.9998914930555  2.14583333333333 21.7783203125  C 0.715277777777779 19.5567491319444  0 17.1306423611111  0 14.5  C 0 11.8693576388889  0.715277777777779 9.44325086805554  2.14583333333333 7.2216796875  C 3.57638888888889 5.00010850694446  5.51736111111111 3.24110243055554  7.96875 1.94466145833334  C 10.4201388888889 0.648220486111114  13.0972222222222 0  16 0  C 18.9027777777778 0  21.5798611111111 0.648220486111114  24.03125 1.94466145833334  C 26.4826388888889 3.24110243055554  28.4236111111111 5.00010850694446  29.8541666666667 7.2216796875  Z " fill-rule="nonzero" fill="#ffffff" stroke="none" transform="matrix(1 0 0 1 19 199 )" />
  </g>
</svg>