<?xml version="1.0" encoding="utf-8"?>
<svg version="1.1" xmlns:xlink="http://www.w3.org/1999/xlink" width="20px" height="20px" xmlns="http://www.w3.org/2000/svg">
  <g transform="matrix(1 0 0 1 -556 -108 )">
    <path d="M 19.9787083037616 0.759943181818187  C 20.0118287201325 0.954071969696969  19.9810740477881 1.14109848484847  19.8864442867282 1.32102272727272  L 10.8019872249822 19.5028409090909  C 10.6411166311805 19.8342803030303  10.37142181216 20  9.99290276792055 20  C 9.94558788739062 20  9.87461556659571 19.9905303030303  9.77998580553583 19.9715909090909  C 9.57180033120414 19.9242424242424  9.40383250532295 19.8177083333333  9.27608232789214 19.6519886363636  C 9.14833215046133 19.4862689393939  9.08445706174587 19.2992424242424  9.08445706174587 19.0909090909091  L 9.08445706174587 10.9090909090909  L 0.908445706174575 10.9090909090909  C 0.70026023184289 10.9090909090909  0.513366453749654 10.8451704545454  0.347764371894982 10.7173295454546  C 0.182162290040196 10.5894886363636  0.0757038088478339 10.4214015151515  0.0283889283180088 10.2130681818182  C -0.0189259522119301 10.0047348484848  0 9.80587121212122  0.0851667849539126 9.61647727272728  C 0.170333569907712 9.42708333333334  0.307546723444489 9.28503787878788  0.496806245564244 9.19034090909091  L 18.6657203690561 0.099431818181813  C 18.7887390584339 0.0331439393939377  18.9259522119706 0  19.0773598296664 0  C 19.332860184528 0  19.5457771469127 0.0899621212121247  19.7161107168205 0.269886363636374  C 19.8580553584102 0.402462121212125  19.9455878873906 0.565814393939405  19.9787083037616 0.759943181818187  Z " fill-rule="nonzero" fill="#000000" stroke="none" transform="matrix(1 0 0 1 556 108 )" />
  </g>
</svg>