<?xml version="1.0" encoding="utf-8"?>
<svg version="1.1" xmlns:xlink="http://www.w3.org/1999/xlink" width="20px" height="18px" xmlns="http://www.w3.org/2000/svg">
  <g transform="matrix(1 0 0 1 -556 -182 )">
    <path d="M 19.62890625 0.59375  C 19.8763020833334 0.989583333333343  20 1.45833333333331  20 2  C 20 2.54166666666666  19.8763020833334 3.01041666666666  19.62890625 3.40625  L 10.87890625 17.40625  C 10.6315104166666 17.8020833333333  10.3385416666666 18  10 18  C 9.66145833333337 18  9.36848958333337 17.8020833333333  9.12109375 17.40625  L 0.37109375 3.40625  C 0.123697916666629 3.01041666666666  0 2.54166666666666  0 2  C 0 1.45833333333331  0.123697916666629 0.989583333333343  0.37109375 0.59375  C 0.618489583333371 0.197916666666657  0.911458333333371 0  1.25 0  L 18.75 0  C 19.0885416666666 0  19.3815104166666 0.197916666666657  19.62890625 0.59375  Z " fill-rule="nonzero" fill="#000000" stroke="none" transform="matrix(1 0 0 1 556 182 )" />
  </g>
</svg>