<?xml version="1.0" encoding="utf-8"?>
<svg version="1.1" xmlns:xlink="http://www.w3.org/1999/xlink" width="24px" height="24px" xmlns="http://www.w3.org/2000/svg">
  <g transform="matrix(1 0 0 1 -575 -56 )">
    <path d="M 9.76530612244903 21.946875  C 9.75510204081638 22.015625  9.76530612244903 22.1  9.79591836734699 22.2  C 9.79591836734699 22.25  9.80102040816325 22.375  9.8112244897959 22.575  C 9.82142857142856 22.775  9.82397959183675 22.940625  9.81887755102048 23.071875  C 9.8137755102041 23.203125  9.79846938775506 23.35  9.77295918367349 23.5125  C 9.74744897959181 23.675  9.69642857142856 23.796875  9.61989795918373 23.878125  C 9.54336734693879 23.959375  9.4387755102041 24  9.30612244897952 24  L 4.40816326530603 24  C 3.19387755102036 24  2.15561224489795 23.471875  1.29336734693879 22.415625  C 0.431122448979636 21.359375  0 20.0875  0 18.6  L 0 5.4  C 0 3.91249999999999  0.431122448979636 2.640625  1.29336734693879 1.584375  C 2.15561224489795 0.528124999999996  3.19387755102036 0  4.40816326530603 0  L 9.30612244897952 0  C 9.4387755102041 0  9.55357142857144 0.0593749999999957  9.65051020408168 0.178125000000001  C 9.74744897959181 0.296875  9.79591836734699 0.4375  9.79591836734699 0.600000000000001  C 9.79591836734699 0.649999999999999  9.80102040816325 0.774999999999999  9.8112244897959 0.975000000000001  C 9.82142857142856 1.175  9.82397959183675 1.340625  9.81887755102048 1.471875  C 9.8137755102041 1.603125  9.79846938775506 1.75  9.77295918367349 1.9125  C 9.74744897959181 2.075  9.69642857142856 2.196875  9.61989795918373 2.278125  C 9.54336734693879 2.359375  9.4387755102041 2.4  9.30612244897952 2.4  L 4.40816326530603 2.4  C 3.73469387755097 2.4  3.15816326530614 2.69374999999999  2.67857142857144 3.28125  C 2.19897959183675 3.86875  1.9591836734694 4.575  2 5.4  L 2 18.6  C 1.9591836734694 19.425  2.19897959183675 20.13125  2.67857142857144 20.71875  C 3.15816326530614 21.30625  3.73469387755097 21.6  4.40816326530603 21.6  L 8.81632653061229 21.6  L 8.98469387755097 21.6  L 9.18367346938771 21.6  C 9.18367346938771 21.6  9.24234693877543 21.60625  9.35969387755097 21.61875  C 9.47704081632651 21.63125  9.53571428571422 21.65  9.53571428571422 21.675  C 9.53571428571422 21.7  9.57653061224482 21.734375  9.65816326530603 21.778125  C 9.73979591836735 21.821875  9.77551020408157 21.878125  9.76530612244903 21.946875  Z M 23.7091836734694 11.15625  C 23.9030612244898 11.39375  24 11.675  24 12  C 24 12.325  23.9030612244898 12.60625  23.7091836734694 12.84375  L 15.3826530612245 23.04375  C 15.1887755102041 23.28125  14.9591836734694 23.4  14.6938775510205 23.4  C 14.4285714285714 23.4  14.1989795918367 23.28125  14.0051020408163 23.04375  C 13.8112244897959 22.80625  13.7142857142858 22.525  13.7142857142858 22.2  L 13.7142857142858 16.8  L 6.85714285714278 16.8  C 6.59183673469386 16.8  6.36224489795916 16.68125  6.16836734693879 16.44375  C 5.97448979591843 16.20625  5.87755102040819 15.925  5.87755102040819 15.6  L 5.87755102040819 8.4  C 5.87755102040819 8.075  5.97448979591843 7.79375  6.16836734693879 7.55625  C 6.36224489795916 7.31874999999999  6.59183673469386 7.2  6.85714285714278 7.2  L 13.7142857142858 7.2  L 13.7142857142858 1.8  C 13.7142857142858 1.47499999999999  13.8112244897959 1.19374999999999  14.0051020408163 0.956249999999997  C 14.1989795918367 0.71875  14.4285714285714 0.600000000000001  14.6938775510205 0.600000000000001  C 14.9591836734694 0.600000000000001  15.1887755102041 0.71875  15.3826530612245 0.956249999999997  L 23.7091836734694 11.15625  Z " fill-rule="nonzero" fill="#ffcc33" stroke="none" transform="matrix(1 0 0 1 575 56 )" />
  </g>
</svg>