<?xml version="1.0" encoding="utf-8"?>
<svg version="1.1" xmlns:xlink="http://www.w3.org/1999/xlink" width="23px" height="20px" xmlns="http://www.w3.org/2000/svg">
  <g transform="matrix(1 0 0 1 -355 -203 )">
    <path d="M 0 4.28571428571429  L 11.5 0  L 23 4.28571428571429  L 23 5.71428571428571  L 21.4666666666666 5.71428571428571  C 21.4666666666666 5.90773809523806  21.3848090277778 6.0751488095238  21.22109375 6.21651785714288  C 21.0573784722223 6.35788690476191  20.8637152777777 6.42857142857142  20.6401041666667 6.42857142857142  L 2.35989583333333 6.42857142857142  C 2.13628472222229 6.42857142857142  1.94262152777776 6.35788690476191  1.77890625000003 6.21651785714288  C 1.61519097222219 6.0751488095238  1.53333333333336 5.90773809523806  1.53333333333336 5.71428571428571  L 0 5.71428571428571  L 0 4.28571428571429  Z M 3.06666666666672 15.7142857142857  L 3.06666666666672 7.14285714285712  L 6.13333333333333 7.14285714285712  L 6.13333333333333 15.7142857142857  L 7.66666666666669 15.7142857142857  L 7.66666666666669 7.14285714285712  L 10.7333333333333 7.14285714285712  L 10.7333333333333 15.7142857142857  L 12.2666666666667 15.7142857142857  L 12.2666666666667 7.14285714285712  L 15.3333333333333 7.14285714285712  L 15.3333333333333 15.7142857142857  L 16.8666666666667 15.7142857142857  L 16.8666666666667 7.14285714285712  L 19.9333333333333 7.14285714285712  L 19.9333333333333 15.7142857142857  L 20.6401041666667 15.7142857142857  C 20.8637152777777 15.7142857142857  21.0573784722223 15.7849702380953  21.22109375 15.9263392857143  C 21.3848090277778 16.0677083333333  21.4666666666666 16.2351190476191  21.4666666666666 16.4285714285714  L 21.4666666666666 17  L 1.53333333333336 17  L 1.53333333333336 16.4285714285714  C 1.53333333333336 16.2351190476191  1.61519097222219 16.0677083333333  1.77890625000003 15.9263392857143  C 1.94262152777776 15.7849702380953  2.13628472222229 15.7142857142857  2.35989583333333 15.7142857142857  L 3.06666666666672 15.7142857142857  Z M 0.826562499999966 17.8571428571429  L 22.1734375 17.8571428571429  C 22.3970486111111 17.8571428571429  22.5907118055556 17.9278273809524  22.7544270833333 18.0691964285714  C 22.9181423611112 18.2105654761905  23 18.3779761904762  23 18.5714285714286  L 23 20  L 0 20  L 0 18.5714285714286  C 0 18.3779761904762  0.0818576388888346 18.2105654761905  0.245572916666674 18.0691964285714  C 0.4092881944444 17.9278273809524  0.602951388888869 17.8571428571429  0.826562499999966 17.8571428571429  Z " fill-rule="nonzero" fill="#666666" stroke="none" transform="matrix(1 0 0 1 355 203 )" />
  </g>
</svg>