<?xml version="1.0" encoding="utf-8"?>
<svg version="1.1" xmlns:xlink="http://www.w3.org/1999/xlink" width="19px" height="22px" xmlns="http://www.w3.org/2000/svg">
  <g transform="matrix(1 0 0 1 -357 -132 )">
    <path d="M 18.7591727818546 5.73325892857142  C 18.9197242606182 5.88876488095239  19 6.07291666666666  19 6.28571428571429  L 19 16.5859375  C 19 16.9787946428571  18.7929730931732 17.2325148809524  18.3789192795197 17.3470982142857  C 16.9086057371581 17.7726934523809  15.4805425839448 17.9854910714286  14.0947298198799 17.9854910714286  C 13.4778741383144 17.9854910714286  12.5673782521681 17.8647693452381  11.363242161441 17.6233258928571  C 10.1591060707138 17.3818824404762  9.19790971758948 17.2611607142857  8.47965310206803 17.2611607142857  C 7.09384033800308 17.2611607142857  5.53057593951525 17.4575892857143  3.78985990660442 17.8504464285714  L 3.78985990660442 22  L 2 22  L 2 5.20535714285713  C 1.22948632421617 5.00074404761906  0.802757393818126 4.66927083333332  0.481654436290853 4.2109375  C 0.160551478763637 3.75260416666668  0 3.2451636904762  0 2.68861607142858  C 0 1.94382440476191  0.270402490549259 1.3095238095238  0.811207471647776 0.785714285714292  C 1.35201245274635 0.261904761904752  2.00689348454523 0  2.7758505670447 0  C 3.54480764954411 0  4.19968868134305 0.261904761904752  4.74049366244162 0.785714285714292  C 5.28129864354014 1.3095238095238  5.5517011340894 1.94382440476191  5.5517011340894 2.68861607142858  C 5.5517011340894 3.2451636904762  5.39114965532576 3.75260416666668  5.07004669779854 4.2109375  C 4.74894374027127 4.66927083333332  4.32221480987323 5.00074404761906  3.78985990660442 5.20535714285713  L 3.78985990660442 6.04017857142858  C 5.39537469424062 5.68005952380952  6.84456304202797 5.5  8.1374249499666 5.5  C 8.97398265510338 5.5  9.81054036024022 5.56138392857142  10.647098065377 5.68415178571429  C 10.7653991549922 5.70052083333332  11.236490993996 5.79259672619048  12.0603735823883 5.96037946428571  C 12.8842561707806 6.12816220238094  13.515899488548 6.21205357142858  13.9553035356905 6.21205357142858  C 14.6059595285746 6.21205357142858  15.3030909495218 6.13839285714287  16.0466977985323 5.99107142857142  C 16.1396486546587 5.97470238095239  16.4776517678452 5.88876488095239  17.0607071380921 5.73325892857142  C 17.6437625083389 5.57775297619048  18.0197909717589 5.5  18.1887925283522 5.5  C 18.4084945519235 5.5  18.5986213030909 5.57775297619048  18.7591727818546 5.73325892857142  Z " fill-rule="nonzero" fill="#666666" stroke="none" transform="matrix(1 0 0 1 357 132 )" />
  </g>
</svg>