<?xml version="1.0" encoding="utf-8"?>
<svg version="1.1" xmlns:xlink="http://www.w3.org/1999/xlink" width="25px" height="23px" xmlns="http://www.w3.org/2000/svg">
  <g transform="matrix(1 0 0 1 -571 -96 )">
    <path d="M 6.25 15  L 6.25 21  L 18.75 21  L 18.75 15  L 6.25 15  Z M 20.8333333333334 14.8541666666667  L 20.8333333333334 21.0833333333333  L 23 21.0833333333333  L 23 7.66666666666667  C 22.9166666666666 7.52690972222222  22.8624131944445 7.33474392361111  22.75390625 7.09016927083333  C 22.6453993055555 6.84559461805555  22.5368923611111 6.67339409722222  22.4283854166666 6.57356770833333  L 17.8548177083334 2.36588541666667  C 17.7463107638889 2.26605902777778  17.5618489583334 2.16623263888889  17.3014322916666 2.06640625  C 17.041015625 1.96657986111111  16.8294270833334 1.91666666666667  16.6666666666666 1.91666666666667  L 16.6666666666666 8.14583333333333  C 16.6666666666666 8.54513888888889  16.5147569444445 8.88454861111111  16.2109375 9.1640625  C 15.9071180555555 9.44357638888889  15.5381944444445 9.58333333333333  15.1041666666666 9.58333333333333  L 5.72916666666663 9.58333333333333  C 5.29513888888891 9.58333333333333  4.92621527777777 9.44357638888889  4.62239583333337 9.1640625  C 4.31857638888891 8.88454861111111  4.16666666666663 8.54513888888889  4.16666666666663 8.14583333333333  L 4.16666666666663 1.91666666666667  L 2 1.91666666666667  L 2 21.0833333333333  L 4.16666666666663 21.0833333333333  L 4.16666666666663 14.8541666666667  C 4.16666666666663 14.4548611111111  4.31857638888891 14.1154513888889  4.62239583333337 13.8359375  C 4.92621527777777 13.5564236111111  5.29513888888891 13.4166666666667  5.72916666666663 13  L 19.2708333333334 13  C 19.7048611111111 13.4166666666667  20.0737847222222 13.5564236111111  20.3776041666666 13.8359375  C 20.6814236111111 14.1154513888889  20.8333333333334 14.4548611111111  20.8333333333334 14.8541666666667  Z M 14.4287109375 7.5244140625  C 14.5317925347222 7.42957899305555  14.5833333333334 7.31727430555555  14.5833333333334 7.1875  L 14.5833333333334 2.39583333333333  C 14.5833333333334 2.26605902777778  14.5317925347222 2.15375434027778  14.4287109375 2.05891927083333  C 14.3256293402778 1.96408420138889  14.2035590277778 1.91666666666667  14.0625 1.91666666666667  L 10.9375 1.91666666666667  C 10.7964409722222 1.91666666666667  10.6743706597222 1.96408420138889  10.5712890625 2.05891927083333  C 10.4682074652778 2.15375434027778  10.4166666666666 2.26605902777778  10.4166666666666 2.39583333333333  L 10.4166666666666 7.1875  C 10.4166666666666 7.31727430555555  10.4682074652778 7.42957899305555  10.5712890625 7.5244140625  C 10.6743706597222 7.61924913194444  10.7964409722222 7.66666666666667  10.9375 7.66666666666667  L 14.0625 7.66666666666667  C 14.2035590277778 7.66666666666667  14.3256293402778 7.61924913194444  14.4287109375 7.5244140625  Z M 24.6744791666666 6.34895833333333  C 24.8914930555555 6.828125  25 7.26736111111111  25 7.66666666666667  L 25 21.5625  C 25 21.9618055555556  24.8480902777778 22.3012152777778  24.5442708333334 22.5807291666667  C 24.2404513888889 22.8602430555556  23.8715277777778 23  23.4375 23  L 1.5625 23  C 1.12847222222223 23  0.759548611111086 22.8602430555556  0.455729166666629 22.5807291666667  C 0.151909722222229 22.3012152777778  0 21.9618055555556  0 21.5625  L 0 1.4375  C 0 1.03819444444444  0.151909722222229 0.69878472222222  0.455729166666629 0.419270833333332  C 0.759548611111086 0.139756944444443  1.12847222222223 0  1.5625 0  L 16.6666666666666 0  C 17.1006944444445 0  17.578125 0.0998263888888857  18.0989583333334 0.299479166666668  C 18.6197916666666 0.499131944444443  19.0321180555555 0.738715277777775  19.3359375 1.01822916666667  L 23.8932291666666 5.2109375  C 24.1970486111111 5.49045138888889  24.4574652777778 5.86979166666667  24.6744791666666 6.34895833333333  Z " fill-rule="nonzero" fill="#000000" stroke="none" transform="matrix(1 0 0 1 571 96 )" />
  </g>
</svg>