<?xml version="1.0" encoding="utf-8"?>
<svg version="1.1" xmlns:xlink="http://www.w3.org/1999/xlink" width="27px" height="17px" xmlns="http://www.w3.org/2000/svg">
  <g transform="matrix(1 0 0 1 -355 -241 )">
    <path d="M 10.8 10.625  L 10.8 11.9  L 16.2 11.9  L 16.2 10.625  L 14.4 10.625  L 14.4 4.67500000000001  L 12.796875 4.67500000000001  L 10.715625 6.49453124999999  L 11.7984375 7.55703124999999  C 12.1921875 7.22942708333335  12.45 6.97708333333335  12.571875 6.80000000000001  L 12.6 6.80000000000001  L 12.6 10.625  L 10.8 10.625  Z M 17.7046875 6.61406249999999  C 17.9015625 7.25156250000001  18 7.88020833333334  18 8.5  C 18 9.11979166666666  17.9015625 9.74843749999999  17.7046875 10.3859375  C 17.5078125 11.0234375  17.22890625 11.6166666666666  16.86796875 12.165625  C 16.50703125 12.7145833333334  16.03125 13.16171875  15.440625 13.50703125  C 14.85 13.85234375  14.203125 14.025  13.5 14.025  C 12.796875 14.025  12.15 13.85234375  11.559375 13.50703125  C 10.96875 13.16171875  10.49296875 12.7145833333334  10.1320312500001 12.165625  C 9.77109374999998 11.6166666666666  9.4921875 11.0234375  9.29531249999997 10.3859375  C 9.09843750000005 9.74843749999999  9 9.11979166666666  9 8.5  C 9 7.88020833333334  9.09843750000005 7.25156250000001  9.29531249999997 6.61406249999999  C 9.4921875 5.9765625  9.77109374999998 5.38333333333335  10.1320312500001 4.83437499999999  C 10.49296875 4.28541666666669  10.96875 3.83828124999999  11.559375 3.49296874999999  C 12.15 3.14765625000001  12.796875 2.97499999999999  13.5 2.97499999999999  C 14.203125 2.97499999999999  14.85 3.14765625000001  15.440625 3.49296874999999  C 16.03125 3.83828124999999  16.50703125 4.28541666666669  16.86796875 4.83437499999999  C 17.22890625 5.38333333333335  17.5078125 5.9765625  17.7046875 6.61406249999999  Z M 22.6546875 12.89609375  C 23.3578125 12.23203125  24.20625 11.9  25.2 11.9  L 25.2 5.09999999999999  C 24.20625 5.09999999999999  23.3578125 4.76796874999999  22.6546875 4.10390624999999  C 21.9515625 3.43984374999999  21.6 2.63854166666667  21.6 2  L 5.40000000000003 2  C 5.40000000000003 2.63854166666667  5.04843750000003 3.43984374999999  4.34531250000003 4.10390624999999  C 3.64218749999998 4.76796874999999  2.79375000000005 5.09999999999999  1.80000000000007 5.09999999999999  L 1.80000000000007 11.9  C 2.79375000000005 11.9  3.64218749999998 12.23203125  4.34531250000003 12.89609375  C 5.04843750000003 13.56015625  5.40000000000003 14.3614583333333  5.40000000000003 15  L 21.6 15  C 21.6 14.3614583333333  21.9515625 13.56015625  22.6546875 12.89609375  Z M 26.7328125 0.252343749999994  C 26.9109375 0.420572916666686  27 0.619791666666686  27 0.849999999999994  L 27 16.15  C 27 16.3802083333333  26.9109375 16.5794270833333  26.7328125 16.74765625  C 26.5546875 16.9158854166667  26.34375 17  26.1 17  L 0.899999999999977 17  C 0.65625 17  0.4453125 16.9158854166667  0.267187499999977 16.74765625  C 0.0890625000000114 16.5794270833333  0 16.3802083333333  0 16.15  L 0 0.849999999999994  C 0 0.619791666666686  0.0890625000000114 0.420572916666686  0.267187499999977 0.252343749999994  C 0.4453125 0.0841145833333314  0.65625 0  0.899999999999977 0  L 26.1 0  C 26.34375 0  26.5546875 0.0841145833333314  26.7328125 0.252343749999994  Z " fill-rule="nonzero" fill="#666666" stroke="none" transform="matrix(1 0 0 1 355 241 )" />
  </g>
</svg>