<?xml version="1.0" encoding="utf-8"?>
<svg version="1.1" xmlns:xlink="http://www.w3.org/1999/xlink" width="23px" height="21px" xmlns="http://www.w3.org/2000/svg">
  <g transform="matrix(1 0 0 1 -352 -312 )">
    <path d="M 14.2530691964286 7.81054687499997  C 14.591052827381 8.119140625  14.7600446428571 8.4921875  14.7600446428571 8.9296875  C 14.7600446428571 9.36718749999997  14.591052827381 9.73828124999997  14.2530691964286 10.04296875  C 13.9150855654762 10.34765625  13.5065104166667 10.5  13.02734375 10.5  L 9.78013392857142 10.5  L 9.78013392857142 7.34765625  L 13.02734375 7.34765625  C 13.5065104166667 7.34765625  13.9150855654762 7.501953125  14.2530691964286 7.81054687499997  Z M 15.8766741071429 11.525390625  C 16.6638764880952 10.810546875  17.0574776785714 9.94531249999997  17.0574776785714 8.9296875  C 17.0574776785714 7.9140625  16.666015625 7.046875  15.8830915178571 6.328125  C 15.1001674107143 5.609375  14.1482514880952 5.25  13.02734375 5.25  L 7.46986607142858 5.25  L 7.46986607142858 15.75  L 9.78013392857142 15.75  L 9.78013392857142 12.59765625  L 13.02734375 12.59765625  C 14.1396949404762 12.59765625  15.0894717261905 12.240234375  15.8766741071429 11.525390625  Z M 22.0887276785714 6.42187500000003  C 22.6962425595238 7.71875  23 9.07812499999997  23 10.5  C 23 11.921875  22.6962425595238 13.28125  22.0887276785714 14.578125  C 21.481212797619 15.875  20.6640625 16.9921875  19.6372767857143 17.9296875  C 18.6104910714286 18.8671875  17.3869047619048 19.61328125  15.9665178571429 20.16796875  C 14.546130952381 20.72265625  13.0572916666667 21  11.5 21  C 9.94270833333334 21  8.45386904761904 20.72265625  7.03348214285714 20.16796875  C 5.61309523809524 19.61328125  4.38950892857142 18.8671875  3.36272321428572 17.9296875  C 2.3359375 16.9921875  1.51878720238096 15.875  0.911272321428584 14.578125  C 0.303757440476204 13.28125  0 11.921875  0 10.5  C 0 9.07812499999997  0.303757440476204 7.71875  0.911272321428584 6.42187500000003  C 1.51878720238096 5.125  2.3359375 4.00781250000003  3.36272321428572 3.0703125  C 4.38950892857142 2.1328125  5.61309523809524 1.38671875  7.03348214285714 0.832031249999972  C 8.45386904761904 0.27734375  9.94270833333334 0  11.5 0  C 13.0572916666667 0  14.546130952381 0.27734375  15.9665178571429 0.832031249999972  C 17.3869047619048 1.38671875  18.6104910714286 2.1328125  19.6372767857143 3.0703125  C 20.6640625 4.00781250000003  21.481212797619 5.125  22.0887276785714 6.42187500000003  Z " fill-rule="nonzero" fill="#666666" stroke="none" transform="matrix(1 0 0 1 352 312 )" />
  </g>
</svg>