<?xml version="1.0" encoding="utf-8"?>
<svg version="1.1" xmlns:xlink="http://www.w3.org/1999/xlink" width="25px" height="23px" xmlns="http://www.w3.org/2000/svg">
  <g transform="matrix(1 0 0 1 -351 -455 )">
    <path d="M 14.0345982142857 13.5150669642857  L 13.2254464285714 13.1941964285714  L 15.4994419642857 17.4168526785714  L 14.7879464285714 17.4168526785714  L 12.3465401785714 12.9246651785714  L 9.9609375 17.4168526785714  L 9.27734375 17.4168526785714  L 11.7745535714286 12.6166294642857  L 10.6863839285714 12.1930803571429  L 10.9793526785714 11.5641741071429  L 14.3275669642857 12.8733258928571  L 14.0345982142857 13.5150669642857  Z M 6.04073660714286 9.49776785714289  L 7.85435267857143 5.59598214285711  L 12.0954241071429 7.26450892857139  L 10.2818080357143 11.1662946428571  L 6.04073660714286 9.49776785714289  Z M 11.23046875 11.05078125  L 12.6534598214286 7.97042410714289  L 16.0016741071429 9.29241071428572  L 14.5647321428571 12.3599330357143  L 11.23046875 11.05078125  Z M 15.4436383928571 12.3342633928571  L 16.5736607142857 9.89564732142861  L 19.23828125 10.9352678571429  L 18.0943080357143 13.3738839285714  L 15.4436383928571 12.3342633928571  Z M 22.5725446428571 15.4017857142857  C 23.149181547619 14.1610863095238  23.4375 12.8604910714286  23.4375 11.5  C 23.4375 10.1395089285714  23.149181547619 8.83891369047615  22.5725446428571 7.59821428571428  C 21.9959077380952 6.35751488095235  21.2169828869048 5.28580729166663  20.2357700892857 4.38309151785711  C 19.2545572916667 3.48037574404765  18.0896577380952 2.76376488095235  16.7410714285714 2.23325892857139  C 15.3924851190476 1.70275297619048  13.9787946428571 1.4375  12.5 1.4375  C 11.0212053571429 1.4375  9.60751488095238 1.70275297619048  8.25892857142857 2.23325892857139  C 6.91034226190476 2.76376488095235  5.74544270833333 3.48037574404765  4.76422991071429 4.38309151785711  C 3.78301711309524 5.28580729166663  3.00409226190476 6.35751488095235  2.42745535714286 7.59821428571428  C 1.85081845238095 8.83891369047615  1.5625 10.1395089285714  1.5625 11.5  C 1.5625 12.8604910714286  1.85081845238095 14.1610863095238  2.42745535714286 15.4017857142857  C 3.00409226190476 16.6424851190476  3.78301711309524 17.7141927083334  4.76422991071429 18.6169084821429  C 5.74544270833333 19.5196242559524  6.91034226190476 20.2362351190476  8.25892857142857 20.7667410714286  C 9.60751488095238 21.2972470238095  11.0212053571429 21.5625  12.5 21.5625  C 13.9787946428571 21.5625  15.3924851190476 21.2972470238095  16.7410714285714 20.7667410714286  C 18.0896577380952 20.2362351190476  19.2545572916667 19.5196242559524  20.2357700892857 18.6169084821429  C 21.2169828869048 17.7141927083334  21.9959077380952 16.6424851190476  22.5725446428571 15.4017857142857  Z M 24.0094866071429 7.03348214285711  C 24.6698288690476 8.45386904761904  25 9.94270833333337  25 11.5  C 25 13.0572916666666  24.6698288690476 14.546130952381  24.0094866071429 15.9665178571429  C 23.3491443452381 17.3869047619048  22.4609375 18.6104910714286  21.3448660714286 19.6372767857143  C 20.2287946428571 20.6640625  18.8988095238095 21.481212797619  17.3549107142857 22.0887276785714  C 15.8110119047619 22.6962425595238  14.1927083333333 23  12.5 23  C 10.8072916666667 23  9.1889880952381 22.6962425595238  7.64508928571429 22.0887276785714  C 6.10119047619048 21.481212797619  4.77120535714286 20.6640625  3.65513392857143 19.6372767857143  C 2.5390625 18.6104910714286  1.6508556547619 17.3869047619048  0.990513392857139 15.9665178571429  C 0.33017113095238 14.546130952381  0 13.0572916666666  0 11.5  C 0 9.94270833333337  0.33017113095238 8.45386904761904  0.990513392857139 7.03348214285711  C 1.6508556547619 5.61309523809524  2.5390625 4.38950892857139  3.65513392857143 3.36272321428572  C 4.77120535714286 2.3359375  6.10119047619048 1.51878720238096  7.64508928571429 0.911272321428612  C 9.1889880952381 0.303757440476204  10.8072916666667 0  12.5 0  C 14.1927083333333 0  15.8110119047619 0.303757440476204  17.3549107142857 0.911272321428612  C 18.8988095238095 1.51878720238096  20.2287946428571 2.3359375  21.3448660714286 3.36272321428572  C 22.4609375 4.38950892857139  23.3491443452381 5.61309523809524  24.0094866071429 7.03348214285711  Z " fill-rule="nonzero" fill="#666666" stroke="none" transform="matrix(1 0 0 1 351 455 )" />
  </g>
</svg>