<?xml version="1.0" encoding="utf-8"?>
<svg version="1.1" xmlns:xlink="http://www.w3.org/1999/xlink" width="25px" height="21px" xmlns="http://www.w3.org/2000/svg">
  <g transform="matrix(1 0 0 1 -352 -383 )">
    <path d="M 10.6901041666667 12.6524701873935  C 11.3411458333333 12.0562180579216  11.6666666666667 11.3367404883589  11.6666666666667 10.4940374787053  C 11.6666666666667 9.65133446905168  11.3411458333333 8.93185689948893  10.6901041666667 8.33560477001703  C 10.0390625 7.73935264054518  9.25347222222223 7.4412265758092  8.33333333333337 7.4412265758092  C 7.41319444444446 7.4412265758092  6.62760416666669 7.73935264054518  5.9765625 8.33560477001703  C 5.32552083333331 8.93185689948893  5 9.65133446905168  5 10.4940374787053  C 5 11.3367404883589  5.32552083333331 12.0562180579216  5.9765625 12.6524701873935  C 6.62760416666669 13.2487223168654  7.41319444444446 13.5468483816014  8.33333333333337 13.5468483816014  C 9.25347222222223 13.5468483816014  10.0390625 13.2487223168654  10.6901041666667 12.6524701873935  Z M 21.1783854166667 17.6788756388416  C 21.50390625 17.3807495741056  21.6666666666667 17.0210107893242  21.6666666666667 16.5996592844975  C 21.6666666666667 16.1862578080636  21.5017361111111 15.8285065303805  21.171875 15.5264054514481  C 20.8420138888889 15.2243043725156  20.4513888888889 15.0732538330494  20 15.0732538330494  C 19.5486111111111 15.0732538330494  19.1579861111111 15.2243043725156  18.828125 15.5264054514481  C 18.4982638888889 15.8285065303805  18.3333333333333 16.1862578080636  18.3333333333333 16.5996592844975  C 18.3333333333333 17.0210107893242  18.49609375 17.3807495741056  18.8216145833333 17.6788756388416  C 19.1471354166667 17.9770017035775  19.5399305555555 18.1260647359455  20 18.1260647359455  C 20.4600694444445 18.1260647359455  20.8528645833333 17.9770017035775  21.1783854166667 17.6788756388416  Z M 21.1783854166667 5.46763202725725  C 21.50390625 5.16950596252127  21.6666666666667 4.8097671777399  21.6666666666667 4.38841567291314  C 21.6666666666667 3.97501419647926  21.5017361111111 3.61726291879614  21.171875 3.31516183986372  C 20.8420138888889 3.01306076093124  20.4513888888889 2.86201022146508  20 2.86201022146508  C 19.5486111111111 2.86201022146508  19.1579861111111 3.01306076093124  18.828125 3.31516183986372  C 18.4982638888889 3.61726291879614  18.3333333333333 3.97501419647926  18.3333333333333 4.38841567291314  C 18.3333333333333 4.8097671777399  18.49609375 5.16950596252127  18.8216145833333 5.46763202725725  C 19.1471354166667 5.76575809199318  19.5399305555555 5.91482112436114  20 5.91482112436114  C 20.4600694444445 5.91482112436114  20.8528645833333 5.76575809199318  21.1783854166667 5.46763202725725  Z M 16.5755208333333 9.17632027257241  C 16.6362847222222 9.24389551391255  16.6666666666666 9.32140829074388  16.6666666666666 9.40885860306645  L 16.6666666666666 11.6149914821124  C 16.6666666666666 11.6944917660421  16.6362847222222 11.7720045428733  16.5755208333333 11.8475298126065  C 16.5147569444445 11.9230550823396  16.4453125 11.9647927314026  16.3671875 11.9727427597956  L 14.3489583333333 12.258943781942  C 14.2534722222222 12.5371947756956  14.1145833333333 12.8392958546281  13.9322916666666 13.1652470187394  C 14.2274305555555 13.5468483816014  14.6180555555555 14.0039750141964  15.1041666666666 14.5366269165247  C 15.1649305555555 14.6240772288473  15.1953125 14.7035775127768  15.1953125 14.7751277683134  C 15.1953125 14.870528109029  15.1649305555555 14.946053378762  15.1041666666666 15.0017035775128  C 14.9045138888889 15.2402044293015  14.5464409722222 15.5959681998864  14.0299479166666 16.0689948892675  C 13.5134548611111 16.5420215786485  13.1727430555555 16.778534923339  13.0078125 16.778534923339  C 12.9123263888889 16.778534923339  12.8211805555555 16.7507098239636  12.734375 16.6950596252129  L 11.2369791666667 15.6218057921636  C 10.9157986111111 15.7728563316297  10.5815972222222 15.8960817717206  10.234375 15.9914821124361  C 10.1388888888889 16.8500851788756  10.0390625 17.4662123793299  9.93489583333331 17.8398637137989  C 9.87413194444446 18.03066439523  9.74392361111114 18.1260647359455  9.54427083333331 18.1260647359455  L 7.12239583333331 18.1260647359455  C 7.02690972222223 18.1260647359455  6.94010416666669 18.0962521294719  6.86197916666669 18.0366269165247  C 6.78385416666669 17.9770017035775  6.74045138888886 17.9074389551391  6.73177083333331 17.8279386712096  L 6.43229166666669 16.0034071550256  C 6.13715277777783 15.9239068710959  5.81163194444446 15.8006814310051  5.45572916666669 15.633730834753  L 3.91927083333331 16.6950596252129  C 3.85850694444446 16.7507098239636  3.77170138888891 16.778534923339  3.65885416666669 16.778534923339  C 3.56336805555554 16.778534923339  3.47222222222223 16.7467348097672  3.38541666666663 16.6831345826235  C 2.13541666666669 15.62578080636  1.51041666666669 14.9897785349233  1.51041666666669 14.7751277683134  C 1.51041666666669 14.7035775127768  1.54079861111114 14.6280522430438  1.6015625 14.5485519591141  C 1.68836805555554 14.4372515616127  1.86631944444446 14.2265758091993  2.13541666666669 13.9165247018739  C 2.40451388888891 13.6064735945486  2.60850694444446 13.3639977285633  2.74739583333331 13.1890971039182  C 2.54774305555554 12.8392958546281  2.39583333333331 12.5133446905168  2.29166666666669 12.2112436115843  L 0.3125 11.9250425894379  C 0.225694444444457 11.9170925610449  0.151909722222229 11.8793299261783  0.0911458333333144 11.8117546848381  C 0.0303819444444571 11.744179443498  0 11.6666666666667  0 11.5792163543441  L 0 9.37308347529813  C 0 9.2935831913685  0.0303819444444571 9.21607041453717  0.0911458333333144 9.14054514480409  C 0.151909722222229 9.06501987507096  0.221354166666686 9.02328222600795  0.299479166666686 9.01533219761501  L 2.31770833333331 8.72913117546847  C 2.41319444444446 8.45088018171492  2.55208333333331 8.1487791027825  2.734375 7.8228279386712  C 2.43923611111114 7.4412265758092  2.04861111111114 6.98409994321406  1.5625 6.45144804088585  C 1.50173611111109 6.36399772856328  1.47135416666669 6.2844974446337  1.47135416666669 6.21294718909712  C 1.47135416666669 6.11754684838161  1.50173611111109 6.03804656445203  1.5625 5.97444633730834  C 1.75347222222223 5.73594548551961  2.109375 5.38216922203293  2.63020833333331 4.91311754684835  C 3.15104166666669 4.44406587166378  3.49392361111114 4.20954003407155  3.65885416666669 4.20954003407155  C 3.75434027777777 4.20954003407155  3.84548611111109 4.23736513344687  3.93229166666669 4.29301533219763  L 5.4296875 5.36626916524705  C 5.72482638888891 5.22316865417378  6.05902777777777 5.09596819988644  6.43229166666669 4.98466780238499  C 6.52777777777783 4.12606473594553  6.62760416666669 3.51391254968769  6.73177083333331 3.14821124361163  C 6.79253472222223 2.95741056218054  6.92274305555554 2.86201022146508  7.12239583333331 2.86201022146508  L 9.54427083333331 2.86201022146508  C 9.63975694444446 2.86201022146508  9.7265625 2.89182282793865  9.8046875 2.95144804088585  C 9.8828125 3.01107325383305  9.92621527777777 3.08063600227143  9.93489583333331 3.16013628620107  L 10.234375 4.98466780238499  C 10.5295138888889 5.06416808631457  10.8550347222222 5.18739352640546  11.2109375 5.35434412265761  L 12.7473958333333 4.29301533219763  C 12.8168402777778 4.23736513344687  12.9036458333333 4.20954003407155  13.0078125 4.20954003407155  C 13.1032986111111 4.20954003407155  13.1944444444445 4.24134014764337  13.28125 4.30494037478707  C 14.53125 5.36229415105055  15.15625 5.99829642248721  15.15625 6.21294718909712  C 15.15625 6.27654741624076  15.1258680555555 6.35207268597389  15.0651041666667 6.43952299829641  C 14.9609375 6.5667234525838  14.7786458333334 6.78137421919365  14.5182291666666 7.08347529812607  C 14.2578125 7.3855763770585  14.0625 7.62407722884723  13.9322916666666 7.79897785349238  C 14.1319444444445 8.18057921635437  14.2795138888889 8.50653038046568  14.375 8.77683134582628  L 16.3541666666667 9.05110732538327  C 16.4409722222222 9.06700738216921  16.5147569444445 9.10874503123227  16.5755208333333 9.17632027257241  Z M 23.0598958333333 15.3952299829642  C 24.3532986111111 15.5144804088586  25 15.6377058489495  25 15.7649063032368  L 25 17.4344122657581  C 25 17.5616127200454  24.3532986111111 17.6848381601363  23.0598958333333 17.8040885860307  C 22.9557291666667 18.0187393526406  22.8255208333333 18.2254400908575  22.6692708333333 18.4241908006814  C 23.1119791666666 19.3225440090857  23.3333333333333 19.8710959681999  23.3333333333333 20.0698466780239  C 23.3333333333333 20.1016467915957  23.3159722222222 20.129471890971  23.28125 20.1533219761499  C 22.2222222222222 20.71777399205  21.6840277777778 21  21.6666666666667 21  C 21.5972222222222 21  21.3975694444445 20.8131743327655  21.0677083333333 20.4395229982964  C 20.7378472222222 20.0658716638274  20.5121527777778 19.7955706984667  20.390625 19.6286201022147  C 20.2170138888889 19.6445201590005  20.0868055555555 19.6524701873935  20 19.6524701873935  C 19.9131944444445 19.6524701873935  19.7829861111111 19.6445201590005  19.609375 19.6286201022147  C 19.4878472222222 19.7955706984667  19.2621527777778 20.0658716638274  18.9322916666667 20.4395229982964  C 18.6024305555555 20.8131743327655  18.4027777777778 21  18.3333333333333 21  C 18.3159722222222 21  17.7777777777778 20.71777399205  16.71875 20.1533219761499  C 16.6840277777778 20.129471890971  16.6666666666666 20.1016467915957  16.6666666666666 20.0698466780239  C 16.6666666666666 19.8710959681999  16.8880208333333 19.3225440090857  17.3307291666667 18.4241908006814  C 17.1744791666667 18.2254400908575  17.0442708333333 18.0187393526406  16.9401041666667 17.8040885860307  C 15.6467013888889 17.6848381601363  15 17.5616127200454  15 17.4344122657581  L 15 15.7649063032368  C 15 15.6377058489495  15.6467013888889 15.5144804088586  16.9401041666667 15.3952299829642  C 17.0529513888889 15.1646791595684  17.1831597222222 14.9579784213515  17.3307291666667 14.7751277683134  C 16.8880208333333 13.8767745599092  16.6666666666666 13.328222600795  16.6666666666666 13.129471890971  C 16.6666666666666 13.0976717773992  16.6840277777778 13.0698466780239  16.71875 13.045996592845  C 16.7534722222222 13.030096536059  16.9053819444445 12.9505962521295  17.1744791666667 12.8074957410562  C 17.4435763888889 12.664395229983  17.6996527777778 12.5292447473026  17.9427083333333 12.4020442930154  C 18.1857638888889 12.274843838728  18.3159722222222 12.2112436115843  18.3333333333333 12.2112436115843  C 18.4027777777778 12.2112436115843  18.6024305555555 12.3960817717207  18.9322916666667 12.7657580919932  C 19.2621527777778 13.1354344122658  19.4878472222222 13.4037478705282  19.609375 13.5706984667802  C 19.7829861111111 13.5547984099944  19.9131944444445 13.5468483816014  20 13.5468483816014  C 20.0868055555555 13.5468483816014  20.2170138888889 13.5547984099944  20.390625 13.5706984667802  C 20.8333333333334 13.0062464508802  21.2326388888889 12.5610448608745  21.5885416666667 12.2350936967632  L 21.6666666666667 12.2112436115843  C 21.7013888888889 12.2112436115843  22.2395833333333 12.4894946053379  23.28125 13.045996592845  C 23.3159722222222 13.0698466780239  23.3333333333333 13.0976717773992  23.3333333333333 13.129471890971  C 23.3333333333333 13.328222600795  23.1119791666666 13.8767745599092  22.6692708333333 14.7751277683134  C 22.8168402777778 14.9579784213515  22.9470486111111 15.1646791595684  23.0598958333333 15.3952299829642  Z M 23.0598958333333 3.18398637137989  C 24.3532986111111 3.30323679727428  25 3.42646223736511  25 3.55366269165251  L 25 5.22316865417378  C 25 5.35036910846111  24.3532986111111 5.47359454855194  23.0598958333333 5.59284497444639  C 22.9557291666667 5.80749574105624  22.8255208333333 6.01419647927315  22.6692708333333 6.21294718909712  C 23.1119791666666 7.1113003975014  23.3333333333333 7.65985235661555  23.3333333333333 7.85860306643951  C 23.3333333333333 7.89040318001133  23.3159722222222 7.91822827938671  23.28125 7.94207836456559  C 22.2222222222222 8.50653038046568  21.6840277777778 8.78875638841566  21.6666666666667 8.78875638841566  C 21.5972222222222 8.78875638841566  21.3975694444445 8.60193072118113  21.0677083333333 8.22827938671207  C 20.7378472222222 7.85462805224302  20.5121527777778 7.58432708688241  20.390625 7.41737649063037  C 20.2170138888889 7.43327654741626  20.0868055555555 7.4412265758092  20 7.4412265758092  C 19.9131944444445 7.4412265758092  19.7829861111111 7.43327654741626  19.609375 7.41737649063037  C 19.4878472222222 7.58432708688241  19.2621527777778 7.85462805224302  18.9322916666667 8.22827938671207  C 18.6024305555555 8.60193072118113  18.4027777777778 8.78875638841566  18.3333333333333 8.78875638841566  C 18.3159722222222 8.78875638841566  17.7777777777778 8.50653038046568  16.71875 7.94207836456559  C 16.6840277777778 7.91822827938671  16.6666666666666 7.89040318001133  16.6666666666666 7.85860306643951  C 16.6666666666666 7.65985235661555  16.8880208333333 7.1113003975014  17.3307291666667 6.21294718909712  C 17.1744791666667 6.01419647927315  17.0442708333333 5.80749574105624  16.9401041666667 5.59284497444639  C 15.6467013888889 5.47359454855194  15 5.35036910846111  15 5.22316865417378  L 15 3.55366269165251  C 15 3.42646223736511  15.6467013888889 3.30323679727428  16.9401041666667 3.18398637137989  C 17.0529513888889 2.95343554798404  17.1831597222222 2.74673480976719  17.3307291666667 2.5638841567291  C 16.8880208333333 1.66553094832483  16.6666666666666 1.11697898921068  16.6666666666666 0.91822827938671  C 16.6666666666666 0.886428165814891  16.6840277777778 0.858603066439571  16.71875 0.834752981260635  C 16.7534722222222 0.818852924474697  16.9053819444445 0.739352640545121  17.1744791666667 0.596252129471907  C 17.4435763888889 0.453151618398636  17.6996527777778 0.318001135718305  17.9427083333333 0.190800681431028  C 18.1857638888889 0.0636002271436951  18.3159722222222 0  18.3333333333333 0  C 18.4027777777778 0  18.6024305555555 0.18483816013628  18.9322916666667 0.554514480408841  C 19.2621527777778 0.924190800681458  19.4878472222222 1.19250425894381  19.609375 1.35945485519591  C 19.7829861111111 1.34355479841003  19.9131944444445 1.33560477001703  20 1.33560477001703  C 20.0868055555555 1.33560477001703  20.2170138888889 1.34355479841003  20.390625 1.35945485519591  C 20.8333333333334 0.795002839295876  21.2326388888889 0.349801249290181  21.5885416666667 0.0238500851788217  L 21.6666666666667 0  C 21.7013888888889 0  22.2395833333333 0.278250993753545  23.28125 0.834752981260635  C 23.3159722222222 0.858603066439571  23.3333333333333 0.886428165814891  23.3333333333333 0.91822827938671  C 23.3333333333333 1.11697898921068  23.1119791666666 1.66553094832483  22.6692708333333 2.5638841567291  C 22.8168402777778 2.74673480976719  22.9470486111111 2.95343554798404  23.0598958333333 3.18398637137989  Z " fill-rule="nonzero" fill="#666666" stroke="none" transform="matrix(1 0 0 1 352 383 )" />
  </g>
</svg>