<?xml version="1.0" encoding="utf-8"?>
<svg version="1.1" xmlns:xlink="http://www.w3.org/1999/xlink" width="26px" height="21px" xmlns="http://www.w3.org/2000/svg">
  <g transform="matrix(1 0 0 1 -353 -346 )">
    <path d="M 7.34635416666666 17.710546875  C 8.0083912037037 16.917578125  8.42592592592592 15.9140625  8.59895833333334 14.7  L 5.05555555555554 14.7  C 4.75462962962965 14.7  4.53833912037035 14.50859375  4.40668402777777 14.12578125  C 4.27502893518519 13.74296875  4.29947916666666 13.3765625  4.48003472222223 13.0265625  L 6.6015625 8.90859375000002  C 6.11255787037035 8.56953125000001  5.59722222222223 8.39999999999998  5.05555555555554 8.39999999999998  C 4.0625 8.39999999999998  3.21238425925924 8.9140625  2.50520833333334 9.94218750000005  C 1.79803240740742 10.9703125  1.44444444444446 12.20625  1.44444444444446 13.65  C 1.44444444444446 15.09375  1.79803240740742 16.3296875  2.50520833333334 17.3578125  C 3.21238425925924 18.3859375  4.0625 18.9  5.05555555555554 18.9  C 5.92071759259258 18.9  6.68431712962965 18.503515625  7.34635416666666 17.710546875  Z M 7.75260416666666 10.171875  L 6.5 12.6  L 8.59895833333334 12.6  C 8.46354166666666 11.6703125  8.18142361111111 10.8609375  7.75260416666666 10.171875  Z M 10.0546875 12.6  L 11.9166666666667 12.6  L 15.1666666666667 6.29999999999995  L 9.75 6.29999999999995  L 8.6328125 8.46562500000005  C 9.42274305555554 9.59218749999997  9.89670138888889 10.9703125  10.0546875 12.6  Z M 23.4947916666667 17.3578125  C 24.2019675925926 16.3296875  24.5555555555555 15.09375  24.5555555555555 13.65  C 24.5555555555555 12.20625  24.2019675925926 10.9703125  23.4947916666667 9.94218750000005  C 22.7876157407408 8.9140625  21.9375 8.39999999999998  20.9444444444445 8.39999999999998  C 20.4930555555555 8.39999999999998  20.0379050925926 8.53125  19.5789930555555 8.79375000000005  L 21.5425347222222 13.059375  C 21.6553819444445 13.3109375  21.6929976851852 13.57890625  21.6553819444445 13.86328125  C 21.6177662037037 14.14765625  21.5162037037037 14.36640625  21.3506944444445 14.51953125  C 21.2378472222222 14.63984375  21.1024305555555 14.7  20.9444444444445 14.7  C 20.6811342592593 14.7  20.4817708333333 14.54140625  20.3463541666667 14.22421875  L 18.3828125 9.95859374999998  C 17.6831597222222 10.99765625  17.3333333333333 12.228125  17.3333333333333 13.65  C 17.3333333333333 15.09375  17.6869212962963 16.3296875  18.3940972222222 17.3578125  C 19.1012731481481 18.3859375  19.9513888888889 18.9  20.9444444444445 18.9  C 21.9375 18.9  22.7876157407408 18.3859375  23.4947916666667 17.3578125  Z M 24.5160590277778 8.45742187500002  C 25.5053530092593 9.89570312500001  26 11.6265625  26 13.65  C 26 15.6734375  25.5053530092593 17.404296875  24.5160590277778 18.842578125  C 23.5267650462963 20.280859375  22.3362268518519 21  20.9444444444445 21  C 19.5526620370371 21  18.3621238425926 20.280859375  17.3728298611111 18.842578125  C 16.3835358796296 17.404296875  15.8888888888889 15.6734375  15.8888888888889 13.65  C 15.8888888888889 12.5890625  16.0374710648148 11.585546875  16.3346354166667 10.639453125  C 16.6317997685185 9.693359375  17.0436921296296 8.87578125000005  17.5703125 8.18671874999995  L 16.8368055555555 6.57890625000005  L 12.8532986111111 14.2734375  C 12.7178819444445 14.5578125  12.5260416666667 14.7  12.2777777777778 14.7  L 10.0546875 14.7  C 9.88165509259258 16.49375  9.32118055555554 17.9921875  8.37326388888889 19.1953125  C 7.42534722222223 20.3984375  6.31944444444446 21  5.05555555555554 21  C 3.66377314814812 21  2.4732349537037 20.280859375  1.48394097222223 18.842578125  C 0.494646990740762 17.404296875  0 15.6734375  0 13.65  C 0 11.6265625  0.494646990740762 9.89570312500001  1.48394097222223 8.45742187500002  C 2.4732349537037 7.01914062500004  3.66377314814812 6.29999999999995  5.05555555555554 6.29999999999995  C 5.91319444444446 6.29999999999995  6.72193287037035 6.60078125000001  7.48177083333334 7.20234374999995  L 9.02777777777777 4.20000000000005  L 6.5 4.20000000000005  C 6.30439814814818 4.20000000000005  6.13512731481481 4.09609374999997  5.9921875 3.88828124999998  C 5.84924768518519 3.68046874999999  5.77777777777777 3.43437499999999  5.77777777777777 3.14999999999998  C 5.77777777777777 2.86562499999997  5.84924768518519 2.61953124999997  5.9921875 2.41171874999998  C 6.13512731481481 2.20390624999999  6.30439814814818 2.10000000000002  6.5 2.10000000000002  L 10.8333333333333 2.10000000000002  L 10.8333333333333 4.20000000000005  L 15.7421875 4.20000000000005  L 14.7829861111111 2.10000000000002  L 12.2777777777778 2.10000000000002  C 12.0821759259259 2.10000000000002  11.9129050925926 1.99609375  11.7699652777778 1.78828124999995  C 11.6270254629629 1.58046874999997  11.5555555555555 1.33437499999997  11.5555555555555 1.04999999999995  C 11.5555555555555 0.765625  11.6270254629629 0.51953125  11.7699652777778 0.311718749999955  C 11.9129050925926 0.103906249999966  12.0821759259259 0  12.2777777777778 0  L 15.1666666666667 0  C 15.4149305555555 0  15.6142939814815 0.153124999999989  15.7647569444445 0.459375000000023  L 18.7777777777778 7.02187500000002  C 19.4623842592593 6.54062500000003  20.1846064814815 6.29999999999995  20.9444444444445 6.29999999999995  C 22.3362268518519 6.29999999999995  23.5267650462963 7.01914062500004  24.5160590277778 8.45742187500002  Z " fill-rule="nonzero" fill="#666666" stroke="none" transform="matrix(1 0 0 1 353 346 )" />
  </g>
</svg>