<?xml version="1.0" encoding="utf-8"?>
<svg version="1.1" xmlns:xlink="http://www.w3.org/1999/xlink" width="25px" height="16px" xmlns="http://www.w3.org/2000/svg">
  <g transform="matrix(1 0 0 1 -355 -171 )">
    <path d="M 2 14.6666666666667  L 25 14.6666666666667  L 25 16  L 0 16  L 0 0  L 2 0  L 2 14.6666666666667  Z M 23.32763671875 1.42708333333333  C 23.40087890625 1.48958333333333  23.4375 1.56944444444444  23.4375 1.66666666666667  L 23.4375 6.19791666666667  C 23.4375 6.34375  23.358154296875 6.44618055555556  23.199462890625 6.50520833333333  C 23.040771484375 6.56423611111111  22.8963216145834 6.53819444444444  22.76611328125 6.42708333333333  L 21.2890625 5.16666666666667  L 13.56201171875 11.7604166666667  C 13.4806315104166 11.8298611111111  13.3870442708334 11.8645833333333  13.28125 11.8645833333333  C 13.1754557291666 11.8645833333333  13.0818684895834 11.8298611111111  13.00048828125 11.7604166666667  L 10.15625 9.33333333333333  L 5.078125 13.6666666666667  L 2.734375 11.6666666666667  L 9.87548828125 5.57291666666667  C 9.95686848958343 5.50347222222224  10.0504557291666 5.46875  10.15625 5.46875  C 10.2620442708334 5.46875  10.3556315104166 5.50347222222224  10.43701171875 5.57291666666667  L 13.28125 8  L 18.9453125 3.16666666666667  L 17.46826171875 1.90625  C 17.3380533854166 1.79513888888889  17.3075358072916 1.671875  17.376708984375 1.53645833333333  C 17.4458821614584 1.40104166666667  17.56591796875 1.33333333333333  17.73681640625 1.33333333333333  L 23.046875 1.33333333333333  C 23.1608072916666 1.33333333333333  23.25439453125 1.36458333333333  23.32763671875 1.42708333333333  Z " fill-rule="nonzero" fill="#666666" stroke="none" transform="matrix(1 0 0 1 355 171 )" />
  </g>
</svg>