<?xml version="1.0" encoding="utf-8"?>
<svg version="1.1" xmlns:xlink="http://www.w3.org/1999/xlink" width="18px" height="22px" xmlns="http://www.w3.org/2000/svg">
  <g transform="matrix(1 0 0 1 -356 -275 )">
    <path d="M 4.78764204545456 15.8309151785715  C 4.86860795454544 15.9086681547619  4.90909090909093 16.0007440476191  4.90909090909093 16.1071428571428  L 4.90909090909093 16.8928571428572  C 4.90909090909093 16.9992559523809  4.86860795454544 17.0913318452381  4.78764204545456 17.1690848214285  C 4.70667613636363 17.2468377976191  4.61079545454544 17.2857142857143  4.5 17.2857142857143  L 3.68181818181819 17.2857142857143  C 3.57102272727275 17.2857142857143  3.47514204545456 17.2468377976191  3.39417613636363 17.1690848214285  C 3.31321022727275 17.0913318452381  3.27272727272725 16.9992559523809  3.27272727272725 16.8928571428572  L 3.27272727272725 16.1071428571428  C 3.27272727272725 16.0007440476191  3.31321022727275 15.9086681547619  3.39417613636363 15.8309151785715  C 3.47514204545456 15.7531622023809  3.57102272727275 15.7142857142857  3.68181818181819 15.7142857142857  L 4.5 15.7142857142857  C 4.61079545454544 15.7142857142857  4.70667613636363 15.7531622023809  4.78764204545456 15.8309151785715  Z M 4.78764204545456 12.6880580357143  C 4.86860795454544 12.7658110119048  4.90909090909093 12.8578869047619  4.90909090909093 12.9642857142857  L 4.90909090909093 13.75  C 4.90909090909093 13.8563988095238  4.86860795454544 13.9484747023809  4.78764204545456 14.0262276785715  C 4.70667613636363 14.1039806547619  4.61079545454544 14.1428571428572  4.5 14.1428571428572  L 3.68181818181819 14.1428571428572  C 3.57102272727275 14.1428571428572  3.47514204545456 14.1039806547619  3.39417613636363 14.0262276785715  C 3.31321022727275 13.9484747023809  3.27272727272725 13.8563988095238  3.27272727272725 13.75  L 3.27272727272725 12.9642857142857  C 3.27272727272725 12.8578869047619  3.31321022727275 12.7658110119048  3.39417613636363 12.6880580357143  C 3.47514204545456 12.6103050595238  3.57102272727275 12.5714285714285  3.68181818181819 12.5714285714285  L 4.5 12.5714285714285  C 4.61079545454544 12.5714285714285  4.70667613636363 12.6103050595238  4.78764204545456 12.6880580357143  Z M 8.06036931818181 12.6880580357143  C 8.14133522727275 12.7658110119048  8.18181818181819 12.8578869047619  8.18181818181819 12.9642857142857  L 8.18181818181819 13.75  C 8.18181818181819 13.8563988095238  8.14133522727275 13.9484747023809  8.06036931818181 14.0262276785715  C 7.97940340909088 14.1039806547619  7.88352272727275 14.1428571428572  7.77272727272725 14.1428571428572  L 6.95454545454544 14.1428571428572  C 6.84375 14.1428571428572  6.74786931818181 14.1039806547619  6.66690340909093 14.0262276785715  C 6.5859375 13.9484747023809  6.54545454545456 13.8563988095238  6.54545454545456 13.75  L 6.54545454545456 12.9642857142857  C 6.54545454545456 12.8578869047619  6.5859375 12.7658110119048  6.66690340909093 12.6880580357143  C 6.74786931818181 12.6103050595238  6.84375 12.5714285714285  6.95454545454544 12.5714285714285  L 7.77272727272725 12.5714285714285  C 7.88352272727275 12.5714285714285  7.97940340909088 12.6103050595238  8.06036931818181 12.6880580357143  Z M 4.78764204545456 9.54520089285717  C 4.86860795454544 9.62295386904759  4.90909090909093 9.71502976190476  4.90909090909093 9.82142857142853  L 4.90909090909093 10.6071428571428  C 4.90909090909093 10.7135416666667  4.86860795454544 10.8056175595238  4.78764204545456 10.8833705357143  C 4.70667613636363 10.9611235119048  4.61079545454544 11  4.5 11  L 3.68181818181819 11  C 3.57102272727275 11  3.47514204545456 10.9611235119048  3.39417613636363 10.8833705357143  C 3.31321022727275 10.8056175595238  3.27272727272725 10.7135416666667  3.27272727272725 10.6071428571428  L 3.27272727272725 9.82142857142853  C 3.27272727272725 9.71502976190476  3.31321022727275 9.62295386904759  3.39417613636363 9.54520089285717  C 3.47514204545456 9.46744791666666  3.57102272727275 9.42857142857147  3.68181818181819 9.42857142857147  L 4.5 9.42857142857147  C 4.61079545454544 9.42857142857147  4.70667613636363 9.46744791666666  4.78764204545456 9.54520089285717  Z M 14.6058238636364 15.8309151785715  C 14.6867897727273 15.9086681547619  14.7272727272727 16.0007440476191  14.7272727272727 16.1071428571428  L 14.7272727272727 16.8928571428572  C 14.7272727272727 16.9992559523809  14.6867897727273 17.0913318452381  14.6058238636364 17.1690848214285  C 14.5248579545454 17.2468377976191  14.4289772727273 17.2857142857143  14.3181818181818 17.2857142857143  L 13.5 17.2857142857143  C 13.3892045454546 17.2857142857143  13.2933238636364 17.2468377976191  13.2123579545454 17.1690848214285  C 13.1313920454546 17.0913318452381  13.0909090909091 16.9992559523809  13.0909090909091 16.8928571428572  L 13.0909090909091 16.1071428571428  C 13.0909090909091 16.0007440476191  13.1313920454546 15.9086681547619  13.2123579545454 15.8309151785715  C 13.2933238636364 15.7531622023809  13.3892045454546 15.7142857142857  13.5 15.7142857142857  L 14.3181818181818 15.7142857142857  C 14.4289772727273 15.7142857142857  14.5248579545454 15.7531622023809  14.6058238636364 15.8309151785715  Z M 11.3330965909091 12.6880580357143  C 11.4140625 12.7658110119048  11.4545454545454 12.8578869047619  11.4545454545454 12.9642857142857  L 11.4545454545454 13.75  C 11.4545454545454 13.8563988095238  11.4140625 13.9484747023809  11.3330965909091 14.0262276785715  C 11.2521306818182 14.1039806547619  11.15625 14.1428571428572  11.0454545454546 14.1428571428572  L 10.2272727272727 14.1428571428572  C 10.1164772727273 14.1428571428572  10.0205965909091 14.1039806547619  9.93963068181819 14.0262276785715  C 9.85866477272725 13.9484747023809  9.81818181818181 13.8563988095238  9.81818181818181 13.75  L 9.81818181818181 12.9642857142857  C 9.81818181818181 12.8578869047619  9.85866477272725 12.7658110119048  9.93963068181819 12.6880580357143  C 10.0205965909091 12.6103050595238  10.1164772727273 12.5714285714285  10.2272727272727 12.5714285714285  L 11.0454545454546 12.5714285714285  C 11.15625 12.5714285714285  11.2521306818182 12.6103050595238  11.3330965909091 12.6880580357143  Z M 8.06036931818181 9.54520089285717  C 8.14133522727275 9.62295386904759  8.18181818181819 9.71502976190476  8.18181818181819 9.82142857142853  L 8.18181818181819 10.6071428571428  C 8.18181818181819 10.7135416666667  8.14133522727275 10.8056175595238  8.06036931818181 10.8833705357143  C 7.97940340909088 10.9611235119048  7.88352272727275 11  7.77272727272725 11  L 6.95454545454544 11  C 6.84375 11  6.74786931818181 10.9611235119048  6.66690340909093 10.8833705357143  C 6.5859375 10.8056175595238  6.54545454545456 10.7135416666667  6.54545454545456 10.6071428571428  L 6.54545454545456 9.82142857142853  C 6.54545454545456 9.71502976190476  6.5859375 9.62295386904759  6.66690340909093 9.54520089285717  C 6.74786931818181 9.46744791666666  6.84375 9.42857142857147  6.95454545454544 9.42857142857147  L 7.77272727272725 9.42857142857147  C 7.88352272727275 9.42857142857147  7.97940340909088 9.46744791666666  8.06036931818181 9.54520089285717  Z M 4.78764204545456 6.40234375  C 4.86860795454544 6.48009672619048  4.90909090909093 6.57217261904759  4.90909090909093 6.67857142857147  L 4.90909090909093 7.46428571428569  C 4.90909090909093 7.57068452380952  4.86860795454544 7.66276041666666  4.78764204545456 7.74051339285717  C 4.70667613636363 7.81826636904759  4.61079545454544 7.85714285714283  4.5 7.85714285714283  L 3.68181818181819 7.85714285714283  C 3.57102272727275 7.85714285714283  3.47514204545456 7.81826636904759  3.39417613636363 7.74051339285717  C 3.31321022727275 7.66276041666666  3.27272727272725 7.57068452380952  3.27272727272725 7.46428571428569  L 3.27272727272725 6.67857142857147  C 3.27272727272725 6.57217261904759  3.31321022727275 6.48009672619048  3.39417613636363 6.40234375  C 3.47514204545456 6.32459077380952  3.57102272727275 6.28571428571431  3.68181818181819 6.28571428571431  L 4.5 6.28571428571431  C 4.61079545454544 6.28571428571431  4.70667613636363 6.32459077380952  4.78764204545456 6.40234375  Z M 14.6058238636364 12.6880580357143  C 14.6867897727273 12.7658110119048  14.7272727272727 12.8578869047619  14.7272727272727 12.9642857142857  L 14.7272727272727 13.75  C 14.7272727272727 13.8563988095238  14.6867897727273 13.9484747023809  14.6058238636364 14.0262276785715  C 14.5248579545454 14.1039806547619  14.4289772727273 14.1428571428572  14.3181818181818 14.1428571428572  L 13.5 14.1428571428572  C 13.3892045454546 14.1428571428572  13.2933238636364 14.1039806547619  13.2123579545454 14.0262276785715  C 13.1313920454546 13.9484747023809  13.0909090909091 13.8563988095238  13.0909090909091 13.75  L 13.0909090909091 12.9642857142857  C 13.0909090909091 12.8578869047619  13.1313920454546 12.7658110119048  13.2123579545454 12.6880580357143  C 13.2933238636364 12.6103050595238  13.3892045454546 12.5714285714285  13.5 12.5714285714285  L 14.3181818181818 12.5714285714285  C 14.4289772727273 12.5714285714285  14.5248579545454 12.6103050595238  14.6058238636364 12.6880580357143  Z M 11.3330965909091 9.54520089285717  C 11.4140625 9.62295386904759  11.4545454545454 9.71502976190476  11.4545454545454 9.82142857142853  L 11.4545454545454 10.6071428571428  C 11.4545454545454 10.7135416666667  11.4140625 10.8056175595238  11.3330965909091 10.8833705357143  C 11.2521306818182 10.9611235119048  11.15625 11  11.0454545454546 11  L 10.2272727272727 11  C 10.1164772727273 11  10.0205965909091 10.9611235119048  9.93963068181819 10.8833705357143  C 9.85866477272725 10.8056175595238  9.81818181818181 10.7135416666667  9.81818181818181 10.6071428571428  L 9.81818181818181 9.82142857142853  C 9.81818181818181 9.71502976190476  9.85866477272725 9.62295386904759  9.93963068181819 9.54520089285717  C 10.0205965909091 9.46744791666666  10.1164772727273 9.42857142857147  10.2272727272727 9.42857142857147  L 11.0454545454546 9.42857142857147  C 11.15625 9.42857142857147  11.2521306818182 9.46744791666666  11.3330965909091 9.54520089285717  Z M 8.06036931818181 6.40234375  C 8.14133522727275 6.48009672619048  8.18181818181819 6.57217261904759  8.18181818181819 6.67857142857147  L 8.18181818181819 7.46428571428569  C 8.18181818181819 7.57068452380952  8.14133522727275 7.66276041666666  8.06036931818181 7.74051339285717  C 7.97940340909088 7.81826636904759  7.88352272727275 7.85714285714283  7.77272727272725 7.85714285714283  L 6.95454545454544 7.85714285714283  C 6.84375 7.85714285714283  6.74786931818181 7.81826636904759  6.66690340909093 7.74051339285717  C 6.5859375 7.66276041666666  6.54545454545456 7.57068452380952  6.54545454545456 7.46428571428569  L 6.54545454545456 6.67857142857147  C 6.54545454545456 6.57217261904759  6.5859375 6.48009672619048  6.66690340909093 6.40234375  C 6.74786931818181 6.32459077380952  6.84375 6.28571428571431  6.95454545454544 6.28571428571431  L 7.77272727272725 6.28571428571431  C 7.88352272727275 6.28571428571431  7.97940340909088 6.32459077380952  8.06036931818181 6.40234375  Z M 4.78764204545456 3.25948660714283  C 4.86860795454544 3.33723958333334  4.90909090909093 3.42931547619048  4.90909090909093 3.53571428571431  L 4.90909090909093 4.32142857142853  C 4.90909090909093 4.42782738095241  4.86860795454544 4.51990327380952  4.78764204545456 4.59765625  C 4.70667613636363 4.67540922619048  4.61079545454544 4.71428571428569  4.5 4.71428571428569  L 3.68181818181819 4.71428571428569  C 3.57102272727275 4.71428571428569  3.47514204545456 4.67540922619048  3.39417613636363 4.59765625  C 3.31321022727275 4.51990327380952  3.27272727272725 4.42782738095241  3.27272727272725 4.32142857142853  L 3.27272727272725 3.53571428571431  C 3.27272727272725 3.42931547619048  3.31321022727275 3.33723958333334  3.39417613636363 3.25948660714283  C 3.47514204545456 3.18173363095241  3.57102272727275 3.14285714285717  3.68181818181819 3.14285714285717  L 4.5 3.14285714285717  C 4.61079545454544 3.14285714285717  4.70667613636363 3.18173363095241  4.78764204545456 3.25948660714283  Z M 14.6058238636364 9.54520089285717  C 14.6867897727273 9.62295386904759  14.7272727272727 9.71502976190476  14.7272727272727 9.82142857142853  L 14.7272727272727 10.6071428571428  C 14.7272727272727 10.7135416666667  14.6867897727273 10.8056175595238  14.6058238636364 10.8833705357143  C 14.5248579545454 10.9611235119048  14.4289772727273 11  14.3181818181818 11  L 13.5 11  C 13.3892045454546 11  13.2933238636364 10.9611235119048  13.2123579545454 10.8833705357143  C 13.1313920454546 10.8056175595238  13.0909090909091 10.7135416666667  13.0909090909091 10.6071428571428  L 13.0909090909091 9.82142857142853  C 13.0909090909091 9.71502976190476  13.1313920454546 9.62295386904759  13.2123579545454 9.54520089285717  C 13.2933238636364 9.46744791666666  13.3892045454546 9.42857142857147  13.5 9.42857142857147  L 14.3181818181818 9.42857142857147  C 14.4289772727273 9.42857142857147  14.5248579545454 9.46744791666666  14.6058238636364 9.54520089285717  Z M 11.3330965909091 6.40234375  C 11.4140625 6.48009672619048  11.4545454545454 6.57217261904759  11.4545454545454 6.67857142857147  L 11.4545454545454 7.46428571428569  C 11.4545454545454 7.57068452380952  11.4140625 7.66276041666666  11.3330965909091 7.74051339285717  C 11.2521306818182 7.81826636904759  11.15625 7.85714285714283  11.0454545454546 7.85714285714283  L 10.2272727272727 7.85714285714283  C 10.1164772727273 7.85714285714283  10.0205965909091 7.81826636904759  9.93963068181819 7.74051339285717  C 9.85866477272725 7.66276041666666  9.81818181818181 7.57068452380952  9.81818181818181 7.46428571428569  L 9.81818181818181 6.67857142857147  C 9.81818181818181 6.57217261904759  9.85866477272725 6.48009672619048  9.93963068181819 6.40234375  C 10.0205965909091 6.32459077380952  10.1164772727273 6.28571428571431  10.2272727272727 6.28571428571431  L 11.0454545454546 6.28571428571431  C 11.15625 6.28571428571431  11.2521306818182 6.32459077380952  11.3330965909091 6.40234375  Z M 8.06036931818181 3.25948660714283  C 8.14133522727275 3.33723958333334  8.18181818181819 3.42931547619048  8.18181818181819 3.53571428571431  L 8.18181818181819 4.32142857142853  C 8.18181818181819 4.42782738095241  8.14133522727275 4.51990327380952  8.06036931818181 4.59765625  C 7.97940340909088 4.67540922619048  7.88352272727275 4.71428571428569  7.77272727272725 4.71428571428569  L 6.95454545454544 4.71428571428569  C 6.84375 4.71428571428569  6.74786931818181 4.67540922619048  6.66690340909093 4.59765625  C 6.5859375 4.51990327380952  6.54545454545456 4.42782738095241  6.54545454545456 4.32142857142853  L 6.54545454545456 3.53571428571431  C 6.54545454545456 3.42931547619048  6.5859375 3.33723958333334  6.66690340909093 3.25948660714283  C 6.74786931818181 3.18173363095241  6.84375 3.14285714285717  6.95454545454544 3.14285714285717  L 7.77272727272725 3.14285714285717  C 7.88352272727275 3.14285714285717  7.97940340909088 3.18173363095241  8.06036931818181 3.25948660714283  Z M 14.6058238636364 6.40234375  C 14.6867897727273 6.48009672619048  14.7272727272727 6.57217261904759  14.7272727272727 6.67857142857147  L 14.7272727272727 7.46428571428569  C 14.7272727272727 7.57068452380952  14.6867897727273 7.66276041666666  14.6058238636364 7.74051339285717  C 14.5248579545454 7.81826636904759  14.4289772727273 7.85714285714283  14.3181818181818 7.85714285714283  L 13.5 7.85714285714283  C 13.3892045454546 7.85714285714283  13.2933238636364 7.81826636904759  13.2123579545454 7.74051339285717  C 13.1313920454546 7.66276041666666  13.0909090909091 7.57068452380952  13.0909090909091 7.46428571428569  L 13.0909090909091 6.67857142857147  C 13.0909090909091 6.57217261904759  13.1313920454546 6.48009672619048  13.2123579545454 6.40234375  C 13.2933238636364 6.32459077380952  13.3892045454546 6.28571428571431  13.5 6.28571428571431  L 14.3181818181818 6.28571428571431  C 14.4289772727273 6.28571428571431  14.5248579545454 6.32459077380952  14.6058238636364 6.40234375  Z M 11.3330965909091 3.25948660714283  C 11.4140625 3.33723958333334  11.4545454545454 3.42931547619048  11.4545454545454 3.53571428571431  L 11.4545454545454 4.32142857142853  C 11.4545454545454 4.42782738095241  11.4140625 4.51990327380952  11.3330965909091 4.59765625  C 11.2521306818182 4.67540922619048  11.15625 4.71428571428569  11.0454545454546 4.71428571428569  L 10.2272727272727 4.71428571428569  C 10.1164772727273 4.71428571428569  10.0205965909091 4.67540922619048  9.93963068181819 4.59765625  C 9.85866477272725 4.51990327380952  9.81818181818181 4.42782738095241  9.81818181818181 4.32142857142853  L 9.81818181818181 3.53571428571431  C 9.81818181818181 3.42931547619048  9.85866477272725 3.33723958333334  9.93963068181819 3.25948660714283  C 10.0205965909091 3.18173363095241  10.1164772727273 3.14285714285717  10.2272727272727 3.14285714285717  L 11.0454545454546 3.14285714285717  C 11.15625 3.14285714285717  11.2521306818182 3.18173363095241  11.3330965909091 3.25948660714283  Z M 14.6058238636364 3.25948660714283  C 14.6867897727273 3.33723958333334  14.7272727272727 3.42931547619048  14.7272727272727 3.53571428571431  L 14.7272727272727 4.32142857142853  C 14.7272727272727 4.42782738095241  14.6867897727273 4.51990327380952  14.6058238636364 4.59765625  C 14.5248579545454 4.67540922619048  14.4289772727273 4.71428571428569  14.3181818181818 4.71428571428569  L 13.5 4.71428571428569  C 13.3892045454546 4.71428571428569  13.2933238636364 4.67540922619048  13.2123579545454 4.59765625  C 13.1313920454546 4.51990327380952  13.0909090909091 4.42782738095241  13.0909090909091 4.32142857142853  L 13.0909090909091 3.53571428571431  C 13.0909090909091 3.42931547619048  13.1313920454546 3.33723958333334  13.2123579545454 3.25948660714283  C 13.2933238636364 3.18173363095241  13.3892045454546 3.14285714285717  13.5 3.14285714285717  L 14.3181818181818 3.14285714285717  C 14.4289772727273 3.14285714285717  14.5248579545454 3.18173363095241  14.6058238636364 3.25948660714283  Z M 11.4545454545454 17.6785714285715  L 11.4545454545454 20.4285714285715  L 16.3636363636364 20.4285714285715  L 16.3636363636364 2  L 1.63636363636363 2  L 1.63636363636363 20.4285714285715  L 6.54545454545456 20.4285714285715  L 6.54545454545456 17.6785714285715  C 6.54545454545456 17.5721726190476  6.5859375 17.4800967261905  6.66690340909093 17.40234375  C 6.74786931818181 17.3245907738095  6.84375 17.2857142857143  6.95454545454544 17.2857142857143  L 11.0454545454546 17.2857142857143  C 11.15625 17.2857142857143  11.2521306818182 17.3245907738095  11.3330965909091 17.40234375  C 11.4140625 17.4800967261905  11.4545454545454 17.5721726190476  11.4545454545454 17.6785714285715  Z M 17.7571022727273 0.233258928571473  C 17.9190340909091 0.388764880952408  18 0.572916666666657  18 0.785714285714306  L 18 21.2142857142857  C 18 21.4270833333333  17.9190340909091 21.6112351190476  17.7571022727273 21.7667410714285  C 17.5951704545454 21.9222470238095  17.4034090909091 22  17.1818181818182 22  L 0.818181818181813 22  C 0.596590909090878 22  0.404829545454561 21.9222470238095  0.242897727272748 21.7667410714285  C 0.0809659090909349 21.6112351190476  0 21.4270833333333  0 21.2142857142857  L 0 0.785714285714306  C 0 0.572916666666657  0.0809659090909349 0.388764880952408  0.242897727272748 0.233258928571473  C 0.404829545454561 0.0777529761904816  0.596590909090878 0  0.818181818181813 0  L 17.1818181818182 0  C 17.4034090909091 0  17.5951704545454 0.0777529761904816  17.7571022727273 0.233258928571473  Z " fill-rule="nonzero" fill="#666666" stroke="none" transform="matrix(1 0 0 1 356 275 )" />
  </g>
</svg>