<?xml version="1.0" encoding="utf-8"?>
<svg version="1.1" xmlns:xlink="http://www.w3.org/1999/xlink" width="27px" height="21px" xmlns="http://www.w3.org/2000/svg">
  <g transform="matrix(1 0 0 1 -351 -491 )">
    <path d="M 25.0714285714286 1.74772431729519  L 25.0714285714286 6.99089726918078  C 25.6037946428571 6.99089726918078  26.0583147321429 7.16157347204165  26.4349888392857 7.50292587776335  C 26.8116629464286 7.84427828348504  27 8.25617685305593  27 8.73862158647597  C 27 9.22106631989595  26.8116629464286 9.63296488946685  26.4349888392857 9.97431729518854  C 26.0583147321429 10.3156697009102  25.6037946428571 10.4863459037711  25.0714285714286 10.4863459037711  L 25.0714285714286 15.7295188556567  C 25.0714285714286 16.2028608582575  24.8805803571429 16.6124837451235  24.4988839285714 16.9583875162549  C 24.1171875 17.3042912873863  23.6651785714286 17.4772431729518  23.1428571428571 17.4772431729518  C 18.9542410714286 14.3185955786736  14.8761160714286 12.5890767230169  10.9084821428571 12.2886866059818  C 10.3258928571429 12.4616384915475  9.86886160714286 12.7620286085826  9.53738839285714 13.1898569570871  C 9.20591517857142 13.6176853055916  9.05022321428572 14.0750975292588  9.0703125 14.5620936280884  C 9.09040178571428 15.0490897269181  9.29129464285714 15.4700910273082  9.67299107142858 15.8250975292588  C 9.47209821428572 16.1254876462938  9.35658482142858 16.4236020806242  9.32645089285714 16.7194408322497  C 9.29631696428572 17.0152795838752  9.32645089285714 17.2792587776333  9.41685267857142 17.511378413524  C 9.50725446428572 17.7434980494148  9.67550223214286 17.9938231469441  9.92159598214286 18.2623537061118  C 10.1676897321429 18.5308842652796  10.4087611607143 18.7584525357607  10.6448102678571 18.9450585175553  C 10.880859375 19.1316644993498  11.1897321428571 19.3615084525358  11.5714285714286 19.6345903771131  C 11.2801339285714 20.1625487646294  10.7201450892857 20.5403120936281  9.89146205357142 20.7678803641093  C 9.06277901785714 20.9954486345904  8.21651785714286 21.0477893368011  7.35267857142857 20.9249024707412  C 6.48883928571429 20.8020156046814  5.82589285714286 20.5494148244474  5.36383928571429 20.167100130039  C 5.29352678571429 19.9577373211964  5.14536830357143 19.5594928478544  4.91936383928571 18.972366710013  C 4.693359375 18.3852405721716  4.53264508928572 17.9551365409623  4.43722098214286 17.6820546163849  C 4.341796875 17.4089726918075  4.22628348214286 17.0039011703511  4.09068080357143 16.4668400520156  C 3.955078125 15.9297789336802  3.87974330357143 15.4700910273082  3.86467633928571 15.0877763328998  C 3.849609375 14.7054616384916  3.8671875 14.2571521456437  3.91741071428571 13.7428478543563  C 3.96763392857143 13.2285435630689  4.078125 12.7256176853056  4.24888392857143 12.2340702210663  L 2.41071428571429 12.2340702210663  C 1.74776785714286 12.2340702210663  1.18024553571429 12.0201560468141  0.708147321428569 11.5923276983095  C 0.236049107142861 11.164499349805  0 10.6501950585176  0 10.0494148244474  L 0 7.42782834850453  C 0 6.82704811443432  0.236049107142861 6.31274382314695  0.708147321428569 5.88491547464241  C 1.18024553571429 5.45708712613782  1.74776785714286 5.24317295188558  2.41071428571429 5.24317295188558  L 9.64285714285714 5.24317295188558  C 14.0122767857143 5.24317295188558  18.5122767857143 3.49544863459033  23.1428571428571 0  C 23.6651785714286 0  24.1171875 0.172951885565681  24.4988839285714 0.518855656696985  C 24.8805803571429 0.864759427828346  25.0714285714286 1.27438231469444  25.0714285714286 1.74772431729519  Z M 11.5714285714286 10.5819245773732  C 15.3582589285714 10.9642392717815  19.2154017857143 12.516254876463  23 15.2379713914174  L 23 2.21196358907667  C 19.1852678571429 4.96098829648895  15.328125 6.52210663198957  11.5714285714286 6.89531859557866  L 11.5714285714286 10.5819245773732  Z " fill-rule="nonzero" fill="#666666" stroke="none" transform="matrix(1 0 0 1 351 491 )" />
  </g>
</svg>