<?xml version="1.0" encoding="utf-8"?>
<svg version="1.1" xmlns:xlink="http://www.w3.org/1999/xlink" width="16px" height="20px" xmlns="http://www.w3.org/2000/svg">
  <g transform="matrix(1 0 0 1 -571 -130 )">
    <path d="M 15.8396793587174 9.19254658385093  C 15.9465597862392 9.33057280883367  16 9.48930296756383  16 9.66873706004141  C 16 9.84817115251897  15.9465597862392 10.0069013112491  15.8396793587174 10.1449275362319  L 8.36873747494991 19.7929606625259  C 8.26185704742818 19.9309868875086  8.13894455577821 20  8 20  C 7.86105544422179 20  7.73814295257182 19.9309868875086  7.63126252505009 19.7929606625259  L 0.160320641282567 10.1449275362319  C 0.0534402137608367 10.0069013112491  0 9.84817115251897  0 9.66873706004141  C 0 9.48930296756383  0.0534402137608367 9.33057280883367  0.160320641282567 9.19254658385093  L 0.961923847695402 8.15734989648033  C 1.06880427521708 8.01932367149758  1.19171676686705 7.95031055900621  1.33066132264531 7.95031055900621  C 1.46960587842352 7.95031055900621  1.59251837007349 8.01932367149758  1.69939879759522 8.15734989648033  L 8 16.2939958592132  L 14.3006012024048 8.15734989648033  C 14.4074816299265 8.01932367149758  14.5303941215765 7.95031055900621  14.6693386773547 7.95031055900621  C 14.808283233133 7.95031055900621  14.9311957247829 8.01932367149758  15.0380761523046 8.15734989648033  L 15.8396793587174 9.19254658385093  Z M 15.8396793587174 1.24223602484472  C 15.9465597862392 1.38026224982747  16 1.53899240855763  16 1.7184265010352  C 16 1.89786059351276  15.9465597862392 2.05659075224293  15.8396793587174 2.19461697722567  L 8.36873747494991 11.8426501035197  C 8.26185704742818 11.9806763285024  8.13894455577821 12.0496894409938  8 12.0496894409938  C 7.86105544422179 12.0496894409938  7.73814295257182 11.9806763285024  7.63126252505009 11.8426501035197  L 0.160320641282567 2.19461697722567  C 0.0534402137608367 2.05659075224293  0 1.89786059351276  0 1.7184265010352  C 0 1.53899240855763  0.0534402137608367 1.38026224982747  0.160320641282567 1.24223602484472  L 0.961923847695402 0.207039337474122  C 1.06880427521708 0.0690131124913691  1.19171676686705 0  1.33066132264531 0  C 1.46960587842352 0  1.59251837007349 0.0690131124913691  1.69939879759522 0.207039337474122  L 8 8.34368530020704  L 14.3006012024048 0.207039337474122  C 14.4074816299265 0.0690131124913691  14.5303941215765 0  14.6693386773547 0  C 14.808283233133 0  14.9311957247829 0.0690131124913691  15.0380761523046 0.207039337474122  L 15.8396793587174 1.24223602484472  Z " fill-rule="nonzero" fill="#000000" stroke="none" transform="matrix(1 0 0 1 571 130 )" />
  </g>
</svg>