<?xml version="1.0" encoding="utf-8"?>
<svg version="1.1" xmlns:xlink="http://www.w3.org/1999/xlink" width="21px" height="25px" xmlns="http://www.w3.org/2000/svg">
  <g transform="matrix(1 0 0 1 -354 -418 )">
    <path d="M 18.9479315263909 14.306640625  C 19.6569186875892 14.5345052083334  20.3409415121255 14.8949032738095  21 15.3878348214286  C 20.6804564907275 16.1318824404762  20.3009985734665 16.7736235119047  19.8616262482169 17.3130580357143  C 19.4222539229672 17.8524925595238  18.9679029957204 18.2640438988095  18.4985734664764 18.5477120535714  C 18.0292439372325 18.8313802083334  17.5349500713266 19.0476190476191  17.0156918687589 19.1964285714286  C 16.4964336661911 19.3452380952381  15.9896576319543 19.4126674107143  15.4953637660485 19.3987165178572  C 15.0010699001426 19.384765625  14.5192582025678 19.3452380952381  14.0499286733238 19.2801339285714  C 13.5805991440799 19.2150297619047  13.1487161198288 19.1127232142857  12.7542796005706 18.9732142857143  C 12.3598430813124 18.8337053571428  12.0128388017118 18.7058221726191  11.7132667617689 18.5895647321428  C 11.4136947218259 18.4733072916666  11.1840228245364 18.3686755952381  11.0242510699001 18.2756696428572  L 10.7696148359486 18.1361607142857  C 9.64122681883026 20.2566964285714  8.1957917261056 21.9284784226191  6.43330955777458 23.1515066964286  C 4.67082738944367 24.3745349702381  2.75106990014268 24.9906994047619  0.674037089871604 25  C 0.484308131241107 25  0.32453637660484 24.9395461309524  0.194721825962915 24.8186383928572  C 0.0649072753209907 24.6977306547619  0 24.5489211309524  0 24.3722098214286  C 0 24.1954985119047  0.0649072753209907 24.0490141369047  0.194721825962915 23.9327566964286  C 0.32453637660484 23.8164992559524  0.484308131241107 23.7583705357143  0.674037089871604 23.7583705357143  C 2.40156918687592 23.7490699404762  4.01176890156916 23.2491629464286  5.50463623395149 22.2586495535714  C 6.99750356633382 21.2681361607143  8.25320970042799 19.8986235119047  9.27175463623399 18.1501116071428  C 8.91226818830245 18.2803199404762  8.5527817403709 18.3872767857143  8.19329529243936 18.4709821428572  C 7.83380884450787 18.5546875  7.41940085592012 18.6151413690476  6.95007132667621 18.65234375  C 6.48074179743224 18.6895461309524  6.02639087018548 18.6779203869047  5.5870185449358 18.6174665178572  C 5.14764621968618 18.5570126488095  4.68330955777458 18.4244791666666  4.19400855920111 18.2198660714286  C 3.70470756062764 18.0152529761905  3.24536376604851 17.7408854166666  2.81597717546362 17.3967633928572  C 2.38659058487872 17.0526413690476  1.96469329529242 16.5876116071428  1.55028530670472 16.0016741071428  C 1.13587731811697 15.4157366071428  0.763908701854461 14.7367931547619  0.43437945791726 13.96484375  C 1.57275320970041 13.5277157738095  2.64122681883026 13.2626488095238  3.63980028530671 13.1696428571428  C 4.63837375178315 13.0766369047619  5.4746790299572 13.1115141369047  6.1487161198288 13.2742745535714  C 6.82275320970047 13.4370349702381  7.44436519258204 13.6997767857143  8.01355206847359 14.0625  C 8.58273894436519 14.4252232142857  9.02460770328105 14.7832961309524  9.33915834522111 15.13671875  C 9.65370898716122 15.4901413690476  9.93580599144082 15.8714657738095  10.1854493580599 16.2806919642857  C 10.7146932952924 15.0623139880953  11.1091298145507 13.7090773809524  11.3687589158345 12.2209821428572  C 11.2988587731812 12.2302827380952  11.2089871611983 12.2419084821428  11.0991440798859 12.255859375  C 10.9893009985735 12.2698102678572  10.7571326676177 12.2814360119048  10.4026390870185 12.2907366071428  C 10.0481455064194 12.3000372023809  9.70114122681883 12.2977120535714  9.36162624821685 12.2837611607143  C 9.02211126961481 12.2698102678572  8.61519258202566 12.2233072916666  8.14087018544939 12.1442522321428  C 7.66654778887306 12.0651971726191  7.2246790299572 11.9582403273809  6.81526390870187 11.8233816964286  C 6.40584878744653 11.6885230654762  5.98644793152641 11.4908854166666  5.55706134094152 11.23046875  C 5.12767475035662 10.9700520833334  4.75320970042799 10.6677827380952  4.43366619115551 10.3236607142857  C 4.11412268188303 9.9795386904762  3.84201141226822 9.5400855654762  3.61733238231096 9.00530133928572  C 3.39265335235376 8.47051711309524  3.25035663338088 7.87760416666663  3.1904422253923 7.2265625  C 3.88944365192583 6.96614583333337  4.55599144079889 6.79640997023813  5.19008559201143 6.71735491071428  C 5.82417974322396 6.63829985119048  6.38587731811697 6.64295014880952  6.87517831669044 6.73130580357145  C 7.36447931526391 6.81966145833337  7.82382310984309 6.95917038690476  8.25320970042799 7.14983258928572  C 8.68259629101283 7.34049479166663  9.04957203994297 7.57300967261909  9.35413694721825 7.84737723214283  C 9.65870185449359 8.12174479166663  9.938302425107 8.40541294642856  10.1929386590585 8.69838169642856  C 10.44757489301 8.99135044642856  10.65727532097 9.28431919642856  10.8220399429387 9.57728794642856  C 10.9868045649073 9.87025669642856  11.1241084165478 10.1306733630952  11.2339514978602 10.3585379464286  C 11.3437945791726 10.5864025297619  11.4236804564907 10.7700892857143  11.4736091298146 10.9095982142857  L 11.5335235378031 11.1328125  C 11.6533523537803 9.99813988095235  11.7132667617689 9.09133184523813  11.7132667617689 8.41238839285717  C 11.6333808844508 8.35658482142856  11.5260342368045 8.2821800595238  11.3912268188303 8.18917410714283  C 11.2564194008559 8.09616815476187  11.0117689015692 7.88922991071428  10.65727532097 7.568359375  C 10.3027817403709 7.24748883928572  9.98573466476461 6.9149925595238  9.7061340941512 6.57087053571428  C 9.42653352353784 6.22674851190476  9.15691868758915 5.79427083333337  8.89728958630531 5.2734375  C 8.6376604850214 4.75260416666663  8.47289586305277 4.2294456845238  8.40299572039942 3.70396205357144  C 8.33309557774606 3.17847842261909  8.39300998573464 2.587890625  8.58273894436519 1.93219866071428  C 8.77246790299574 1.27650669642856  9.12196861626245 0.632440476190482  9.63124108416548 0  C 10.3601997146933 0.232514880952351  10.996790299572 0.518508184523796  11.5410128388017 0.857979910714278  C 12.0852353780314 1.19745163690476  12.5071326676177 1.55319940476187  12.8067047075606 1.92522321428572  C 13.1062767475036 2.29724702380952  13.3459343794579 2.69252232142856  13.5256776034237 3.11104910714283  C 13.7054208273894 3.52957589285717  13.8077746077033 3.94345238095235  13.8327389443652 4.35267857142856  C 13.8577032810271 4.76190476190476  13.8552068473609 5.15950520833337  13.8252496433666 5.54547991071428  C 13.7952924393723 5.93145461309524  13.7303851640513 6.28720238095235  13.6305278174037 6.61272321428572  C 13.530670470756 6.93824404761909  13.4358059914408 7.2265625  13.3459343794579 7.47767857142855  C 13.256062767475 7.72879464285717  13.1711840228245 7.92410714285717  13.0912981455064 8.06361607142856  L 12.9864479315264 8.27287946428572  C 12.9964336661911 8.31008184523813  13.0014265335236 8.54259672619048  13.0014265335236 8.97042410714283  C 13.0014265335236 9.39825148809524  12.9964336661911 9.73307291666663  12.9864479315264 9.97488839285717  C 13.0164051355207 9.90978422619048  13.0663338088445 9.82375372023813  13.1362339514978 9.716796875  C 13.2061340941512 9.60984002976187  13.3584165477889 9.40987723214283  13.5930813124108 9.11690848214283  C 13.8277460770328 8.82393973214283  14.0798858773181 8.55422247023813  14.3495007132668 8.30775669642856  C 14.6191155492154 8.06129092261909  14.9736091298146 7.80319940476187  15.4129814550642 7.53348214285717  C 15.8523537803138 7.26376488095235  16.3092011412268 7.05682663690476  16.7835235378031 6.91266741071428  C 17.2578459343795 6.7685081845238  17.8170470756063 6.70107886904765  18.4611269614836 6.71037946428572  C 19.1052068473609 6.7196800595238  19.7667617689016 6.83128720238091  20.4457917261055 7.04520089285717  C 20.425820256776 7.77064732142855  20.3184736091298 8.4286644345238  20.1237517831669 9.01925223214283  C 19.929029957204 9.60984002976187  19.6793865905849 10.0957961309524  19.3748216833096 10.4771205357143  C 19.0702567760342 10.8584449404762  18.7232524964336 11.1909412202381  18.3338088445079 11.474609375  C 17.944365192582 11.7582775297619  17.5374465049929 11.9698660714286  17.1130527817404 12.109375  C 16.6886590584879 12.2488839285714  16.2667617689016 12.3604910714286  15.8473609129815 12.4441964285714  C 15.4279600570613 12.5279017857143  15.0285306704707 12.5720796130953  14.6490727532097 12.5767299107143  C 14.2696148359486 12.5813802083334  13.9325962910128 12.5767299107143  13.6380171184023 12.5627790178572  C 13.3434379457917 12.548828125  13.111269614836 12.5279017857143  12.941512125535 12.5  L 12.6868758915834 12.4581473214286  C 12.4572039942939 13.8253348214286  12.09272467903 15.1413690476191  11.5934379457917 16.40625  C 11.6533523537803 16.3411458333334  11.7432239657632 16.2551153273809  11.8630527817404 16.1481584821428  C 11.9828815977176 16.0412016369047  12.2300285306705 15.8505394345238  12.6044935805991 15.576171875  C 12.9789586305278 15.3018043154762  13.3659058487875 15.0576636904762  13.7653352353781 14.84375  C 14.1647646219686 14.6298363095238  14.6615549215406 14.4345238095238  15.2557061340942 14.2578125  C 15.8498573466476 14.0811011904762  16.4365192582026 13.9880952380953  17.0156918687589 13.9787946428572  C 17.5948644793153 13.9694940476191  18.2389443651926 14.0787760416666  18.9479315263909 14.306640625  Z " fill-rule="nonzero" fill="#666666" stroke="none" transform="matrix(1 0 0 1 354 418 )" />
  </g>
</svg>