<?xml version="1.0" encoding="utf-8"?>
<svg version="1.1" xmlns:xlink="http://www.w3.org/1999/xlink" width="16px" height="20px" xmlns="http://www.w3.org/2000/svg">
  <g transform="matrix(1 0 0 1 -571 -491 )">
    <path d="M 15.8396793587174 17.8053830227743  C 15.9465597862392 17.943409247757  16 18.1021394064872  16 18.2815734989648  C 16 18.4610075914424  15.9465597862392 18.6197377501725  15.8396793587174 18.7577639751553  L 15.0380761523046 19.7929606625259  C 14.9311957247829 19.9309868875087  14.808283233133 20  14.6693386773547 20  C 14.5303941215765 20  14.4074816299265 19.9309868875087  14.3006012024048 19.7929606625259  L 8 11.656314699793  L 1.69939879759522 19.7929606625259  C 1.59251837007349 19.9309868875087  1.46960587842352 20  1.33066132264531 20  C 1.19171676686705 20  1.06880427521708 19.9309868875087  0.961923847695402 19.7929606625259  L 0.160320641282567 18.7577639751553  C 0.0534402137608367 18.6197377501725  0 18.4610075914424  0 18.2815734989648  C 0 18.1021394064872  0.0534402137608367 17.943409247757  0.160320641282567 17.8053830227743  L 7.63126252505009 8.15734989648035  C 7.73814295257182 8.0193236714976  7.86105544422179 7.95031055900625  8 7.95031055900625  C 8.13894455577821 7.95031055900625  8.26185704742818 8.0193236714976  8.36873747494991 8.15734989648035  L 15.8396793587174 17.8053830227743  Z M 15.8396793587174 9.85507246376812  C 15.9465597862392 9.99309868875088  16 10.151828847481  16 10.3312629399586  C 16 10.5106970324362  15.9465597862392 10.6694271911663  15.8396793587174 10.8074534161491  L 15.0380761523046 11.8426501035196  C 14.9311957247829 11.9806763285024  14.808283233133 12.0496894409937  14.6693386773547 12.0496894409937  C 14.5303941215765 12.0496894409937  14.4074816299265 11.9806763285024  14.3006012024048 11.8426501035196  L 8 3.70600414078672  L 1.69939879759522 11.8426501035196  C 1.59251837007349 11.9806763285024  1.46960587842352 12.0496894409937  1.33066132264531 12.0496894409937  C 1.19171676686705 12.0496894409937  1.06880427521708 11.9806763285024  0.961923847695402 11.8426501035196  L 0.160320641282567 10.8074534161491  C 0.0534402137608367 10.6694271911663  0 10.5106970324362  0 10.3312629399586  C 0 10.151828847481  0.0534402137608367 9.99309868875088  0.160320641282567 9.85507246376812  L 7.63126252505009 0.2070393374741  C 7.73814295257182 0.0690131124913478  7.86105544422179 0  8 0  C 8.13894455577821 0  8.26185704742818 0.0690131124913478  8.36873747494991 0.2070393374741  L 15.8396793587174 9.85507246376812  Z " fill-rule="nonzero" fill="#000000" stroke="none" transform="matrix(1 0 0 1 571 491 )" />
  </g>
</svg>