<?xml version="1.0" encoding="utf-8"?>
<svg version="1.1" xmlns:xlink="http://www.w3.org/1999/xlink" width="22px" height="12px" xmlns="http://www.w3.org/2000/svg">
  <g transform="matrix(1 0 0 1 -202 -15 )">
    <path d="M 21.591796875 0.395833333333329  C 21.8639322916666 0.659722222222214  22 0.972222222222214  22 1.33333333333333  C 22 1.69444444444444  21.8639322916666 2.00694444444444  21.591796875 2.27083333333333  L 11.966796875 11.6041666666667  C 11.6946614583334 11.8680555555555  11.3723958333334 12  11 12  C 10.6276041666666 12  10.3053385416666 11.8680555555555  10.033203125 11.6041666666667  L 0.408203125 2.27083333333333  C 0.136067708333371 2.00694444444444  0 1.69444444444444  0 1.33333333333333  C 0 0.972222222222214  0.136067708333371 0.659722222222214  0.408203125 0.395833333333329  C 0.680338541666629 0.131944444444443  1.00260416666663 0  1.375 0  L 20.625 0  C 20.9973958333334 0  21.3196614583334 0.131944444444443  21.591796875 0.395833333333329  Z " fill-rule="nonzero" fill="#000000" stroke="none" transform="matrix(1 0 0 1 202 15 )" />
  </g>
</svg>