<?xml version="1.0" encoding="utf-8"?>
<svg version="1.1" xmlns:xlink="http://www.w3.org/1999/xlink" width="23px" height="22px" xmlns="http://www.w3.org/2000/svg">
  <g transform="matrix(1 0 0 1 -61 -138 )">
    <path d="M 0 4.71428571428572  L 11.5 0  L 23 4.71428571428572  L 23 6.28571428571428  L 21.4666666666666 6.28571428571428  C 21.4666666666666 6.49851190476187  21.3848090277778 6.68266369047618  21.22109375 6.83816964285717  C 21.0573784722223 6.9936755952381  20.8637152777777 7.07142857142856  20.6401041666667 7  L 2.35989583333333 7  C 2.13628472222229 7.07142857142856  1.94262152777776 6.9936755952381  1.77890625000003 6.83816964285717  C 1.61519097222219 6.68266369047618  1.53333333333336 6.49851190476187  1.53333333333336 6.28571428571428  L 0 6.28571428571428  L 0 4.71428571428572  Z M 3.06666666666672 17.2857142857143  L 3.06666666666672 7.85714285714283  L 6.13333333333333 7.85714285714283  L 6.13333333333333 17.2857142857143  L 7.66666666666669 17.2857142857143  L 7.66666666666669 7.85714285714283  L 10.7333333333333 7.85714285714283  L 10.7333333333333 17.2857142857143  L 12.2666666666667 17.2857142857143  L 12.2666666666667 7.85714285714283  L 15.3333333333333 7.85714285714283  L 15.3333333333333 17.2857142857143  L 16.8666666666667 17.2857142857143  L 16.8666666666667 7.85714285714283  L 19.9333333333333 7.85714285714283  L 19.9333333333333 17.2857142857143  L 20.6401041666667 17.2857142857143  C 20.8637152777777 17.2857142857143  21.0573784722223 17.3634672619048  21.22109375 17.5189732142857  C 21.3848090277778 17.6744791666667  21.4666666666666 17.858630952381  21.4666666666666 18.0714285714286  L 21.4666666666666 18.8571428571428  L 1.53333333333336 18.8571428571428  L 1.53333333333336 18.0714285714286  C 1.53333333333336 17.858630952381  1.61519097222219 17.6744791666667  1.77890625000003 17.5189732142857  C 1.94262152777776 17.3634672619048  2.13628472222229 17.2857142857143  2.35989583333333 17.2857142857143  L 3.06666666666672 17.2857142857143  Z M 0.826562499999966 19.6428571428572  L 22.1734375 19.6428571428572  C 22.3970486111111 19.6428571428572  22.5907118055556 19.7206101190476  22.7544270833333 19.8761160714286  C 22.9181423611112 20.0316220238095  23 20.2157738095238  23 20.4285714285714  L 23 22  L 0 22  L 0 20.4285714285714  C 0 20.2157738095238  0.0818576388888346 20.0316220238095  0.245572916666674 19.8761160714286  C 0.4092881944444 19.7206101190476  0.602951388888869 19.6428571428572  0.826562499999966 19.6428571428572  Z " fill-rule="nonzero" fill="#ffffff" stroke="none" transform="matrix(1 0 0 1 61 138 )" />
  </g>
</svg>