<?xml version="1.0" encoding="utf-8"?>
<svg version="1.1" xmlns:xlink="http://www.w3.org/1999/xlink" width="19px" height="24px" xmlns="http://www.w3.org/2000/svg">
  <g transform="matrix(1 0 0 1 -63 -58 )">
    <path d="M 18.7591727818546 6.25446428571428  C 18.9197242606182 6.42410714285715  19 6.625  19 6.85714285714286  L 19 18.09375  C 19 18.5223214285714  18.7929730931732 18.7991071428571  18.3789192795197 18.9241071428571  C 16.9086057371581 19.3883928571428  15.4805425839448 19.6205357142857  14.0947298198799 19.6205357142857  C 13.4778741383144 19.6205357142857  12.5673782521681 19.4888392857143  11.363242161441 19.2254464285714  C 10.1591060707138 18.9620535714286  9.19790971758948 18.8303571428571  8.47965310206803 18.8303571428571  C 7.09384033800308 18.8303571428571  5.53057593951525 19.0446428571429  3.78985990660442 19.4732142857143  L 3.78985990660442 24  L 2 24  L 2 5.67857142857142  C 1.22948632421617 5.45535714285715  0.802757393818126 5.09374999999999  0.481654436290853 4.59375  C 0.160551478763637 4.09375000000001  0 3.54017857142858  0 2.93303571428572  C 0 2.12053571428572  0.270402490549259 1.42857142857142  0.811207471647776 0.857142857142861  C 1.35201245274635 0.285714285714278  2.00689348454523 0  2.7758505670447 0  C 3.54480764954411 0  4.19968868134305 0.285714285714278  4.74049366244162 0.857142857142861  C 5.28129864354014 1.42857142857142  5.5517011340894 2.12053571428572  5.5517011340894 2.93303571428572  C 5.5517011340894 3.54017857142858  5.39114965532576 4.09375000000001  5.07004669779854 4.59375  C 4.74894374027127 5.09374999999999  4.32221480987323 5.45535714285715  3.78985990660442 5.67857142857142  L 3.78985990660442 6.58928571428572  C 5.39537469424062 6.19642857142857  6.84456304202797 6  8.1374249499666 6  C 8.97398265510338 6  9.81054036024022 6.06696428571428  10.647098065377 6.20089285714286  C 10.7653991549922 6.21874999999999  11.236490993996 6.31919642857143  12.0603735823883 6.50223214285714  C 12.8842561707806 6.68526785714285  13.515899488548 6.77678571428572  13.9553035356905 6.77678571428572  C 14.6059595285746 6.77678571428572  15.3030909495218 6.69642857142858  16.0466977985323 6.53571428571428  C 16.1396486546587 6.51785714285715  16.4776517678452 6.42410714285715  17.0607071380921 6.25446428571428  C 17.6437625083389 6.08482142857143  18.0197909717589 6  18.1887925283522 6  C 18.4084945519235 6  18.5986213030909 6.08482142857143  18.7591727818546 6.25446428571428  Z " fill-rule="nonzero" fill="#ffffff" stroke="none" transform="matrix(1 0 0 1 63 58 )" />
  </g>
</svg>