<?xml version="1.0" encoding="utf-8"?>
<svg version="1.1" xmlns:xlink="http://www.w3.org/1999/xlink" width="27px" height="19px" xmlns="http://www.w3.org/2000/svg">
  <g transform="matrix(1 0 0 1 -61 -180 )">
    <path d="M 10.8 11.875  L 10.8 13.3  L 16.2 13.3  L 16.2 11.875  L 14.4 11.875  L 14.4 5.22500000000002  L 12.796875 5.22500000000002  L 10.715625 7.25859374999999  L 11.7984375 8.44609374999999  C 12.1921875 8.0799479166667  12.45 7.79791666666668  12.571875 7.60000000000002  L 12.6 7.60000000000002  L 12.6 11.875  L 10.8 11.875  Z M 17.7046875 7.39218749999998  C 17.9015625 8.10468750000001  18 8.80729166666669  18 9.5  C 18 10.1927083333333  17.9015625 10.8953125  17.7046875 11.6078125  C 17.5078125 12.3203125  17.22890625 12.9833333333333  16.86796875 13.596875  C 16.50703125 14.2104166666667  16.03125 14.71015625  15.440625 15.09609375  C 14.85 15.48203125  14.203125 15.675  13.5 15.675  C 12.796875 15.675  12.15 15.48203125  11.559375 15.09609375  C 10.96875 14.71015625  10.49296875 14.2104166666667  10.1320312500001 13.596875  C 9.77109374999998 12.9833333333333  9.4921875 12.3203125  9.29531249999997 11.6078125  C 9.09843750000005 10.8953125  9 10.1927083333333  9 9.5  C 9 8.80729166666669  9.09843750000005 8.10468750000001  9.29531249999997 7.39218749999998  C 9.4921875 6.6796875  9.77109374999998 6.01666666666668  10.1320312500001 5.40312499999999  C 10.49296875 4.78958333333335  10.96875 4.28984374999999  11.559375 3.90390624999998  C 12.15 3.51796875000002  12.796875 3.32499999999999  13.5 3.32499999999999  C 14.203125 3.32499999999999  14.85 3.51796875000002  15.440625 3.90390624999998  C 16.03125 4.28984374999999  16.50703125 4.78958333333335  16.86796875 5.40312499999999  C 17.22890625 6.01666666666668  17.5078125 6.6796875  17.7046875 7.39218749999998  Z M 22.6546875 14.41328125  C 23.3578125 13.67109375  24.20625 13.3  25.2 13.3  L 25.2 5.69999999999999  C 24.20625 5.69999999999999  23.3578125 5.32890624999999  22.6546875 4.58671874999999  C 21.9515625 3.84453124999999  21.6 2.94895833333334  21.6 2  L 5.40000000000003 2  C 5.40000000000003 2.94895833333334  5.04843750000003 3.84453124999999  4.34531250000003 4.58671874999999  C 3.64218749999998 5.32890624999999  2.79375000000005 5.69999999999999  1.80000000000007 5.69999999999999  L 1.80000000000007 13.3  C 2.79375000000005 13.3  3.64218749999998 13.67109375  4.34531250000003 14.41328125  C 5.04843750000003 15.15546875  5.40000000000003 16.0510416666667  5.40000000000003 17  L 21.6 17  C 21.6 16.0510416666667  21.9515625 15.15546875  22.6546875 14.41328125  Z M 26.7328125 0.282031249999989  C 26.9109375 0.470052083333343  27 0.692708333333343  27 0.949999999999989  L 27 18.05  C 27 18.3072916666667  26.9109375 18.5299479166667  26.7328125 18.71796875  C 26.5546875 18.9059895833333  26.34375 19  26.1 19  L 0.899999999999977 19  C 0.65625 19  0.4453125 18.9059895833333  0.267187499999977 18.71796875  C 0.0890625000000114 18.5299479166667  0 18.3072916666667  0 18.05  L 0 0.949999999999989  C 0 0.692708333333343  0.0890625000000114 0.470052083333343  0.267187499999977 0.282031249999989  C 0.4453125 0.0940104166666629  0.65625 0  0.899999999999977 0  L 26.1 0  C 26.34375 0  26.5546875 0.0940104166666629  26.7328125 0.282031249999989  Z " fill-rule="nonzero" fill="#ffffff" stroke="none" transform="matrix(1 0 0 1 61 180 )" />
  </g>
</svg>