<?xml version="1.0" encoding="utf-8"?>
<svg version="1.1" xmlns:xlink="http://www.w3.org/1999/xlink" width="24px" height="24px" xmlns="http://www.w3.org/2000/svg">
  <g transform="matrix(1 0 0 1 -60 -218 )">
    <path d="M 1.4590072504183 22.5409927495817  C 1.62855549358616 22.7105409927496  1.71332961517011 22.9113218070273  1.71332961517011 23.143335192415  C 1.71332961517011 23.3753485778026  1.62855549358616 23.5761293920803  1.4590072504183 23.7456776352482  C 1.28945900725041 23.9152258784161  1.08867819297267 24  0.856664807585048 24  C 0.624651422197445 24  0.423870607919696 23.9152258784161  0.254322364751815 23.7456776352482  C 0.0847741215839335 23.5761293920803  0 23.3753485778026  0 23.143335192415  C 0 22.9113218070273  0.0847741215839335 22.7105409927496  0.254322364751815 22.5409927495817  C 0.423870607919696 22.3714445064138  0.624651422197445 22.2866703848299  0.856664807585048 22.2866703848299  C 1.08867819297267 22.2866703848299  1.28945900725041 22.3714445064138  1.4590072504183 22.5409927495817  Z M 4.02900167317345 19.9709983268266  C 4.19854991634134 20.1405465699945  4.28332403792527 20.3413273842722  4.28332403792527 20.5733407696598  C 4.28332403792527 20.8053541550474  4.19854991634134 21.0061349693251  4.02900167317345 21.175683212493  C 3.85945343000557 21.3452314556609  3.65867261572784 21.4300055772449  3.42665923034022 21.4300055772449  C 3.19464584495259 21.4300055772449  2.99386503067484 21.3452314556609  2.82431678750697 21.175683212493  C 2.65476854433909 21.0061349693251  2.56999442275516 20.8053541550474  2.56999442275516 20.5733407696598  C 2.56999442275516 20.3413273842722  2.65476854433909 20.1405465699945  2.82431678750697 19.9709983268266  C 2.99386503067484 19.8014500836587  3.19464584495259 19.7166759620747  3.42665923034022 19.7166759620747  C 3.65867261572784 19.7166759620747  3.85945343000557 19.8014500836587  4.02900167317345 19.9709983268266  Z M 3.68098159509202 16.8923591745678  L 4.88566648075852 15.6876742889013  L 8.31232571109872 19.1143335192415  L 7.10764082543224 20.319018404908  L 3.68098159509202 16.8923591745678  Z M 9.16899051868377 14.8310094813162  C 9.33853876185165 15.0005577244841  9.42331288343559 15.2013385387618  9.42331288343559 15.4333519241495  C 9.42331288343559 15.665365309537  9.33853876185165 15.8661461238148  9.16899051868377 16.0356943669827  C 8.9994422755159 16.2052426101506  8.79866146123815 16.2900167317345  8.56664807585054 16.2900167317345  C 8.33463469046291 16.2900167317345  8.13385387618517 16.2052426101506  7.96430563301729 16.0356943669827  C 7.79475738984942 15.8661461238148  7.70998326826548 15.665365309537  7.70998326826548 15.4333519241495  C 7.70998326826548 15.2013385387618  7.79475738984942 15.0005577244841  7.96430563301729 14.8310094813162  C 8.13385387618517 14.6614612381484  8.33463469046291 14.5766871165644  8.56664807585054 14.5766871165644  C 8.79866146123815 14.5766871165644  8.9994422755159 14.6614612381484  9.16899051868377 14.8310094813162  Z M 18.2777467930842 8.15839375348577  C 18.6837702175125 9.10875627440043  18.8867819297267 10.1059676519799  18.8867819297267 11.1500278862242  C 18.8867819297267 11.6765197992191  18.8354712771891 12.1606246514222  18.7328499721138 12.6023424428332  C 18.6302286670385 13.0440602342443  18.462911321807 13.4612381483547  18.2308979364194 13.8538761851645  C 17.9988845510318 14.2465142219743  17.8025655326269 14.5476854433909  17.6419408812047 14.7573898494144  C 17.4813162297825 14.9670942554378  17.244841048522 15.2548800892359  16.9325153374233 15.6207473508087  C 16.6558839933073 15.9330730619074  16.4528722810931 16.1740100390407  16.3234802007808 16.3435582822086  C 16.1940881204685 16.5131065253765  16.0446179587284 16.7361963190184  15.8750697155605 17.0128276631344  C 15.7055214723926 17.2894590072504  15.5872838817624 17.5750139431121  15.5203569436698 17.8694924707195  C 15.4534300055772 18.1639709983268  15.419966536531 18.4941438929169  15.419966536531 18.8600111544897  C 15.419966536531 20.2788622420524  14.9180145008366 21.4902398215282  13.9141104294478 22.4941438929169  C 12.9102063580591 23.4980479643057  11.6988287785834 24  10.2799776910206 24  C 10.047964305633 24  9.84718349135528 23.9152258784161  9.67763524818739 23.7456776352482  C 9.50808700501952 23.5761293920803  9.42331288343559 23.3753485778026  9.42331288343559 23.143335192415  C 9.42331288343559 22.9113218070273  9.50808700501952 22.7105409927496  9.67763524818739 22.5409927495817  C 9.84718349135528 22.3714445064138  10.047964305633 22.2866703848299  10.2799776910206 22.2866703848299  C 11.2258784160625 22.2866703848299  12.0334634690463 21.952035694367  12.7027328499721 21.2827663134411  C 13.3720022308979 20.6134969325153  13.7066369213609 19.8059118795316  13.7066369213609 18.8600111544897  C 13.7066369213609 18.3513664249861  13.7579475738985 17.8806469604016  13.8605688789738 17.4478527607362  C 13.9631901840491 17.0150585610708  14.1282766313441 16.6090351366425  14.3558282208589 16.2297824874512  C 14.5833798103737 15.8505298382599  14.7774679308422 15.5538204127162  14.9380925822644 15.3396542108198  C 15.0987172336866 15.1254880089236  15.3307306190742 14.8443948689347  15.6341327384272 14.4963747908533  C 15.9910764082543 14.0858895705521  16.2565532626882 13.7646402677078  16.430563301729 13.5326268823201  C 16.6045733407697 13.3006134969325  16.7718906860011 12.968209704406  16.9325153374233 12.5354155047406  C 17.0931399888455 12.1026213050753  17.1734523145566 11.6408254322365  17.1734523145566 11.1500278862242  C 17.1734523145566 9.49916341327383  16.5867261572783 8.08700501952035  15.4132738427217 6.91355270496376  C 14.2398215281651 5.74010039040712  12.8276631344116 5.15337423312883  11.1767986614612 5.15337423312883  C 9.52593418851089 5.15337423312883  8.11377579475739 5.74010039040712  6.94032348020077 6.91355270496376  C 5.76687116564418 8.08700501952035  5.18014500836587 9.49916341327383  5.18014500836587 11.1500278862242  C 5.18014500836587 11.3820412716118  5.09537088678192 11.5828220858896  4.92582264361405 11.7523703290574  C 4.75627440044617 11.9219185722253  4.55549358616844 12.0066926938092  4.32348020078081 12.0066926938092  C 4.0914668153932 12.0066926938092  3.89068600111544 11.9219185722253  3.72113775794757 11.7523703290574  C 3.55158951477971 11.5828220858896  3.46681539319576 11.3820412716118  3.46681539319576 11.1500278862242  C 3.46681539319576 10.1059676519799  3.66982710540992 9.10875627440043  4.07585052983826 8.15839375348577  C 4.4818739542666 7.2080312325711  5.03067484662577 6.38706079196879  5.72225320691578 5.69548243167878  C 6.41383156720579 5.00390407138877  7.23480200780814 4.45510317902955  8.18516452872281 4.04907975460122  C 9.13552704963747 3.6430563301729  10.1327384272169 3.44004461795873  11.1767986614612 3.44004461795873  C 12.2208588957055 3.44004461795873  13.218070273285 3.6430563301729  14.1684327941997 4.04907975460122  C 15.1187953151143 4.45510317902955  15.9397657557167 5.00390407138877  16.6313441160067 5.69548243167878  C 17.3229224762967 6.38706079196879  17.8717233686559 7.2080312325711  18.2777467930842 8.15839375348577  Z M 11.7389849414389 12.2610150585611  C 11.9085331846068 12.430563301729  11.9933073061907 12.6313441160067  11.9933073061907 12.8633575013943  C 11.9933073061907 13.0953708867819  11.9085331846068 13.2961517010597  11.7389849414389 13.4656999442275  C 11.5694366982711 13.6352481873954  11.3686558839933 13.7200223089794  11.1366424986057 13.7200223089794  C 10.9046291132181 13.7200223089794  10.7038482989403 13.6352481873954  10.5343000557724 13.4656999442275  C 10.3647518126046 13.2961517010597  10.2799776910206 13.0953708867819  10.2799776910206 12.8633575013943  C 10.2799776910206 12.6313441160067  10.3647518126046 12.430563301729  10.5343000557724 12.2610150585611  C 10.7038482989403 12.0914668153932  10.9046291132181 12.0066926938092  11.1366424986057 12.0066926938092  C 11.3686558839933 12.0066926938092  11.5694366982711 12.0914668153932  11.7389849414389 12.2610150585611  Z M 14.4696040156163 7.81706636921359  C 15.3887339654211 8.7361963190184  15.8482989403235 9.84718349135528  15.8482989403235 11.1500278862242  C 15.8482989403235 11.3820412716118  15.7635248187396 11.5828220858896  15.5939765755717 11.7523703290574  C 15.4244283324038 11.9219185722253  15.2236475181261 12.0066926938092  14.9916341327384 12.0066926938092  C 14.7596207473508 12.0066926938092  14.5588399330731 11.9219185722253  14.3892916899052 11.7523703290574  C 14.2197434467373 11.5828220858896  14.1349693251534 11.3820412716118  14.1349693251534 11.1500278862242  C 14.1349693251534 10.3201338538762  13.8427216954824 9.61293920803121  13.2582264361405 9.02844394868936  C 12.6737311767987 8.44394868934745  11.9665365309537 8.1517010596765  11.1366424986057 8.1517010596765  C 10.3156720580033 8.1517010596765  9.61070831009481 8.44394868934745  9.02175125488009 9.02844394868936  C 8.43279419966537 9.61293920803121  8.138315672058 10.3201338538762  8.138315672058 11.1500278862242  C 8.138315672058 11.3820412716118  8.05354155047407 11.5828220858896  7.88399330730618 11.7523703290574  C 7.71444506413832 11.9219185722253  7.51366424986057 12.0066926938092  7.28165086447295 12.0066926938092  C 7.04963747908533 12.0066926938092  6.84885666480758 11.9219185722253  6.67930842163972 11.7523703290574  C 6.50976017847184 11.5828220858896  6.4249860568879 11.3820412716118  6.4249860568879 11.1500278862242  C 6.4249860568879 9.84718349135528  6.88455103179029 8.7361963190184  7.80368098159509 7.81706636921359  C 8.72281093139989 6.89793641940878  9.83379810373675 6.4383714445064  11.1366424986057 6.4383714445064  C 12.4394868934746 6.4383714445064  13.5504740658115 6.89793641940878  14.4696040156163 7.81706636921359  Z M 17.5616285554936 2.58337981037369  C 19.1946458449526 3.80591187953149  20.3814835471277 5.37200223089792  21.122141662019 7.28165086447297  C 21.2113775794758 7.50474065811488  21.2069157836029 7.72336865588397  21.1087562744004 7.93753485778029  C 21.010596765198 8.1517010596765  20.8499721137758 8.30340211935305  20.6268823201339 8.39263803680979  C 20.5465699944228 8.42833240379252  20.4439486893475 8.44617958728384  20.319018404908 8.44617958728384  C 20.1494701617401 8.44617958728384  19.9910764082543 8.39709983268267  19.8438371444506 8.29894032348022  C 19.696597880647 8.20078081427778  19.5917456776353 8.06692693809259  19.5292805354155 7.89737869492473  C 18.9224762967094 6.3089793641941  17.9230340211935 4.99274958170662  16.5309537088678 3.94868934746239  C 16.3435582822086 3.80591187953149  16.2320133853876 3.61851645287231  16.1963190184049 3.38650306748468  C 16.1606246514222 3.15448968209705  16.2141662018963 2.94478527607362  16.3569436698271 2.75738984941438  C 16.5086447295036 2.56999442275514  16.7005019520357 2.45844952593416  16.9325153374233 2.42275515895147  C 17.1645287228109 2.38706079196879  17.3742331288344 2.44060234244284  17.5616285554936 2.58337981037369  Z M 19.3686558839933 0.187395426659236  C 21.4656999442276 1.74902398215283  22.9871723368656 3.75237032905744  23.9330730619074 6.19743446737311  C 24.0133853876185 6.42052426101509  24.0066926938093 6.63915225878418  23.9129949804797 6.85331846068044  C 23.81929726715 7.0674846625767  23.6609035136643 7.2191857222532  23.4378137200223 7.30842163970999  C 23.3396542108199 7.34411600669273  23.2370329057446 7.36196319018404  23.1299498047964 7.36196319018404  C 22.7373117679866 7.36196319018404  22.4696040156163 7.17902955939769  22.3268265476854 6.81316229782487  C 21.5058561070831 4.68934746235357  20.18070273285 2.93586168432796  18.3513664249861 1.55270496374789  C 18.1550474065812 1.4099274958171  18.0412716118238 1.22253206915781  18.0100390407139 0.990518683770233  C 17.978806469604 0.758505298382602  18.0345789180145 0.548800892359168  18.1773563859453 0.361405465699931  C 18.3201338538762 0.165086447295039  18.5075292805354 0.0513106525376656  18.739542665923 0.020078081427755  C 18.9715560513107 -0.0111544896820988  19.1812604573341 0.044617958728395  19.3686558839933 0.187395426659236  Z " fill-rule="nonzero" fill="#ffffff" stroke="none" transform="matrix(1 0 0 1 60 218 )" />
  </g>
</svg>