<?xml version="1.0" encoding="utf-8"?>
<svg version="1.1" xmlns:xlink="http://www.w3.org/1999/xlink" width="23px" height="23px" xmlns="http://www.w3.org/2000/svg">
  <g transform="matrix(1 0 0 1 -58 -299 )">
    <path d="M 14.2530691964286 8.55440848214283  C 14.591052827381 8.89239211309524  14.7600446428571 9.30096726190476  14.7600446428571 9.78013392857144  C 14.7600446428571 10.2593005952381  14.591052827381 10.6657366071428  14.2530691964286 10.9994419642857  C 13.9150855654762 11.3331473214286  13.5065104166667 11.5  13.02734375 11.5  L 9.78013392857142 11.5  L 9.78013392857142 8.04743303571428  L 13.02734375 8.04743303571428  C 13.5065104166667 8.04743303571428  13.9150855654762 8.21642485119048  14.2530691964286 8.55440848214283  Z M 15.8766741071429 12.623046875  C 16.6638764880952 11.8401227678572  17.0574776785714 10.8924851190476  17.0574776785714 9.78013392857144  C 17.0574776785714 8.66778273809524  16.666015625 7.71800595238096  15.8830915178571 6.93080357142856  C 15.1001674107143 6.1436011904762  14.1482514880952 5.75  13.02734375 5.75  L 7.46986607142858 5.75  L 7.46986607142858 17.25  L 9.78013392857142 17.25  L 9.78013392857142 13.7974330357143  L 13.02734375 13.7974330357143  C 14.1396949404762 13.7974330357143  15.0894717261905 13.4059709821428  15.8766741071429 12.623046875  Z M 22.0887276785714 7.03348214285717  C 22.6962425595238 8.45386904761904  23 9.94270833333331  23 11.5  C 23 13.0572916666667  22.6962425595238 14.546130952381  22.0887276785714 15.9665178571428  C 21.481212797619 17.3869047619048  20.6640625 18.6104910714286  19.6372767857143 19.6372767857143  C 18.6104910714286 20.6640625  17.3869047619048 21.481212797619  15.9665178571429 22.0887276785714  C 14.546130952381 22.6962425595238  13.0572916666667 23  11.5 23  C 9.94270833333334 23  8.45386904761904 22.6962425595238  7.03348214285714 22.0887276785714  C 5.61309523809524 21.481212797619  4.38950892857142 20.6640625  3.36272321428572 19.6372767857143  C 2.3359375 18.6104910714286  1.51878720238096 17.3869047619048  0.911272321428584 15.9665178571428  C 0.303757440476204 14.546130952381  0 13.0572916666667  0 11.5  C 0 9.94270833333331  0.303757440476204 8.45386904761904  0.911272321428584 7.03348214285717  C 1.51878720238096 5.61309523809524  2.3359375 4.38950892857144  3.36272321428572 3.36272321428572  C 4.38950892857142 2.3359375  5.61309523809524 1.51878720238096  7.03348214285714 0.911272321428555  C 8.45386904761904 0.303757440476204  9.94270833333334 0  11.5 0  C 13.0572916666667 0  14.546130952381 0.303757440476204  15.9665178571429 0.911272321428555  C 17.3869047619048 1.51878720238096  18.6104910714286 2.3359375  19.6372767857143 3.36272321428572  C 20.6640625 4.38950892857144  21.481212797619 5.61309523809524  22.0887276785714 7.03348214285717  Z " fill-rule="nonzero" fill="#ffffff" stroke="none" transform="matrix(1 0 0 1 58 299 )" />
  </g>
</svg>