<?xml version="1.0" encoding="utf-8"?>
<svg version="1.1" xmlns:xlink="http://www.w3.org/1999/xlink" width="25px" height="25px" xmlns="http://www.w3.org/2000/svg">
  <g transform="matrix(1 0 0 1 -57 -456 )">
    <path d="M 14.0345982142857 14.6902901785714  L 13.2254464285714 14.3415178571428  L 15.4994419642857 18.9313616071428  L 14.7879464285714 18.9313616071428  L 12.3465401785714 14.0485491071428  L 9.9609375 18.9313616071428  L 9.27734375 18.9313616071428  L 11.7745535714286 13.7137276785714  L 10.6863839285714 13.2533482142857  L 10.9793526785714 12.5697544642857  L 14.3275669642857 13.9927455357143  L 14.0345982142857 14.6902901785714  Z M 6.04073660714286 10.3236607142857  L 7.85435267857143 6.08258928571428  L 12.0954241071429 7.89620535714283  L 10.2818080357143 12.1372767857143  L 6.04073660714286 10.3236607142857  Z M 11.23046875 12.01171875  L 12.6534598214286 8.66350446428572  L 16.0016741071429 10.1004464285714  L 14.5647321428571 13.4347098214286  L 11.23046875 12.01171875  Z M 15.4436383928571 13.4068080357143  L 16.5736607142857 10.7561383928572  L 19.23828125 11.8861607142857  L 18.0943080357143 14.5368303571428  L 15.4436383928571 13.4068080357143  Z M 22.5725446428571 16.7410714285714  C 23.149181547619 15.3924851190476  23.4375 13.9787946428572  23.4375 12.5  C 23.4375 11.0212053571428  23.149181547619 9.60751488095235  22.5725446428571 8.25892857142856  C 21.9959077380952 6.91034226190476  21.2169828869048 5.74544270833331  20.2357700892857 4.76422991071428  C 19.2545572916667 3.78301711309524  18.0896577380952 3.00409226190476  16.7410714285714 2.42745535714283  C 15.3924851190476 1.85081845238096  13.9787946428571 1.5625  12.5 1.5625  C 11.0212053571429 1.5625  9.60751488095238 1.85081845238096  8.25892857142857 2.42745535714283  C 6.91034226190476 3.00409226190476  5.74544270833333 3.78301711309524  4.76422991071429 4.76422991071428  C 3.78301711309524 5.74544270833331  3.00409226190476 6.91034226190476  2.42745535714286 8.25892857142856  C 1.85081845238095 9.60751488095235  1.5625 11.0212053571428  1.5625 12.5  C 1.5625 13.9787946428572  1.85081845238095 15.3924851190476  2.42745535714286 16.7410714285714  C 3.00409226190476 18.0896577380952  3.78301711309524 19.2545572916667  4.76422991071429 20.2357700892857  C 5.74544270833333 21.2169828869048  6.91034226190476 21.9959077380952  8.25892857142857 22.5725446428572  C 9.60751488095238 23.149181547619  11.0212053571429 23.4375  12.5 23.4375  C 13.9787946428571 23.4375  15.3924851190476 23.149181547619  16.7410714285714 22.5725446428572  C 18.0896577380952 21.9959077380952  19.2545572916667 21.2169828869048  20.2357700892857 20.2357700892857  C 21.2169828869048 19.2545572916667  21.9959077380952 18.0896577380952  22.5725446428571 16.7410714285714  Z M 24.0094866071429 7.64508928571428  C 24.6698288690476 9.18898809523807  25 10.8072916666667  25 12.5  C 25 14.1927083333333  24.6698288690476 15.8110119047619  24.0094866071429 17.3549107142857  C 23.3491443452381 18.8988095238095  22.4609375 20.2287946428572  21.3448660714286 21.3448660714286  C 20.2287946428571 22.4609375  18.8988095238095 23.3491443452381  17.3549107142857 24.0094866071428  C 15.8110119047619 24.6698288690476  14.1927083333333 25  12.5 25  C 10.8072916666667 25  9.1889880952381 24.6698288690476  7.64508928571429 24.0094866071428  C 6.10119047619048 23.3491443452381  4.77120535714286 22.4609375  3.65513392857143 21.3448660714286  C 2.5390625 20.2287946428572  1.6508556547619 18.8988095238095  0.990513392857139 17.3549107142857  C 0.33017113095238 15.8110119047619  0 14.1927083333333  0 12.5  C 0 10.8072916666667  0.33017113095238 9.18898809523807  0.990513392857139 7.64508928571428  C 1.6508556547619 6.10119047619048  2.5390625 4.77120535714283  3.65513392857143 3.65513392857144  C 4.77120535714286 2.5390625  6.10119047619048 1.65085565476193  7.64508928571429 0.990513392857167  C 9.1889880952381 0.330171130952408  10.8072916666667 0  12.5 0  C 14.1927083333333 0  15.8110119047619 0.330171130952408  17.3549107142857 0.990513392857167  C 18.8988095238095 1.65085565476193  20.2287946428571 2.5390625  21.3448660714286 3.65513392857144  C 22.4609375 4.77120535714283  23.3491443452381 6.10119047619048  24.0094866071429 7.64508928571428  Z " fill-rule="nonzero" fill="#ffffff" stroke="none" transform="matrix(1 0 0 1 57 456 )" />
  </g>
</svg>