<?xml version="1.0" encoding="utf-8"?>
<svg version="1.1" xmlns:xlink="http://www.w3.org/1999/xlink" width="21px" height="27px" xmlns="http://www.w3.org/2000/svg">
  <g transform="matrix(1 0 0 1 -60 -415 )">
    <path d="M 18.9479315263909 15.451171875  C 19.6569186875892 15.6972656250001  20.3409415121255 16.0864955357143  21 16.6188616071428  C 20.6804564907275 17.4224330357143  20.3009985734665 18.1155133928571  19.8616262482169 18.6981026785714  C 19.4222539229672 19.2806919642857  18.9679029957204 19.7251674107143  18.4985734664764 20.0315290178572  C 18.0292439372325 20.3378906250001  17.5349500713266 20.5714285714286  17.0156918687589 20.7321428571428  C 16.4964336661911 20.8928571428572  15.9896576319543 20.9656808035714  15.4953637660485 20.9506138392857  C 15.0010699001426 20.935546875  14.5192582025678 20.8928571428572  14.0499286733238 20.8225446428572  C 13.5805991440799 20.7522321428571  13.1487161198288 20.6417410714286  12.7542796005706 20.4910714285714  C 12.3598430813124 20.3404017857143  12.0128388017118 20.2022879464286  11.7132667617689 20.0767299107143  C 11.4136947218259 19.9511718749999  11.1840228245364 19.8381696428572  11.0242510699001 19.7377232142857  L 10.7696148359486 19.5870535714286  C 9.64122681883026 21.8772321428572  8.1957917261056 23.6827566964286  6.43330955777458 25.0036272321428  C 4.67082738944367 26.3244977678572  2.75106990014268 26.9899553571428  0.674037089871604 27  C 0.484308131241107 27  0.32453637660484 26.9347098214286  0.194721825962915 26.8041294642857  C 0.0649072753209907 26.6735491071428  0 26.5128348214286  0 26.3219866071428  C 0 26.1311383928571  0.0649072753209907 25.9729352678571  0.194721825962915 25.8473772321428  C 0.32453637660484 25.7218191964286  0.484308131241107 25.6590401785714  0.674037089871604 25.6590401785714  C 2.40156918687592 25.6489955357143  4.01176890156916 25.1090959821428  5.50463623395149 24.0393415178572  C 6.99750356633382 22.9695870535714  8.25320970042799 21.4905133928571  9.27175463623399 19.6021205357143  C 8.91226818830245 19.7427455357143  8.5527817403709 19.8582589285714  8.19329529243936 19.9486607142857  C 7.83380884450787 20.0390625  7.41940085592012 20.1043526785714  6.95007132667621 20.14453125  C 6.48074179743224 20.1847098214286  6.02639087018548 20.1721540178571  5.5870185449358 20.1068638392857  C 5.14764621968618 20.0415736607143  4.68330955777458 19.8984374999999  4.19400855920111 19.6774553571428  C 3.70470756062764 19.4564732142857  3.24536376604851 19.1601562499999  2.81597717546362 18.7885044642857  C 2.38659058487872 18.4168526785714  1.96469329529242 17.9146205357143  1.55028530670472 17.2818080357143  C 1.13587731811697 16.6489955357143  0.763908701854461 15.9157366071428  0.43437945791726 15.08203125  C 1.57275320970041 14.6099330357143  2.64122681883026 14.3236607142857  3.63980028530671 14.2232142857143  C 4.63837375178315 14.1227678571428  5.4746790299572 14.1604352678571  6.1487161198288 14.3362165178572  C 6.82275320970047 14.5119977678572  7.44436519258204 14.7957589285714  8.01355206847359 15.1875  C 8.58273894436519 15.5792410714286  9.02460770328105 15.9659598214286  9.33915834522111 16.34765625  C 9.65370898716122 16.7293526785714  9.93580599144082 17.1411830357143  10.1854493580599 17.5831473214286  C 10.7146932952924 16.2672991071429  11.1091298145507 14.8058035714286  11.3687589158345 13.1986607142857  C 11.2988587731812 13.2087053571429  11.2089871611983 13.2212611607143  11.0991440798859 13.236328125  C 10.9893009985735 13.2513950892857  10.7571326676177 13.2639508928571  10.4026390870185 13.2739955357143  C 10.0481455064194 13.2840401785714  9.70114122681883 13.2815290178572  9.36162624821685 13.2664620535714  C 9.02211126961481 13.2513950892857  8.61519258202566 13.2011718749999  8.14087018544939 13.1157924107143  C 7.66654778887306 13.0304129464286  7.2246790299572 12.9148995535714  6.81526390870187 12.7692522321428  C 6.40584878744653 12.6236049107143  5.98644793152641 12.4101562499999  5.55706134094152 12.12890625  C 5.12767475035662 11.8476562500001  4.75320970042799 11.5212053571429  4.43366619115551 11.1495535714286  C 4.11412268188303 10.7779017857143  3.84201141226822 10.3032924107143  3.61733238231096 9.72572544642856  C 3.39265335235376 9.14815848214289  3.25035663338088 8.50781249999994  3.1904422253923 7.8046875  C 3.88944365192583 7.52343750000006  4.55599144079889 7.34012276785717  5.19008559201143 7.25474330357144  C 5.82417974322396 7.16936383928572  6.38587731811697 7.17438616071428  6.87517831669044 7.26981026785717  C 7.36447931526391 7.36523437500006  7.82382310984309 7.51590401785711  8.25320970042799 7.72181919642856  C 8.68259629101283 7.92773437499994  9.04957203994297 8.17885044642861  9.35413694721825 8.47516741071428  C 9.65870185449359 8.77148437499994  9.938302425107 9.07784598214283  10.1929386590585 9.39425223214283  C 10.44757489301 9.71065848214283  10.65727532097 10.0270647321428  10.8220399429387 10.3434709821428  C 10.9868045649073 10.6598772321428  11.1241084165478 10.9411272321429  11.2339514978602 11.1872209821428  C 11.3437945791726 11.4333147321428  11.4236804564907 11.6316964285714  11.4736091298146 11.7823660714286  L 11.5335235378031 12.0234375  C 11.6533523537803 10.7979910714286  11.7132667617689 9.81863839285717  11.7132667617689 9.08537946428572  C 11.6333808844508 9.02511160714283  11.5260342368045 8.94475446428572  11.3912268188303 8.84430803571428  C 11.2564194008559 8.74386160714283  11.0117689015692 8.52036830357144  10.65727532097 8.173828125  C 10.3027817403709 7.82728794642856  9.98573466476461 7.46819196428572  9.7061340941512 7.09654017857144  C 9.42653352353784 6.72488839285711  9.15691868758915 6.25781250000006  8.89728958630531 5.6953125  C 8.6376604850214 5.13281249999994  8.47289586305277 4.56780133928572  8.40299572039942 4.00027901785717  C 8.33309557774606 3.43275669642861  8.39300998573464 2.794921875  8.58273894436519 2.08677455357144  C 8.77246790299574 1.37862723214283  9.12196861626245 0.683035714285722  9.63124108416548 0  C 10.3601997146933 0.251116071428555  10.996790299572 0.559988839285722  11.5410128388017 0.926618303571445  C 12.0852353780314 1.29324776785711  12.5071326676177 1.67745535714283  12.8067047075606 2.07924107142856  C 13.1062767475036 2.48102678571428  13.3459343794579 2.90792410714283  13.5256776034237 3.35993303571428  C 13.7054208273894 3.81194196428572  13.8077746077033 4.25892857142856  13.8327389443652 4.70089285714283  C 13.8577032810271 5.14285714285711  13.8552068473609 5.57226562500006  13.8252496433666 5.98911830357144  C 13.7952924393723 6.40597098214289  13.7303851640513 6.79017857142856  13.6305278174037 7.14174107142856  C 13.530670470756 7.49330357142861  13.4358059914408 7.8046875  13.3459343794579 8.07589285714283  C 13.256062767475 8.34709821428572  13.1711840228245 8.55803571428572  13.0912981455064 8.70870535714283  L 12.9864479315264 8.93470982142856  C 12.9964336661911 8.97488839285717  13.0014265335236 9.22600446428572  13.0014265335236 9.68805803571428  C 13.0014265335236 10.1501116071429  12.9964336661911 10.5117187499999  12.9864479315264 10.7728794642857  C 13.0164051355207 10.7025669642857  13.0663338088445 10.6096540178572  13.1362339514978 10.494140625  C 13.2061340941512 10.3786272321428  13.3584165477889 10.1626674107143  13.5930813124108 9.84626116071428  C 13.8277460770328 9.52985491071428  14.0798858773181 9.23856026785717  14.3495007132668 8.97237723214283  C 14.6191155492154 8.70619419642861  14.9736091298146 8.42745535714283  15.4129814550642 8.13616071428572  C 15.8523537803138 7.84486607142856  16.3092011412268 7.62137276785711  16.7835235378031 7.46568080357144  C 17.2578459343795 7.30998883928572  17.8170470756063 7.23716517857144  18.4611269614836 7.24720982142856  C 19.1052068473609 7.25725446428572  19.7667617689016 7.37779017857139  20.4457917261055 7.60881696428572  C 20.425820256776 8.39229910714283  20.3184736091298 9.10295758928572  20.1237517831669 9.74079241071428  C 19.929029957204 10.3786272321428  19.6793865905849 10.9034598214286  19.3748216833096 11.3152901785714  C 19.0702567760342 11.7271205357143  18.7232524964336 12.0862165178572  18.3338088445079 12.392578125  C 17.944365192582 12.6989397321428  17.5374465049929 12.9274553571428  17.1130527817404 13.078125  C 16.6886590584879 13.2287946428572  16.2667617689016 13.3493303571428  15.8473609129815 13.4397321428572  C 15.4279600570613 13.5301339285714  15.0285306704707 13.5778459821429  14.6490727532097 13.5828683035714  C 14.2696148359486 13.5878906250001  13.9325962910128 13.5828683035714  13.6380171184023 13.5678013392857  C 13.3434379457917 13.552734375  13.111269614836 13.5301339285714  12.941512125535 13.5  L 12.6868758915834 13.4547991071428  C 12.4572039942939 14.9313616071428  12.09272467903 16.3526785714286  11.5934379457917 17.71875  C 11.6533523537803 17.6484375000001  11.7432239657632 17.5555245535714  11.8630527817404 17.4400111607143  C 11.9828815977176 17.3244977678571  12.2300285306705 17.1185825892857  12.6044935805991 16.822265625  C 12.9789586305278 16.5259486607143  13.3659058487875 16.2622767857143  13.7653352353781 16.03125  C 14.1647646219686 15.8002232142857  14.6615549215406 15.5892857142857  15.2557061340942 15.3984375  C 15.8498573466476 15.2075892857143  16.4365192582026 15.1071428571429  17.0156918687589 15.0970982142857  C 17.5948644793153 15.0870535714286  18.2389443651926 15.2050781249999  18.9479315263909 15.451171875  Z " fill-rule="nonzero" fill="#ffffff" stroke="none" transform="matrix(1 0 0 1 60 415 )" />
  </g>
</svg>