<?xml version="1.0" encoding="utf-8"?>
<svg version="1.1" xmlns:xlink="http://www.w3.org/1999/xlink" width="25px" height="18px" xmlns="http://www.w3.org/2000/svg">
  <g transform="matrix(1 0 0 1 -61 -103 )">
    <path d="M 2 16.5  L 25 16.5  L 25 18  L 0 18  L 0 0  L 2 0  L 2 16.5  Z M 23.32763671875 1.60546875  C 23.40087890625 1.67578125  23.4375 1.765625  23.4375 1.875  L 23.4375 6.97265625  C 23.4375 7.13671875  23.358154296875 7.251953125  23.199462890625 7.318359375  C 23.040771484375 7.384765625  22.8963216145834 7.35546875  22.76611328125 7.23046875  L 21.2890625 5.8125  L 13.56201171875 13.23046875  C 13.4806315104166 13.30859375  13.3870442708334 13.34765625  13.28125 13.34765625  C 13.1754557291666 13.34765625  13.0818684895834 13.30859375  13.00048828125 13.23046875  L 10.15625 10.5  L 5.078125 15.375  L 2.734375 13.125  L 9.87548828125 6.26953125  C 9.95686848958343 6.19140625000003  10.0504557291666 6.15234375  10.15625 6.15234375  C 10.2620442708334 6.15234375  10.3556315104166 6.19140625000003  10.43701171875 6.26953125  L 13.28125 9  L 18.9453125 3.5625  L 17.46826171875 2.14453125  C 17.3380533854166 2.01953125  17.3075358072916 1.880859375  17.376708984375 1.728515625  C 17.4458821614584 1.576171875  17.56591796875 1.5  17.73681640625 1.5  L 23.046875 1.5  C 23.1608072916666 1.5  23.25439453125 1.53515625  23.32763671875 1.60546875  Z " fill-rule="nonzero" fill="#ffffff" stroke="none" transform="matrix(1 0 0 1 61 103 )" />
  </g>
</svg>