<?xml version="1.0" encoding="utf-8"?>
<svg version="1.1" xmlns:xlink="http://www.w3.org/1999/xlink" width="26px" height="23px" xmlns="http://www.w3.org/2000/svg">
  <g transform="matrix(1 0 0 1 -59 -336 )">
    <path d="M 7.34635416666666 19.397265625  C 8.0083912037037 18.5287760416667  8.42592592592592 17.4296875  8.59895833333334 16.1  L 5.05555555555554 16.1  C 4.75462962962965 16.1  4.53833912037035 15.8903645833333  4.40668402777777 15.47109375  C 4.27502893518519 15.0518229166667  4.29947916666666 14.6505208333334  4.48003472222223 14.2671875  L 6.6015625 9.75703125000001  C 6.11255787037035 9.38567708333335  5.59722222222223 9.19999999999999  5.05555555555554 9.19999999999999  C 4.0625 9.19999999999999  3.21238425925924 9.76302083333331  2.50520833333334 10.8890625  C 1.79803240740742 12.0151041666667  1.44444444444446 13.36875  1.44444444444446 14.95  C 1.44444444444446 16.53125  1.79803240740742 17.8848958333333  2.50520833333334 19.0109375  C 3.21238425925924 20.1369791666667  4.0625 20.7  5.05555555555554 20.7  C 5.92071759259258 20.7  6.68431712962965 20.2657552083333  7.34635416666666 19.397265625  Z M 7.75260416666666 11.140625  L 6.5 13.8  L 8.59895833333334 13.8  C 8.46354166666666 12.7817708333333  8.18142361111111 11.8953125  7.75260416666666 11.140625  Z M 10.0546875 13.8  L 11.9166666666667 13.8  L 15.1666666666667 6.89999999999998  L 9.75 6.89999999999998  L 8.6328125 9.27187500000002  C 9.42274305555554 10.5057291666666  9.89670138888889 12.0151041666667  10.0546875 13.8  Z M 23.4947916666667 19.0109375  C 24.2019675925926 17.8848958333333  24.5555555555555 16.53125  24.5555555555555 14.95  C 24.5555555555555 13.36875  24.2019675925926 12.0151041666667  23.4947916666667 10.8890625  C 22.7876157407408 9.76302083333331  21.9375 9.19999999999999  20.9444444444445 9.19999999999999  C 20.4930555555555 9.19999999999999  20.0379050925926 9.34375  19.5789930555555 9.63125000000002  L 21.5425347222222 14.303125  C 21.6553819444445 14.5786458333333  21.6929976851852 14.8721354166667  21.6553819444445 15.18359375  C 21.6177662037037 15.4950520833333  21.5162037037037 15.7346354166667  21.3506944444445 15.90234375  C 21.2378472222222 16.0341145833333  21.1024305555555 16.1  20.9444444444445 16.1  C 20.6811342592593 16.1  20.4817708333333 15.9263020833333  20.3463541666667 15.57890625  L 18.3828125 10.90703125  C 17.6831597222222 12.0450520833334  17.3333333333333 13.3927083333334  17.3333333333333 14.95  C 17.3333333333333 16.53125  17.6869212962963 17.8848958333333  18.3940972222222 19.0109375  C 19.1012731481481 20.1369791666667  19.9513888888889 20.7  20.9444444444445 20.7  C 21.9375 20.7  22.7876157407408 20.1369791666667  23.4947916666667 19.0109375  Z M 24.5160590277778 9.26289062500001  C 25.5053530092593 10.8381510416667  26 12.7338541666667  26 14.95  C 26 17.1661458333333  25.5053530092593 19.0618489583333  24.5160590277778 20.637109375  C 23.5267650462963 22.2123697916667  22.3362268518519 23  20.9444444444445 23  C 19.5526620370371 23  18.3621238425926 22.2123697916667  17.3728298611111 20.637109375  C 16.3835358796296 19.0618489583333  15.8888888888889 17.1661458333333  15.8888888888889 14.95  C 15.8888888888889 13.7880208333333  16.0374710648148 12.6889322916667  16.3346354166667 11.652734375  C 16.6317997685185 10.6165364583333  17.0436921296296 9.72109375000002  17.5703125 8.96640624999998  L 16.8368055555555 7.20546875000002  L 12.8532986111111 15.6328125  C 12.7178819444445 15.9442708333333  12.5260416666667 16.1  12.2777777777778 16.1  L 10.0546875 16.1  C 9.88165509259258 18.0645833333333  9.32118055555554 19.7057291666667  8.37326388888889 21.0234375  C 7.42534722222223 22.3411458333333  6.31944444444446 23  5.05555555555554 23  C 3.66377314814812 23  2.4732349537037 22.2123697916667  1.48394097222223 20.637109375  C 0.494646990740762 19.0618489583333  0 17.1661458333333  0 14.95  C 0 12.7338541666667  0.494646990740762 10.8381510416667  1.48394097222223 9.26289062500001  C 2.4732349537037 7.68763020833336  3.66377314814812 6.89999999999998  5.05555555555554 6.89999999999998  C 5.91319444444446 6.89999999999998  6.72193287037035 7.22942708333335  7.48177083333334 7.88828124999998  L 9.02777777777777 4.60000000000002  L 6.5 4.60000000000002  C 6.30439814814818 4.60000000000002  6.13512731481481 4.48619791666664  5.9921875 4.25859374999999  C 5.84924768518519 4.03098958333334  5.77777777777777 3.76145833333334  5.77777777777777 3.44999999999999  C 5.77777777777777 3.13854166666664  5.84924768518519 2.86901041666664  5.9921875 2.64140624999999  C 6.13512731481481 2.41380208333334  6.30439814814818 2.30000000000001  6.5 2.30000000000001  L 10.8333333333333 2.30000000000001  L 10.8333333333333 4.60000000000002  L 15.7421875 4.60000000000002  L 14.7829861111111 2.30000000000001  L 12.2777777777778 2.30000000000001  C 12.0821759259259 2.30000000000001  11.9129050925926 2.18619791666669  11.7699652777778 1.95859374999998  C 11.6270254629629 1.73098958333333  11.5555555555555 1.46145833333333  11.5555555555555 1.14999999999998  C 11.5555555555555 0.838541666666686  11.6270254629629 0.569010416666686  11.7699652777778 0.341406249999977  C 11.9129050925926 0.113802083333326  12.0821759259259 0  12.2777777777778 0  L 15.1666666666667 0  C 15.4149305555555 0  15.6142939814815 0.167708333333337  15.7647569444445 0.503125000000011  L 18.7777777777778 7.69062500000001  C 19.4623842592593 7.16354166666667  20.1846064814815 6.89999999999998  20.9444444444445 6.89999999999998  C 22.3362268518519 6.89999999999998  23.5267650462963 7.68763020833336  24.5160590277778 9.26289062500001  Z " fill-rule="nonzero" fill="#ffffff" stroke="none" transform="matrix(1 0 0 1 59 336 )" />
  </g>
</svg>