<?xml version="1.0" encoding="utf-8"?>
<svg version="1.1" xmlns:xlink="http://www.w3.org/1999/xlink" width="18px" height="24px" xmlns="http://www.w3.org/2000/svg">
  <g transform="matrix(1 0 0 1 -62 -258 )">
    <path d="M 4.78764204545456 17.2700892857143  C 4.86860795454544 17.3549107142857  4.90909090909093 17.4553571428572  4.90909090909093 17.5714285714286  L 4.90909090909093 18.4285714285714  C 4.90909090909093 18.5446428571428  4.86860795454544 18.6450892857143  4.78764204545456 18.7299107142857  C 4.70667613636363 18.8147321428572  4.61079545454544 18.8571428571429  4.5 18.8571428571429  L 3.68181818181819 18.8571428571429  C 3.57102272727275 18.8571428571429  3.47514204545456 18.8147321428572  3.39417613636363 18.7299107142857  C 3.31321022727275 18.6450892857143  3.27272727272725 18.5446428571428  3.27272727272725 18.4285714285714  L 3.27272727272725 17.5714285714286  C 3.27272727272725 17.4553571428572  3.31321022727275 17.3549107142857  3.39417613636363 17.2700892857143  C 3.47514204545456 17.1852678571428  3.57102272727275 17.1428571428571  3.68181818181819 17.1428571428571  L 4.5 17.1428571428571  C 4.61079545454544 17.1428571428571  4.70667613636363 17.1852678571428  4.78764204545456 17.2700892857143  Z M 4.78764204545456 13.8415178571429  C 4.86860795454544 13.9263392857143  4.90909090909093 14.0267857142857  4.90909090909093 14.1428571428571  L 4.90909090909093 15  C 4.90909090909093 15.1160714285714  4.86860795454544 15.2165178571428  4.78764204545456 15.3013392857143  C 4.70667613636363 15.3861607142857  4.61079545454544 15.4285714285714  4.5 15.4285714285714  L 3.68181818181819 15.4285714285714  C 3.57102272727275 15.4285714285714  3.47514204545456 15.3861607142857  3.39417613636363 15.3013392857143  C 3.31321022727275 15.2165178571428  3.27272727272725 15.1160714285714  3.27272727272725 15  L 3.27272727272725 14.1428571428571  C 3.27272727272725 14.0267857142857  3.31321022727275 13.9263392857143  3.39417613636363 13.8415178571429  C 3.47514204545456 13.7566964285714  3.57102272727275 13.7142857142857  3.68181818181819 13.7142857142857  L 4.5 13.7142857142857  C 4.61079545454544 13.7142857142857  4.70667613636363 13.7566964285714  4.78764204545456 13.8415178571429  Z M 8.06036931818181 13.8415178571429  C 8.14133522727275 13.9263392857143  8.18181818181819 14.0267857142857  8.18181818181819 14.1428571428571  L 8.18181818181819 15  C 8.18181818181819 15.1160714285714  8.14133522727275 15.2165178571428  8.06036931818181 15.3013392857143  C 7.97940340909088 15.3861607142857  7.88352272727275 15.4285714285714  7.77272727272725 15.4285714285714  L 6.95454545454544 15.4285714285714  C 6.84375 15.4285714285714  6.74786931818181 15.3861607142857  6.66690340909093 15.3013392857143  C 6.5859375 15.2165178571428  6.54545454545456 15.1160714285714  6.54545454545456 15  L 6.54545454545456 14.1428571428571  C 6.54545454545456 14.0267857142857  6.5859375 13.9263392857143  6.66690340909093 13.8415178571429  C 6.74786931818181 13.7566964285714  6.84375 13.7142857142857  6.95454545454544 13.7142857142857  L 7.77272727272725 13.7142857142857  C 7.88352272727275 13.7142857142857  7.97940340909088 13.7566964285714  8.06036931818181 13.8415178571429  Z M 4.78764204545456 10.4129464285714  C 4.86860795454544 10.4977678571428  4.90909090909093 10.5982142857143  4.90909090909093 10.7142857142857  L 4.90909090909093 11.5714285714286  C 4.90909090909093 11.6875  4.86860795454544 11.7879464285714  4.78764204545456 11.8727678571429  C 4.70667613636363 11.9575892857143  4.61079545454544 12  4.5 12  L 3.68181818181819 12  C 3.57102272727275 12  3.47514204545456 11.9575892857143  3.39417613636363 11.8727678571429  C 3.31321022727275 11.7879464285714  3.27272727272725 11.6875  3.27272727272725 11.5714285714286  L 3.27272727272725 10.7142857142857  C 3.27272727272725 10.5982142857143  3.31321022727275 10.4977678571428  3.39417613636363 10.4129464285714  C 3.47514204545456 10.328125  3.57102272727275 10.2857142857143  3.68181818181819 10.2857142857143  L 4.5 10.2857142857143  C 4.61079545454544 10.2857142857143  4.70667613636363 10.328125  4.78764204545456 10.4129464285714  Z M 14.6058238636364 17.2700892857143  C 14.6867897727273 17.3549107142857  14.7272727272727 17.4553571428572  14.7272727272727 17.5714285714286  L 14.7272727272727 18.4285714285714  C 14.7272727272727 18.5446428571428  14.6867897727273 18.6450892857143  14.6058238636364 18.7299107142857  C 14.5248579545454 18.8147321428572  14.4289772727273 18.8571428571429  14.3181818181818 18.8571428571429  L 13.5 18.8571428571429  C 13.3892045454546 18.8571428571429  13.2933238636364 18.8147321428572  13.2123579545454 18.7299107142857  C 13.1313920454546 18.6450892857143  13.0909090909091 18.5446428571428  13.0909090909091 18.4285714285714  L 13.0909090909091 17.5714285714286  C 13.0909090909091 17.4553571428572  13.1313920454546 17.3549107142857  13.2123579545454 17.2700892857143  C 13.2933238636364 17.1852678571428  13.3892045454546 17.1428571428571  13.5 17.1428571428571  L 14.3181818181818 17.1428571428571  C 14.4289772727273 17.1428571428571  14.5248579545454 17.1852678571428  14.6058238636364 17.2700892857143  Z M 11.3330965909091 13.8415178571429  C 11.4140625 13.9263392857143  11.4545454545454 14.0267857142857  11.4545454545454 14.1428571428571  L 11.4545454545454 15  C 11.4545454545454 15.1160714285714  11.4140625 15.2165178571428  11.3330965909091 15.3013392857143  C 11.2521306818182 15.3861607142857  11.15625 15.4285714285714  11.0454545454546 15.4285714285714  L 10.2272727272727 15.4285714285714  C 10.1164772727273 15.4285714285714  10.0205965909091 15.3861607142857  9.93963068181819 15.3013392857143  C 9.85866477272725 15.2165178571428  9.81818181818181 15.1160714285714  9.81818181818181 15  L 9.81818181818181 14.1428571428571  C 9.81818181818181 14.0267857142857  9.85866477272725 13.9263392857143  9.93963068181819 13.8415178571429  C 10.0205965909091 13.7566964285714  10.1164772727273 13.7142857142857  10.2272727272727 13.7142857142857  L 11.0454545454546 13.7142857142857  C 11.15625 13.7142857142857  11.2521306818182 13.7566964285714  11.3330965909091 13.8415178571429  Z M 8.06036931818181 10.4129464285714  C 8.14133522727275 10.4977678571428  8.18181818181819 10.5982142857143  8.18181818181819 10.7142857142857  L 8.18181818181819 11.5714285714286  C 8.18181818181819 11.6875  8.14133522727275 11.7879464285714  8.06036931818181 11.8727678571429  C 7.97940340909088 11.9575892857143  7.88352272727275 12  7.77272727272725 12  L 6.95454545454544 12  C 6.84375 12  6.74786931818181 11.9575892857143  6.66690340909093 11.8727678571429  C 6.5859375 11.7879464285714  6.54545454545456 11.6875  6.54545454545456 11.5714285714286  L 6.54545454545456 10.7142857142857  C 6.54545454545456 10.5982142857143  6.5859375 10.4977678571428  6.66690340909093 10.4129464285714  C 6.74786931818181 10.328125  6.84375 10.2857142857143  6.95454545454544 10.2857142857143  L 7.77272727272725 10.2857142857143  C 7.88352272727275 10.2857142857143  7.97940340909088 10.328125  8.06036931818181 10.4129464285714  Z M 4.78764204545456 6.984375  C 4.86860795454544 7.06919642857144  4.90909090909093 7.16964285714283  4.90909090909093 7.28571428571433  L 4.90909090909093 8.14285714285711  C 4.90909090909093 8.25892857142856  4.86860795454544 8.359375  4.78764204545456 8.44419642857144  C 4.70667613636363 8.52901785714283  4.61079545454544 8.57142857142856  4.5 8.57142857142856  L 3.68181818181819 8.57142857142856  C 3.57102272727275 8.57142857142856  3.47514204545456 8.52901785714283  3.39417613636363 8.44419642857144  C 3.31321022727275 8.359375  3.27272727272725 8.25892857142856  3.27272727272725 8.14285714285711  L 3.27272727272725 7.28571428571433  C 3.27272727272725 7.16964285714283  3.31321022727275 7.06919642857144  3.39417613636363 6.984375  C 3.47514204545456 6.89955357142856  3.57102272727275 6.85714285714289  3.68181818181819 6.85714285714289  L 4.5 6.85714285714289  C 4.61079545454544 6.85714285714289  4.70667613636363 6.89955357142856  4.78764204545456 6.984375  Z M 14.6058238636364 13.8415178571429  C 14.6867897727273 13.9263392857143  14.7272727272727 14.0267857142857  14.7272727272727 14.1428571428571  L 14.7272727272727 15  C 14.7272727272727 15.1160714285714  14.6867897727273 15.2165178571428  14.6058238636364 15.3013392857143  C 14.5248579545454 15.3861607142857  14.4289772727273 15.4285714285714  14.3181818181818 15.4285714285714  L 13.5 15.4285714285714  C 13.3892045454546 15.4285714285714  13.2933238636364 15.3861607142857  13.2123579545454 15.3013392857143  C 13.1313920454546 15.2165178571428  13.0909090909091 15.1160714285714  13.0909090909091 15  L 13.0909090909091 14.1428571428571  C 13.0909090909091 14.0267857142857  13.1313920454546 13.9263392857143  13.2123579545454 13.8415178571429  C 13.2933238636364 13.7566964285714  13.3892045454546 13.7142857142857  13.5 13.7142857142857  L 14.3181818181818 13.7142857142857  C 14.4289772727273 13.7142857142857  14.5248579545454 13.7566964285714  14.6058238636364 13.8415178571429  Z M 11.3330965909091 10.4129464285714  C 11.4140625 10.4977678571428  11.4545454545454 10.5982142857143  11.4545454545454 10.7142857142857  L 11.4545454545454 11.5714285714286  C 11.4545454545454 11.6875  11.4140625 11.7879464285714  11.3330965909091 11.8727678571429  C 11.2521306818182 11.9575892857143  11.15625 12  11.0454545454546 12  L 10.2272727272727 12  C 10.1164772727273 12  10.0205965909091 11.9575892857143  9.93963068181819 11.8727678571429  C 9.85866477272725 11.7879464285714  9.81818181818181 11.6875  9.81818181818181 11.5714285714286  L 9.81818181818181 10.7142857142857  C 9.81818181818181 10.5982142857143  9.85866477272725 10.4977678571428  9.93963068181819 10.4129464285714  C 10.0205965909091 10.328125  10.1164772727273 10.2857142857143  10.2272727272727 10.2857142857143  L 11.0454545454546 10.2857142857143  C 11.15625 10.2857142857143  11.2521306818182 10.328125  11.3330965909091 10.4129464285714  Z M 8.06036931818181 6.984375  C 8.14133522727275 7.06919642857144  8.18181818181819 7.16964285714283  8.18181818181819 7.28571428571433  L 8.18181818181819 8.14285714285711  C 8.18181818181819 8.25892857142856  8.14133522727275 8.359375  8.06036931818181 8.44419642857144  C 7.97940340909088 8.52901785714283  7.88352272727275 8.57142857142856  7.77272727272725 8.57142857142856  L 6.95454545454544 8.57142857142856  C 6.84375 8.57142857142856  6.74786931818181 8.52901785714283  6.66690340909093 8.44419642857144  C 6.5859375 8.359375  6.54545454545456 8.25892857142856  6.54545454545456 8.14285714285711  L 6.54545454545456 7.28571428571433  C 6.54545454545456 7.16964285714283  6.5859375 7.06919642857144  6.66690340909093 6.984375  C 6.74786931818181 6.89955357142856  6.84375 6.85714285714289  6.95454545454544 6.85714285714289  L 7.77272727272725 6.85714285714289  C 7.88352272727275 6.85714285714289  7.97940340909088 6.89955357142856  8.06036931818181 6.984375  Z M 4.78764204545456 3.55580357142856  C 4.86860795454544 3.640625  4.90909090909093 3.74107142857144  4.90909090909093 3.85714285714289  L 4.90909090909093 4.71428571428567  C 4.90909090909093 4.83035714285717  4.86860795454544 4.93080357142856  4.78764204545456 5.015625  C 4.70667613636363 5.10044642857144  4.61079545454544 5.14285714285711  4.5 5.14285714285711  L 3.68181818181819 5.14285714285711  C 3.57102272727275 5.14285714285711  3.47514204545456 5.10044642857144  3.39417613636363 5.015625  C 3.31321022727275 4.93080357142856  3.27272727272725 4.83035714285717  3.27272727272725 4.71428571428567  L 3.27272727272725 3.85714285714289  C 3.27272727272725 3.74107142857144  3.31321022727275 3.640625  3.39417613636363 3.55580357142856  C 3.47514204545456 3.47098214285717  3.57102272727275 3.42857142857144  3.68181818181819 3.42857142857144  L 4.5 3.42857142857144  C 4.61079545454544 3.42857142857144  4.70667613636363 3.47098214285717  4.78764204545456 3.55580357142856  Z M 14.6058238636364 10.4129464285714  C 14.6867897727273 10.4977678571428  14.7272727272727 10.5982142857143  14.7272727272727 10.7142857142857  L 14.7272727272727 11.5714285714286  C 14.7272727272727 11.6875  14.6867897727273 11.7879464285714  14.6058238636364 11.8727678571429  C 14.5248579545454 11.9575892857143  14.4289772727273 12  14.3181818181818 12  L 13.5 12  C 13.3892045454546 12  13.2933238636364 11.9575892857143  13.2123579545454 11.8727678571429  C 13.1313920454546 11.7879464285714  13.0909090909091 11.6875  13.0909090909091 11.5714285714286  L 13.0909090909091 10.7142857142857  C 13.0909090909091 10.5982142857143  13.1313920454546 10.4977678571428  13.2123579545454 10.4129464285714  C 13.2933238636364 10.328125  13.3892045454546 10.2857142857143  13.5 10.2857142857143  L 14.3181818181818 10.2857142857143  C 14.4289772727273 10.2857142857143  14.5248579545454 10.328125  14.6058238636364 10.4129464285714  Z M 11.3330965909091 6.984375  C 11.4140625 7.06919642857144  11.4545454545454 7.16964285714283  11.4545454545454 7.28571428571433  L 11.4545454545454 8.14285714285711  C 11.4545454545454 8.25892857142856  11.4140625 8.359375  11.3330965909091 8.44419642857144  C 11.2521306818182 8.52901785714283  11.15625 8.57142857142856  11.0454545454546 8.57142857142856  L 10.2272727272727 8.57142857142856  C 10.1164772727273 8.57142857142856  10.0205965909091 8.52901785714283  9.93963068181819 8.44419642857144  C 9.85866477272725 8.359375  9.81818181818181 8.25892857142856  9.81818181818181 8.14285714285711  L 9.81818181818181 7.28571428571433  C 9.81818181818181 7.16964285714283  9.85866477272725 7.06919642857144  9.93963068181819 6.984375  C 10.0205965909091 6.89955357142856  10.1164772727273 6.85714285714289  10.2272727272727 6.85714285714289  L 11.0454545454546 6.85714285714289  C 11.15625 6.85714285714289  11.2521306818182 6.89955357142856  11.3330965909091 6.984375  Z M 8.06036931818181 3.55580357142856  C 8.14133522727275 3.640625  8.18181818181819 3.74107142857144  8.18181818181819 3.85714285714289  L 8.18181818181819 4.71428571428567  C 8.18181818181819 4.83035714285717  8.14133522727275 4.93080357142856  8.06036931818181 5.015625  C 7.97940340909088 5.10044642857144  7.88352272727275 5.14285714285711  7.77272727272725 5.14285714285711  L 6.95454545454544 5.14285714285711  C 6.84375 5.14285714285711  6.74786931818181 5.10044642857144  6.66690340909093 5.015625  C 6.5859375 4.93080357142856  6.54545454545456 4.83035714285717  6.54545454545456 4.71428571428567  L 6.54545454545456 3.85714285714289  C 6.54545454545456 3.74107142857144  6.5859375 3.640625  6.66690340909093 3.55580357142856  C 6.74786931818181 3.47098214285717  6.84375 3.42857142857144  6.95454545454544 3.42857142857144  L 7.77272727272725 3.42857142857144  C 7.88352272727275 3.42857142857144  7.97940340909088 3.47098214285717  8.06036931818181 3.55580357142856  Z M 14.6058238636364 6.984375  C 14.6867897727273 7.06919642857144  14.7272727272727 7.16964285714283  14.7272727272727 7.28571428571433  L 14.7272727272727 8.14285714285711  C 14.7272727272727 8.25892857142856  14.6867897727273 8.359375  14.6058238636364 8.44419642857144  C 14.5248579545454 8.52901785714283  14.4289772727273 8.57142857142856  14.3181818181818 8.57142857142856  L 13.5 8.57142857142856  C 13.3892045454546 8.57142857142856  13.2933238636364 8.52901785714283  13.2123579545454 8.44419642857144  C 13.1313920454546 8.359375  13.0909090909091 8.25892857142856  13.0909090909091 8.14285714285711  L 13.0909090909091 7.28571428571433  C 13.0909090909091 7.16964285714283  13.1313920454546 7.06919642857144  13.2123579545454 6.984375  C 13.2933238636364 6.89955357142856  13.3892045454546 6.85714285714289  13.5 6.85714285714289  L 14.3181818181818 6.85714285714289  C 14.4289772727273 6.85714285714289  14.5248579545454 6.89955357142856  14.6058238636364 6.984375  Z M 11.3330965909091 3.55580357142856  C 11.4140625 3.640625  11.4545454545454 3.74107142857144  11.4545454545454 3.85714285714289  L 11.4545454545454 4.71428571428567  C 11.4545454545454 4.83035714285717  11.4140625 4.93080357142856  11.3330965909091 5.015625  C 11.2521306818182 5.10044642857144  11.15625 5.14285714285711  11.0454545454546 5.14285714285711  L 10.2272727272727 5.14285714285711  C 10.1164772727273 5.14285714285711  10.0205965909091 5.10044642857144  9.93963068181819 5.015625  C 9.85866477272725 4.93080357142856  9.81818181818181 4.83035714285717  9.81818181818181 4.71428571428567  L 9.81818181818181 3.85714285714289  C 9.81818181818181 3.74107142857144  9.85866477272725 3.640625  9.93963068181819 3.55580357142856  C 10.0205965909091 3.47098214285717  10.1164772727273 3.42857142857144  10.2272727272727 3.42857142857144  L 11.0454545454546 3.42857142857144  C 11.15625 3.42857142857144  11.2521306818182 3.47098214285717  11.3330965909091 3.55580357142856  Z M 14.6058238636364 3.55580357142856  C 14.6867897727273 3.640625  14.7272727272727 3.74107142857144  14.7272727272727 3.85714285714289  L 14.7272727272727 4.71428571428567  C 14.7272727272727 4.83035714285717  14.6867897727273 4.93080357142856  14.6058238636364 5.015625  C 14.5248579545454 5.10044642857144  14.4289772727273 5.14285714285711  14.3181818181818 5.14285714285711  L 13.5 5.14285714285711  C 13.3892045454546 5.14285714285711  13.2933238636364 5.10044642857144  13.2123579545454 5.015625  C 13.1313920454546 4.93080357142856  13.0909090909091 4.83035714285717  13.0909090909091 4.71428571428567  L 13.0909090909091 3.85714285714289  C 13.0909090909091 3.74107142857144  13.1313920454546 3.640625  13.2123579545454 3.55580357142856  C 13.2933238636364 3.47098214285717  13.3892045454546 3.42857142857144  13.5 3.42857142857144  L 14.3181818181818 3.42857142857144  C 14.4289772727273 3.42857142857144  14.5248579545454 3.47098214285717  14.6058238636364 3.55580357142856  Z M 11.4545454545454 19.2857142857143  L 11.4545454545454 22.2857142857143  L 16.3636363636364 22.2857142857143  L 16.3636363636364 2  L 1.63636363636363 2  L 1.63636363636363 22.2857142857143  L 6.54545454545456 22.2857142857143  L 6.54545454545456 19.2857142857143  C 6.54545454545456 19.1696428571428  6.5859375 19.0691964285714  6.66690340909093 18.984375  C 6.74786931818181 18.8995535714286  6.84375 18.8571428571429  6.95454545454544 18.8571428571429  L 11.0454545454546 18.8571428571429  C 11.15625 18.8571428571429  11.2521306818182 18.8995535714286  11.3330965909091 18.984375  C 11.4140625 19.0691964285714  11.4545454545454 19.1696428571428  11.4545454545454 19.2857142857143  Z M 17.7571022727273 0.254464285714334  C 17.9190340909091 0.424107142857167  18 0.625  18 0.85714285714289  L 18 23.1428571428571  C 18 23.375  17.9190340909091 23.5758928571428  17.7571022727273 23.7455357142857  C 17.5951704545454 23.9151785714286  17.4034090909091 24  17.1818181818182 24  L 0.818181818181813 24  C 0.596590909090878 24  0.404829545454561 23.9151785714286  0.242897727272748 23.7455357142857  C 0.0809659090909349 23.5758928571428  0 23.375  0 23.1428571428571  L 0 0.85714285714289  C 0 0.625  0.0809659090909349 0.424107142857167  0.242897727272748 0.254464285714334  C 0.404829545454561 0.0848214285714448  0.596590909090878 0  0.818181818181813 0  L 17.1818181818182 0  C 17.4034090909091 0  17.5951704545454 0.0848214285714448  17.7571022727273 0.254464285714334  Z " fill-rule="nonzero" fill="#ffffff" stroke="none" transform="matrix(1 0 0 1 62 258 )" />
  </g>
</svg>