<?xml version="1.0" encoding="utf-8"?>
<svg version="1.1" xmlns:xlink="http://www.w3.org/1999/xlink" width="27px" height="23px" xmlns="http://www.w3.org/2000/svg">
  <g transform="matrix(1 0 0 1 -57 -495 )">
    <path d="M 25.0714285714286 1.9141742522757  L 25.0714285714286 7.65669700910274  C 25.6037946428571 7.65669700910274  26.0583147321429 7.84362808842656  26.4349888392857 8.21749024707412  C 26.8116629464286 8.59135240572169  27 9.04247941048982  27 9.57087126137844  C 27 10.099263112267  26.8116629464286 10.5503901170351  26.4349888392857 10.9242522756827  C 26.0583147321429 11.2981144343303  25.6037946428571 11.4850455136541  25.0714285714286 11.4850455136541  L 25.0714285714286 17.2275682704811  C 25.0714285714286 17.7459904638058  24.8805803571429 18.1946250541829  24.4988839285714 18.5734720416125  C 24.1171875 18.9523190290421  23.6651785714286 19.1417425227568  23.1428571428571 19.1417425227568  C 18.9542410714286 15.6822713480711  14.8761160714286 13.7880364109233  10.9084821428571 13.4590377113134  C 10.3258928571429 13.6484612050282  9.86886160714286 13.9774599046381  9.53738839285714 14.446033810143  C 9.20591517857142 14.914607715648  9.05022321428572 15.4155830082358  9.0703125 15.9489596879064  C 9.09040178571428 16.482336367577  9.29129464285714 16.943433029909  9.67299107142858 17.3322496749024  C 9.47209821428572 17.6612483745123  9.35658482142858 17.9877546597313  9.32645089285714 18.3117685305592  C 9.29631696428572 18.6357824013871  9.32645089285714 18.9249024707412  9.41685267857142 19.1791287386216  C 9.50725446428572 19.433355006502  9.67550223214286 19.7075205895102  9.92159598214286 20.0016254876463  C 10.1676897321429 20.2957303857823  10.4087611607143 20.5449718248808  10.6448102678571 20.7493498049415  C 10.880859375 20.9537277850021  11.1897321428571 21.2054616384916  11.5714285714286 21.5045513654096  C 11.2801339285714 22.0827915041179  10.7201450892857 22.4965322930212  9.89146205357142 22.7457737321197  C 9.06277901785714 22.995015171218  8.21651785714286 23.0523407022107  7.35267857142857 22.9177503250976  C 6.48883928571429 22.7831599479844  5.82589285714286 22.5065019505852  5.36383928571429 22.0877763328999  C 5.29352678571429 21.8584742089294  5.14536830357143 21.4223016905072  4.91936383928571 20.7792587776333  C 4.693359375 20.1362158647594  4.53264508928572 19.6651495448634  4.43722098214286 19.3660598179454  C 4.341796875 19.0669700910273  4.22628348214286 18.6233203294322  4.09068080357143 18.0351105331599  C 3.955078125 17.4469007368878  3.87974330357143 16.943433029909  3.86467633928571 16.5247074122236  C 3.849609375 16.1059817945384  3.8671875 15.6149761595145  3.91741071428571 15.0516905071521  C 3.96763392857143 14.4884048547898  4.078125 13.9375812743823  4.24888392857143 13.3992197659297  L 2.41071428571429 13.3992197659297  C 1.74776785714286 13.3992197659297  1.18024553571429 13.1649328131773  0.708147321428569 12.6963589076723  C 0.236049107142861 12.2277850021674  0 11.6644993498049  0 11.0065019505852  L 0 8.13524057217165  C 0 7.47724317295189  0.236049107142861 6.91395752058952  0.708147321428569 6.44538361508455  C 1.18024553571429 5.97680970957953  1.74776785714286 5.74252275682704  2.41071428571429 5.74252275682704  L 9.64285714285714 5.74252275682704  C 14.0122767857143 5.74252275682704  18.5122767857143 3.82834850455134  23.1428571428571 0  C 23.6651785714286 0  24.1171875 0.189423493714798  24.4988839285714 0.568270481144339  C 24.8805803571429 0.947117468573879  25.0714285714286 1.39575205895102  25.0714285714286 1.9141742522757  Z M 11.5714285714286 11.5897269180754  C 15.3582589285714 12.0084525357607  19.2154017857143 13.7082791504118  23 16.6892067620286  L 23 2.42262678803638  C 19.1852678571429 5.43346337234505  15.328125 7.14325964456003  11.5714285714286 7.5520156046814  L 11.5714285714286 11.5897269180754  Z " fill-rule="nonzero" fill="#ffffff" stroke="none" transform="matrix(1 0 0 1 57 495 )" />
  </g>
</svg>