<?xml version="1.0" encoding="utf-8"?>
<svg version="1.1" xmlns:xlink="http://www.w3.org/1999/xlink" width="17px" height="16px" xmlns="http://www.w3.org/2000/svg">
  <g transform="matrix(1 0 0 1 -573 -264 )">
    <path d="M 12.3515625 14.0441083805923  L 11.6159855769231 9.79962192816635  L 14.7421875 6.80529300567105  L 10.4308894230769 6.18021424070571  L 8.5 2.32892249527413  L 6.56911057692309 6.18021424070571  L 2.2578125 6.80529300567105  L 5.38401442307691 9.79962192816635  L 4.63822115384619 14.0441083805923  L 8.5 12.0378071833649  L 12.3515625 14.0441083805923  Z M 16.4278846153846 5.73660995589165  C 16.8092948717949 5.79710144927537  17 5.95169082125602  17 6.20037807183371  C 17 6.34824616677167  16.9114583333334 6.50955681579501  16.734375 6.6843100189036  L 13.0258413461538 10.2533081285444  L 13.9044471153846 15.294265910523  C 13.9112580128206 15.3413148498215  13.9146634615385 15.4085276202479  13.9146634615385 15.4959042218021  C 13.9146634615385 15.831968073934  13.7750400641025 16  13.4957932692307 16  C 13.3663862179487 16  13.2301682692307 15.9596723377442  13.0871394230769 15.8790170132325  L 8.5 13.4996849401386  L 3.91286057692309 15.8790170132325  C 3.76302083333337 15.9596723377442  3.62680288461536 16  3.50420673076928 16  C 3.36117788461536 16  3.25390625 15.9512707414409  3.18239182692309 15.8538122243226  C 3.11087740384619 15.7563537072044  3.07512019230774 15.6370510396976  3.07512019230774 15.4959042218021  C 3.07512019230774 15.4555765595463  3.08193108974353 15.3883637891199  3.09555288461536 15.294265910523  L 3.97415865384619 10.2533081285444  L 0.255408653846189 6.6843100189036  C 0.0851362179487296 6.50283553875238  0 6.34152488972904  0 6.20037807183371  C 0 5.95169082125602  0.190705128205082 5.79710144927537  0.572115384615358 5.73660995589165  L 5.70072115384619 5.00063011972276  L 7.99939903846155 0.413358538122225  C 8.12880608974365 0.137786179374075  8.29567307692309 0  8.5 0  C 8.70432692307691 0  8.87119391025647 0.137786179374075  9.00060096153845 0.413358538122225  L 11.2992788461538 5.00063011972276  L 16.4278846153846 5.73660995589165  Z " fill-rule="nonzero" fill="#000000" stroke="none" transform="matrix(1 0 0 1 573 264 )" />
  </g>
</svg>