<?xml version="1.0" encoding="utf-8"?>
<svg version="1.1" xmlns:xlink="http://www.w3.org/1999/xlink" width="25px" height="24px" xmlns="http://www.w3.org/2000/svg">
  <g transform="matrix(1 0 0 1 -54 -33 )">
    <path d="M 6.2255859375 1.60937500000003  C 8.14073350694446 0.536458333333371  10.2322048611111 0  12.5 0  C 14.7677951388889 0  16.8592664930555 0.536458333333371  18.7744140625 1.60937500000003  C 20.6895616319445 2.68229166666669  22.2059461805555 4.13802083333331  23.3235677083334 5.9765625  C 24.4411892361111 7.81510416666669  25 9.82291666666663  25 12  C 25 14.1770833333334  24.4411892361111 16.1848958333333  23.3235677083334 18.0234375  C 22.2059461805555 19.8619791666667  20.6895616319445 21.3177083333333  18.7744140625 22.390625  C 16.8592664930555 23.4635416666666  14.7677951388889 24  12.5 24  C 10.2322048611111 24  8.14073350694446 23.4635416666666  6.2255859375 22.390625  C 4.31043836805554 21.3177083333333  2.79405381944446 19.8619791666667  1.67643229166663 18.0234375  C 0.558810763888914 16.1848958333333  0 14.1770833333334  0 12  C 0 9.82291666666663  0.558810763888914 7.81510416666669  1.67643229166663 5.9765625  C 2.79405381944446 4.13802083333331  4.31043836805554 2.68229166666669  6.2255859375 1.60937500000003  Z M 9.89583333333337 17.859375  L 18.75 12.859375  C 19.0972222222222 12.671875  19.2708333333334 12.3854166666667  19.2708333333334 12  C 19.2708333333334 11.6145833333333  19.0972222222222 11.328125  18.75 11.140625  L 9.89583333333337 6.140625  C 9.55946180555554 5.94270833333331  9.21223958333337 5.93749999999997  8.85416666666663 6.12499999999997  C 8.50694444444446 6.32291666666666  8.33333333333337 6.61458333333334  8.33333333333337 7.00000000000003  L 8.33333333333337 17  C 8.33333333333337 17.3854166666667  8.50694444444446 17.6770833333333  8.85416666666663 17.875  C 9.02777777777783 17.9583333333333  9.20138888888891 18  9.375 18  C 9.55946180555554 18  9.73307291666663 17.953125  9.89583333333337 17.859375  Z " fill-rule="nonzero" fill="#ffffcc" stroke="none" transform="matrix(1 0 0 1 54 33 )" />
  </g>
</svg>