<?xml version="1.0" encoding="utf-8"?>
<svg version="1.1" xmlns:xlink="http://www.w3.org/1999/xlink" width="37px" height="41px" xmlns="http://www.w3.org/2000/svg">
  <g transform="matrix(1 0 0 1 -50 -114 )">
    <path d="M 27.8463541666667 1.55580357142857  L 35.3619791666667 8.69419642857143  C 35.8116319444445 9.12127976190476  36.1970486111111 9.70089285714286  36.5182291666667 10.4330357142857  C 36.8394097222222 11.1651785714286  37 11.8363095238095  37 12.4464285714286  L 37 38.8035714285714  C 37 39.4136904761905  36.7751736111111 39.9322916666667  36.3255208333333 40.359375  C 35.8758680555556 40.7864583333333  35.3298611111111 41  34.6875 41  L 2.3125 41  C 1.67013888888889 41  1.12413194444444 40.7864583333333  0.674479166666664 40.359375  C 0.224826388888886 39.9322916666667  0 39.4136904761905  0 38.8035714285714  L 0 2.19642857142857  C 0 1.58630952380952  0.224826388888886 1.06770833333333  0.674479166666664 0.640625  C 1.12413194444444 0.213541666666671  1.67013888888889 0  2.3125 0  L 23.8958333333333 0  C 24.5381944444444 0  25.2447916666667 0.152529761904759  26.015625 0.457589285714292  C 26.7864583333333 0.76264880952381  27.3967013888889 1.12872023809524  27.8463541666667 1.55580357142857  Z M 25.654296875 3.61495535714286  C 25.4615885416667 3.43191964285714  25.1323784722222 3.2641369047619  24.6666666666667 3.11160714285714  L 24.6666666666667 11.7142857142857  L 33.7239583333333 11.7142857142857  C 33.5633680555556 11.2719494047619  33.38671875 10.9592633928571  33.1940104166667 10.7762276785714  L 25.654296875 3.61495535714286  Z M 3 38  L 34 38  L 34 15  L 23.8958333333333 15  C 23.2534722222222 14.6428571428571  22.7074652777778 14.4293154761905  22.2578125 14.0022321428571  C 21.8081597222222 13.5751488095238  21.5833333333333 13.0565476190476  21.5833333333333 12.4464285714286  L 21.5833333333333 3  L 3 3  L 3 38  Z M 14.091796875 19.6077008928571  C 14.3487413194444 19.37890625  14.6297743055556 19.3255208333333  14.9348958333333 19.4475446428571  C 15.2560763888889 19.569568452381  15.4166666666667 19.7983630952381  16 20.1339285714286  L 16 32.5803571428571  C 15.4166666666667 32.9159226190476  15.2560763888889 33.1447172619048  14.9348958333333 33.2667410714286  C 14.8064236111111 33.2972470238095  14.7100694444444 33.3125  14.6458333333333 33.3125  C 14.453125 33.3125  14.2684461805556 33.2438616071429  14.091796875 33.1065848214286  L 10.0930989583333 29.2857142857143  L 6.9375 29.2857142857143  C 6.71267361111111 29.2857142857143  6.52799479166666 29.2170758928571  6.38346354166666 29.0797991071429  C 6.23893229166666 28.9425223214286  6.16666666666666 28.7671130952381  6.16666666666666 28.5535714285714  L 6.16666666666666 24.1607142857143  C 6.16666666666666 23.9471726190476  6.23893229166666 23.7717633928571  6.38346354166666 23.6344866071429  C 6.52799479166666 23.4972098214286  6.71267361111111 23.4285714285714  6.9375 23.4285714285714  L 10.0930989583333 23.4285714285714  L 14.091796875 19.6077008928571  Z M 24.0162760416667 34.8683035714286  C 24.3053385416667 35.0970982142857  24.6265190972222 35.2114955357143  24.9798177083333 35.2114955357143  C 25.4776475694444 35.2114955357143  25.8791232638889 35.0284598214286  26.1842447916667 34.6623883928571  C 28.255859375 32.2371651785714  29.2916666666667 29.46875  29.2916666666667 26.3571428571429  C 29.2916666666667 23.2455357142857  28.255859375 20.4771205357143  26.1842447916667 18.0518973214286  C 25.9273003472222 17.7315848214286  25.58203125 17.5485491071429  25.1484375 17.5027901785714  C 24.71484375 17.45703125  24.3374565972222 17.5638020833333  24.0162760416667 17.8231026785714  C 23.6790364583333 18.0824032738095  23.4903428819444 18.4141555059524  23.4501953125 18.818359375  C 23.4100477430556 19.2225632440476  23.5264756944444 19.5848214285714  23.7994791666667 19.9051339285714  C 25.4053819444444 21.78125  26.2083333333333 23.9319196428571  26.2083333333333 26.3571428571429  C 26.2083333333333 28.7823660714286  25.4053819444444 30.9330357142857  23.7994791666667 32.8091517857143  C 23.5264756944444 33.1294642857143  23.4100477430556 33.4917224702381  23.4501953125 33.8959263392857  C 23.4903428819444 34.3001302083333  23.6790364583333 34.624255952381  24.0162760416667 34.8683035714286  Z M 18.8372395833333 31.4363839285714  C 19.1584201388889 31.6956845238095  19.51171875 31.8253348214286  19.8971354166667 31.8253348214286  C 20.3307291666667 31.8253348214286  20.7081163194444 31.6728050595238  21.029296875 31.3677455357143  C 22.4264322916667 29.94921875  23.125 28.2790178571429  23.125 26.3571428571429  C 23.125 24.4352678571429  22.4264322916667 22.7650669642857  21.029296875 21.3465401785714  C 20.740234375 21.0567336309524  20.37890625 20.9042038690476  19.9453125 20.8889508928571  C 19.51171875 20.8736979166667  19.1423611111111 21.0033482142857  18.8372395833333 21.2779017857143  C 18.5321180555556 21.5524553571429  18.3715277777778 21.891834077381  18.35546875 22.2960379464286  C 18.3394097222222 22.7002418154762  18.4839409722222 23.0548735119048  18.7890625 23.3599330357143  C 19.6241319444444 24.2293526785714  20.0416666666667 25.2284226190476  20.0416666666667 26.3571428571429  C 20.0416666666667 27.4858630952381  19.6241319444444 28.4849330357143  18.7890625 29.3543526785714  C 18.4839409722222 29.659412202381  18.3394097222222 30.0140438988095  18.35546875 30.4182477678571  C 18.3715277777778 30.8224516369048  18.5321180555556 31.1618303571429  18.8372395833333 31.4363839285714  Z " fill-rule="nonzero" fill="#000000" stroke="none" transform="matrix(1 0 0 1 50 114 )" />
  </g>
</svg>