<?xml version="1.0" encoding="utf-8"?>
<svg version="1.1" xmlns:xlink="http://www.w3.org/1999/xlink" width="37px" height="40px" xmlns="http://www.w3.org/2000/svg">
  <g transform="matrix(1 0 0 1 -51 -195 )">
    <path d="M 27.8463541666667 1.51785714285714  L 35.3619791666667 8.48214285714286  C 35.8116319444445 8.89880952380952  36.1970486111111 9.46428571428572  36.5182291666667 10.1785714285714  C 36.8394097222222 10.8928571428571  37 11.547619047619  37 12.1428571428571  L 37 37.8571428571429  C 37 38.452380952381  36.7751736111111 38.9583333333333  36.3255208333333 39.375  C 35.8758680555556 39.7916666666667  35.3298611111111 40  34.6875 40  L 2.3125 40  C 1.67013888888889 40  1.12413194444444 39.7916666666667  0.674479166666664 39.375  C 0.224826388888886 38.9583333333333  0 38.452380952381  0 37.8571428571429  L 0 2.14285714285714  C 0 1.54761904761904  0.224826388888886 1.04166666666666  0.674479166666664 0.625  C 1.12413194444444 0.208333333333343  1.67013888888889 0  2.3125 0  L 23.8958333333333 0  C 24.5381944444444 0  25.2447916666667 0.148809523809547  26.015625 0.446428571428584  C 26.7864583333333 0.74404761904762  27.3967013888889 1.10119047619045  27.8463541666667 1.51785714285714  Z M 25.654296875 3.52678571428572  C 25.4615885416667 3.34821428571428  25.1323784722222 3.1845238095238  24.6666666666667 3.03571428571428  L 24.6666666666667 11.4285714285714  L 33.7239583333333 11.4285714285714  C 33.5633680555556 10.9970238095238  33.38671875 10.6919642857143  33.1940104166667 10.5133928571429  L 25.654296875 3.52678571428572  Z M 3 37  L 34 37  L 34 15  L 23.8958333333333 15  C 23.2534722222222 14.2857142857143  22.7074652777778 14.077380952381  22.2578125 13.6607142857143  C 21.8081597222222 13.2440476190476  21.5833333333333 12.7380952380952  21.5833333333333 12.1428571428571  L 21.5833333333333 3  L 3 3  L 3 37  Z M 14.091796875 19.1294642857143  C 14.3487413194444 18.90625  14.6297743055556 18.8541666666667  14.9348958333333 18.9732142857143  C 15.2560763888889 19.0922619047619  15.4166666666667 19.3154761904762  16 19.6428571428571  L 16 31.7857142857143  C 15.4166666666667 32.1130952380952  15.2560763888889 32.3363095238095  14.9348958333333 32.4553571428571  C 14.8064236111111 32.485119047619  14.7100694444444 32.5  14.6458333333333 32.5  C 14.453125 32.5  14.2684461805556 32.4330357142857  14.091796875 32.2991071428571  L 10.0930989583333 28.5714285714286  L 6.9375 28.5714285714286  C 6.71267361111111 28.5714285714286  6.52799479166666 28.5044642857143  6.38346354166666 28.3705357142857  C 6.23893229166666 28.2366071428571  6.16666666666666 28.0654761904762  6.16666666666666 27.8571428571429  L 6.16666666666666 23.5714285714286  C 6.16666666666666 23.3630952380952  6.23893229166666 23.1919642857143  6.38346354166666 23.0580357142857  C 6.52799479166666 22.9241071428571  6.71267361111111 22.8571428571429  6.9375 22.8571428571429  L 10.0930989583333 22.8571428571429  L 14.091796875 19.1294642857143  Z M 24.0162760416667 34.0178571428571  C 24.3053385416667 34.2410714285714  24.6265190972222 34.3526785714286  24.9798177083333 34.3526785714286  C 25.4776475694444 34.3526785714286  25.8791232638889 34.1741071428571  26.1842447916667 33.8169642857143  C 28.255859375 31.4508928571429  29.2916666666667 28.75  29.2916666666667 25.7142857142857  C 29.2916666666667 22.6785714285714  28.255859375 19.9776785714286  26.1842447916667 17.6116071428571  C 25.9273003472222 17.2991071428571  25.58203125 17.1205357142857  25.1484375 17.0758928571429  C 24.71484375 17.03125  24.3374565972222 17.1354166666667  24.0162760416667 17.3883928571429  C 23.6790364583333 17.641369047619  23.4903428819444 17.9650297619048  23.4501953125 18.359375  C 23.4100477430556 18.7537202380952  23.5264756944444 19.1071428571429  23.7994791666667 19.4196428571429  C 25.4053819444444 21.25  26.2083333333333 23.3482142857143  26.2083333333333 25.7142857142857  C 26.2083333333333 28.0803571428571  25.4053819444444 30.1785714285714  23.7994791666667 32.0089285714286  C 23.5264756944444 32.3214285714286  23.4100477430556 32.6748511904762  23.4501953125 33.0691964285714  C 23.4903428819444 33.4635416666667  23.6790364583333 33.7797619047619  24.0162760416667 34.0178571428571  Z M 18.8372395833333 30.6696428571429  C 19.1584201388889 30.922619047619  19.51171875 31.0491071428571  19.8971354166667 31.0491071428571  C 20.3307291666667 31.0491071428571  20.7081163194444 30.9002976190476  21.029296875 30.6026785714286  C 22.4264322916667 29.21875  23.125 27.5892857142857  23.125 25.7142857142857  C 23.125 23.8392857142857  22.4264322916667 22.2098214285714  21.029296875 20.8258928571429  C 20.740234375 20.5431547619048  20.37890625 20.3943452380952  19.9453125 20.3794642857143  C 19.51171875 20.3645833333333  19.1423611111111 20.4910714285714  18.8372395833333 20.7589285714286  C 18.5321180555556 21.0267857142857  18.3715277777778 21.3578869047619  18.35546875 21.7522321428571  C 18.3394097222222 22.1465773809524  18.4839409722222 22.4925595238095  18.7890625 22.7901785714286  C 19.6241319444444 23.6383928571429  20.0416666666667 24.6130952380952  20.0416666666667 25.7142857142857  C 20.0416666666667 26.8154761904762  19.6241319444444 27.7901785714286  18.7890625 28.6383928571429  C 18.4839409722222 28.9360119047619  18.3394097222222 29.281994047619  18.35546875 29.6763392857143  C 18.3715277777778 30.0706845238095  18.5321180555556 30.4017857142857  18.8372395833333 30.6696428571429  Z " fill-rule="nonzero" fill="#000000" stroke="none" transform="matrix(1 0 0 1 51 195 )" />
  </g>
</svg>