<?xml version="1.0" encoding="utf-8"?>
<svg version="1.1" xmlns:xlink="http://www.w3.org/1999/xlink" width="37px" height="43px" xmlns="http://www.w3.org/2000/svg">
  <g transform="matrix(1 0 0 1 -50 -30 )">
    <path d="M 27.8463541666667 1.63169642857143  L 35.3619791666667 9.11830357142857  C 35.8116319444444 9.56622023809523  36.1970486111111 10.1741071428571  36.5182291666667 10.9419642857143  C 36.8394097222222 11.7098214285714  37 12.4136904761905  37 13.0535714285714  L 37 40.6964285714286  C 37 41.3363095238095  36.7751736111111 41.8802083333333  36.3255208333333 42.328125  C 35.8758680555556 42.7760416666667  35.3298611111111 43  34.6875 43  L 2.3125 43  C 1.67013888888889 43  1.12413194444444 42.7760416666667  0.674479166666664 42.328125  C 0.224826388888886 41.8802083333333  0 41.3363095238095  0 40.6964285714286  L 0 2.30357142857143  C 0 1.66369047619047  0.224826388888886 1.11979166666666  0.674479166666664 0.671875  C 1.12413194444444 0.223958333333336  1.67013888888889 0  2.3125 0  L 23.8958333333333 0  C 24.5381944444444 0  25.2447916666667 0.159970238095241  26.015625 0.479910714285715  C 26.7864583333333 0.79985119047619  27.3967013888889 1.18377976190476  27.8463541666667 1.63169642857143  Z M 25.654296875 3.79129464285715  C 25.4615885416667 3.59933035714285  25.1323784722222 3.42336309523809  24.6666666666667 3.26339285714285  L 24.6666666666667 12.2857142857143  L 33.7239583333333 12.2857142857143  C 33.5633680555556 11.8218005952381  33.38671875 11.4938616071429  33.1940104166667 11.3018973214286  L 25.654296875 3.79129464285715  Z M 3 40  L 34 40  L 34 16  L 23.8958333333333 16  C 23.2534722222222 15.3571428571429  22.7074652777778 15.1331845238095  22.2578125 14.6852678571429  C 21.8081597222222 14.2373511904762  21.5833333333333 13.6934523809524  21.5833333333333 13.0535714285714  L 21.5833333333333 3  L 3 3  L 3 40  Z M 14.091796875 20.5641741071429  C 14.3487413194444 20.32421875  14.6297743055556 20.2682291666667  14.9348958333333 20.3962053571429  C 15.2560763888889 20.524181547619  15.4166666666667 20.7641369047619  16 21.1160714285714  L 16 34.1696428571429  C 15.4166666666667 34.5215773809524  15.2560763888889 34.7615327380952  14.9348958333333 34.8895089285714  C 14.8064236111111 34.9215029761905  14.7100694444444 34.9375  14.6458333333333 34.9375  C 14.453125 34.9375  14.2684461805556 34.8655133928571  14.091796875 34.7215401785714  L 10.0930989583333 30.7142857142857  L 6.9375 30.7142857142857  C 6.71267361111111 30.7142857142857  6.52799479166666 30.6422991071429  6.38346354166666 30.4983258928571  C 6.23893229166666 30.3543526785714  6.16666666666666 30.1703869047619  6.16666666666666 29.9464285714286  L 6.16666666666666 25.3392857142857  C 6.16666666666666 25.1153273809524  6.23893229166666 24.9313616071429  6.38346354166666 24.7873883928571  C 6.52799479166666 24.6434151785714  6.71267361111111 24.5714285714286  6.9375 24.5714285714286  L 10.0930989583333 24.5714285714286  L 14.091796875 20.5641741071429  Z M 24.0162760416667 36.5691964285714  C 24.3053385416667 36.8091517857143  24.6265190972222 36.9291294642857  24.9798177083333 36.9291294642857  C 25.4776475694444 36.9291294642857  25.8791232638889 36.7371651785714  26.1842447916667 36.3532366071429  C 28.255859375 33.8097098214286  29.2916666666667 30.90625  29.2916666666667 27.6428571428571  C 29.2916666666667 24.3794642857143  28.255859375 21.4760044642857  26.1842447916667 18.9324776785714  C 25.9273003472222 18.5965401785714  25.58203125 18.4045758928571  25.1484375 18.3565848214286  C 24.71484375 18.30859375  24.3374565972222 18.4205729166667  24.0162760416667 18.6925223214286  C 23.6790364583333 18.9644717261905  23.4903428819444 19.3124069940476  23.4501953125 19.736328125  C 23.4100477430556 20.1602492559524  23.5264756944444 20.5401785714286  23.7994791666667 20.8761160714286  C 25.4053819444444 22.84375  26.2083333333333 25.0993303571429  26.2083333333333 27.6428571428571  C 26.2083333333333 30.1863839285714  25.4053819444444 32.4419642857143  23.7994791666667 34.4095982142857  C 23.5264756944444 34.7455357142857  23.4100477430556 35.1254650297619  23.4501953125 35.5493861607143  C 23.4903428819444 35.9733072916667  23.6790364583333 36.313244047619  24.0162760416667 36.5691964285714  Z M 18.8372395833333 32.9698660714286  C 19.1584201388889 33.2418154761905  19.51171875 33.3777901785714  19.8971354166667 33.3777901785714  C 20.3307291666667 33.3777901785714  20.7081163194444 33.2178199404762  21.029296875 32.8978794642857  C 22.4264322916667 31.41015625  23.125 29.6584821428571  23.125 27.6428571428571  C 23.125 25.6272321428571  22.4264322916667 23.8755580357143  21.029296875 22.3878348214286  C 20.740234375 22.0838913690476  20.37890625 21.9239211309524  19.9453125 21.9079241071429  C 19.51171875 21.8919270833333  19.1423611111111 22.0279017857143  18.8372395833333 22.3158482142857  C 18.5321180555556 22.6037946428571  18.3715277777778 22.959728422619  18.35546875 23.3836495535714  C 18.3394097222222 23.8075706845238  18.4839409722222 24.1795014880952  18.7890625 24.4994419642857  C 19.6241319444444 25.4112723214286  20.0416666666667 26.4590773809524  20.0416666666667 27.6428571428571  C 20.0416666666667 28.8266369047619  19.6241319444444 29.8744419642857  18.7890625 30.7862723214286  C 18.4839409722222 31.106212797619  18.3394097222222 31.4781436011905  18.35546875 31.9020647321429  C 18.3715277777778 32.3259858630952  18.5321180555556 32.6819196428571  18.8372395833333 32.9698660714286  Z " fill-rule="nonzero" fill="#000000" stroke="none" transform="matrix(1 0 0 1 50 30 )" />
  </g>
</svg>