<?xml version="1.0" encoding="utf-8"?>
<svg version="1.1" xmlns:xlink="http://www.w3.org/1999/xlink" width="20px" height="15px" xmlns="http://www.w3.org/2000/svg">
  <g transform="matrix(1 0 0 1 -61 -75 )">
    <path d="M 9.00240384615374 1.2869198312236  C 9.15464743589739 1.42053445850911  9.23076923076921 1.57876230661043  9.23076923076921 1.76160337552739  L 9.23076923076921 13.2383966244726  C 9.23076923076921 13.4212376933896  9.15464743589739 13.5794655414908  9.00240384615374 13.7130801687764  C 8.85016025641026 13.8466947960619  8.66987179487174 13.9135021097046  8.46153846153844 13.9135021097046  C 8.25320512820512 13.9135021097046  8.0729166666667 13.8466947960619  7.92067307692313 13.7130801687764  L 3.91826923076923 10.2004219409283  L 0.769230769230774 10.2004219409283  C 0.560897435897402 10.2004219409283  0.38060897435895 10.1336146272855  0.228365384615394 10  C 0.0761217948717459 9.86638537271449  0 9.70815752461323  0 9.52531645569616  L 0 5.47468354430384  C 0 5.29184247538677  0.0761217948717459 5.13361462728551  0.228365384615394 5  C 0.38060897435895 4.86638537271449  0.560897435897402 4.79957805907173  0.769230769230774 4.79957805907173  L 3.91826923076923 4.79957805907173  L 7.92067307692313 1.2869198312236  C 8.0729166666667 1.15330520393815  8.25320512820512 1.08649789029539  8.46153846153844 1.08649789029539  C 8.66987179487174 1.08649789029539  8.85016025641026 1.15330520393815  9.00240384615374 1.2869198312236  Z M 13.3353365384616 6.00210970464138  C 13.6758814102564 6.46624472573836  13.8461538461537 6.96554149085796  13.8461538461537 7.5  C 13.8461538461537 8.03445850914204  13.6758814102564 8.53199718706048  13.3353365384616 8.99261603375527  C 12.9947916666667 9.45323488045005  12.5440705128205 9.78199718706048  11.9831730769231 9.9789029535865  C 11.9030448717949 10.014064697609  11.8028846153846 10.0316455696203  11.6826923076923 10.0316455696203  C 11.474358974359 10.0316455696203  11.2940705128205 9.96659634317865  11.1418269230769 9.83649789029533  C 10.9895833333333 9.70639943741213  10.9134615384616 9.54641350210972  10.9134615384616 9.3565400843882  C 10.9134615384616 9.20886075949363  10.9615384615384 9.08403656821378  11.0576923076923 8.98206751054852  C 11.1538461538463 8.88009845288326  11.2700320512819 8.792194092827  11.40625 8.71835443037975  C 11.5424679487181 8.64451476793249  11.6786858974359 8.56364275668074  11.8149038461537 8.47573839662448  C 11.9511217948717 8.38783403656822  12.0673076923077 8.26125175808716  12.1634615384616 8.09599156118145  C 12.2596153846154 7.93073136427563  12.3076923076923 7.73206751054852  12.3076923076923 7.5  C 12.3076923076923 7.26793248945148  12.2596153846154 7.06926863572437  12.1634615384616 6.90400843881855  C 12.0673076923077 6.73874824191284  11.9511217948717 6.61216596343178  11.8149038461537 6.52426160337552  C 11.6786858974359 6.43635724331926  11.5424679487181 6.35548523206751  11.40625 6.28164556962025  C 11.2700320512819 6.207805907173  11.1538461538463 6.11990154711674  11.0576923076923 6.01793248945148  C 10.9615384615384 5.91596343178622  10.9134615384616 5.79113924050637  10.9134615384616 5.6434599156118  C 10.9134615384616 5.45358649789029  10.9895833333333 5.29360056258787  11.1418269230769 5.16350210970467  C 11.2940705128205 5.03340365682135  11.474358974359 4.96835443037975  11.6826923076923 4.96835443037975  C 11.8028846153846 4.96835443037975  11.9030448717949 4.985935302391  11.9831730769231 5.0210970464135  C 12.5440705128205 5.21097046413507  12.9947916666667 5.53797468354429  13.3353365384616 6.00210970464138  Z M 15.9014423076923 4.52004219409287  C 16.5825320512819 5.43073136427569  16.9230769230769 6.42405063291142  16.9230769230769 7.5  C 16.9230769230769 8.57594936708858  16.5825320512819 9.56926863572431  15.9014423076923 10.4799578059071  C 15.2203525641026 11.3906469760901  14.3189102564103 12.0534458509142  13.1971153846154 12.4683544303797  C 13.0929487179487 12.5035161744023  12.9927884615384 12.5210970464135  12.8966346153846 12.5210970464135  C 12.6802884615384 12.5210970464135  12.4959935897436 12.4542897327707  12.34375 12.3206751054852  C 12.1915064102564 12.1870604781997  12.1153846153846 12.0288326300985  12.1153846153846 11.8459915611814  C 12.1153846153846 11.5717299578059  12.2716346153846 11.3642756680731  12.5841346153846 11.2236286919831  C 13.0328525641026 11.0196905766526  13.3373397435897 10.8649789029536  13.4975961538463 10.7594936708861  C 14.0905448717949 10.379746835443  14.5532852564102 9.90330520393809  14.8858173076923 9.33016877637135  C 15.2183493589744 8.7570323488045  15.3846153846154 8.14697609001405  15.3846153846154 7.5  C 15.3846153846154 6.85302390998595  15.2183493589744 6.2429676511955  14.8858173076923 5.66983122362865  C 14.5532852564102 5.09669479606191  14.0905448717949 4.62025316455697  13.4975961538463 4.24050632911394  C 13.3373397435897 4.13502109704643  13.0328525641026 3.98030942334736  12.5841346153846 3.77637130801691  C 12.2716346153846 3.63572433192689  12.1153846153846 3.42827004219407  12.1153846153846 3.15400843881855  C 12.1153846153846 2.97116736990154  12.1915064102564 2.81293952180027  12.34375 2.67932489451476  C 12.4959935897436 2.54571026722925  12.6762820512819 2.4789029535865  12.8846153846154 2.4789029535865  C 12.9887820512819 2.4789029535865  13.0929487179487 2.49648382559775  13.1971153846154 2.53164556962025  C 14.3189102564103 2.94655414908578  15.2203525641026 3.60935302390993  15.9014423076923 4.52004219409287  Z M 18.4735576923077 3.0432489451477  C 19.4911858974359 4.39697609001405  20 5.88255977496482  20 7.5  C 20 9.11744022503518  19.4911858974359 10.603023909986  18.4735576923077 11.9567510548523  C 17.4559294871795 13.3104781997187  16.1017628205129 14.3073136427567  14.4110576923077 14.9472573839662  C 14.306891025641 14.9824191279887  14.2027243589744 15  14.0985576923077 15  C 13.8902243589744 15  13.7099358974359 14.9331926863572  13.5576923076923 14.7995780590717  C 13.4054487179487 14.6659634317862  13.3293269230769 14.507735583685  13.3293269230769 14.3248945147679  C 13.3293269230769 14.0717299578059  13.4855769230769 13.8642756680731  13.7980769230769 13.7025316455696  C 13.8541666666667 13.6744022503516  13.9443108974359 13.637482419128  14.0685096153846 13.5917721518987  C 14.1927083333333 13.5460618846695  14.2828525641026 13.5091420534459  14.3389423076923 13.4810126582278  C 14.7075320512819 13.3052039381154  15.0360576923077 13.1258790436005  15.3245192307692 12.9430379746835  C 16.3100961538463 12.303094233474  17.0793269230769 11.5049226441632  17.6322115384616 10.548523206751  C 18.1850961538463 9.59212376933897  18.4615384615384 8.57594936708858  18.4615384615384 7.5  C 18.4615384615384 6.42405063291142  18.1850961538463 5.40787623066103  17.6322115384616 4.45147679324896  C 17.0793269230769 3.49507735583683  16.3100961538463 2.69690576652602  15.3245192307692 2.05696202531647  C 15.0360576923077 1.87412095639945  14.7075320512819 1.69479606188469  14.3389423076923 1.51898734177217  C 14.2828525641026 1.49085794655412  14.1927083333333 1.45393811533052  14.0685096153846 1.40822784810132  C 13.9443108974359 1.36251758087201  13.8541666666667 1.32559774964841  13.7980769230769 1.29746835443041  C 13.4855769230769 1.13572433192689  13.3293269230769 0.928270042194129  13.3293269230769 0.675105485232052  C 13.3293269230769 0.492264416315038  13.4054487179487 0.334036568213776  13.5576923076923 0.200421940928265  C 13.7099358974359 0.0668073136427552  13.8902243589744 0  14.0985576923077 0  C 14.2027243589744 0  14.306891025641 0.0175808720112514  14.4110576923077 0.0527426160337541  C 16.1017628205129 0.692686357243304  17.4559294871795 1.68952180028128  18.4735576923077 3.0432489451477  Z " fill-rule="nonzero" fill="#000000" stroke="none" transform="matrix(1 0 0 1 61 75 )" />
  </g>
</svg>