<?xml version="1.0" encoding="utf-8"?>
<svg version="1.1" xmlns:xlink="http://www.w3.org/1999/xlink" width="25px" height="25px" xmlns="http://www.w3.org/2000/svg">
  <g transform="matrix(1 0 0 1 -572 -98 )">
    <path d="M 15.33203125 15.33203125  C 16.6491386217949 14.0149238782052  17.3076923076924 12.4298878205127  17.3076923076924 10.5769230769231  C 17.3076923076924 8.7239583333333  16.6491386217949 7.13892227564109  15.33203125 5.82181490384626  C 14.0149238782051 4.50470753205121  12.4298878205129 3.84615384615374  10.5769230769231 3.84615384615374  C 8.72395833333326 3.84615384615374  7.13892227564111 4.50470753205121  5.82181490384619 5.82181490384626  C 4.50470753205127 7.13892227564109  3.84615384615381 8.7239583333333  3.84615384615381 10.5769230769231  C 3.84615384615381 12.4298878205127  4.50470753205127 14.0149238782052  5.82181490384619 15.33203125  C 7.13892227564111 16.6491386217948  8.72395833333326 17.3076923076923  10.5769230769231 17.3076923076923  C 12.4298878205129 17.3076923076923  14.0149238782051 16.6491386217948  15.33203125 15.33203125  Z M 24.4441105769231 21.7247596153845  C 24.8147035256411 22.0953525641025  25 22.5460737179488  25 23.0769230769231  C 25 23.5977564102564  24.8096955128206 24.0484775641025  24.4290865384614 24.4290865384615  C 24.0484775641025 24.8096955128206  23.5977564102564 25  23.0769230769231 25  C 22.5360576923076 25  22.0853365384614 24.8096955128206  21.7247596153846 24.4290865384615  L 16.5715144230769 19.2908653846155  C 14.7786458333333 20.5328525641025  12.7804487179487 21.1538461538463  10.5769230769231 21.1538461538463  C 9.14463141025635 21.1538461538463  7.77493990384619 20.8759014423077  6.46784855769238 20.3200120192308  C 5.16075721153857 19.7641225961537  4.03395432692309 19.0129206730769  3.08743990384619 18.06640625  C 2.14092548076917 17.1198918269231  1.38972355769238 15.9930889423077  0.833834134615358 14.6859975961537  C 0.277944711538566 13.37890625  0 12.0092147435898  0 10.5769230769231  C 0 9.14463141025638  0.277944711538566 7.77493990384626  0.833834134615358 6.46784855769231  C 1.38972355769238 5.16075721153847  2.14092548076917 4.03395432692308  3.08743990384619 3.08743990384626  C 4.03395432692309 2.14092548076923  5.16075721153857 1.38972355769231  6.46784855769238 0.8338341346155  C 7.77493990384619 0.277944711538467  9.14463141025635 0  10.5769230769231 0  C 12.0092147435897 0  13.37890625 0.277944711538467  14.6859975961538 0.8338341346155  C 15.9930889423076 1.38972355769231  17.1198918269231 2.14092548076923  18.06640625 3.08743990384626  C 19.0129206730769 4.03395432692308  19.7641225961538 5.16075721153847  20.3200120192308 6.46784855769231  C 20.8759014423076 7.77493990384626  21.1538461538462 9.14463141025638  21.1538461538462 10.5769230769231  C 21.1538461538462 12.7804487179487  20.5328525641025 14.7786458333333  19.2908653846154 16.5715144230769  L 24.4441105769231 21.7247596153845  Z " fill-rule="nonzero" fill="#ffffff" stroke="none" transform="matrix(1 0 0 1 572 98 )" />
  </g>
</svg>