<?xml version="1.0" encoding="utf-8"?>
<svg version="1.1" xmlns:xlink="http://www.w3.org/1999/xlink" width="17px" height="17px" xmlns="http://www.w3.org/2000/svg">
  <g transform="matrix(1 0 0 1 -570 -270 )">
    <path d="M 16.4278846153846 6.09514807813486  C 16.8092948717949 6.15942028985506  17 6.32367149758454  17 6.58790170132323  C 17 6.74501155219497  16.9114583333334 6.91640411678213  16.734375 7.10207939508501  L 13.0258413461538 10.8941398865784  L 13.9044471153846 16.2501575299307  C 13.9112580128206 16.3001470279353  13.9146634615385 16.3715605965133  13.9146634615385 16.4643982356648  C 13.9146634615385 16.6143667296786  13.87890625 16.7411258139047  13.8073918269231 16.8446754883428  C 13.7358774038462 16.9482251627809  13.6320112179487 17  13.4957932692308 17  C 13.3663862179487 17  13.2301682692308 16.9571518588532  13.0871394230769 16.8714555765595  L 8.5 14.3434152488973  L 3.91286057692309 16.8714555765595  C 3.76302083333337 16.9571518588532  3.62680288461536 17  3.50420673076917 17  C 3.36117788461536 17  3.25390625 16.9482251627809  3.18239182692309 16.8446754883428  C 3.11087740384619 16.7411258139047  3.07512019230774 16.6143667296786  3.07512019230774 16.4643982356648  C 3.07512019230774 16.421550094518  3.08193108974365 16.3501365259399  3.09555288461536 16.2501575299307  L 3.97415865384619 10.8941398865784  L 0.255408653846189 7.10207939508501  C 0.0851362179487296 6.90926275992439  0 6.73787019533711  0 6.58790170132323  C 0 6.32367149758454  0.190705128205082 6.15942028985506  0.572115384615358 6.09514807813486  L 5.70072115384619 5.31316950220543  L 7.99939903846155 0.439193446754928  C 8.12880608974365 0.146397815584976  8.29567307692309 0  8.5 0  C 8.70432692307691 0  8.87119391025635 0.146397815584976  9.00060096153845 0.439193446754928  L 11.2992788461538 5.31316950220543  L 16.4278846153846 6.09514807813486  Z " fill-rule="nonzero" fill="#000000" stroke="none" transform="matrix(1 0 0 1 570 270 )" />
  </g>
</svg>