<?xml version="1.0" encoding="utf-8"?>
<svg version="1.1" xmlns:xlink="http://www.w3.org/1999/xlink" width="70px" height="65px" xmlns="http://www.w3.org/2000/svg">
  <g transform="matrix(1 0 0 1 -34 -8 )">
    <path d="M 34 8  L 104 8  L 104 73  L 34 73  L 34 8  " fill-rule="nonzero" fill="#cccccc" stroke="none" />
    <path d="M 39 13  L 99 13  L 99 68  L 39 68  L 39 13  " fill-rule="nonzero" fill="#ffffff" stroke="none" />
    <path d="M 75.275 27.5  C 72.545 27.5  70.4 25.355  70.4 22.625  C 70.4 19.895  72.545 17.75  75.275 17.75  C 78.005 17.75  80.15 19.895  80.15 22.625  C 80.15 25.355  78.005 27.5  75.275 27.5  " fill-rule="nonzero" fill="#cccccc" stroke="none" />
    <path d="M 41 67  L 41 38.4  L 55.25 25.4  L 75.2 38.0285714285714  L 86.6 33.2  L 98 38.0285714285714  L 98 67  L 41 67  " fill-rule="nonzero" fill="#169bd5" stroke="none" />
    <path d="M 34.5 72.5  L 34.5 8.5  L 103.5 8.5  L 103.5 72.5  L 34.5 72.5  Z " stroke-width="1" stroke="#797979" fill="none" />
  </g>
</svg>