<?xml version="1.0" encoding="utf-8"?>
<svg version="1.1" xmlns:xlink="http://www.w3.org/1999/xlink" width="101px" height="61px" xmlns="http://www.w3.org/2000/svg">
  <defs>
    <linearGradient gradientUnits="userSpaceOnUse" x1="50" y1="0" x2="50" y2="60" id="LinearGradient174">
      <stop id="Stop175" stop-color="#ffffff" offset="0" />
      <stop id="Stop176" stop-color="#f2f2f2" offset="0" />
      <stop id="Stop177" stop-color="#e4e4e4" offset="1" />
      <stop id="Stop178" stop-color="#ffffff" offset="1" />
    </linearGradient>
    <mask fill="white" id="clip179">
      <path d="M 12.9601996561865 5.80219780219777  L 12.9601996561865 0  L 100 0  L 100 34.021978021978  L 92.3758911664354 34.021978021978  L 92.3758911664354 39.6923076923077  L 86.1715402671971 39.6923076923077  L 86.1715402671971 46.473991993201  C 86.2174984220064 46.473991993201  77.8531142467371 45.6586588003379  61.5532886744175 46.473991993201  C 45.2534631020979 47.2893251860642  37.7469644832665 58.9078231843645  23.806324191151 59.9269896754435  C 9.86568389903559 60.9461561665225  0 50.9583245539485  0 50.9583245539485  L 0 11.8681318681319  L 6.89372322137572 11.8681318681319  L 6.89372322137572 5.80219780219777  L 12.9601996561865 5.80219780219777  Z " fill-rule="evenodd" />
    </mask>
  </defs>
  <g transform="matrix(1 0 0 1 -168 -710 )">
    <path d="M 12.9601996561865 5.80219780219777  L 12.9601996561865 0  L 100 0  L 100 34.021978021978  L 92.3758911664354 34.021978021978  L 92.3758911664354 39.6923076923077  L 86.1715402671971 39.6923076923077  L 86.1715402671971 46.473991993201  C 86.2174984220064 46.473991993201  77.8531142467371 45.6586588003379  61.5532886744175 46.473991993201  C 45.2534631020979 47.2893251860642  37.7469644832665 58.9078231843645  23.806324191151 59.9269896754435  C 9.86568389903559 60.9461561665225  0 50.9583245539485  0 50.9583245539485  L 0 11.8681318681319  L 6.89372322137572 11.8681318681319  L 6.89372322137572 5.80219780219777  L 12.9601996561865 5.80219780219777  Z " fill-rule="nonzero" fill="url(#LinearGradient174)" stroke="none" transform="matrix(1 0 0 1 168 710 )" />
    <path d="M 12.9601996561865 5.80219780219777  L 12.9601996561865 0  L 100 0  L 100 34.021978021978  L 92.3758911664354 34.021978021978  L 92.3758911664354 39.6923076923077  L 86.1715402671971 39.6923076923077  L 86.1715402671971 46.473991993201  C 86.2174984220064 46.473991993201  77.8531142467371 45.6586588003379  61.5532886744175 46.473991993201  C 45.2534631020979 47.2893251860642  37.7469644832665 58.9078231843645  23.806324191151 59.9269896754435  C 9.86568389903559 60.9461561665225  0 50.9583245539485  0 50.9583245539485  L 0 11.8681318681319  L 6.89372322137572 11.8681318681319  L 6.89372322137572 5.80219780219777  L 12.9601996561865 5.80219780219777  Z " stroke-width="2" stroke="#797979" fill="none" transform="matrix(1 0 0 1 168 710 )" mask="url(#clip179)" />
    <path d="M 86.1715402671971 12.5  L 7.03159768580325 12.5  M 12.9601996561865 6.5  L 92.3758911664354 6.5  M 92.5 34.021978021978  L 92.5 5.80219780219777  M 86.5 11.8681318681319  L 86.5 39.6923076923077  " stroke-width="1" stroke="#797979" fill="none" transform="matrix(1 0 0 1 168 710 )" mask="url(#clip179)" />
  </g>
</svg>