<?xml version="1.0" encoding="utf-8"?>
<svg version="1.1" xmlns:xlink="http://www.w3.org/1999/xlink" width="19px" height="19px" xmlns="http://www.w3.org/2000/svg">
  <g transform="matrix(1 0 0 1 -289 -4 )">
    <path d="M 12.3450520833333 12.1471354166667  C 13.1037326388889 11.4379340277778  14.0026041666667 11.0833333333333  15.0416666666667 11.0833333333333  C 16.1384548611111 11.0833333333333  17.0723741319444 11.4688585069444  17.8434244791667 12.2399088541667  C 18.6144748263889 13.0109592013889  19 13.9448784722222  19 15.0416666666667  C 19 16.1384548611111  18.6144748263889 17.0723741319444  17.8434244791667 17.8434244791667  C 17.0723741319444 18.6144748263889  16.1384548611111 19  15.0416666666667 19  C 13.9448784722222 19  13.0109592013889 18.6144748263889  12.2399088541667 17.8434244791667  C 11.4688585069444 17.0723741319444  11.0833333333333 16.1384548611111  11.0833333333333 15.0416666666667  C 11.0833333333333 14.9427083333333  11.0915798611111 14.8025173611111  11.1080729166667 14.62109375  L 6.65494791666667 12.39453125  C 5.89626736111111 13.1037326388889  4.99739583333333 13.4583333333333  3.95833333333333 13.4583333333333  C 2.86154513888889 13.4583333333333  1.92762586805556 13.0728081597222  1.15657552083333 12.3017578125  C 0.385525173611111 11.5307074652778  0 10.5967881944444  0 9.5  C 0 8.40321180555555  0.385525173611111 7.46929253472222  1.15657552083333 6.6982421875  C 1.92762586805556 5.92719184027778  2.86154513888889 5.54166666666667  3.95833333333333 5.54166666666667  C 4.99739583333333 5.54166666666667  5.89626736111111 5.89626736111111  6.65494791666667 6.60546875  L 11.1080729166667 4.37890625  C 11.0915798611111 4.19748263888889  11.0833333333333 4.05729166666667  11.0833333333333 3.95833333333333  C 11.0833333333333 2.86154513888889  11.4688585069444 1.92762586805555  12.2399088541667 1.15657552083333  C 13.0109592013889 0.38552517361111  13.9448784722222 0  15.0416666666667 0  C 16.1384548611111 0  17.0723741319444 0.38552517361111  17.8434244791667 1.15657552083333  C 18.6144748263889 1.92762586805555  19 2.86154513888889  19 3.95833333333333  C 19 5.05512152777778  18.6144748263889 5.98904079861111  17.8434244791667 6.76009114583333  C 17.0723741319444 7.53114149305556  16.1384548611111 7.91666666666667  15.0416666666667 7.91666666666667  C 14.0026041666667 7.91666666666667  13.1037326388889 7.56206597222222  12.3450520833333 6.85286458333333  L 7.89192708333333 9.07942708333333  C 7.90842013888889 9.26085069444444  7.91666666666667 9.40104166666667  7.91666666666667 9.5  C 7.91666666666667 9.59895833333333  7.90842013888889 9.73914930555556  7.89192708333333 9.92057291666667  L 12.3450520833333 12.1471354166667  Z " fill-rule="nonzero" fill="#f2f2f2" stroke="none" transform="matrix(1 0 0 1 289 4 )" />
  </g>
</svg>