<?xml version="1.0" encoding="utf-8"?>
<svg version="1.1" xmlns:xlink="http://www.w3.org/1999/xlink" width="19px" height="19px" xmlns="http://www.w3.org/2000/svg">
  <g transform="matrix(1 0 0 1 -261 -4 )">
    <path d="M 18.360576923077 6.81222432262131  C 18.786858974359 6.8840579710145  19 7.06763285024156  19 7.36294896030244  C 19 7.53854232304141  18.9010416666667 7.73009871875653  18.703125 7.93761814744798  L 14.5582932692307 12.1758034026465  L 15.540264423077 18.1619407687461  C 15.5478766025641 18.217811384163  15.5516826923077 18.2976265490443  15.5516826923077 18.40138626339  C 15.5516826923077 18.5689981096408  15.51171875 18.7106700273052  15.4317908653846 18.8264020163831  C 15.3518629807693 18.942134005461  15.2357772435898 19  15.0835336538462 19  C 14.9389022435898 19  14.7866586538462 18.9521109010712  14.6268028846154 18.8563327032136  L 9.5 16.0308758664146  L 4.37319711538464 18.8563327032136  C 4.20572916666671 18.9521109010712  4.05348557692305 19  3.91646634615378 19  C 3.75661057692305 19  3.63671875 18.942134005461  3.55679086538464 18.8264020163831  C 3.47686298076927 18.7106700273052  3.43689903846159 18.5689981096408  3.43689903846159 18.40138626339  C 3.43689903846159 18.3534971644613  3.44451121794878 18.2736819995799  3.45973557692305 18.1619407687461  L 4.44170673076927 12.1758034026465  L 0.28545673076927 7.93761814744798  C 0.0951522435897566 7.72211720226845  0 7.53056080655324  0 7.36294896030244  C 0 7.06763285024156  0.213141025640974 6.8840579710145  0.639423076923048 6.81222432262131  L 6.37139423076927 5.93824826717078  L 8.94050480769232 0.490863264020187  C 9.08513621794878 0.163621088006723  9.27163461538463 0  9.5 0  C 9.72836538461537 0  9.91486378205122 0.163621088006723  10.0594951923077 0.490863264020187  L 12.6286057692307 5.93824826717078  L 18.360576923077 6.81222432262131  Z " fill-rule="nonzero" fill="#f2f2f2" stroke="none" transform="matrix(1 0 0 1 261 4 )" />
  </g>
</svg>