<?xml version="1.0" encoding="utf-8"?>
<svg version="1.1" xmlns:xlink="http://www.w3.org/1999/xlink" width="22px" height="19px" xmlns="http://www.w3.org/2000/svg">
  <g transform="matrix(1 0 0 1 -231 -4 )">
    <path d="M 6.72433035714289 6.79720052083337  L 7.14285714285711 7.91666666666663  L 6.72433035714289 9.0361328125  L 5.71428571428567 9.5  L 4.70424107142856 9.0361328125  L 4.28571428571433 7.91666666666663  L 4.70424107142856 6.79720052083337  L 5.71428571428567 6.33333333333337  L 6.72433035714289 6.79720052083337  Z M 11.0100446428571 6.79720052083337  C 11.1495535714286 7.17035590277779  11.4285714285714 7.91666666666663  11.4285714285714 7.91666666666663  L 11.0100446428571 9.0361328125  L 10 9.5  L 8.98995535714289 9.0361328125  L 8.57142857142856 7.91666666666663  L 8.98995535714289 6.79720052083337  L 10 6.33333333333337  C 10 6.33333333333337  10.6733630952381 6.64257812500004  11.0100446428571 6.79720052083337  Z M 15.2957589285714 6.79720052083337  L 15.7142857142857 7.91666666666663  L 15.2957589285714 9.0361328125  L 14.2857142857143 9.5  L 13.2756696428571 9.0361328125  L 12.8571428571429 7.91666666666663  L 13.2756696428571 6.79720052083337  L 14.2857142857143 6.33333333333337  L 15.2957589285714 6.79720052083337  Z M 15.2957589285714 2.40000000000001  L 10 2.40000000000001  L 4.70424107142856 2.40000000000001  L 1.97544642857144 2.40000000000001  L 2.08705357142856 6.79720052083337  L 2.08705357142856 11.2  L 3.77232142857144 11.2  L 5.71428571428567 11.2  L 5.14508928571433 14.5345052083334  L 4.28571428571433 16.9033203125  C 4.28571428571433 16.9033203125  6.38392857142856 15.3323567708333  7.43303571428567 14.546875  C 7.59300595238096 14.3901909722222  7.91294642857144 14.0768229166666  7.91294642857144 14.0768229166666  L 8.54910714285711 14.1510416666666  L 11.4285714285714 14.0768229166666  L 14.2857142857143 11.2  L 19.2075892857143 11.2  L 19.2075892857143 7.91666666666663  L 19.2075892857143 2.40000000000001  L 15.2957589285714 2.40000000000001  Z M 21.2 0  L 21.2 7.91666666666663  L 21.2 13.3902994791666  L 14.2857142857143 13.3902994791666  L 11.4285714285714 15.734375  L 8.38169642857144 15.734375  L 3.24776785714289 18.7278645833334  L 1.97544642857144 19  L 1.91964285714289 19  L 1.61830357142856 18.8701171875  L 1.43973214285711 18.5299479166666  L 1.43973214285711 18.517578125  L 1.43415178571433 18.369140625  L 1.45647321428567 18.2454427083334  L 1.50669642857144 18.1279296875  L 1.57366071428567 18.0166015625  L 1.65178571428567 17.9114583333334  L 1.74107142857145 17.8001302083334  L 2.08705357142856 17.3733723958334  L 2.47209821428567 16.9033203125  L 2.81808035714289 16.4147135416666  L 3.18080357142856 15.7838541666666  L 3.48214285714278 15.0540364583334  L 3.77232142857144 13.3902994791666  L 0 13.3902994791666  L 0 7.91666666666663  L 0 4  L 0 0  L 5.7421875 0  L 11.0100446428571 0  L 15.0223214285714 0  L 19.2075892857143 0  L 21.2 0  Z " fill-rule="nonzero" fill="#f2f2f2" stroke="none" transform="matrix(1 0 0 1 231 4 )" />
  </g>
</svg>