<?xml version="1.0" encoding="utf-8"?>
<svg version="1.1" xmlns:xlink="http://www.w3.org/1999/xlink" width="120px" height="116px" xmlns="http://www.w3.org/2000/svg">
  <g transform="matrix(1 0 0 1 -535 -227 )">
    <path d="M 595 227  C 628.6 227  655 252.52  655 285  C 655 317.48  628.6 343  595 343  C 561.4 343  535 317.48  535 285  C 535 252.52  561.4 227  595 227  Z " fill-rule="nonzero" fill="#ffffff" stroke="none" />
    <path d="M 595 227.5  C 628.32 227.5  654.5 252.8  654.5 285  C 654.5 317.2  628.32 342.5  595 342.5  C 561.68 342.5  535.5 317.2  535.5 285  C 535.5 252.8  561.68 227.5  595 227.5  Z " stroke-width="1" stroke="#797979" fill="none" />
  </g>
</svg>