<?xml version="1.0" encoding="utf-8"?>
<svg version="1.1" xmlns:xlink="http://www.w3.org/1999/xlink" width="24px" height="24px" xmlns="http://www.w3.org/2000/svg">
  <g transform="matrix(1 0 0 1 -894 -406 )">
    <path d="M 5.9765625 1.609375  C 7.81510416666669 0.536458333333371  9.82291666666663 0  12 0  C 14.1770833333334 0  16.1848958333333 0.536458333333371  18.0234375 1.609375  C 19.8619791666667 2.68229166666669  21.3177083333333 4.13802083333331  22.3906250000001 5.9765625  C 23.4635416666666 7.81510416666669  24 9.82291666666663  24 12  C 24 14.1770833333334  23.4635416666666 16.1848958333333  22.3906250000001 18.0234375  C 21.3177083333333 19.8619791666667  19.8619791666667 21.3177083333333  18.0234375 22.390625  C 16.1848958333333 23.4635416666666  14.1770833333334 24  12 24  C 9.82291666666663 24  7.81510416666669 23.4635416666666  5.9765625 22.390625  C 4.13802083333331 21.3177083333333  2.68229166666669 19.8619791666667  1.60937499999994 18.0234375  C 0.536458333333371 16.1848958333333  0 14.1770833333334  0 12  C 0 9.82291666666663  0.536458333333371 7.81510416666669  1.60937499999994 5.9765625  C 2.68229166666669 4.13802083333331  4.13802083333331 2.68229166666669  5.9765625 1.609375  Z M 9.50000000000006 17.859375  L 18 12.859375  C 18.3333333333333 12.671875  18.5000000000001 12.3854166666667  18.5000000000001 12  C 18.5000000000001 11.6145833333333  18.3333333333333 11.328125  18 11.140625  L 9.50000000000006 6.140625  C 9.17708333333331 5.94270833333331  8.84375000000006 5.9375  8.49999999999994 6.125  C 8.16666666666669 6.32291666666669  8.00000000000006 6.61458333333331  8 7  L 8 17  C 8.00000000000006 17.3854166666667  8.16666666666669 17.6770833333333  8.49999999999994 17.875  C 8.66666666666674 17.9583333333333  8.83333333333337 18  9 18  C 9.17708333333331 18  9.34374999999994 17.953125  9.50000000000006 17.859375  Z " fill-rule="nonzero" fill="#ffffcc" stroke="none" transform="matrix(1 0 0 1 894 406 )" />
  </g>
</svg>