<?xml version="1.0" encoding="utf-8"?>
<svg version="1.1" xmlns:xlink="http://www.w3.org/1999/xlink" width="16px" height="16px" xmlns="http://www.w3.org/2000/svg">
  <g transform="matrix(1 0 0 1 -593 -158 )">
    <path d="M 11.625 14.0441083805923  L 10.9326923076924 9.79962192816637  L 13.875 6.80529300567107  L 9.81730769230762 6.18021424070572  L 8 2.3289224952741  L 6.18269230769238 6.18021424070572  L 2.125 6.80529300567107  L 5.06730769230762 9.79962192816637  L 4.36538461538464 14.0441083805923  L 8 12.0378071833649  L 11.625 14.0441083805923  Z M 15.4615384615385 5.73660995589163  C 15.8205128205128 5.79710144927535  16 5.95169082125607  16 6.20037807183366  C 16 6.34824616677168  15.9166666666667 6.509556815795  15.75 6.6843100189036  L 12.2596153846154 10.2533081285444  L 13.0865384615385 15.294265910523  C 13.0929487179487 15.3413148498215  13.0961538461538 15.4085276202479  13.0961538461538 15.4959042218022  C 13.0961538461538 15.831968073934  12.9647435897435 16  12.701923076923 16  C 12.5801282051282 16  12.451923076923 15.9596723377442  12.3173076923076 15.8790170132325  L 8 13.4996849401386  L 3.68269230769238 15.8790170132325  C 3.54166666666674 15.9596723377442  3.41346153846155 16  3.29807692307702 16  C 3.16346153846155 16  3.0625 15.9512707414409  2.99519230769238 15.8538122243226  C 2.92788461538464 15.7563537072044  2.89423076923083 15.6370510396975  2.89423076923083 15.4959042218022  C 2.89423076923083 15.4555765595463  2.90064102564099 15.3883637891199  2.91346153846155 15.294265910523  L 3.74038461538464 10.2533081285444  L 0.240384615384642 6.6843100189036  C 0.080128205128176 6.50283553875237  0 6.34152488972904  0 6.20037807183366  C 0 5.95169082125607  0.179487179487182 5.79710144927535  0.538461538461547 5.73660995589163  L 5.36538461538464 5.00063011972275  L 7.52884615384619 0.413358538122231  C 7.65064102564111 0.137786179374095  7.80769230769238 0  8 0  C 8.19230769230762 0  8.34935897435901 0.137786179374095  8.47115384615381 0.413358538122231  L 10.6346153846154 5.00063011972275  L 15.4615384615385 5.73660995589163  Z " fill-rule="nonzero" fill="#000000" stroke="none" transform="matrix(1 0 0 1 593 158 )" />
  </g>
</svg>