<?xml version="1.0" encoding="utf-8"?>
<svg version="1.1" xmlns:xlink="http://www.w3.org/1999/xlink" width="17px" height="18px" xmlns="http://www.w3.org/2000/svg">
  <g transform="matrix(1 0 0 1 -570 -429 )">
    <path d="M 16.4278846153846 6.45368620037812  C 16.8092948717949 6.52173913043475  17 6.69565217391306  17 6.97542533081287  C 17 7.14177693761815  16.9114583333334 7.32325141776937  16.734375 7.51984877126654  L 13.0258413461538 11.5349716446125  L 13.9044471153846 17.2060491493384  C 13.9112580128206 17.2589792060492  13.9146634615385 17.3345935727788  13.9146634615385 17.4328922495274  C 13.9146634615385 17.5916824196597  13.87890625 17.7258979206049  13.8073918269231 17.8355387523629  C 13.7358774038462 17.945179584121  13.6320112179487 18  13.4957932692308 18  C 13.3663862179487 18  13.2301682692308 17.9546313799622  13.0871394230769 17.8638941398866  L 8.5 15.187145557656  L 3.91286057692309 17.8638941398866  C 3.76302083333337 17.9546313799622  3.62680288461536 18  3.50420673076917 18  C 3.36117788461536 18  3.25390625 17.945179584121  3.18239182692309 17.8355387523629  C 3.11087740384619 17.7258979206049  3.07512019230774 17.5916824196597  3.07512019230774 17.4328922495274  C 3.07512019230774 17.3875236294896  3.08193108974365 17.31190926276  3.09555288461536 17.2060491493384  L 3.97415865384619 11.5349716446125  L 0.255408653846189 7.51984877126654  C 0.0851362179487296 7.3156899810964  0 7.13421550094517  0 6.97542533081287  C 0 6.69565217391306  0.190705128205082 6.52173913043475  0.572115384615358 6.45368620037812  L 5.70072115384619 5.62570888468809  L 7.99939903846155 0.465028355387517  C 8.12880608974365 0.155009451795877  8.29567307692309 0  8.5 0  C 8.70432692307691 0  8.87119391025635 0.155009451795877  9.00060096153845 0.465028355387517  L 11.2992788461538 5.62570888468809  L 16.4278846153846 6.45368620037812  Z " fill-rule="nonzero" fill="#000000" stroke="none" transform="matrix(1 0 0 1 570 429 )" />
  </g>
</svg>