<?xml version="1.0" encoding="utf-8"?>
<svg version="1.1" xmlns:xlink="http://www.w3.org/1999/xlink" width="19px" height="16px" xmlns="http://www.w3.org/2000/svg">
  <g transform="matrix(1 0 0 1 -323 -58 )">
    <path d="M 18.7649739583333 13.0375  C 18.9216579861111 13.1958333333333  19 13.3833333333333  19 13.6  L 19 15.2  C 19 15.4166666666667  18.9216579861111 15.6041666666667  18.7649739583333 15.7625  C 18.6082899305555 15.9208333333333  18.4227430555555 16  18.2083333333333 16  L 0.791666666666667 16  C 0.57725694444446 16  0.391710069444459 15.9208333333333  0.235026041666667 15.7625  C 0.0783420138888739 15.6041666666667  0 15.4166666666667  0 15.2  L 0 13.6  C 0 13.3833333333333  0.0783420138888739 13.1958333333333  0.235026041666667 13.0375  C 0.391710069444459 12.8791666666667  0.57725694444446 12.8  0.791666666666667 12.8  L 18.2083333333333 12.8  C 18.4227430555555 12.8  18.6082899305555 12.8791666666667  18.7649739583333 13.0375  Z M 18.7649739583333 6.6375  C 18.9216579861111 6.79583333333333  19 6.98333333333333  19 7.2  L 19 8.8  C 19 9.01666666666667  18.9216579861111 9.20416666666667  18.7649739583333 9.3625  C 18.6082899305555 9.52083333333332  18.4227430555555 9.60000000000002  18.2083333333333 9.60000000000002  L 0.791666666666667 9.60000000000002  C 0.57725694444446 9.60000000000002  0.391710069444459 9.52083333333332  0.235026041666667 9.3625  C 0.0783420138888739 9.20416666666667  0 9.01666666666667  0 8.8  L 0 7.2  C 0 6.98333333333333  0.0783420138888739 6.79583333333333  0.235026041666667 6.6375  C 0.391710069444459 6.47916666666667  0.57725694444446 6.4  0.791666666666667 6.4  L 18.2083333333333 6.4  C 18.4227430555555 6.4  18.6082899305555 6.47916666666667  18.7649739583333 6.6375  Z M 18.7649739583333 0.237499999999998  C 18.9216579861111 0.395833333333333  19 0.583333333333333  19 0.799999999999998  L 19 2.4  C 19 2.61666666666666  18.9216579861111 2.80416666666666  18.7649739583333 2.9625  C 18.6082899305555 3.12083333333333  18.4227430555555 3.2  18.2083333333333 3.2  L 0.791666666666667 3.2  C 0.57725694444446 3.2  0.391710069444459 3.12083333333333  0.235026041666667 2.9625  C 0.0783420138888739 2.80416666666666  0 2.61666666666666  0 2.4  L 0 0.799999999999998  C 0 0.583333333333333  0.0783420138888739 0.395833333333333  0.235026041666667 0.237499999999998  C 0.391710069444459 0.0791666666666677  0.57725694444446 0  0.791666666666667 0  L 18.2083333333333 0  C 18.4227430555555 0  18.6082899305555 0.0791666666666677  18.7649739583333 0.237499999999998  Z " fill-rule="nonzero" fill="#ffcc33" stroke="none" transform="matrix(1 0 0 1 323 58 )" />
  </g>
</svg>