<?xml version="1.0" encoding="utf-8"?>
<svg version="1.1" xmlns:xlink="http://www.w3.org/1999/xlink" width="22px" height="24px" xmlns="http://www.w3.org/2000/svg">
  <g transform="matrix(1 0 0 1 -26 -103 )">
    <path d="M 13.5924479166667 14.828125  C 14.30859375 14.046875  14.6666666666667 13.1041666666667  14.6666666666667 12  C 14.6666666666667 10.8958333333334  14.30859375 9.95312500000001  13.5924479166667 9.17187499999999  C 12.8763020833333 8.390625  12.0121527777778 7.99999999999999  11 7.99999999999999  C 9.98784722222223 7.99999999999999  9.12369791666667 8.390625  8.40755208333333 9.17187499999999  C 7.69140625 9.95312500000001  7.33333333333333 10.8958333333334  7.33333333333333 12  C 7.33333333333333 13.1041666666667  7.69140625 14.046875  8.40755208333333 14.828125  C 9.12369791666667 15.609375  9.98784722222223 16  11 16  C 12.0121527777778 16  12.8763020833333 15.609375  13.5924479166667 14.828125  Z M 21.8854166666667 9.92968750000001  C 21.9618055555555 10.0390625  22 10.1614583333333  22 10.296875  L 22 13.765625  C 22 13.890625  21.9618055555555 14.0104166666667  21.8854166666667 14.125  C 21.8090277777778 14.2395833333333  21.7135416666667 14.3072916666667  21.5989583333333 14.328125  L 18.94921875 14.765625  C 18.7677951388889 15.328125  18.5815972222222 15.8020833333333  18.390625 16.1875  C 18.7248263888889 16.7083333333333  19.2356770833333 17.4270833333333  19.9231770833333 18.34375  C 20.0186631944445 18.46875  20.06640625 18.5989583333333  20.06640625 18.734375  C 20.06640625 18.8697916666667  20.0234375 18.9895833333333  19.9375 19.09375  C 19.6796875 19.4791666666667  19.20703125 20.0416666666667  18.51953125 20.78125  C 17.83203125 21.5208333333333  17.3832465277778 21.890625  17.1731770833333 21.890625  C 17.05859375 21.890625  16.9344618055556 21.84375  16.80078125 21.75  L 14.82421875 20.0625  C 14.4040798611111 20.3020833333333  13.9696180555556 20.5  13.5208333333333 20.65625  C 13.3680555555556 22.0729166666667  13.2296006944444 23.0416666666667  13.10546875 23.5625  C 13.0386284722222 23.8541666666667  12.8667534722222 24  12.58984375 24  L 9.41015625 24  C 9.27647569444444 24  9.15950520833333 23.9557291666667  9.05924479166667 23.8671875  C 8.958984375 23.7786458333333  8.90407986111111 23.6666666666667  8.89453125 23.53125  L 8.49348958333333 20.65625  C 8.02560763888889 20.4895833333333  7.59592013888889 20.296875  7.20442708333333 20.078125  L 5.18489583333333 21.75  C 5.08940972222222 21.84375  4.97005208333333 21.890625  4.82682291666667 21.890625  C 4.69314236111111 21.890625  4.57378472222222 21.8333333333333  4.46875 21.71875  C 3.265625 20.53125  2.47786458333333 19.65625  2.10546875 19.09375  C 2.03862847222222 18.9895833333333  2.00520833333333 18.8697916666667  2.00520833333333 18.734375  C 2.00520833333333 18.609375  2.04340277777778 18.4895833333333  2.11979166666667 18.375  C 2.26302083333333 18.15625  2.50651041666667 17.8098958333333  2.85026041666667 17.3359375  C 3.19401041666667 16.8619791666667  3.45182291666667 16.4947916666667  3.62369791666667 16.234375  C 3.36588541666667 15.7135416666667  3.17013888888889 15.1979166666667  3.03645833333333 14.6875  L 0.415364583333335 14.265625  C 0.29123263888889 14.2447916666667  0.19097222222222 14.1796875  0.114583333333335 14.0703125  C 0.038194444444445 13.9609375  0 13.8385416666667  0 13.703125  L 0 10.234375  C 0 10.109375  0.038194444444445 9.98958333333333  0.114583333333335 9.87499999999999  C 0.19097222222222 9.76041666666668  0.28168402777778 9.69270833333332  0.38671875 9.67187500000001  L 3.05078125 9.234375  C 3.18446180555556 8.75520833333332  3.37065972222222 8.27604166666666  3.609375 7.79687500000001  C 3.22743055555556 7.20312499999999  2.71657986111111 6.48437500000001  2.07682291666667 5.64062500000001  C 1.98133680555556 5.51562499999999  1.93359375 5.390625  1.93359375 5.26562500000001  C 1.93359375 5.16145833333333  1.9765625 5.04166666666666  2.0625 4.90624999999999  C 2.31076388888889 4.53124999999999  2.78103298611111 3.97135416666668  3.47330729166667 3.22656250000001  C 4.16558159722222 2.48177083333334  4.61675347222222 2.109375  4.82682291666667 2.109375  C 4.95095486111111 2.109375  5.07508680555556 2.16145833333333  5.19921875 2.26562500000001  L 7.17578125 3.9375  C 7.59592013888889 3.69791666666665  8.03038194444444 3.49999999999999  8.47916666666667 3.34375000000001  C 8.63194444444444 1.92708333333333  8.77039930555556 0.958333333333335  8.89453125 0.437500000000006  C 8.96137152777778 0.145833333333329  9.13324652777778 0  9.41015625 0  L 12.58984375 0  C 12.7235243055556 0  12.8404947916667 0.0442708333333353  12.9407552083333 0.132812500000006  C 13.041015625 0.221354166666677  13.0959201388889 0.333333333333329  13.10546875 0.46875  L 13.5065104166667 3.34375000000001  C 13.9743923611111 3.51041666666665  14.4040798611111 3.703125  14.7955729166667 3.92187499999999  L 16.8294270833333 2.25  C 16.9153645833333 2.15625  17.0299479166667 2.109375  17.1731770833333 2.109375  C 17.2973090277778 2.109375  17.4166666666667 2.16145833333333  17.53125 2.26562500000001  C 18.7630208333333 3.50520833333332  19.55078125 4.39062499999999  19.89453125 4.921875  C 19.9613715277778 5.00520833333332  19.9947916666667 5.11979166666668  19.9947916666667 5.26562500000001  C 19.9947916666667 5.390625  19.9565972222222 5.51041666666666  19.8802083333333 5.625  C 19.7369791666667 5.84374999999999  19.4934895833333 6.19010416666666  19.1497395833333 6.66406249999999  C 18.8059895833333 7.13802083333332  18.5481770833333 7.50520833333333  18.3763020833333 7.76562499999999  C 18.6245659722222 8.28645833333332  18.8203125 8.79687499999999  18.9635416666667 9.29687500000001  L 21.5846354166667 9.73437499999999  C 21.7087673611111 9.75520833333333  21.8090277777778 9.8203125  21.8854166666667 9.92968750000001  Z " fill-rule="nonzero" fill="#000000" stroke="none" transform="matrix(1 0 0 1 26 103 )" />
  </g>
</svg>