<?xml version="1.0" encoding="utf-8"?>
<svg version="1.1" xmlns:xlink="http://www.w3.org/1999/xlink" width="21px" height="25px" xmlns="http://www.w3.org/2000/svg">
  <g transform="matrix(1 0 0 1 -26 -144 )">
    <path d="M 12.6832932692307 12.1907552083333  C 12.8431490384615 11.9845920138889  12.9230769230769 11.7404513888889  12.9230769230769 11.4583333333333  C 12.9230769230769 11.1762152777778  12.8431490384615 10.9320746527778  12.6832932692307 10.7259114583333  C 12.5234375 10.5197482638889  12.3341346153846 10.4166666666667  12.1153846153846 10.4166666666667  L 8.8846153846154 10.4166666666667  C 8.66586538461539 10.4166666666667  8.47656249999999 10.5197482638889  8.31670673076925 10.7259114583333  C 8.15685096153847 10.9320746527778  8.0769230769231 11.1762152777778  8.0769230769231 11.4583333333333  C 8.0769230769231 11.7404513888889  8.15685096153847 11.9845920138889  8.31670673076925 12.1907552083333  C 8.47656249999999 12.3969184027778  8.66586538461539 12.5  8.8846153846154 12.5  L 12.1153846153846 12.5  C 12.3341346153846 12.5  12.5234375 12.3969184027778  12.6832932692307 12.1907552083333  Z M 19.9525240384615 7.60091145833332  C 20.1123798076923 7.80707465277779  20.1923076923077 8.05121527777779  20 8.33333333333332  L 20 23.9583333333334  C 20.1923076923077 24.2404513888889  20.1123798076923 24.4845920138889  19.9525240384615 24.6907552083334  C 19.7926682692308 24.8969184027778  19.6033653846154 25  19.3846153846154 25  L 1.6153846153846 25  C 1.39663461538463 25  1.20733173076923 24.8969184027778  1.04747596153845 24.6907552083334  C 0.887620192307715 24.4845920138889  0.807692307692299 24.2404513888889  1 23.9583333333334  L 1 8.33333333333332  C 0.807692307692299 8.05121527777779  0.887620192307715 7.80707465277779  1.04747596153845 7.60091145833332  C 1.20733173076923 7.39474826388888  1.39663461538463 7.29166666666668  1.6153846153846 7.29166666666668  L 19.3846153846154 7.29166666666668  C 19.6033653846154 7.29166666666668  19.7926682692308 7.39474826388888  19.9525240384615 7.60091145833332  Z M 20.7602163461539 0.309244791666679  C 20.9200721153846 0.515407986111107  21 0.759548611111107  21 1.04166666666668  L 21 5.20833333333332  C 21 5.49045138888888  20.9200721153846 5.73459201388888  20.7602163461539 5.94075520833332  C 20.6003605769231 6.14691840277779  20.4110576923077 6.25  20.1923076923077 6.25  L 0.807692307692299 6.25  C 0.588942307692285 6.25  0.399639423076934 6.14691840277779  0.239783653846153 5.94075520833332  C 0.0799278846153655 5.73459201388888  0 5.49045138888888  0 5.20833333333332  L 0 1.04166666666668  C 0 0.759548611111107  0.0799278846153655 0.515407986111107  0.239783653846153 0.309244791666679  C 0.399639423076934 0.103081597222232  0.588942307692285 0  0.807692307692299 0  L 20.1923076923077 0  C 20.4110576923077 0  20.6003605769231 0.103081597222232  20.7602163461539 0.309244791666679  Z " fill-rule="nonzero" fill="#000000" stroke="none" transform="matrix(1 0 0 1 26 144 )" />
  </g>
</svg>