<?xml version="1.0" encoding="utf-8"?>
<svg version="1.1" xmlns:xlink="http://www.w3.org/1999/xlink" width="22px" height="15px" xmlns="http://www.w3.org/2000/svg">
  <g transform="matrix(1 0 0 1 -203 -148 )">
    <path d="M 21.591796875 0.494791666666643  C 21.8639322916666 0.824652777777786  22 1.21527777777775  22 1.66666666666664  C 22 2.11805555555554  21.8639322916666 2.50868055555557  21.591796875 2.83854166666664  L 11.966796875 14.5052083333334  C 11.6946614583334 14.8350694444444  11.3723958333334 15  11 15  C 10.6276041666666 15  10.3053385416666 14.8350694444444  10.033203125 14.5052083333334  L 0.408203125 2.83854166666664  C 0.136067708333371 2.50868055555557  0 2.11805555555554  0 1.66666666666664  C 0 1.21527777777775  0.136067708333371 0.824652777777786  0.408203125 0.494791666666643  C 0.680338541666629 0.164930555555571  1.00260416666663 0  1.375 0  L 20.625 0  C 20.9973958333334 0  21.3196614583334 0.164930555555571  21.591796875 0.494791666666643  Z " fill-rule="nonzero" fill="#f2f2f2" stroke="none" transform="matrix(1 0 0 1 203 148 )" />
  </g>
</svg>