<?xml version="1.0" encoding="utf-8"?>
<svg version="1.1" xmlns:xlink="http://www.w3.org/1999/xlink" width="15px" height="20px" xmlns="http://www.w3.org/2000/svg">
  <g transform="matrix(1 0 0 1 -49 -14 )">
    <path d="M 14.8098732488326 5.21205357142856  C 14.9366244162775 5.35342261904763  15 5.52083333333333  15 5.71428571428572  L 15 15.078125  C 15 15.4352678571428  14.8365577051367 15.6659226190476  14.5096731154103 15.7700892857143  C 13.3488992661774 16.156994047619  12.2214809873249 16.3504464285714  11.1274182788525 16.3504464285714  C 10.6404269513008 16.3504464285714  9.9216144096064 16.2406994047619  8.97098065376917 16.0212053571428  C 8.02034689793194 15.8017113095238  7.26150767178117 15.6919642857143  6.69446297531686 15.6919642857143  C 5.60040026684453 15.6919642857143  4.36624416277519 15.8705357142857  2.99199466310875 16.2276785714286  L 2.99199466310875 20  L 1.39092728485656 20  L 1.39092728485656 4.73214285714285  C 0.970647098065396 4.54613095238096  0.633755837224837 4.24479166666665  0.380253502334884 3.828125  C 0.126751167444976 3.41145833333335  0 2.95014880952382  0 2.44419642857144  C 0 1.7671130952381  0.213475650433625 1.19047619047618  0.640426951300876 0.714285714285718  C 1.06737825216817 0.238095238095231  1.58438959306202 0  2.19146097398266 0  C 2.79853235490325 0  3.31554369579714 0.238095238095231  3.74249499666444 0.714285714285718  C 4.16944629753169 1.19047619047618  4.38292194796531 1.7671130952381  4.38292194796531 2.44419642857144  C 4.38292194796531 2.95014880952382  4.25617078052034 3.41145833333335  4.00266844563043 3.828125  C 3.74916611074048 4.24479166666665  3.41227484989992 4.54613095238096  2.99199466310875 4.73214285714285  L 2.99199466310875 5.49107142857144  C 4.25950633755838 5.16369047619047  5.40360240160103 5  6.42428285523679 5  C 7.08472314876583 5  7.74516344229491 5.05580357142856  8.40560373582391 5.16741071428572  C 8.4989993328886 5.18229166666666  8.8709139426284 5.26599702380953  9.52134756504336 5.41852678571428  C 10.1717811874584 5.57105654761904  10.6704469646431 5.64732142857144  11.0173448965977 5.64732142857144  C 11.5310206804536 5.64732142857144  12.0813875917278 5.58035714285715  12.6684456304202 5.44642857142856  C 12.7418278852569 5.43154761904763  13.0086724482988 5.35342261904763  13.4689793195464 5.21205357142856  C 13.9292861907938 5.07068452380953  14.2261507671781 5  14.3595730486991 5  C 14.5330220146764 5  14.6831220813876 5.07068452380953  14.8098732488326 5.21205357142856  Z " fill-rule="nonzero" fill="#ffffff" stroke="none" transform="matrix(1 0 0 1 49 14 )" />
  </g>
</svg>