<?xml version="1.0" encoding="utf-8"?>
<svg version="1.1" xmlns:xlink="http://www.w3.org/1999/xlink" width="18px" height="18px" xmlns="http://www.w3.org/2000/svg">
  <g transform="matrix(1 0 0 1 -47 -79 )">
    <path d="M 0 3.85714285714286  L 9 0  L 18 3.85714285714286  L 18 5.14285714285714  L 16.7999999999999 5.14285714285714  C 16.7999999999999 5.31696428571426  16.7359375 5.46763392857142  16.6078125 5.59486607142859  C 16.4796875000001 5.72209821428572  16.328125 5.78571428571427  16.153125 6  L 1.84687499999999 6  C 1.67187500000005 5.78571428571427  1.52031249999999 5.72209821428572  1.39218750000003 5.59486607142859  C 1.26406249999998 5.46763392857142  1.20000000000002 5.31696428571426  1.20000000000002 5.14285714285714  L 0 5.14285714285714  L 0 3.85714285714286  Z M 2.40000000000004 14.1428571428571  L 2.40000000000004 6.42857142857141  L 4.79999999999999 6.42857142857141  L 4.79999999999999 14.1428571428571  L 6.00000000000001 14.1428571428571  L 6.00000000000001 6.42857142857141  L 8.40000000000001 6.42857142857141  L 8.40000000000001 14.1428571428571  L 9.59999999999999 14.1428571428571  L 9.59999999999999 6.42857142857141  L 12 6.42857142857141  L 12 14.1428571428571  L 13.2 14.1428571428571  L 13.2 6.42857142857141  L 15.6 6.42857142857141  L 15.6 14.1428571428571  L 16.153125 14.1428571428571  C 16.328125 14.1428571428571  16.4796875000001 14.2064732142857  16.6078125 14.3337053571429  C 16.7359375 14.4609375  16.7999999999999 14.6116071428572  16.7999999999999 14.7857142857143  L 16.7999999999999 15.4285714285714  L 1.20000000000002 15.4285714285714  L 1.20000000000002 14.7857142857143  C 1.20000000000002 14.6116071428572  1.26406249999998 14.4609375  1.39218750000003 14.3337053571429  C 1.52031249999999 14.2064732142857  1.67187500000005 14.1428571428571  1.84687499999999 14.1428571428571  L 2.40000000000004 14.1428571428571  Z M 0.646874999999973 16  L 17.353125 16  C 17.528125 16.0714285714286  17.6796875 16.1350446428571  17.8078125 16.2622767857143  C 17.9359375 16.3895089285714  18 16.5401785714286  18 16.7142857142857  L 18 18  L 0 18  L 0 16.7142857142857  C 0 16.5401785714286  0.0640624999999575 16.3895089285714  0.192187500000006 16.2622767857143  C 0.320312499999965 16.1350446428571  0.471874999999984 16.0714285714286  0.646874999999973 16  Z " fill-rule="nonzero" fill="#ffffff" stroke="none" transform="matrix(1 0 0 1 47 79 )" />
  </g>
</svg>