<?xml version="1.0" encoding="utf-8"?>
<svg version="1.1" xmlns:xlink="http://www.w3.org/1999/xlink" width="21px" height="15px" xmlns="http://www.w3.org/2000/svg">
  <g transform="matrix(1 0 0 1 -47 -113 )">
    <path d="M 8.40000000000001 9.375  L 8.40000000000001 10.5  L 12.6 10.5  L 12.6 9.375  L 11.2 9.375  L 11.2 4.12500000000002  L 9.953125 4.12500000000002  L 8.33437499999999 5.73046874999999  L 9.17656250000003 6.66796874999999  C 9.48281249999999 6.37890625000002  9.68333333333337 6.15625000000001  9.77812500000003 6.00000000000002  L 9.80000000000002 6.00000000000002  L 9.80000000000002 9.375  L 8.40000000000001 9.375  Z M 13.7703125 5.83593749999998  C 13.9234375 6.39843750000001  14 6.95312500000002  14 7.5  C 14 8.04687499999999  13.9234375 8.60156249999999  13.7703125 9.16406250000002  C 13.6171875 9.7265625  13.4002604166667 10.25  13.11953125 10.734375  C 12.8388020833333 11.21875  12.46875 11.61328125  12.009375 11.91796875  C 11.55 12.22265625  11.046875 12.375  10.5 12.375  C 9.953125 12.375  9.45000000000003 12.22265625  8.99062499999999 11.91796875  C 8.53125 11.61328125  8.1611979166667 11.21875  7.88046875000005 10.734375  C 7.59973958333332 10.25  7.3828125 9.7265625  7.22968749999997 9.16406250000002  C 7.07656250000004 8.60156249999999  7 8.04687499999999  7 7.5  C 7 6.95312500000002  7.07656250000004 6.39843750000001  7.22968749999997 5.83593749999998  C 7.3828125 5.2734375  7.59973958333332 4.75000000000001  7.88046875000005 4.26562499999999  C 8.1611979166667 3.78125000000002  8.53125 3.38671874999999  8.99062499999999 3.08203124999998  C 9.45000000000003 2.77734375000002  9.953125 2.62499999999999  10.5 2.62499999999999  C 11.046875 2.62499999999999  11.55 2.77734375000002  12.009375 3.08203124999998  C 12.46875 3.38671874999999  12.8388020833333 3.78125000000002  13.11953125 4.26562499999999  C 13.4002604166667 4.75000000000001  13.6171875 5.2734375  13.7703125 5.83593749999998  Z M 17.6203125 11.37890625  C 18.1671875 10.79296875  18.8270833333333 10.5  19.6 10.5  L 19.6 4.49999999999999  C 18.8270833333333 4.49999999999999  18.1671875 4.20703124999999  17.6203125 3.62109374999999  C 17.0734375 3.03515624999999  16.8 2.328125  16.8 1.49999999999998  L 4.20000000000003 1.49999999999998  C 4.20000000000003 2.328125  3.92656250000003 3.03515624999999  3.37968750000003 3.62109374999999  C 2.83281249999998 4.20703124999999  2.1729166666667 4.49999999999999  1.40000000000005 4.49999999999999  L 1.40000000000005 10.5  C 2.1729166666667 10.5  2.83281249999998 10.79296875  3.37968750000003 11.37890625  C 3.92656250000003 11.96484375  4.20000000000003 12.671875  4.20000000000003 13.5  L 16.8 13.5  C 16.8 12.671875  17.0734375 11.96484375  17.6203125 11.37890625  Z M 20.7921875 0.222656249999991  C 20.9307291666667 0.371093750000007  21 0.546875000000008  21 0.749999999999991  L 21 14.25  C 21 14.453125  20.9307291666667 14.62890625  20.7921875 14.77734375  C 20.6536458333333 14.92578125  20.4895833333333 15  20.3 15  L 0.699999999999982 15  C 0.510416666666667 15  0.346354166666667 14.92578125  0.207812499999982 14.77734375  C 0.0692708333333422 14.62890625  0 14.453125  0 14.25  L 0 0.749999999999991  C 0 0.546875000000008  0.0692708333333422 0.371093750000007  0.207812499999982 0.222656249999991  C 0.346354166666667 0.074218749999997  0.510416666666667 0  0.699999999999982 0  L 20.3 0  C 20.4895833333333 0  20.6536458333333 0.074218749999997  20.7921875 0.222656249999991  Z " fill-rule="nonzero" fill="#ffffff" stroke="none" transform="matrix(1 0 0 1 47 113 )" />
  </g>
</svg>