<?xml version="1.0" encoding="utf-8"?>
<svg version="1.1" xmlns:xlink="http://www.w3.org/1999/xlink" width="18px" height="19px" xmlns="http://www.w3.org/2000/svg">
  <g transform="matrix(1 0 0 1 -45 -210 )">
    <path d="M 11.1545758928572 7.06668526785712  C 11.4190848214286 7.34588913690476  11.5513392857143 7.68340773809524  11.5513392857143 8.07924107142858  C 11.5513392857143 8.47507440476189  11.4190848214286 8.81082589285712  11.1545758928572 9.08649553571429  C 10.8900669642857 9.36216517857142  10.5703125 9.5  10.1953125 9.5  L 7.65401785714285 9.5  L 7.65401785714285 6.64787946428571  L 10.1953125 6.64787946428571  C 10.5703125 6.64787946428571  10.8900669642857 6.78748139880953  11.1545758928572 7.06668526785712  Z M 12.4252232142857 10.427734375  C 13.0412946428571 9.78097098214288  13.3493303571429 8.99813988095236  13.3493303571429 8.07924107142858  C 13.3493303571429 7.16034226190476  13.04296875 6.37574404761906  12.4302455357143 5.72544642857142  C 11.8175223214286 5.07514880952382  11.0725446428571 4.75  10.1953125 4.75  L 5.84598214285715 4.75  L 5.84598214285715 14.25  L 7.65401785714285 14.25  L 7.65401785714285 11.3978794642857  L 10.1953125 11.3978794642857  C 11.0658482142857 11.3978794642857  11.8091517857143 11.0744977678571  12.4252232142857 10.427734375  Z M 17.2868303571429 5.81026785714288  C 17.7622767857143 6.98363095238094  18 8.21354166666665  18 9.5  C 18 10.7864583333333  17.7622767857143 12.0163690476191  17.2868303571429 13.1897321428571  C 16.8113839285714 14.3630952380952  16.171875 15.3738839285714  15.3683035714286 16.2220982142857  C 14.5647321428571 17.0703125  13.6071428571429 17.7453497023809  12.4955357142857 18.2472098214286  C 11.3839285714286 18.7490699404762  10.21875 19  9 19  C 7.78125000000001 19  6.61607142857142 18.7490699404762  5.50446428571428 18.2472098214286  C 4.39285714285715 17.7453497023809  3.43526785714285 17.0703125  2.63169642857143 16.2220982142857  C 1.828125 15.3738839285714  1.18861607142858 14.3630952380952  0.713169642857152 13.1897321428571  C 0.237723214285725 12.0163690476191  0 10.7864583333333  0 9.5  C 0 8.21354166666665  0.237723214285725 6.98363095238094  0.713169642857152 5.81026785714288  C 1.18861607142858 4.63690476190476  1.828125 3.62611607142858  2.63169642857143 2.77790178571429  C 3.43526785714285 1.9296875  4.39285714285715 1.25465029761906  5.50446428571428 0.752790178571415  C 6.61607142857142 0.250930059523821  7.78125000000001 0  9 0  C 10.21875 0  11.3839285714286 0.250930059523821  12.4955357142857 0.752790178571415  C 13.6071428571429 1.25465029761906  14.5647321428571 1.9296875  15.3683035714286 2.77790178571429  C 16.171875 3.62611607142858  16.8113839285714 4.63690476190476  17.2868303571429 5.81026785714288  Z " fill-rule="nonzero" fill="#ffffff" stroke="none" transform="matrix(1 0 0 1 45 210 )" />
  </g>
</svg>