<?xml version="1.0" encoding="utf-8"?>
<svg version="1.1" xmlns:xlink="http://www.w3.org/1999/xlink" width="19px" height="20px" xmlns="http://www.w3.org/2000/svg">
  <g transform="matrix(1 0 0 1 -44 -338 )">
    <path d="M 10.6662946428571 11.7522321428572  L 10.0513392857143 11.4732142857143  L 11.7795758928571 15.1450892857143  L 11.2388392857143 15.1450892857143  L 9.38337053571428 11.2388392857143  L 7.5703125 15.1450892857143  L 7.05078125 15.1450892857143  L 8.94866071428572 10.9709821428572  L 8.12165178571428 10.6026785714286  L 8.34430803571428 10.0558035714286  L 10.8889508928571 11.1941964285714  L 10.6662946428571 11.7522321428572  Z M 4.59095982142857 8.25892857142858  L 5.96930803571429 4.86607142857142  L 9.19252232142857 6.31696428571427  L 7.81417410714285 9.70982142857142  L 4.59095982142857 8.25892857142858  Z M 8.53515625 9.609375  L 9.61662946428572 6.93080357142858  L 12.1612723214286 8.08035714285716  L 11.0691964285714 10.7477678571428  L 8.53515625 9.609375  Z M 11.7371651785714 10.7254464285714  L 12.5959821428571 8.60491071428573  L 14.62109375 9.50892857142858  L 13.7516741071429 11.6294642857143  L 11.7371651785714 10.7254464285714  Z M 17.1551339285714 13.3928571428572  C 17.5933779761905 12.3139880952381  17.8125 11.1830357142857  17.8125 10  C 17.8125 8.81696428571427  17.5933779761905 7.68601190476188  17.1551339285714 6.60714285714284  C 16.7168898809524 5.52827380952381  16.1249069940476 4.59635416666665  15.3791852678571 3.81138392857142  C 14.6334635416667 3.02641369047619  13.7481398809524 2.40327380952381  12.7232142857143 1.94196428571427  C 11.6982886904762 1.48065476190477  10.6238839285714 1.25  9.5 1.25  C 8.37611607142857 1.25  7.30171130952381 1.48065476190477  6.27678571428571 1.94196428571427  C 5.25186011904762 2.40327380952381  4.36653645833333 3.02641369047619  3.62081473214286 3.81138392857142  C 2.87509300595238 4.59635416666665  2.28311011904762 5.52827380952381  1.84486607142857 6.60714285714284  C 1.40662202380952 7.68601190476188  1.1875 8.81696428571427  1.1875 10  C 1.1875 11.1830357142857  1.40662202380952 12.3139880952381  1.84486607142857 13.3928571428572  C 2.28311011904762 14.4717261904762  2.87509300595238 15.4036458333333  3.62081473214286 16.1886160714286  C 4.36653645833333 16.9735863095238  5.25186011904762 17.5967261904762  6.27678571428571 18.0580357142857  C 7.30171130952381 18.5193452380952  8.37611607142857 18.75  9.5 18.75  C 10.6238839285714 18.75  11.6982886904762 18.5193452380952  12.7232142857143 18.0580357142857  C 13.7481398809524 17.5967261904762  14.6334635416667 16.9735863095238  15.3791852678571 16.1886160714286  C 16.1249069940476 15.4036458333333  16.7168898809524 14.4717261904762  17.1551339285714 13.3928571428572  Z M 18.2472098214286 6.11607142857142  C 18.7490699404762 7.35119047619046  19 8.64583333333335  19 10  C 19 11.3541666666667  18.7490699404762 12.6488095238095  18.2472098214286 13.8839285714286  C 17.745349702381 15.1190476190476  17.0703125 16.1830357142857  16.2220982142857 17.0758928571428  C 15.3738839285714 17.96875  14.3630952380952 18.6793154761905  13.1897321428571 19.2075892857143  C 12.016369047619 19.7358630952381  10.7864583333333 20  9.5 20  C 8.21354166666666 20  6.98363095238096 19.7358630952381  5.81026785714286 19.2075892857143  C 4.63690476190477 18.6793154761905  3.62611607142857 17.96875  2.77790178571429 17.0758928571428  C 1.9296875 16.1830357142857  1.25465029761904 15.1190476190476  0.752790178571425 13.8839285714286  C 0.250930059523808 12.6488095238095  0 11.3541666666667  0 10  C 0 8.64583333333335  0.250930059523808 7.35119047619046  0.752790178571425 6.11607142857142  C 1.25465029761904 4.88095238095238  1.9296875 3.81696428571427  2.77790178571429 2.92410714285716  C 3.62611607142857 2.03125  4.63690476190477 1.32068452380954  5.81026785714286 0.792410714285734  C 6.98363095238096 0.264136904761926  8.21354166666666 0  9.5 0  C 10.7864583333333 0  12.016369047619 0.264136904761926  13.1897321428571 0.792410714285734  C 14.3630952380952 1.32068452380954  15.3738839285714 2.03125  16.2220982142857 2.92410714285716  C 17.0703125 3.81696428571427  17.745349702381 4.88095238095238  18.2472098214286 6.11607142857142  Z " fill-rule="nonzero" fill="#ffffff" stroke="none" transform="matrix(1 0 0 1 44 338 )" />
  </g>
</svg>