<?xml version="1.0" encoding="utf-8"?>
<svg version="1.1" xmlns:xlink="http://www.w3.org/1999/xlink" width="19px" height="20px" xmlns="http://www.w3.org/2000/svg">
  <g transform="matrix(1 0 0 1 -47 -144 )">
    <path d="M 1.15504740658115 18.7841606246514  C 1.28927309908905 18.9254508272913  1.356385945343 19.0927681725228  1.356385945343 19.2861126603458  C 1.356385945343 19.4794571481688  1.28927309908905 19.6467744934003  1.15504740658115 19.7880646960401  C 1.02082171407324 19.9293548986801  0.86187023610336 20  0.678192972671496 20  C 0.494515709239644 20  0.335564231269759 19.9293548986801  0.201338538761853 19.7880646960401  C 0.0671128462539473 19.6467744934003  0 19.4794571481688  0 19.2861126603458  C 0 19.0927681725228  0.0671128462539473 18.9254508272913  0.201338538761853 18.7841606246514  C 0.335564231269759 18.6428704220115  0.494515709239644 18.5722253206916  0.678192972671496 18.5722253206916  C 0.86187023610336 18.5722253206916  1.02082171407324 18.6428704220115  1.15504740658115 18.7841606246514  Z M 3.18962632459565 16.6424986056888  C 3.32385201710356 16.7837888083287  3.3909648633575 16.9511061535601  3.3909648633575 17.1444506413832  C 3.3909648633575 17.3377951292062  3.32385201710356 17.5051124744376  3.18962632459565 17.6464026770775  C 3.05540063208774 17.7876928797174  2.89644915411787 17.8583379810374  2.71277189068601 17.8583379810374  C 2.52909462725413 17.8583379810374  2.37014314928425 17.7876928797174  2.23591745677635 17.6464026770775  C 2.10169176426845 17.5051124744376  2.0345789180145 17.3377951292062  2.0345789180145 17.1444506413832  C 2.0345789180145 16.9511061535601  2.10169176426845 16.7837888083287  2.23591745677635 16.6424986056888  C 2.37014314928425 16.5012084030489  2.52909462725413 16.4305633017289  2.71277189068601 16.4305633017289  C 2.89644915411787 16.4305633017289  3.05540063208774 16.5012084030489  3.18962632459565 16.6424986056888  Z M 2.91411042944785 14.0769659788065  L 3.86781929726716 13.0730619074177  L 6.58059118795316 15.9286112660346  L 5.62688232013386 16.9325153374233  L 2.91411042944785 14.0769659788065  Z M 7.25878416062465 12.3591745677635  C 7.39300985313256 12.5004647704034  7.46012269938651 12.6677821156349  7.46012269938651 12.8611266034579  C 7.46012269938651 13.0544710912809  7.39300985313256 13.2217884365123  7.25878416062465 13.3630786391523  C 7.12455846811676 13.5043688417922  6.96560699014687 13.5750139431121  6.78192972671501 13.5750139431121  C 6.59825246328313 13.5750139431121  6.43930098531326 13.5043688417922  6.30507529280535 13.3630786391523  C 6.17084960029746 13.2217884365123  6.1037367540435 13.0544710912809  6.1037367540435 12.8611266034579  C 6.1037367540435 12.6677821156349  6.17084960029746 12.5004647704034  6.30507529280535 12.3591745677635  C 6.43930098531326 12.2178843651236  6.59825246328313 12.1472392638037  6.78192972671501 12.1472392638037  C 6.96560699014687 12.1472392638037  7.12455846811676 12.2178843651236  7.25878416062465 12.3591745677635  Z M 14.4698828778583 6.79866146123814  C 14.7913180888641 7.59063022866703  14.952035694367 8.42163970998328  14.952035694367 9.29168990518681  C 14.952035694367 9.73043316601595  14.911414761108 10.1338538761852  14.8301728945901 10.5019520356943  C 14.7489310280721 10.8700501952036  14.6164714630972 11.2176984569623  14.4327941996654 11.5448968209704  C 14.2491169362335 11.8720951849786  14.0936977133296 12.1230712028258  13.9665365309537 12.297824874512  C 13.8393753485778 12.4725785461982  13.6521658300799 12.7124000743633  13.4049079754601 13.0172894590072  C 13.1859081613683 13.2775608849228  13.0251905558654 13.4783416992006  12.9227551589515 13.6196319018405  C 12.8203197620376 13.7609221044804  12.7019892173266 13.9468302658487  12.5677635248187 14.1773563859454  C 12.4335378323108 14.407882506042  12.3399330730619 14.6458449525934  12.286949247072 14.8912437255996  C 12.233965421082 15.1366424986057  12.207473508087 15.4117865774307  12.207473508087 15.7166759620747  C 12.207473508087 16.899051868377  11.8100948131623 17.9085331846068  11.0153374233129 18.7451199107641  C 10.2205800334635 19.5817066369214  9.26157278304517 20  8.138315672058 20  C 7.95463840862614 20  7.79568693065626 19.9293548986801  7.66146123814835 19.7880646960401  C 7.52723554564045 19.6467744934003  7.46012269938651 19.4794571481688  7.46012269938651 19.2861126603458  C 7.46012269938651 19.0927681725228  7.52723554564045 18.9254508272913  7.66146123814835 18.7841606246514  C 7.79568693065626 18.6428704220115  7.95463840862614 18.5722253206916  8.138315672058 18.5722253206916  C 8.88715374604946 18.5722253206916  9.52649191299498 18.2933630786392  10.0563301728946 17.7356385945343  C 10.5861684327942 17.1779141104294  10.851087562744 16.5049265662763  10.851087562744 15.7166759620747  C 10.851087562744 15.292805354155  10.891708496003 14.900539133668  10.9729503625209 14.5398773006135  C 11.0541922290388 14.179215467559  11.1848856664808 13.8408626138688  11.3650306748466 13.5248187395427  C 11.5451756832125 13.2087748652166  11.6988287785834 12.9615170105968  11.8259899609593 12.7830451756832  C 11.9531511433352 12.6045733407697  12.1368284067671 12.3703290574456  12.3770217512549 12.0803123257111  C 12.6596021565347 11.7382413087934  12.8697713329615 11.4705335564231  13.0075292805354 11.2771890686001  C 13.1452872281093 11.0838445807771  13.2777467930842 10.8068414203384  13.4049079754601 10.4461795872839  C 13.532069157836 10.0855177542294  13.595649749024 9.70068786019704  13.595649749024 9.29168990518681  C 13.595649749024 7.91596951106153  13.1311582078453 6.73917084960029  12.202175125488 5.76129392080314  C 11.2731920431307 4.78341699200594  10.1552333147425 4.29447852760736  8.84829894032349 4.29447852760736  C 7.54136456590445 4.29447852760736  6.42340583751627 4.78341699200594  5.49442275515895 5.76129392080314  C 4.56543967280164 6.73917084960029  4.10094813162298 7.91596951106153  4.10094813162298 9.29168990518681  C 4.10094813162298 9.48503439300983  4.03383528536902 9.65235173824131  3.89960959286113 9.7936419408812  C 3.76538390035322 9.93493214352109  3.60643242238335 10.005577244841  3.42275515895147 10.005577244841  C 3.23907789551962 10.005577244841  3.08012641754972 9.93493214352109  2.94590072504183 9.7936419408812  C 2.81167503253393 9.65235173824131  2.74456218627998 9.48503439300983  2.74456218627998 9.29168990518681  C 2.74456218627998 8.42163970998328  2.90527979178286 7.59063022866703  3.22671500278862 6.79866146123814  C 3.54815021379439 6.00669269380925  3.98261758691207 5.32255065997399  4.53011712214166 4.74623535973232  C 5.07761665737125 4.16992005949065  5.72755158951478 3.71258598252463  6.47992191857222 3.37423312883435  C 7.23229224762967 3.03588027514408  8.02175125488009 2.86670384829894  8.84829894032349 2.86670384829894  C 9.67484662576688 2.86670384829894  10.4643056330173 3.03588027514408  11.2166759620747 3.37423312883435  C 11.9690462911322 3.71258598252463  12.6189812232757 4.16992005949065  13.1664807585053 4.74623535973232  C 13.7139802937349 5.32255065997399  14.1484476668526 6.00669269380925  14.4698828778583 6.79866146123814  Z M 9.29336307863915 10.2175125488009  C 9.42758877114705 10.3588027514408  9.494701617401 10.5261200966722  9.494701617401 10.7194645844952  C 9.494701617401 10.9128090723182  9.42758877114705 11.0801264175497  9.29336307863915 11.2214166201896  C 9.15913738613126 11.3627068228295  9.00018590816136 11.4333519241495  8.8165086447295 11.4333519241495  C 8.63283138129765 11.4333519241495  8.47387990332776 11.3627068228295  8.33965421081984 11.2214166201896  C 8.20542851831195 11.0801264175497  8.138315672058 10.9128090723182  8.138315672058 10.7194645844952  C 8.138315672058 10.5261200966722  8.20542851831195 10.3588027514408  8.33965421081984 10.2175125488009  C 8.47387990332776 10.076222346161  8.63283138129765 10.005577244841  8.8165086447295 10.005577244841  C 9.00018590816136 10.005577244841  9.15913738613126 10.076222346161  9.29336307863915 10.2175125488009  Z M 11.4551031790296 6.51422197434466  C 12.182747722625 7.280163599182  12.5465699944228 8.20598624279607  12.5465699944228 9.29168990518681  C 12.5465699944228 9.48503439300983  12.4794571481688 9.65235173824131  12.3452314556609 9.7936419408812  C 12.211005763153 9.93493214352109  12.0520542851831 10.005577244841  11.8683770217513 10.005577244841  C 11.6846997583194 10.005577244841  11.5257482803495 9.93493214352109  11.3915225878416 9.7936419408812  C 11.2572968953337 9.65235173824131  11.1901840490798 9.48503439300983  11.1901840490798 9.29168990518681  C 11.1901840490798 8.60011154489683  10.9588213422569 8.01078267335934  10.4960959286113 7.52370329057447  C 10.0333705149656 7.03662390778954  9.47350808700502 6.79308421639708  8.8165086447295 6.79308421639708  C 8.16657371258598 6.79308421639708  7.60847741215839 7.03662390778954  7.14221974344674 7.52370329057447  C 6.67596207473508 8.01078267335934  6.44283324037925 8.60011154489683  6.44283324037925 9.29168990518681  C 6.44283324037925 9.48503439300983  6.3757203941253 9.65235173824131  6.2414947016174 9.7936419408812  C 6.1072690091095 9.93493214352109  5.94831753113962 10.005577244841  5.76464026770775 10.005577244841  C 5.58096300427589 10.005577244841  5.422011526306 9.93493214352109  5.28778583379811 9.7936419408812  C 5.1535601412902 9.65235173824131  5.08644729503626 9.48503439300983  5.08644729503626 9.29168990518681  C 5.08644729503626 8.20598624279607  5.45026956683398 7.280163599182  6.17791411042945 6.51422197434466  C 6.90555865402491 5.74828034950732  7.78509016545826 5.36530953708867  8.8165086447295 5.36530953708867  C 9.84792712400074 5.36530953708867  10.7274586354341 5.74828034950732  11.4551031790296 6.51422197434466  Z M 13.9029559397658 2.15281650864474  C 15.1957612939208 3.17159323294291  16.1353411414761 4.47666852574827  16.7216954824317 6.0680423870608  C 16.7923405837516 6.25395054842907  16.7888083286856 6.43614054656998  16.7110987172337 6.61461238148358  C 16.6333891057817 6.79308421639708  16.5062279234058 6.91950176612754  16.329615170106 6.99386503067482  C 16.266034578918 7.02361033649377  16.1847927124001 7.0384829894032  16.0858895705521 7.0384829894032  C 15.9516638780443 7.0384829894032  15.8262688232013 6.99758319390222  15.7097044060234 6.91578360290019  C 15.5931399888455 6.83398401189815  15.5101319947946 6.72243911507716  15.4606804238706 6.58114891243727  C 14.980293734895 5.25748280349509  14.1890686001115 4.16062465142218  13.0870050195204 3.29057445621866  C 12.9386503067485 3.17159323294291  12.8503439300985 3.01543037739359  12.8220858895705 2.82208588957057  C 12.7938278490426 2.62874140174754  12.8362149098345 2.45398773006135  12.9492470719465 2.29782487451198  C 13.0693437441904 2.14166201896262  13.2212307120283 2.04870793827846  13.4049079754601 2.01896263245956  C 13.588585238892 1.98921732664066  13.7546012269939 2.03383528536904  13.9029559397658 2.15281650864474  Z M 15.3335192414947 0.156162855549364  C 16.9936791225135 1.45751998512736  18.1981781000186 3.12697527421453  18.94701617401 5.16452872281093  C 19.010596765198 5.35043688417924  19.005298382599 5.53262688232015  18.9311210262131 5.7110987172337  C 18.8569436698271 5.88957055214725  18.7315486149842 6.01598810187767  18.5549358616843 6.09035136642499  C 18.4772262502324 6.12009667224394  18.3959843837144 6.13496932515337  18.3112102621305 6.13496932515337  C 18.0003718163227 6.13496932515337  17.7884365123629 5.98252463283141  17.675404350251 5.67763524818739  C 17.0254694181074 3.90778955196131  15.9763896635062 2.44655140360663  14.5281650864473 1.29392080312324  C 14.3727458635434 1.17493957984758  14.2826733593605 1.01877672429817  14.2579475738985 0.825432236475194  C 14.2332217884365 0.632087748652168  14.2773749767615 0.457334076965973  14.3904071388734 0.30117122141661  C 14.5034393009853 0.137572039412532  14.6517940137572 0.0427588771147214  14.8354712771891 0.0167317345231292  C 15.0191485406209 -0.00929540806841563  15.1851645287228 0.0371816322736625  15.3335192414947 0.156162855549364  Z " fill-rule="nonzero" fill="#ffffff" stroke="none" transform="matrix(1 0 0 1 47 144 )" />
  </g>
</svg>