<?xml version="1.0" encoding="utf-8"?>
<svg version="1.1" xmlns:xlink="http://www.w3.org/1999/xlink" width="16px" height="22px" xmlns="http://www.w3.org/2000/svg">
  <g transform="matrix(1 0 0 1 -47 -305 )">
    <path d="M 14.4365192582026 12.58984375  C 14.9766999524489 12.7903645833334  15.4978601997147 13.1075148809524  16 13.5412946428571  C 15.7565382786495 14.196056547619  15.4674274845459 14.7607886904762  15.132667617689 15.2354910714286  C 14.7979077508321 15.710193452381  14.451735615787 16.0723586309524  14.0941512125535 16.3219866071429  C 13.73656680932 16.5716145833334  13.359961959106 16.7619047619048  12.9643366619115 16.8928571428571  C 12.5687113647171 17.0238095238095  12.1825962910128 17.0831473214286  11.8059914407989 17.0708705357143  C 11.4293865905849 17.05859375  11.0622919638611 17.0238095238095  10.7047075606277 16.9665178571429  C 10.3471231573942 16.9092261904762  10.0180694246315 16.8191964285714  9.71754636233951 16.6964285714286  C 9.41702330004756 16.5736607142857  9.15263908701854 16.4611235119048  8.92439372325251 16.3588169642857  C 8.69614835948644 16.2565104166666  8.52116024726582 16.1644345238095  8.39942938659057 16.0825892857143  L 8.20542082738943 15.9598214285714  C 7.34569662387068 17.8258928571429  6.2444127436995 19.2970610119048  4.90156918687587 20.3733258928571  C 3.55872563005232 21.4495907738095  2.09605325725157 21.9918154761905  0.513552068473603 22  C 0.368996671421796 22  0.247265810746545 21.9468005952381  0.148359486447935 21.8404017857143  C 0.0494531621493263 21.7340029761905  0 21.6030505952381  0 21.4475446428571  C 0 21.2920386904762  0.0494531621493263 21.1631324404762  0.148359486447935 21.0608258928571  C 0.247265810746545 20.9585193452381  0.368996671421796 20.9073660714286  0.513552068473603 20.9073660714286  C 1.82976699952451 20.899181547619  3.05658582976698 20.4592633928571  4.19400855920113 19.5876116071429  C 5.33143128863529 18.7159598214286  6.28815977175466 17.5107886904762  7.06419400855923 15.9720982142857  C 6.79029957203996 16.086681547619  6.51640513552069 16.1808035714286  6.24251069900142 16.2544642857143  C 5.96861626248219 16.328125  5.6528768426058 16.3813244047619  5.29529243937235 16.4140625  C 4.93770803613885 16.4468005952381  4.5915359010937 16.4365699404762  4.2567760342368 16.3833705357143  C 3.92201616737995 16.3301711309524  3.56823585354254 16.2135416666666  3.19543509272465 16.0334821428571  C 2.82263433190677 15.8534226190476  2.47265810746553 15.6119791666666  2.14550641940085 15.3091517857143  C 1.81835473133617 15.0063244047619  1.49690917736565 14.5970982142857  1.18116975748931 14.0814732142857  C 0.865430337612928 13.5658482142857  0.582025677603399 12.9683779761905  0.330955777460769 12.2890625  C 1.19828815977174 11.9043898809524  2.01236329053734 11.671130952381  2.77318116975749 11.5892857142857  C 3.53399904897764 11.5074404761905  4.17118402282453 11.5381324404762  4.68473609129814 11.6813616071429  C 5.19828815977178 11.8245907738095  5.67189728958632 12.0558035714286  6.10556348074178 12.375  C 6.53922967189729 12.6941964285714  6.87589158345223 13.0093005952381  7.11554921540656 13.3203125  C 7.35520684736093 13.6313244047619  7.57013789824062 13.9668898809524  7.76034236804563 14.3270089285714  C 8.16357584403232 13.2548363095238  8.46409890632432 12.0639880952381  8.66191155492154 10.7544642857143  C 8.60865430337613 10.7626488095238  8.54018069424633 10.7728794642857  8.45649072753211 10.78515625  C 8.37280076081788 10.7974330357143  8.19591060389918 10.8076636904762  7.92582025677603 10.8158482142857  C 7.65572990965289 10.8240327380952  7.39134569662387 10.8219866071429  7.13266761768903 10.8097098214286  C 6.87398953875414 10.7974330357143  6.56395625297193 10.7565104166666  6.20256776034239 10.6869419642857  C 5.84117926771281 10.6173735119048  5.50451735615787 10.5232514880952  5.19258202567761 10.4045758928571  C 4.88064669519736 10.285900297619  4.56110318592489 10.1119791666666  4.2339514978602 9.8828125  C 3.90679980979552 9.65364583333338  3.62149310508799 9.38764880952384  3.37803138373753 9.08482142857142  C 3.13456966238707 8.78199404761904  2.9272467902996 8.39527529761904  2.75606276747502 7.92466517857142  C 2.58487874465049 7.45405505952384  2.47646219686162 6.93229166666662  2.43081312410842 6.359375  C 2.96338563956254 6.13020833333338  3.47123157394201 5.98084077380954  3.9543509272468 5.91127232142858  C 4.43747028055159 5.84170386904763  4.86543033761293 5.84579613095237  5.23823109843081 5.92354910714288  C 5.61103185924869 6.00130208333338  5.96100808368997 6.12406994047616  6.28815977175466 6.29185267857142  C 6.6153114598193 6.45963541666662  6.89491203043274 6.66424851190479  7.12696148359486 6.90569196428571  C 7.35901093675702 7.14713541666662  7.57203994293866 7.39676339285712  7.7660485021398 7.65457589285712  C 7.96005706134093 7.91238839285712  8.11982881597717 8.17020089285712  8.2453637660485 8.42801339285712  C 8.37089871611984 8.68582589285712  8.47551117451258 8.91499255952384  8.5592011412268 9.11551339285712  C 8.64289110794103 9.31603422619046  8.70375653827865 9.47767857142858  8.74179743223968 9.60044642857142  L 8.78744650499288 9.796875  C 8.87874465049927 8.79836309523808  8.92439372325251 8.00037202380954  8.92439372325251 7.40290178571429  C 8.86352829291489 7.35379464285712  8.7817403708987 7.28831845238096  8.67902995720401 7.20647321428571  C 8.57631954350927 7.12462797619046  8.38991916310035 6.94252232142858  8.11982881597717 6.66015625  C 7.84973846885402 6.37779017857142  7.60817879220161 6.08519345238096  7.39514978601996 5.78236607142858  C 7.18212077983836 5.47953869047616  6.97669995244888 5.09895833333338  6.77888730385166 4.640625  C 6.5810746552544 4.18229166666662  6.45553970518306 3.72191220238096  6.40228245363765 3.25948660714288  C 6.34902520209224 2.7970610119048  6.39467427484544 2.27734375  6.53922967189729 1.70033482142858  C 6.68378506894914 1.12332589285712  6.95007132667615 0.556547619047626  7.33808844507846 0  C 7.89348549690918 0.204613095238082  8.37850689491201 0.456287202380959  8.79315263908705 0.755022321428585  C 9.207798383262 1.05375744047616  9.52924393723251 1.36681547619046  9.75748930099858 1.69419642857142  C 9.98573466476462 2.02157738095237  10.1683309557774 2.36941964285712  10.3052781740371 2.73772321428571  C 10.4422253922967 3.10602678571429  10.5202092249168 3.47023809523808  10.5392296718973 3.83035714285712  C 10.5582501188778 4.19047619047616  10.5563480741798 4.54036458333338  10.5335235378032 4.88002232142858  C 10.5106990014265 5.21968005952384  10.4612458392772 5.53273809523808  10.3851640513552 5.81919642857142  C 10.3090822634332 6.10565476190479  10.2368045649073 6.359375  10.1683309557774 6.58035714285712  C 10.0998573466477 6.80133928571429  10.0351878269139 6.97321428571429  9.97432239657632 7.09598214285712  L 9.89443651925822 7.28013392857142  C 9.90204469805039 7.31287202380954  9.90584878744652 7.51748511904763  9.90584878744652 7.89397321428571  C 9.90584878744652 8.27046130952384  9.90204469805039 8.56510416666662  9.89443651925822 8.77790178571429  C 9.91726105563482 8.72061011904763  9.9553019495958 8.64490327380954  10.0085592011412 8.55078125  C 10.0618164526866 8.45665922619046  10.1778411792677 8.28069196428571  10.3566333808845 8.02287946428571  C 10.5354255825012 7.76506696428571  10.7275320970043 7.52771577380954  10.9329529243937 7.31082589285712  C 11.1383737517832 7.09393601190479  11.4084640989063 6.86681547619046  11.7432239657632 6.62946428571429  C 12.0779838326201 6.39211309523808  12.4260580123633 6.21000744047616  12.7874465049929 6.08314732142858  C 13.1488349976225 5.95628720238096  13.5748930099858 5.89694940476192  14.0656205420828 5.90513392857142  C 14.5563480741798 5.91331845238096  15.0603899191631 6.01153273809521  15.5777460770328 6.19977678571429  C 15.5625297194484 6.83816964285712  15.4807417974322 7.41722470238096  15.3323823109843 7.93694196428571  C 15.1840228245364 8.45665922619046  14.9938183547314 8.88430059523808  14.7617689015692 9.21986607142858  C 14.529719448407 9.55543154761904  14.265335235378 9.84802827380954  13.9686162624822 10.09765625  C 13.6718972895863 10.3472842261905  13.3618640038041 10.5334821428571  13.0385164051355 10.65625  C 12.715168806467 10.7790178571429  12.3937232524964 10.8772321428571  12.074179743224 10.9508928571429  C 11.7546362339515 11.0245535714286  11.4503090822634 11.0634300595238  11.1611982881598 11.0675223214286  C 10.8720874940561 11.0716145833334  10.6153114598193 11.0675223214286  10.3908701854494 11.0552455357143  C 10.1664289110794 11.04296875  9.98953875416074 11.0245535714286  9.86019971469332 11  L 9.66619115549214 10.9631696428571  C 9.49120304327153 12.1662946428571  9.21350451735617 13.3244047619048  8.83309557774607 14.4375  C 8.87874465049927 14.3802083333334  8.94721825962911 14.3045014880952  9.03851640513551 14.2103794642857  C 9.12981455064194 14.1162574404762  9.31811697574895 13.948474702381  9.60342368045648 13.70703125  C 9.88873038516405 13.465587797619  10.1835473133619 13.250744047619  10.48787446505 13.0625  C 10.792201616738 12.874255952381  11.17070851165 12.702380952381  11.623395149786 12.546875  C 12.076081787922 12.391369047619  12.5230622919639 12.3095238095238  12.9643366619115 12.3013392857143  C 13.4056110318593 12.2931547619048  13.8963385639563 12.3893229166666  14.4365192582026 12.58984375  Z " fill-rule="nonzero" fill="#ffffff" stroke="none" transform="matrix(1 0 0 1 47 305 )" />
  </g>
</svg>