<?xml version="1.0" encoding="utf-8"?>
<svg version="1.1" xmlns:xlink="http://www.w3.org/1999/xlink" width="20px" height="19px" xmlns="http://www.w3.org/2000/svg">
  <g transform="matrix(1 0 0 1 -46 -240 )">
    <path d="M 5.65104166666666 16.023828125  C 6.16030092592592 15.3063802083333  6.48148148148148 14.3984375  6.61458333333334 13.3  L 3.88888888888888 13.3  C 3.65740740740742 13.3  3.49103009259258 13.1268229166667  3.38975694444444 12.78046875  C 3.2884837962963 12.4341145833333  3.30729166666666 12.1026041666667  3.44618055555556 11.7859375  L 5.078125 8.06015625000001  C 4.70196759259258 7.75338541666668  4.30555555555556 7.59999999999999  3.88888888888888 7.59999999999999  C 3.125 7.59999999999999  2.4710648148148 8.06510416666665  1.92708333333334 8.99531250000002  C 1.38310185185186 9.92552083333334  1.11111111111112 11.04375  1.11111111111112 12.35  C 1.11111111111112 13.65625  1.38310185185186 14.7744791666666  1.92708333333334 15.7046875  C 2.4710648148148 16.6348958333333  3.125 17.1  3.88888888888888 17.1  C 4.55439814814814 17.1  5.14178240740742 16.7412760416666  5.65104166666666 16.023828125  Z M 5.96354166666666 9.203125  L 5 11.4  L 6.61458333333334 11.4  C 6.51041666666666 10.5588541666667  6.29340277777778 9.82656249999999  5.96354166666666 9.203125  Z M 7.734375 11.4  L 9.16666666666666 11.4  L 11.6666666666667 5.69999999999998  L 7.5 5.69999999999998  L 6.640625 7.65937500000002  C 7.24826388888888 8.67864583333331  7.61284722222222 9.92552083333334  7.734375 11.4  Z M 18.0729166666667 15.7046875  C 18.6168981481481 14.7744791666666  18.8888888888889 13.65625  18.8888888888889 12.35  C 18.8888888888889 11.04375  18.6168981481481 9.92552083333334  18.0729166666667 8.99531250000002  C 17.5289351851852 8.06510416666665  16.875 7.59999999999999  16.1111111111111 7.59999999999999  C 15.7638888888889 7.59999999999999  15.4137731481481 7.71875  15.0607638888889 7.95625000000002  L 16.5711805555556 11.815625  C 16.6579861111111 12.0432291666667  16.6869212962963 12.2856770833333  16.6579861111111 12.54296875  C 16.6290509259259 12.8002604166667  16.5509259259259 12.9981770833333  16.4236111111111 13.13671875  C 16.3368055555556 13.2455729166667  16.2326388888889 13.3  16.1111111111111 13.3  C 15.9085648148148 13.3  15.7552083333333 13.1565104166667  15.6510416666667 12.86953125  L 14.140625 9.01015624999999  C 13.6024305555556 9.95026041666669  13.3333333333333 11.0635416666667  13.3333333333333 12.35  C 13.3333333333333 13.65625  13.6053240740741 14.7744791666666  14.1493055555556 15.7046875  C 14.693287037037 16.6348958333333  15.3472222222222 17.1  16.1111111111111 17.1  C 16.875 17.1  17.5289351851852 16.6348958333333  18.0729166666667 15.7046875  Z M 18.8585069444444 7.65195312500001  C 19.6195023148148 8.95325520833333  20 10.5192708333333  20 12.35  C 20 14.1807291666666  19.6195023148148 15.7467447916667  18.8585069444444 17.048046875  C 18.0975115740741 18.3493489583333  17.181712962963 19  16.1111111111111 19  C 15.0405092592593 19  14.1247106481481 18.3493489583333  13.3637152777778 17.048046875  C 12.6027199074074 15.7467447916667  12.2222222222222 14.1807291666666  12.2222222222222 12.35  C 12.2222222222222 11.3901041666667  12.3365162037037 10.4821614583333  12.5651041666667 9.62617187500002  C 12.7936921296296 8.77018229166665  13.1105324074074 8.03046875000002  13.515625 7.40703124999998  L 12.9513888888889 5.95234375000002  L 9.88715277777778 12.9140625  C 9.78298611111112 13.1713541666667  9.63541666666666 13.3  9.44444444444444 13.3  L 7.734375 13.3  C 7.60127314814814 14.9229166666666  7.17013888888888 16.2786458333334  6.44097222222222 17.3671875  C 5.71180555555556 18.4557291666667  4.86111111111112 19  3.88888888888888 19  C 2.81828703703702 19  1.90248842592592 18.3493489583333  1.14149305555556 17.048046875  C 0.380497685185201 15.7467447916667  0 14.1807291666666  0 12.35  C 0 10.5192708333333  0.380497685185201 8.95325520833333  1.14149305555556 7.65195312500001  C 1.90248842592592 6.35065104166669  2.81828703703702 5.69999999999998  3.88888888888888 5.69999999999998  C 4.54861111111112 5.69999999999998  5.17071759259258 5.97213541666668  5.75520833333334 6.51640624999998  L 6.94444444444444 3.80000000000002  L 5 3.80000000000002  C 4.84953703703706 3.80000000000002  4.7193287037037 3.70598958333331  4.609375 3.51796874999999  C 4.4994212962963 3.32994791666667  4.44444444444444 3.10729166666667  4.44444444444444 2.84999999999999  C 4.44444444444444 2.59270833333331  4.4994212962963 2.37005208333331  4.609375 2.18203124999999  C 4.7193287037037 1.99401041666667  4.84953703703706 1.90000000000001  5 1.90000000000001  L 8.33333333333334 1.90000000000001  L 8.33333333333334 3.80000000000002  L 12.109375 3.80000000000002  L 11.3715277777778 1.90000000000001  L 9.44444444444444 1.90000000000001  C 9.29398148148148 1.90000000000001  9.16377314814814 1.80598958333335  9.05381944444444 1.61796874999998  C 8.94386574074072 1.42994791666666  8.88888888888888 1.20729166666666  8.88888888888888 0.949999999999981  C 8.88888888888888 0.692708333333349  8.94386574074072 0.470052083333349  9.05381944444444 0.282031249999981  C 9.16377314814814 0.0940104166666604  9.29398148148148 0  9.44444444444444 0  L 11.6666666666667 0  C 11.8576388888889 0  12.0109953703704 0.13854166666667  12.1267361111111 0.415625000000009  L 14.4444444444444 6.35312500000001  C 14.9710648148148 5.91770833333334  15.5266203703704 5.69999999999998  16.1111111111111 5.69999999999998  C 17.181712962963 5.69999999999998  18.0975115740741 6.35065104166669  18.8585069444444 7.65195312500001  Z " fill-rule="nonzero" fill="#ffffff" stroke="none" transform="matrix(1 0 0 1 46 240 )" />
  </g>
</svg>