<?xml version="1.0" encoding="utf-8"?>
<svg version="1.1" xmlns:xlink="http://www.w3.org/1999/xlink" width="19px" height="15px" xmlns="http://www.w3.org/2000/svg">
  <g transform="matrix(1 0 0 1 -47 -51 )">
    <path d="M 1.1875 13.75  L 19 13.75  L 19 15  L 0 15  L 0 0  L 1.1875 0  L 1.1875 13.75  Z M 17.72900390625 1.337890625  C 17.78466796875 1.396484375  17.8125 1.47135416666667  17.8125 1.5625  L 17.8125 5.810546875  C 17.8125 5.947265625  17.752197265625 6.04329427083333  17.631591796875 6.0986328125  C 17.510986328125 6.15397135416667  17.4012044270834 6.12955729166667  17.30224609375 6.025390625  L 16.1796875 4.84375  L 10.30712890625 11.025390625  C 10.2452799479166 11.0904947916667  10.1741536458334 11.123046875  10.09375 11.123046875  C 10.0133463541666 11.123046875  9.94222005208341 11.0904947916667  9.88037109375 11.025390625  L 7.71875 8.75  L 3.859375 12.8125  L 2.078125 10.9375  L 7.50537109375 5.224609375  C 7.56722005208341 5.15950520833336  7.63834635416659 5.126953125  7.71875 5.126953125  C 7.79915364583341 5.126953125  7.87027994791659 5.15950520833336  7.93212890625 5.224609375  L 10.09375 7.5  L 14.3984375 2.96875  L 13.27587890625 1.787109375  C 13.1769205729166 1.68294270833333  13.1537272135416 1.5673828125  13.206298828125 1.4404296875  C 13.2588704427084 1.3134765625  13.35009765625 1.25  13.47998046875 1.25  L 17.515625 1.25  C 17.6022135416666 1.25  17.67333984375 1.279296875  17.72900390625 1.337890625  Z " fill-rule="nonzero" fill="#ffffff" stroke="none" transform="matrix(1 0 0 1 47 51 )" />
  </g>
</svg>