<?xml version="1.0" encoding="utf-8"?>
<svg version="1.1" xmlns:xlink="http://www.w3.org/1999/xlink" width="14px" height="20px" xmlns="http://www.w3.org/2000/svg">
  <g transform="matrix(1 0 0 1 -48 -177 )">
    <path d="M 3.7237215909091 14.3917410714286  C 3.78669507575756 14.4624255952381  3.81818181818184 14.546130952381  3.81818181818184 14.6428571428571  L 3.81818181818184 15.3571428571429  C 3.81818181818184 15.453869047619  3.78669507575756 15.5375744047619  3.7237215909091 15.6082589285714  C 3.6607481060606 15.678943452381  3.58617424242423 15.7142857142857  3.5 15.7142857142857  L 2.86363636363637 15.7142857142857  C 2.77746212121214 15.7142857142857  2.70288825757577 15.678943452381  2.63991477272726 15.6082589285714  C 2.5769412878788 15.5375744047619  2.54545454545453 15.453869047619  2.54545454545453 15.3571428571429  L 2.54545454545453 14.6428571428571  C 2.54545454545453 14.546130952381  2.5769412878788 14.4624255952381  2.63991477272726 14.3917410714286  C 2.70288825757577 14.321056547619  2.77746212121214 14.2857142857143  2.86363636363637 14.2857142857143  L 3.5 14.2857142857143  C 3.58617424242423 14.2857142857143  3.6607481060606 14.321056547619  3.7237215909091 14.3917410714286  Z M 3.7237215909091 11.5345982142857  C 3.78669507575756 11.6052827380952  3.81818181818184 11.6889880952381  3.81818181818184 11.7857142857143  L 3.81818181818184 12.5  C 3.81818181818184 12.5967261904762  3.78669507575756 12.680431547619  3.7237215909091 12.7511160714286  C 3.6607481060606 12.8218005952381  3.58617424242423 12.8571428571429  3.5 12.8571428571429  L 2.86363636363637 12.8571428571429  C 2.77746212121214 12.8571428571429  2.70288825757577 12.8218005952381  2.63991477272726 12.7511160714286  C 2.5769412878788 12.680431547619  2.54545454545453 12.5967261904762  2.54545454545453 12.5  L 2.54545454545453 11.7857142857143  C 2.54545454545453 11.6889880952381  2.5769412878788 11.6052827380952  2.63991477272726 11.5345982142857  C 2.70288825757577 11.4639136904762  2.77746212121214 11.4285714285714  2.86363636363637 11.4285714285714  L 3.5 11.4285714285714  C 3.58617424242423 11.4285714285714  3.6607481060606 11.4639136904762  3.7237215909091 11.5345982142857  Z M 6.26917613636363 11.5345982142857  C 6.33214962121214 11.6052827380952  6.36363636363637 11.6889880952381  6.36363636363637 11.7857142857143  L 6.36363636363637 12.5  C 6.36363636363637 12.5967261904762  6.33214962121214 12.680431547619  6.26917613636363 12.7511160714286  C 6.20620265151513 12.8218005952381  6.1316287878788 12.8571428571429  6.04545454545453 12.8571428571429  L 5.4090909090909 12.8571428571429  C 5.32291666666667 12.8571428571429  5.2483428030303 12.8218005952381  5.18536931818184 12.7511160714286  C 5.12239583333333 12.680431547619  5.0909090909091 12.5967261904762  5.0909090909091 12.5  L 5.0909090909091 11.7857142857143  C 5.0909090909091 11.6889880952381  5.12239583333333 11.6052827380952  5.18536931818184 11.5345982142857  C 5.2483428030303 11.4639136904762  5.32291666666667 11.4285714285714  5.4090909090909 11.4285714285714  L 6.04545454545453 11.4285714285714  C 6.1316287878788 11.4285714285714  6.20620265151513 11.4639136904762  6.26917613636363 11.5345982142857  Z M 3.7237215909091 8.67745535714287  C 3.78669507575756 8.74813988095236  3.81818181818184 8.83184523809523  3.81818181818184 8.92857142857139  L 3.81818181818184 9.64285714285713  C 3.81818181818184 9.73958333333333  3.78669507575756 9.8232886904762  3.7237215909091 9.89397321428574  C 3.6607481060606 9.96465773809523  3.58617424242423 10  3.5 10  L 2.86363636363637 10  C 2.77746212121214 10  2.70288825757577 9.96465773809523  2.63991477272726 9.89397321428574  C 2.5769412878788 9.8232886904762  2.54545454545453 9.73958333333333  2.54545454545453 9.64285714285713  L 2.54545454545453 8.92857142857139  C 2.54545454545453 8.83184523809523  2.5769412878788 8.74813988095236  2.63991477272726 8.67745535714287  C 2.70288825757577 8.60677083333333  2.77746212121214 8.57142857142861  2.86363636363637 8.57142857142861  L 3.5 8.57142857142861  C 3.58617424242423 8.57142857142861  3.6607481060606 8.60677083333333  3.7237215909091 8.67745535714287  Z M 11.3600852272727 14.3917410714286  C 11.4230587121212 14.4624255952381  11.4545454545455 14.546130952381  11.4545454545455 14.6428571428571  L 11.4545454545455 15.3571428571429  C 11.4545454545455 15.453869047619  11.4230587121212 15.5375744047619  11.3600852272727 15.6082589285714  C 11.2971117424242 15.678943452381  11.2225378787879 15.7142857142857  11.1363636363636 15.7142857142857  L 10.5 15.7142857142857  C 10.4138257575758 15.7142857142857  10.3392518939394 15.678943452381  10.2762784090909 15.6082589285714  C 10.2133049242424 15.5375744047619  10.1818181818182 15.453869047619  10.1818181818182 15.3571428571429  L 10.1818181818182 14.6428571428571  C 10.1818181818182 14.546130952381  10.2133049242424 14.4624255952381  10.2762784090909 14.3917410714286  C 10.3392518939394 14.321056547619  10.4138257575758 14.2857142857143  10.5 14.2857142857143  L 11.1363636363636 14.2857142857143  C 11.2225378787879 14.2857142857143  11.2971117424242 14.321056547619  11.3600852272727 14.3917410714286  Z M 8.8146306818182 11.5345982142857  C 8.87760416666667 11.6052827380952  8.9090909090909 11.6889880952381  8.9090909090909 11.7857142857143  L 8.9090909090909 12.5  C 8.9090909090909 12.5967261904762  8.87760416666667 12.680431547619  8.8146306818182 12.7511160714286  C 8.7516571969697 12.8218005952381  8.67708333333333 12.8571428571429  8.5909090909091 12.8571428571429  L 7.95454545454547 12.8571428571429  C 7.8683712121212 12.8571428571429  7.79379734848487 12.8218005952381  7.73082386363637 12.7511160714286  C 7.66785037878786 12.680431547619  7.63636363636363 12.5967261904762  7.63636363636363 12.5  L 7.63636363636363 11.7857142857143  C 7.63636363636363 11.6889880952381  7.66785037878786 11.6052827380952  7.73082386363637 11.5345982142857  C 7.79379734848487 11.4639136904762  7.8683712121212 11.4285714285714  7.95454545454547 11.4285714285714  L 8.5909090909091 11.4285714285714  C 8.67708333333333 11.4285714285714  8.7516571969697 11.4639136904762  8.8146306818182 11.5345982142857  Z M 6.26917613636363 8.67745535714287  C 6.33214962121214 8.74813988095236  6.36363636363637 8.83184523809523  6.36363636363637 8.92857142857139  L 6.36363636363637 9.64285714285713  C 6.36363636363637 9.73958333333333  6.33214962121214 9.8232886904762  6.26917613636363 9.89397321428574  C 6.20620265151513 9.96465773809523  6.1316287878788 10  6.04545454545453 10  L 5.4090909090909 10  C 5.32291666666667 10  5.2483428030303 9.96465773809523  5.18536931818184 9.89397321428574  C 5.12239583333333 9.8232886904762  5.0909090909091 9.73958333333333  5.0909090909091 9.64285714285713  L 5.0909090909091 8.92857142857139  C 5.0909090909091 8.83184523809523  5.12239583333333 8.74813988095236  5.18536931818184 8.67745535714287  C 5.2483428030303 8.60677083333333  5.32291666666667 8.57142857142861  5.4090909090909 8.57142857142861  L 6.04545454545453 8.57142857142861  C 6.1316287878788 8.57142857142861  6.20620265151513 8.60677083333333  6.26917613636363 8.67745535714287  Z M 3.7237215909091 5.8203125  C 3.78669507575756 5.89099702380954  3.81818181818184 5.97470238095236  3.81818181818184 6.07142857142861  L 3.81818181818184 6.78571428571426  C 3.81818181818184 6.88244047619046  3.78669507575756 6.96614583333333  3.7237215909091 7.03683035714287  C 3.6607481060606 7.10751488095236  3.58617424242423 7.14285714285713  3.5 7.14285714285713  L 2.86363636363637 7.14285714285713  C 2.77746212121214 7.14285714285713  2.70288825757577 7.10751488095236  2.63991477272726 7.03683035714287  C 2.5769412878788 6.96614583333333  2.54545454545453 6.88244047619046  2.54545454545453 6.78571428571426  L 2.54545454545453 6.07142857142861  C 2.54545454545453 5.97470238095236  2.5769412878788 5.89099702380954  2.63991477272726 5.8203125  C 2.70288825757577 5.74962797619046  2.77746212121214 5.71428571428574  2.86363636363637 5.71428571428574  L 3.5 5.71428571428574  C 3.58617424242423 5.71428571428574  3.6607481060606 5.74962797619046  3.7237215909091 5.8203125  Z M 11.3600852272727 11.5345982142857  C 11.4230587121212 11.6052827380952  11.4545454545455 11.6889880952381  11.4545454545455 11.7857142857143  L 11.4545454545455 12.5  C 11.4545454545455 12.5967261904762  11.4230587121212 12.680431547619  11.3600852272727 12.7511160714286  C 11.2971117424242 12.8218005952381  11.2225378787879 12.8571428571429  11.1363636363636 12.8571428571429  L 10.5 12.8571428571429  C 10.4138257575758 12.8571428571429  10.3392518939394 12.8218005952381  10.2762784090909 12.7511160714286  C 10.2133049242424 12.680431547619  10.1818181818182 12.5967261904762  10.1818181818182 12.5  L 10.1818181818182 11.7857142857143  C 10.1818181818182 11.6889880952381  10.2133049242424 11.6052827380952  10.2762784090909 11.5345982142857  C 10.3392518939394 11.4639136904762  10.4138257575758 11.4285714285714  10.5 11.4285714285714  L 11.1363636363636 11.4285714285714  C 11.2225378787879 11.4285714285714  11.2971117424242 11.4639136904762  11.3600852272727 11.5345982142857  Z M 8.8146306818182 8.67745535714287  C 8.87760416666667 8.74813988095236  8.9090909090909 8.83184523809523  8.9090909090909 8.92857142857139  L 8.9090909090909 9.64285714285713  C 8.9090909090909 9.73958333333333  8.87760416666667 9.8232886904762  8.8146306818182 9.89397321428574  C 8.7516571969697 9.96465773809523  8.67708333333333 10  8.5909090909091 10  L 7.95454545454547 10  C 7.8683712121212 10  7.79379734848487 9.96465773809523  7.73082386363637 9.89397321428574  C 7.66785037878786 9.8232886904762  7.63636363636363 9.73958333333333  7.63636363636363 9.64285714285713  L 7.63636363636363 8.92857142857139  C 7.63636363636363 8.83184523809523  7.66785037878786 8.74813988095236  7.73082386363637 8.67745535714287  C 7.79379734848487 8.60677083333333  7.8683712121212 8.57142857142861  7.95454545454547 8.57142857142861  L 8.5909090909091 8.57142857142861  C 8.67708333333333 8.57142857142861  8.7516571969697 8.60677083333333  8.8146306818182 8.67745535714287  Z M 6.26917613636363 5.8203125  C 6.33214962121214 5.89099702380954  6.36363636363637 5.97470238095236  6.36363636363637 6.07142857142861  L 6.36363636363637 6.78571428571426  C 6.36363636363637 6.88244047619046  6.33214962121214 6.96614583333333  6.26917613636363 7.03683035714287  C 6.20620265151513 7.10751488095236  6.1316287878788 7.14285714285713  6.04545454545453 7.14285714285713  L 5.4090909090909 7.14285714285713  C 5.32291666666667 7.14285714285713  5.2483428030303 7.10751488095236  5.18536931818184 7.03683035714287  C 5.12239583333333 6.96614583333333  5.0909090909091 6.88244047619046  5.0909090909091 6.78571428571426  L 5.0909090909091 6.07142857142861  C 5.0909090909091 5.97470238095236  5.12239583333333 5.89099702380954  5.18536931818184 5.8203125  C 5.2483428030303 5.74962797619046  5.32291666666667 5.71428571428574  5.4090909090909 5.71428571428574  L 6.04545454545453 5.71428571428574  C 6.1316287878788 5.71428571428574  6.20620265151513 5.74962797619046  6.26917613636363 5.8203125  Z M 3.7237215909091 2.96316964285713  C 3.78669507575756 3.03385416666667  3.81818181818184 3.11755952380954  3.81818181818184 3.21428571428574  L 3.81818181818184 3.92857142857139  C 3.81818181818184 4.02529761904764  3.78669507575756 4.10900297619046  3.7237215909091 4.1796875  C 3.6607481060606 4.25037202380954  3.58617424242423 4.28571428571426  3.5 4.28571428571426  L 2.86363636363637 4.28571428571426  C 2.77746212121214 4.28571428571426  2.70288825757577 4.25037202380954  2.63991477272726 4.1796875  C 2.5769412878788 4.10900297619046  2.54545454545453 4.02529761904764  2.54545454545453 3.92857142857139  L 2.54545454545453 3.21428571428574  C 2.54545454545453 3.11755952380954  2.5769412878788 3.03385416666667  2.63991477272726 2.96316964285713  C 2.70288825757577 2.89248511904764  2.77746212121214 2.85714285714287  2.86363636363637 2.85714285714287  L 3.5 2.85714285714287  C 3.58617424242423 2.85714285714287  3.6607481060606 2.89248511904764  3.7237215909091 2.96316964285713  Z M 11.3600852272727 8.67745535714287  C 11.4230587121212 8.74813988095236  11.4545454545455 8.83184523809523  11.4545454545455 8.92857142857139  L 11.4545454545455 9.64285714285713  C 11.4545454545455 9.73958333333333  11.4230587121212 9.8232886904762  11.3600852272727 9.89397321428574  C 11.2971117424242 9.96465773809523  11.2225378787879 10  11.1363636363636 10  L 10.5 10  C 10.4138257575758 10  10.3392518939394 9.96465773809523  10.2762784090909 9.89397321428574  C 10.2133049242424 9.8232886904762  10.1818181818182 9.73958333333333  10.1818181818182 9.64285714285713  L 10.1818181818182 8.92857142857139  C 10.1818181818182 8.83184523809523  10.2133049242424 8.74813988095236  10.2762784090909 8.67745535714287  C 10.3392518939394 8.60677083333333  10.4138257575758 8.57142857142861  10.5 8.57142857142861  L 11.1363636363636 8.57142857142861  C 11.2225378787879 8.57142857142861  11.2971117424242 8.60677083333333  11.3600852272727 8.67745535714287  Z M 8.8146306818182 5.8203125  C 8.87760416666667 5.89099702380954  8.9090909090909 5.97470238095236  8.9090909090909 6.07142857142861  L 8.9090909090909 6.78571428571426  C 8.9090909090909 6.88244047619046  8.87760416666667 6.96614583333333  8.8146306818182 7.03683035714287  C 8.7516571969697 7.10751488095236  8.67708333333333 7.14285714285713  8.5909090909091 7.14285714285713  L 7.95454545454547 7.14285714285713  C 7.8683712121212 7.14285714285713  7.79379734848487 7.10751488095236  7.73082386363637 7.03683035714287  C 7.66785037878786 6.96614583333333  7.63636363636363 6.88244047619046  7.63636363636363 6.78571428571426  L 7.63636363636363 6.07142857142861  C 7.63636363636363 5.97470238095236  7.66785037878786 5.89099702380954  7.73082386363637 5.8203125  C 7.79379734848487 5.74962797619046  7.8683712121212 5.71428571428574  7.95454545454547 5.71428571428574  L 8.5909090909091 5.71428571428574  C 8.67708333333333 5.71428571428574  8.7516571969697 5.74962797619046  8.8146306818182 5.8203125  Z M 6.26917613636363 2.96316964285713  C 6.33214962121214 3.03385416666667  6.36363636363637 3.11755952380954  6.36363636363637 3.21428571428574  L 6.36363636363637 3.92857142857139  C 6.36363636363637 4.02529761904764  6.33214962121214 4.10900297619046  6.26917613636363 4.1796875  C 6.20620265151513 4.25037202380954  6.1316287878788 4.28571428571426  6.04545454545453 4.28571428571426  L 5.4090909090909 4.28571428571426  C 5.32291666666667 4.28571428571426  5.2483428030303 4.25037202380954  5.18536931818184 4.1796875  C 5.12239583333333 4.10900297619046  5.0909090909091 4.02529761904764  5.0909090909091 3.92857142857139  L 5.0909090909091 3.21428571428574  C 5.0909090909091 3.11755952380954  5.12239583333333 3.03385416666667  5.18536931818184 2.96316964285713  C 5.2483428030303 2.89248511904764  5.32291666666667 2.85714285714287  5.4090909090909 2.85714285714287  L 6.04545454545453 2.85714285714287  C 6.1316287878788 2.85714285714287  6.20620265151513 2.89248511904764  6.26917613636363 2.96316964285713  Z M 11.3600852272727 5.8203125  C 11.4230587121212 5.89099702380954  11.4545454545455 5.97470238095236  11.4545454545455 6.07142857142861  L 11.4545454545455 6.78571428571426  C 11.4545454545455 6.88244047619046  11.4230587121212 6.96614583333333  11.3600852272727 7.03683035714287  C 11.2971117424242 7.10751488095236  11.2225378787879 7.14285714285713  11.1363636363636 7.14285714285713  L 10.5 7.14285714285713  C 10.4138257575758 7.14285714285713  10.3392518939394 7.10751488095236  10.2762784090909 7.03683035714287  C 10.2133049242424 6.96614583333333  10.1818181818182 6.88244047619046  10.1818181818182 6.78571428571426  L 10.1818181818182 6.07142857142861  C 10.1818181818182 5.97470238095236  10.2133049242424 5.89099702380954  10.2762784090909 5.8203125  C 10.3392518939394 5.74962797619046  10.4138257575758 5.71428571428574  10.5 5.71428571428574  L 11.1363636363636 5.71428571428574  C 11.2225378787879 5.71428571428574  11.2971117424242 5.74962797619046  11.3600852272727 5.8203125  Z M 8.8146306818182 2.96316964285713  C 8.87760416666667 3.03385416666667  8.9090909090909 3.11755952380954  8.9090909090909 3.21428571428574  L 8.9090909090909 3.92857142857139  C 8.9090909090909 4.02529761904764  8.87760416666667 4.10900297619046  8.8146306818182 4.1796875  C 8.7516571969697 4.25037202380954  8.67708333333333 4.28571428571426  8.5909090909091 4.28571428571426  L 7.95454545454547 4.28571428571426  C 7.8683712121212 4.28571428571426  7.79379734848487 4.25037202380954  7.73082386363637 4.1796875  C 7.66785037878786 4.10900297619046  7.63636363636363 4.02529761904764  7.63636363636363 3.92857142857139  L 7.63636363636363 3.21428571428574  C 7.63636363636363 3.11755952380954  7.66785037878786 3.03385416666667  7.73082386363637 2.96316964285713  C 7.79379734848487 2.89248511904764  7.8683712121212 2.85714285714287  7.95454545454547 2.85714285714287  L 8.5909090909091 2.85714285714287  C 8.67708333333333 2.85714285714287  8.7516571969697 2.89248511904764  8.8146306818182 2.96316964285713  Z M 11.3600852272727 2.96316964285713  C 11.4230587121212 3.03385416666667  11.4545454545455 3.11755952380954  11.4545454545455 3.21428571428574  L 11.4545454545455 3.92857142857139  C 11.4545454545455 4.02529761904764  11.4230587121212 4.10900297619046  11.3600852272727 4.1796875  C 11.2971117424242 4.25037202380954  11.2225378787879 4.28571428571426  11.1363636363636 4.28571428571426  L 10.5 4.28571428571426  C 10.4138257575758 4.28571428571426  10.3392518939394 4.25037202380954  10.2762784090909 4.1796875  C 10.2133049242424 4.10900297619046  10.1818181818182 4.02529761904764  10.1818181818182 3.92857142857139  L 10.1818181818182 3.21428571428574  C 10.1818181818182 3.11755952380954  10.2133049242424 3.03385416666667  10.2762784090909 2.96316964285713  C 10.3392518939394 2.89248511904764  10.4138257575758 2.85714285714287  10.5 2.85714285714287  L 11.1363636363636 2.85714285714287  C 11.2225378787879 2.85714285714287  11.2971117424242 2.89248511904764  11.3600852272727 2.96316964285713  Z M 8.9090909090909 16.0714285714286  L 8.9090909090909 18.5714285714286  L 12.7272727272727 18.5714285714286  L 12.7272727272727 1.42857142857139  L 1.27272727272726 1.42857142857139  L 1.27272727272726 18.5714285714286  L 5.0909090909091 18.5714285714286  L 5.0909090909091 16.0714285714286  C 5.0909090909091 15.9747023809524  5.12239583333333 15.8909970238095  5.18536931818184 15.8203125  C 5.2483428030303 15.7496279761905  5.32291666666667 15.7142857142857  5.4090909090909 15.7142857142857  L 8.5909090909091 15.7142857142857  C 8.67708333333333 15.7142857142857  8.7516571969697 15.7496279761905  8.8146306818182 15.8203125  C 8.87760416666667 15.8909970238095  8.9090909090909 15.9747023809524  8.9090909090909 16.0714285714286  Z M 13.8110795454545 0.212053571428612  C 13.9370265151515 0.353422619047639  14 0.520833333333333  14 0.714285714285741  L 14 19.2857142857143  C 14 19.4791666666667  13.9370265151515 19.6465773809524  13.8110795454545 19.7879464285714  C 13.6851325757576 19.9293154761905  13.5359848484849 20  13.3636363636364 20  L 0.636363636363632 20  C 0.464015151515127 20  0.314867424242436 19.9293154761905  0.188920454545471 19.7879464285714  C 0.062973484848505 19.6465773809524  0 19.4791666666667  0 19.2857142857143  L 0 0.714285714285741  C 0 0.520833333333333  0.062973484848505 0.353422619047639  0.188920454545471 0.212053571428612  C 0.314867424242436 0.0706845238095373  0.464015151515127 0  0.636363636363632 0  L 13.3636363636364 0  C 13.5359848484849 0  13.6851325757576 0.0706845238095373  13.8110795454545 0.212053571428612  Z " fill-rule="nonzero" fill="#ffffff" stroke="none" transform="matrix(1 0 0 1 48 177 )" />
  </g>
</svg>