<?xml version="1.0" encoding="utf-8"?>
<svg version="1.1" xmlns:xlink="http://www.w3.org/1999/xlink" width="21px" height="19px" xmlns="http://www.w3.org/2000/svg">
  <g transform="matrix(1 0 0 1 -44 -370 )">
    <path d="M 19.5 1.58127438231471  L 19.5 6.32509752925879  C 19.9140625 6.32509752925879  20.267578125 6.47951885565672  20.560546875 6.78836150845254  C 20.853515625 7.09720416124836  21 7.46987429562202  21 7.9063719115735  C 21 8.34286952752492  20.853515625 8.71553966189859  20.560546875 9.02438231469441  C 20.267578125 9.33322496749022  19.9140625 9.48764629388816  19.5 9.48764629388816  L 19.5 14.2314694408322  C 19.5 14.6597312527091  19.3515625 15.0303424360641  19.0546875 15.3433029908973  C 18.7578125 15.6562635457304  18.40625 15.8127438231469  18 15.8127438231469  C 14.7421875 12.9549198092762  11.5703125 11.3901170351105  8.484375 11.1183355006502  C 8.03125 11.2748157780668  7.67578125 11.5465973125271  7.41796875 11.9336801040312  C 7.16015624999999 12.3207628955353  7.03906250000001 12.7346120502817  7.0546875 13.1752275682705  C 7.07031249999999 13.6158430862592  7.2265625 13.9967490247074  7.52343750000001 14.317945383615  C 7.36718750000001 14.5897269180754  7.27734375000001 14.8594495015172  7.25390625 15.1271131339402  C 7.23046875000001 15.3947767663633  7.25390625 15.6336150845254  7.32421874999999 15.8436280884265  C 7.39453125000001 16.0536410923277  7.525390625 16.280125704378  7.716796875 16.5230819245774  C 7.908203125 16.7660381447767  8.09570312499999 16.9719332466407  8.279296875 17.1407672301691  C 8.462890625 17.3096012136974  8.703125 17.51755526658  9.00000000000001 17.7646293888166  C 8.77343750000001 18.2423060251409  8.33789062500001 18.5840918942349  7.69335937499999 18.7899869960989  C 7.048828125 18.9958820979627  6.390625 19.0432379713914  5.71875 18.932054616385  C 5.046875 18.8208712613784  4.53125 18.5923276983095  4.17187500000001 18.2464239271782  C 4.1171875 18.0570004334634  4.001953125 17.6966840052016  3.826171875 17.1654746423928  C 3.650390625 16.6342652795838  3.52539062500001 16.2451235370611  3.451171875 15.9980494148244  C 3.376953125 15.7509752925878  3.287109375 15.3844820112701  3.181640625 14.8985695708712  C 3.076171875 14.4126571304725  3.017578125 13.9967490247074  3.005859375 13.650845253576  C 2.994140625 13.3049414824447  3.0078125 12.8993281317729  3.046875 12.4340052015604  C 3.0859375 11.9686822713481  3.171875 11.5136540962289  3.3046875 11.0689206762028  L 1.875 11.0689206762028  C 1.359375 11.0689206762028  0.917968750000005 10.8753792804508  0.550781249999998 10.4882964889467  C 0.183593750000003 10.1012136974426  0 9.63589076723017  0 9.09232769830949  L 0 6.72041612483745  C 0 6.17685305591678  0.183593750000003 5.71153012570439  0.550781249999998 5.32444733420028  C 0.917968750000005 4.93736454269613  1.359375 4.74382314694408  1.875 4.74382314694408  L 7.5 4.74382314694408  C 10.8984375 4.74382314694408  14.3984375 3.16254876462937  18 0  C 18.40625 0  18.7578125 0.156480277416573  19.0546875 0.469440832249671  C 19.3515625 0.78240138708277  19.5 1.1530125704378  19.5 1.58127438231471  Z M 9.00000000000001 9.57412223667101  C 11.9453125 9.92002600780235  14.9453125 11.3242306025141  18 13.7867360208062  L 18 2.00130039011701  C 14.921875 4.48851322063286  11.921875 5.90095361941916  9.00000000000001 6.23862158647594  L 9.00000000000001 9.57412223667101  Z " fill-rule="nonzero" fill="#ffffff" stroke="none" transform="matrix(1 0 0 1 44 370 )" />
  </g>
</svg>