<?xml version="1.0" encoding="utf-8"?>
<svg version="1.1" xmlns:xlink="http://www.w3.org/1999/xlink" width="19px" height="19px" xmlns="http://www.w3.org/2000/svg">
  <g transform="matrix(1 0 0 1 -45 -274 )">
    <path d="M 8.12447916666668 11.4474730266894  C 8.61927083333332 10.90800681431  8.86666666666668 10.257050918039  8.86666666666668 9.49460533787623  C 8.86666666666668 8.73215975771342  8.61927083333332 8.08120386144238  8.12447916666668 7.54173764906304  C 7.6296875 7.00227143668375  7.03263888888889 6.73253833049403  6.33333333333336 6.73253833049403  C 5.63402777777779 6.73253833049403  5.03697916666668 7.00227143668375  4.5421875 7.54173764906304  C 4.04739583333332 8.08120386144238  3.8 8.73215975771342  3.8 9.49460533787623  C 3.8 10.257050918039  4.04739583333332 10.90800681431  4.5421875 11.4474730266894  C 5.03697916666668 11.9869392390687  5.63402777777779 12.2566723452584  6.33333333333336 12.2566723452584  C 7.03263888888889 12.2566723452584  7.6296875 11.9869392390687  8.12447916666668 11.4474730266894  Z M 16.0955729166667 15.9951731970471  C 16.34296875 15.7254400908575  16.4666666666667 15.3999621427219  16.4666666666667 15.0187393526406  C 16.4666666666667 14.6447094453909  16.3413194444444 14.3210297179633  16.090625 14.0477001703578  C 15.8399305555555 13.7743706227522  15.5430555555555 13.6377058489495  15.2 13.6377058489495  C 14.8569444444444 13.6377058489495  14.5600694444444 13.7743706227522  14.309375 14.0477001703578  C 14.0586805555555 14.3210297179633  13.9333333333333 14.6447094453909  13.9333333333333 15.0187393526406  C 13.9333333333333 15.3999621427219  14.05703125 15.7254400908575  14.3044270833333 15.9951731970471  C 14.5518229166667 16.2649063032368  14.8503472222222 16.3997728563316  15.2 16.3997728563316  C 15.5496527777778 16.3997728563316  15.8481770833333 16.2649063032368  16.0955729166667 15.9951731970471  Z M 16.0955729166667 4.94690516751846  C 16.34296875 4.67717206132879  16.4666666666667 4.35169411319326  16.4666666666667 3.97047132311188  C 16.4666666666667 3.59644141586217  16.3413194444444 3.27276168843459  16.090625 2.99943214082909  C 15.8399305555555 2.72610259322349  15.5430555555555 2.58943781942081  15.2 2.58943781942081  C 14.8569444444444 2.58943781942081  14.5600694444444 2.72610259322349  14.309375 2.99943214082909  C 14.0586805555555 3.27276168843459  13.9333333333333 3.59644141586217  13.9333333333333 3.97047132311188  C 13.9333333333333 4.35169411319326  14.05703125 4.67717206132879  14.3044270833333 4.94690516751846  C 14.5518229166667 5.21663827370812  14.8503472222222 5.35150482680296  15.2 5.35150482680296  C 15.5496527777778 5.35150482680296  15.8481770833333 5.21663827370812  16.0955729166667 4.94690516751846  Z M 12.5973958333333 8.3023850085179  C 12.6435763888889 8.36352451258753  12.6666666666666 8.43365512019686  12.6666666666666 8.51277683134584  L 12.6666666666666 10.5088018171493  C 12.6666666666666 10.5807306454666  12.6435763888889 10.6508612530759  12.5973958333333 10.7191936399773  C 12.5512152777778 10.7875260268787  12.4984375 10.8252886617452  12.4390625 10.8324815445769  L 10.9052083333333 11.091425326519  C 10.8326388888888 11.3431762256293  10.7270833333333 11.6165057732349  10.5885416666666 11.9114139693356  C 10.8128472222222 12.2566723452584  11.1097222222222 12.6702631080825  11.4791666666666 13.1521862578081  C 11.5253472222222 13.2313079689571  11.5484375 13.3032367972743  11.5484375 13.3679727427598  C 11.5484375 13.4542873367405  11.5253472222222 13.5226197236419  11.4791666666666 13.5729699034639  C 11.3274305555556 13.7887563884156  11.0552951388888 14.1106378951353  10.6627604166666 14.5386144236229  C 10.2702256944444 14.9665909521105  10.0112847222222 15.1805792163544  9.8859375 15.1805792163544  C 9.81336805555553 15.1805792163544  9.74409722222221 15.1554041264433  9.678125 15.1050539466212  L 8.54010416666668 14.1340147643385  C 8.29600694444447 14.2706795381412  8.04201388888889 14.3821692220329  7.778125 14.4684838160136  C 7.70555555555557 15.2453151618399  7.6296875 15.8027635812985  7.55052083333332 16.1408290743895  C 7.50434027777779 16.3134582623509  7.40538194444447 16.3997728563316  7.25364583333332 16.3997728563316  L 5.41302083333332 16.3997728563316  C 5.34045138888889 16.3997728563316  5.27447916666668 16.3727995457126  5.21510416666668 16.3188529244747  C 5.15572916666668 16.2649063032368  5.12274305555553 16.2019685784592  5.11614583333332 16.130039750142  L 4.88854166666668 14.4792731402612  C 4.66423611111115 14.407344311944  4.41684027777779 14.2958546280523  4.14635416666668 14.144804088586  L 2.97864583333332 15.1050539466212  C 2.93246527777779 15.1554041264433  2.86649305555558 15.1805792163544  2.78072916666668 15.1805792163544  C 2.70815972222221 15.1805792163544  2.63888888888889 15.1518076850275  2.57291666666664 15.0942646223736  C 1.62291666666668 14.1376112057543  1.14791666666668 13.5621805792163  1.14791666666668 13.3679727427598  C 1.14791666666668 13.3032367972743  1.17100694444447 13.2349044103729  1.2171875 13.1629755820557  C 1.28315972222221 13.0622752224115  1.41840277777779 12.8716638273708  1.62291666666668 12.5911413969336  C 1.82743055555557 12.3106189664963  1.98246527777779 12.0912360401288  2.08802083333332 11.9329926178308  C 1.93628472222221 11.6165057732349  1.82083333333332 11.3215975771342  1.74166666666668 11.0482680295287  L 0.2375 10.7893242475866  C 0.171527777777787 10.7821313647549  0.115451388888894 10.7479651713042  0.0692708333333189 10.6868256672345  C 0.0230902777777874 10.6256861631648  0 10.5555555555556  0 10.4764338444066  L 0 8.48040885860306  C 0 8.40848003028579  0.0230902777777874 8.33834942267651  0.0692708333333189 8.27001703577513  C 0.115451388888894 8.20168464887374  0.168229166666681 8.16392201400719  0.227604166666681 8.15672913117548  L 1.76145833333332 7.8977853492334  C 1.83402777777779 7.64603445012304  1.93958333333332 7.37270490251749  2.078125 7.0777967064168  C 1.85381944444447 6.73253833049403  1.55694444444447 6.31894756766988  1.1875 5.83702441794433  C 1.14131944444443 5.75790270679535  1.11822916666668 5.68597387847813  1.11822916666668 5.62123793299263  C 1.11822916666668 5.53492333901194  1.14131944444443 5.46299451069472  1.1875 5.40545144804087  C 1.33263888888889 5.18966496308917  1.603125 4.86958167707742  1.99895833333332 4.44520159000567  C 2.39479166666668 4.02082150293392  2.65538194444447 3.80863145939805  2.78072916666668 3.80863145939805  C 2.85329861111111 3.80863145939805  2.92256944444443 3.83380654930906  2.98854166666668 3.88415672913119  L 4.1265625 4.85519591141399  C 4.35086805555557 4.72572402044293  4.60486111111111 4.61063789513534  4.88854166666668 4.50993753549118  C 4.96111111111115 3.73310618966499  5.03697916666668 3.17925421162218  5.11614583333332 2.84838160136289  C 5.16232638888889 2.67575241340146  5.26128472222221 2.58943781942081  5.41302083333332 2.58943781942081  L 7.25364583333332 2.58943781942081  C 7.32621527777779 2.58943781942081  7.3921875 2.61641113003972  7.4515625 2.67035775127768  C 7.5109375 2.7243043725156  7.54392361111111 2.78724209729321  7.55052083333332 2.85917092561048  L 7.778125 4.50993753549118  C 8.00243055555558 4.58186636380844  8.24982638888885 4.69335604770015  8.5203125 4.8444065871664  L 9.68802083333332 3.88415672913119  C 9.74079861111111 3.83380654930906  9.80677083333332 3.80863145939805  9.8859375 3.80863145939805  C 9.95850694444442 3.80863145939805  10.0277777777778 3.83740299072494  10.09375 3.89494605337878  C 11.04375 4.85159946999811  11.51875 5.42703009653606  11.51875 5.62123793299263  C 11.51875 5.67878099564642  11.4956597222222 5.74711338254781  11.4494791666667 5.82623509369674  C 11.3703125 5.94132121900438  11.2317708333334 6.1355290554609  11.0338541666666 6.40885860306645  C 10.8359375 6.68218815067195  10.6875 6.8979746356237  10.5885416666666 7.05621805792166  C 10.7402777777778 7.40147643384443  10.8524305555555 7.69638462994512  10.925 7.94094264622377  L 12.4291666666667 8.18909710391821  C 12.4951388888889 8.20348286958168  12.5512152777778 8.24124550444823  12.5973958333333 8.3023850085179  Z M 17.5255208333333 13.9290176036343  C 18.5085069444444 14.0369108461102  19 14.1484005300019  19 14.2634866553095  L 19 15.7739920499716  C 19 15.8890781752792  18.5085069444444 16.0005678591709  17.5255208333333 16.1084611016468  C 17.4463541666667 16.3026689381034  17.3473958333333 16.4896838917282  17.2286458333333 16.6695059625213  C 17.5651041666666 17.4823017225062  17.7333333333333 17.9786106378951  17.7333333333333 18.1584327086883  C 17.7333333333333 18.1872042400151  17.7201388888889 18.2123793299262  17.69375 18.2339579784214  C 16.8888888888889 18.7446526594738  16.4798611111111 19  16.4666666666667 19  C 16.4138888888889 19  16.2621527777778 18.8309672534544  16.0114583333333 18.4929017603634  C 15.7607638888889 18.1548362672724  15.5892361111112 17.9102782509937  15.496875 17.7592277115275  C 15.3649305555556 17.773613477191  15.2659722222222 17.7808063600227  15.2 17.7808063600227  C 15.1340277777778 17.7808063600227  15.0350694444445 17.773613477191  14.903125 17.7592277115275  C 14.8107638888889 17.9102782509937  14.6392361111111 18.1548362672724  14.3885416666667 18.4929017603634  C 14.1378472222222 18.8309672534544  13.9861111111111 19  13.9333333333333 19  C 13.9201388888889 19  13.5111111111112 18.7446526594738  12.70625 18.2339579784214  C 12.6798611111112 18.2123793299262  12.6666666666666 18.1872042400151  12.6666666666666 18.1584327086883  C 12.6666666666666 17.9786106378951  12.8348958333333 17.4823017225062  13.1713541666667 16.6695059625213  C 13.0526041666667 16.4896838917282  12.9536458333333 16.3026689381034  12.8744791666667 16.1084611016468  C 11.8914930555555 16.0005678591709  11.4 15.8890781752792  11.4 15.7739920499716  L 11.4 14.2634866553095  C 11.4 14.1484005300019  11.8914930555555 14.0369108461102  12.8744791666667 13.9290176036343  C 12.9602430555556 13.7204240015143  13.0592013888888 13.5334090478895  13.1713541666667 13.3679727427598  C 12.8348958333333 12.5551769827749  12.6666666666666 12.058868067386  12.6666666666666 11.8790459965928  C 12.6666666666666 11.850274465266  12.6798611111112 11.8250993753549  12.70625 11.8035207268597  C 12.7326388888889 11.7891349611963  12.8480902777778 11.717206132879  13.0526041666667 11.587734241908  C 13.2571180555556 11.458262350937  13.4517361111111 11.3359833427976  13.6364583333333 11.2208972174901  C 13.8211805555555 11.1058110921824  13.9201388888889 11.0482680295287  13.9333333333333 11.0482680295287  C 13.9861111111111 11.0482680295287  14.1378472222222 11.2155025553663  14.3885416666667 11.5499716070414  C 14.6392361111111 11.8844406587166  14.8107638888889 12.1272004542874  14.903125 12.2782509937536  C 15.0350694444445 12.2638652280901  15.1340277777778 12.2566723452584  15.2 12.2566723452584  C 15.2659722222222 12.2566723452584  15.3649305555556 12.2638652280901  15.496875 12.2782509937536  C 15.8333333333334 11.7675563127011  16.1368055555556 11.3647548741246  16.4072916666667 11.0698466780238  L 16.4666666666667 11.0482680295287  C 16.4930555555556 11.0482680295287  16.9020833333333 11.300018928639  17.69375 11.8035207268597  C 17.7201388888889 11.8250993753549  17.7333333333333 11.850274465266  17.7333333333333 11.8790459965928  C 17.7333333333333 12.058868067386  17.5651041666666 12.5551769827749  17.2286458333333 13.3679727427598  C 17.3407986111111 13.5334090478895  17.4397569444444 13.7204240015143  17.5255208333333 13.9290176036343  Z M 17.5255208333333 2.88074957410562  C 18.5085069444444 2.98864281658149  19 3.1001325004732  19 3.21521862578084  L 19 4.72572402044293  C 19 4.84081014575052  18.5085069444444 4.95229982964223  17.5255208333333 5.06019307211815  C 17.4463541666667 5.25440090857467  17.3473958333333 5.44141586219953  17.2286458333333 5.62123793299263  C 17.5651041666666 6.43403369297747  17.7333333333333 6.93034260836643  17.7333333333333 7.11016467915958  C 17.7333333333333 7.13893621048643  17.7201388888889 7.16411130039749  17.69375 7.18568994889268  C 16.8888888888889 7.69638462994512  16.4798611111111 7.95173197047131  16.4666666666667 7.95173197047131  C 16.4138888888889 7.95173197047131  16.2621527777778 7.78269922392581  16.0114583333333 7.44463373083475  C 15.7607638888889 7.1065682377437  15.5892361111112 6.86201022146505  15.496875 6.71095968199889  C 15.3649305555556 6.72534544766232  15.2659722222222 6.73253833049403  15.2 6.73253833049403  C 15.1340277777778 6.73253833049403  15.0350694444445 6.72534544766232  14.903125 6.71095968199889  C 14.8107638888889 6.86201022146505  14.6392361111111 7.1065682377437  14.3885416666667 7.44463373083475  C 14.1378472222222 7.78269922392581  13.9861111111111 7.95173197047131  13.9333333333333 7.95173197047131  C 13.9201388888889 7.95173197047131  13.5111111111112 7.69638462994512  12.70625 7.18568994889268  C 12.6798611111112 7.16411130039749  12.6666666666666 7.13893621048643  12.6666666666666 7.11016467915958  C 12.6666666666666 6.93034260836643  12.8348958333333 6.43403369297747  13.1713541666667 5.62123793299263  C 13.0526041666667 5.44141586219953  12.9536458333333 5.25440090857467  12.8744791666667 5.06019307211815  C 11.8914930555555 4.95229982964223  11.4 4.84081014575052  11.4 4.72572402044293  L 11.4 3.21521862578084  C 11.4 3.1001325004732  11.8914930555555 2.98864281658149  12.8744791666667 2.88074957410562  C 12.9602430555556 2.67215597198558  13.0592013888888 2.48514101836077  13.1713541666667 2.31970471323109  C 12.8348958333333 1.50690895324626  12.6666666666666 1.01060003785729  12.6666666666666 0.830777967064191  C 12.6666666666666 0.802006435737294  12.6798611111112 0.776831345826276  12.70625 0.755252697331044  C 12.7326388888889 0.740866931667572  12.8480902777778 0.668938103350352  13.0526041666667 0.539466212379338  C 13.2571180555556 0.409994321408276  13.4517361111111 0.287715313268927  13.6364583333333 0.172629187961384  C 13.8211805555555 0.0575430626537947  13.9201388888889 0  13.9333333333333 0  C 13.9861111111111 0  14.1378472222222 0.167234525837612  14.3885416666667 0.501703577512741  C 14.6392361111111 0.836172629187964  14.8107638888889 1.07893242475868  14.903125 1.22998296422487  C 15.0350694444445 1.21559719856145  15.1340277777778 1.20840431572969  15.2 1.20840431572969  C 15.2659722222222 1.20840431572969  15.3649305555556 1.21559719856145  15.496875 1.22998296422487  C 15.8333333333334 0.719288283172434  16.1368055555556 0.316486844595871  16.4072916666667 0.0215786484951378  L 16.4666666666667 0  C 16.4930555555556 0  16.9020833333333 0.251750899110364  17.69375 0.755252697331044  C 17.7201388888889 0.776831345826276  17.7333333333333 0.802006435737294  17.7333333333333 0.830777967064191  C 17.7333333333333 1.01060003785729  17.5651041666666 1.50690895324626  17.2286458333333 2.31970471323109  C 17.3407986111111 2.48514101836077  17.4397569444444 2.67215597198558  17.5255208333333 2.88074957410562  Z " fill-rule="nonzero" fill="#ffffff" stroke="none" transform="matrix(1 0 0 1 45 274 )" />
  </g>
</svg>