<?xml version="1.0" encoding="utf-8"?>
<svg version="1.1" xmlns:xlink="http://www.w3.org/1999/xlink" width="14px" height="12px" xmlns="http://www.w3.org/2000/svg">
  <g transform="matrix(1 0 0 1 -498 -31 )">
    <path d="M 6.30168269230768 1.02953586497895  C 6.40825320512823 1.13642756680738  6.46153846153845 1.26300984528839  6.46153846153845 1.409282700422  L 6.4615384615384 10.590717299578  C 6.46153846153845 10.7369901547116  6.40825320512818 10.8635724331927  6.30168269230768 10.9704641350211  C 6.19511217948713 11.0773558368495  6.06891025641022 11.1308016877637  5.92307692307685 11.1308016877637  C 5.77724358974353 11.1308016877637  5.65104166666663 11.0773558368495  5.54447115384613 10.9704641350211  L 2.74278846153851 8.1603375527426  L 0.53846153846149 8.1603375527426  C 0.39262820512829 8.1603375527426  0.266426282051327 8.10689170182841  0.159855769230774 8.00000000000001  C 0.0532852564102768 7.8931082981716  0 7.76652601969057  0 7.62025316455698  L 0 4.37974683544303  C 0 4.23347398030944  0.0532852564102768 4.10689170182841  0.159855769230774 4  C 0.266426282051327 3.89310829817161  0.392628205128233 3.83966244725742  0.538461538461434 3.83966244725742  L 2.74278846153851 3.83966244725742  L 5.54447115384608 1.02953586497895  C 5.65104166666663 0.922644163150551  5.77724358974359 0.869198312236328  5.92307692307685 0.869198312236328  C 6.06891025641022 0.869198312236328  6.19511217948713 0.922644163150537  6.30168269230768 1.02953586497895  Z M 9.33473557692304 4.80168776371311  C 9.5731169871795 5.17299578059074  9.69230769230768 5.5724331926864  9.69230769230774 6.00000000000001  C 9.69230769230768 6.42756680731365  9.57311698717945 6.82559774964841  9.33473557692304 7.19409282700425  C 9.09635416666663 7.56258790436005  8.78084935897425 7.8255977496484  8.38822115384608 7.98312236286922  C 8.33213141025635 8.01125175808723  8.26201923076923 8.02531645569623  8.17788461538458 8.02531645569621  C 8.03205128205121 8.02531645569623  7.90584935897431 7.97327707454291  7.79927884615381 7.8691983122363  C 7.69270833333326 7.76511954992968  7.63942307692309 7.63713080168777  7.63942307692309 7.48523206751054  C 7.63942307692309 7.36708860759494  7.67307692307691 7.26722925457103  7.74038461538453 7.18565400843885  C 7.80769230769226 7.10407876230661  7.8890224358974 7.03375527426162  7.98437499999994 6.9746835443038  C 8.07972756410254 6.915611814346  8.17508012820508 6.85091420534459  8.27043269230768 6.78059071729962  C 8.36578525641022 6.71026722925457  8.44711538461536 6.60900140646977  8.51442307692304 6.47679324894517  C 8.58173076923066 6.34458509142056  8.61538461538458 6.18565400843886  8.61538461538458 6.00000000000001  C 8.61538461538458 5.81434599156123  8.58173076923072 5.65541490857951  8.51442307692309 5.52320675105488  C 8.44711538461536 5.39099859353027  8.36578525641022 5.28973277074546  8.27043269230768 5.21940928270044  C 8.17508012820508 5.14908579465544  8.07972756410254 5.08438818565404  7.98437499999994 5.02531645569622  C 7.8890224358974 4.96624472573842  7.80769230769221 4.89592123769343  7.74038461538458 4.81434599156118  C 7.67307692307685 4.732770745429  7.63942307692309 4.63291139240506  7.63942307692309 4.5147679324895  C 7.63942307692309 4.36286919831226  7.69270833333326 4.23488045007033  7.79927884615387 4.13080168776375  C 7.90584935897425 4.02672292545714  8.03205128205127 3.97468354430383  8.17788461538458 3.97468354430382  C 8.26201923076923 3.97468354430383  8.33213141025635 3.98874824191281  8.38822115384608 4.01687763713083  C 8.78084935897425 4.16877637130802  9.09635416666663 4.4303797468355  9.33473557692304 4.80168776371311  Z M 11.1310096153845 3.6160337552743  C 11.6077724358974 4.34458509142057  11.8461538461538 5.13924050632913  11.8461538461538 6.00000000000001  C 11.8461538461538 6.86075949367093  11.6077724358974 7.6554149085795  11.1310096153845 8.38396624472576  C 10.6542467948717 9.11251758087202  10.0232371794871 9.64275668073137  9.23798076923072 9.9746835443038  C 9.16506410256409 10.0028129395218  9.09495192307679 10.0168776371308  9.02764423076923 10.0168776371308  C 8.87620192307679 10.0168776371308  8.74719551282044 9.96343178621661  8.64062499999994 9.8565400843882  C 8.5340544871795 9.74964838255977  8.48076923076917 9.62306610407878  8.48076923076923 9.47679324894515  C 8.48076923076917 9.25738396624475  8.59014423076923 9.09142053445851  8.80889423076917 8.97890295358652  C 9.12299679487171 8.81575246132208  9.33613782051282 8.69198312236288  9.44831730769226 8.60759493670888  C 9.86338141025635 8.30379746835443  10.1872996794871 7.92264416315052  10.4200721153846 7.46413502109704  C 10.652844551282 7.00562587904363  10.7692307692307 6.51758087201127  10.7692307692307 6.00000000000003  C 10.7692307692307 5.48241912798878  10.652844551282 4.99437412095641  10.4200721153845 4.53586497890301  C 10.1872996794871 4.07735583684953  9.86338141025647 3.6962025316456  9.44831730769221 3.39240506329117  C 9.33613782051282 3.30801687763717  9.12299679487177 3.18424753867794  8.80889423076923 3.02109704641353  C 8.59014423076923 2.90857946554154  8.48076923076917 2.7426160337553  8.48076923076917 2.5232067510549  C 8.48076923076923 2.37693389592128  8.5340544871795 2.25035161744027  8.64062499999994 2.14345991561184  C 8.74719551282044 2.03656821378343  8.8733974358974 1.98312236286923  9.01923076923072 1.98312236286923  C 9.09214743589735 1.98312236286924  9.16506410256409 1.99718706047825  9.23798076923072 2.02531645569623  C 10.0232371794871 2.35724331926866  10.6542467948717 2.88748241912803  11.1310096153845 3.6160337552743  Z M 12.9314903846152 2.43459915611817  C 13.6438301282051 3.51758087201128  14 4.70604781997191  14 6.00000000000003  C 14 7.29395218002814  13.6438301282051 8.48241912798876  12.9314903846153 9.56540084388188  C 12.2191506410256 10.648382559775  11.2712339743589 11.4458509142054  10.0877403846154 11.957805907173  C 10.0148237179486 11.985935302391  9.94190705128199 12  9.8689903846153 12  C 9.72315705128199 12  9.59695512820508 11.9465541490858  9.49038461538458 11.8396624472574  C 9.38381410256409 11.732770745429  9.33052884615381 11.606188466948  9.33052884615381 11.4599156118144  C 9.33052884615381 11.2573839662447  9.43990384615381 11.0914205344585  9.65865384615381 10.9620253164557  C 9.69791666666663 10.9395218002813  9.76101762820502 10.9099859353024  9.84795673076917 10.873417721519  C 9.93489583333326 10.8368495077356  9.99799679487171 10.8073136427567  10.0372596153846 10.7848101265823  C 10.2952724358974 10.6441631504923  10.5252403846154 10.5007032348805  10.7271634615385 10.3544303797469  C 11.4170673076922 9.84247538677918  11.9555288461538 9.20393811533052  12.342548076923 8.43881856540087  C 12.7295673076922 7.67369901547116  12.9230769230768 6.86075949367093  12.9230769230769 6.00000000000001  C 12.9230769230769 5.13924050632913  12.7295673076922 4.32630098452888  12.342548076923 3.56118143459918  C 11.9555288461538 2.79606188466952  11.4170673076922 2.15752461322086  10.7271634615385 1.64556962025319  C 10.5252403846153 1.49929676511958  10.2952724358973 1.35583684950779  10.0372596153845 1.21518987341777  C 9.99799679487171 1.19268635724335  9.93489583333326 1.16315049226445  9.84795673076923 1.12658227848103  C 9.76101762820508 1.09001406469766  9.69791666666663 1.06047819971872  9.65865384615381 1.03797468354433  C 9.43990384615381 0.908579465541521  9.33052884615381 0.742616033755318  9.33052884615381 0.540084388185697  C 9.33052884615381 0.39381153305208  9.38381410256409 0.267229254571077  9.49038461538453 0.160337552742668  C 9.59695512820508 0.0534458509142652  9.72315705128199 0  9.8689903846153 0  C 9.94190705128199 0  10.0148237179487 0.0140646976090437  10.0877403846154 0.0421940928270459  C 11.2712339743589 0.554149085794684  12.2191506410256 1.35161744022507  12.9314903846152 2.43459915611817  Z " fill-rule="nonzero" fill="#ffffff" stroke="none" transform="matrix(1 0 0 1 498 31 )" />
  </g>
</svg>