<?xml version="1.0" encoding="utf-8"?>
<svg version="1.1" xmlns:xlink="http://www.w3.org/1999/xlink" width="15px" height="13px" xmlns="http://www.w3.org/2000/svg">
  <g transform="matrix(1 0 0 1 -516 -30 )">
    <path d="M 2.06752232142856 10.9095052083333  C 2.11774553571433 10.9602864583333  2.14285714285711 11.0251736111111  2.14285714285711 11.1041666666667  L 2.14285714285711 12.7291666666667  C 2.14285714285711 12.8081597222222  2.11774553571433 12.873046875  2.06752232142856 12.923828125  C 2.01729910714289 12.974609375  1.953125 13  1.875 13  L 0.26785714285711 13  C 0.18973214285711 13  0.125558035714334 12.974609375  0.0753348214285552 12.923828125  C 0.0251116071428896 12.873046875  0 12.8081597222222  0 12.7291666666667  L 0 11.1041666666667  C 0 11.0251736111111  0.0251116071428896 10.9602864583333  0.0753348214285552 10.9095052083333  C 0.125558035714334 10.8587239583333  0.18973214285711 10.8333333333333  0.26785714285711 10.8333333333333  L 1.875 10.8333333333333  C 1.953125 10.8333333333333  2.01729910714289 10.8587239583333  2.06752232142856 10.9095052083333  Z M 5.28180803571433 9.826171875  C 5.33203125 9.876953125  5.35714285714289 9.94184027777777  5.35714285714289 10.0208333333333  L 5.35714285714289 12.7291666666667  C 5.35714285714289 12.8081597222222  5.33203125 12.873046875  5.28180803571433 12.923828125  C 5.23158482142856 12.974609375  5.16741071428567 13  5.08928571428567 13  L 3.48214285714289 13  C 3.40401785714289 13  3.33984375 12.974609375  3.28962053571433 12.923828125  C 3.23939732142856 12.873046875  3.21428571428567 12.8081597222222  3.21428571428567 12.7291666666667  L 3.21428571428567 10.0208333333333  C 3.21428571428567 9.94184027777777  3.23939732142856 9.876953125  3.28962053571433 9.826171875  C 3.33984375 9.775390625  3.40401785714289 9.75  3.48214285714289 9.75  L 5.08928571428567 9.75  C 5.16741071428567 9.75  5.23158482142856 9.775390625  5.28180803571433 9.826171875  Z M 8.49609375 7.65950520833333  C 8.54631696428567 7.71028645833333  8.57142857142856 7.77517361111111  8.57142857142856 7.85416666666667  L 8.57142857142856 12.7291666666667  C 8.57142857142856 12.8081597222222  8.54631696428567 12.873046875  8.49609375 12.923828125  C 8.44587053571433 12.974609375  8.38169642857144 13  8.30357142857144 13  L 6.69642857142856 13  C 6.61830357142856 13  6.55412946428567 12.974609375  6.50390625 12.923828125  C 6.45368303571433 12.873046875  6.42857142857144 12.8081597222222  6.42857142857144 12.7291666666667  L 6.42857142857144 7.85416666666667  C 6.42857142857144 7.77517361111111  6.45368303571433 7.71028645833333  6.50390625 7.65950520833333  C 6.55412946428567 7.60872395833333  6.61830357142856 7.58333333333333  6.69642857142856 7.58333333333333  L 8.30357142857144 7.58333333333333  C 8.38169642857144 7.58333333333333  8.44587053571433 7.60872395833333  8.49609375 7.65950520833333  Z M 11.7103794642857 4.40950520833333  C 11.7606026785714 4.46028645833333  11.7857142857143 4.52517361111111  11.7857142857143 4.60416666666667  L 11.7857142857143 12.7291666666667  C 11.7857142857143 12.8081597222222  11.7606026785714 12.873046875  11.7103794642857 12.923828125  C 11.66015625 12.974609375  11.5959821428571 13  11.5178571428571 13  L 9.91071428571433 13  C 9.83258928571433 13  9.76841517857144 12.974609375  9.71819196428567 12.923828125  C 9.66796875 12.873046875  9.64285714285711 12.8081597222222  9.64285714285711 12.7291666666667  L 9.64285714285711 4.60416666666667  C 9.64285714285711 4.52517361111111  9.66796875 4.46028645833333  9.71819196428567 4.40950520833333  C 9.76841517857144 4.35872395833333  9.83258928571433 4.33333333333333  9.91071428571433 4.33333333333333  L 11.5178571428571 4.33333333333333  C 11.5959821428571 4.33333333333333  11.66015625 4.35872395833333  11.7103794642857 4.40950520833333  Z M 14.9246651785714 0.076171875  C 14.9748883928571 0.126953125  15 0.191840277777771  15 0.270833333333329  L 15 12.7291666666667  C 15 12.8081597222222  14.9748883928571 12.873046875  14.9246651785714 12.923828125  C 14.8744419642857 12.974609375  14.8102678571429 13  14.7321428571429 13  L 13.125 13  C 13.046875 13  12.9827008928571 12.974609375  12.9324776785714 12.923828125  C 12.8822544642857 12.873046875  12.8571428571429 12.8081597222222  12.8571428571429 12.7291666666667  L 12.8571428571429 0.270833333333329  C 12.8571428571429 0.191840277777771  12.8822544642857 0.126953125  12.9324776785714 0.076171875  C 12.9827008928571 0.025390625  13.046875 0  13.125 0  L 14.7321428571429 0  C 14.8102678571429 0  14.8744419642857 0.025390625  14.9246651785714 0.076171875  Z " fill-rule="nonzero" fill="#ffffff" stroke="none" transform="matrix(1 0 0 1 516 30 )" />
  </g>
</svg>