<?xml version="1.0" encoding="utf-8"?>
<svg version="1.1" xmlns:xlink="http://www.w3.org/1999/xlink" width="22px" height="22px" xmlns="http://www.w3.org/2000/svg">
  <g transform="matrix(1 0 0 1 -442 -563 )">
    <path d="M 11 11.9999999999999  L 11 5.99999999999994  L 6.875 5.99999999999994  L 6.875 11.9999999999999  L 11 11.9999999999999  Z M 5.5 16.0000000000001  L 12.375 16.0000000000001  L 12.375 18  L 5.5 18  L 5.5 16.0000000000001  Z M 5.5 4.00000000000005  L 12.375 4.00000000000005  L 12.375 13.9999999999999  L 5.5 13.9999999999999  L 5.5 4.00000000000005  Z M 13.75 16.0000000000001  L 19.25 16.0000000000001  L 19.25 18  L 13.75 18  L 13.75 16.0000000000001  Z M 13.75 11.9999999999999  L 19.25 11.9999999999999  L 19.25 13.9999999999999  L 13.75 13.9999999999999  L 13.75 11.9999999999999  Z M 13.75 8.0000000000001  L 19.25 8.0000000000001  L 19.25 9.99999999999999  L 13.75 9.99999999999999  L 13.75 8.0000000000001  Z M 13.75 4.00000000000005  L 19.25 4.00000000000005  L 19.25 5.99999999999994  L 13.75 5.99999999999994  L 13.75 4.00000000000005  Z M 2.5458984375 19.703125  C 2.68196614583329 19.5052083333334  2.75 19.2708333333333  3 19.0000000000001  L 3 4.00000000000005  L 1.375 4.00000000000005  L 1.375 19.0000000000001  C 1.375 19.2708333333333  1.44303385416671 19.5052083333334  1.5791015625 19.703125  C 1.71516927083329 19.9010416666667  1.87630208333329 20  2.0625 20  C 2.24869791666671 20  2.40983072916671 19.9010416666667  2.5458984375 19.703125  Z M 20.4208984375 19.703125  C 20.5569661458333 19.5052083333334  20.625 19.2708333333333  20.625 19.0000000000001  L 20.625 2  L 4.125 2  L 4.125 19.0000000000001  C 4.125 19.3437500000001  4.08561197916671 19.6770833333334  4.0068359375 20  L 19.9375 20  C 20.1236979166667 20  20.2848307291667 19.9010416666667  20.4208984375 19.703125  Z M 2.75 0  L 22 0  L 22 19.0000000000001  C 22 19.8333333333332  21.7994791666667 20.5416666666666  21.3984375 21.1249999999999  C 20.9973958333333 21.7083333333333  20.5104166666667 22  19.9375 22  L 2.0625 22  C 1.48958333333329 22  1.00260416666671 21.7083333333333  0.6015625 21.1249999999999  C 0.200520833333292 20.5416666666666  0 19.8333333333332  0 19.0000000000001  L 0 2.00000000000002  L 2.75 2.00000000000002  L 2.75 0  Z " fill-rule="nonzero" fill="#7f7f7f" stroke="none" transform="matrix(1 0 0 1 442 563 )" />
  </g>
</svg>