<?xml version="1.0" encoding="utf-8"?>
<svg version="1.1" xmlns:xlink="http://www.w3.org/1999/xlink" width="22px" height="15px" xmlns="http://www.w3.org/2000/svg">
  <g transform="matrix(1 0 0 1 -202 -19 )">
    <path d="M 21.591796875 0.494791666666661  C 21.8639322916666 0.824652777777768  22 1.21527777777777  22 1.66666666666666  C 22 2.11805555555555  21.8639322916666 2.50868055555555  21.591796875 2.83854166666666  L 11.966796875 14.5052083333333  C 11.6946614583334 14.8350694444444  11.3723958333334 15  11 15  C 10.6276041666666 15  10.3053385416666 14.8350694444444  10.033203125 14.5052083333333  L 0.408203125 2.83854166666666  C 0.136067708333371 2.50868055555555  0 2.11805555555555  0 1.66666666666666  C 0 1.21527777777777  0.136067708333371 0.824652777777768  0.408203125 0.494791666666661  C 0.680338541666629 0.164930555555554  1.00260416666663 0  1.375 0  L 20.625 0  C 20.9973958333334 0  21.3196614583334 0.164930555555554  21.591796875 0.494791666666661  Z " fill-rule="nonzero" fill="#000000" stroke="none" transform="matrix(1 0 0 1 202 19 )" />
  </g>
</svg>