<?xml version="1.0" encoding="utf-8"?>
<svg version="1.1" xmlns:xlink="http://www.w3.org/1999/xlink" width="22px" height="28px" xmlns="http://www.w3.org/2000/svg">
  <g transform="matrix(1 0 0 1 -28 -14 )">
    <path d="M 18.0611979166667 15.9869791666667  C 18.2426215277778 15.7560763888889  18.3333333333333 15.4826388888889  18.3333333333333 15.1666666666667  L 18.3333333333333 12.8333333333333  C 18.3333333333333 12.5173611111111  18.2426215277778 12.2439236111111  18.0611979166667 12.0130208333333  C 17.8797743055556 11.7821180555556  17.6649305555556 11.6666666666667  17.4166666666667 12  L 4.58333333333334 12  C 4.33506944444444 11.6666666666667  4.12022569444444 11.7821180555556  3.93880208333334 12.0130208333333  C 3.75737847222222 12.2439236111111  3.66666666666666 12.5173611111111  3.66666666666666 12.8333333333333  L 3.66666666666666 15.1666666666667  C 3.66666666666666 15.4826388888889  3.75737847222222 15.7560763888889  3.93880208333334 15.9869791666667  C 4.12022569444444 16.2178819444444  4.33506944444444 16.3333333333333  4.58333333333334 16  L 17.4166666666667 16  C 17.6649305555556 16.3333333333333  17.8797743055556 16.2178819444444  18.0611979166667 15.9869791666667  Z M 20.7897135416667 1.54036458333333  C 21.5965711805556 2.56727430555555  22 3.80381944444444  22 5.25  L 22 22.75  C 22 24.1961805555556  21.5965711805556 25.4327256944444  20.7897135416667 26.4596354166667  C 19.9828559027778 27.4865451388889  19.0112847222222 28  17.875 28  L 4.125 28  C 2.98871527777778 28  2.01714409722222 27.4865451388889  1.21028645833333 26.4596354166667  C 0.403428819444443 25.4327256944444  0 24.1961805555556  0 22.75  L 0 5.25  C 0 3.80381944444444  0.403428819444443 2.56727430555555  1.21028645833333 1.54036458333333  C 2.01714409722222 0.513454861111109  2.98871527777778 0  4.125 0  L 17.875 0  C 19.0112847222222 0  19.9828559027778 0.513454861111109  20.7897135416667 1.54036458333333  Z " fill-rule="nonzero" fill="#000000" stroke="none" transform="matrix(1 0 0 1 28 14 )" />
  </g>
</svg>