<?xml version="1.0" encoding="utf-8"?>
<svg version="1.1" xmlns:xlink="http://www.w3.org/1999/xlink" width="22px" height="24px" xmlns="http://www.w3.org/2000/svg">
  <g transform="matrix(1 0 0 1 -28 -60 )">
    <path d="M 6.72767857142857 0.950892857142851  C 8.08630952380953 0.316964285714287  9.51041666666667 0  11 0  C 12.4895833333333 0  13.9136904761905 0.316964285714287  15.2723214285714 0.950892857142851  C 16.6309523809524 1.58482142857143  17.8013392857143 2.4375  18.7834821428571 3.50892857142857  C 19.765625 4.58035714285714  20.5472470238095 5.85714285714286  21.1283482142857 7.33928571428571  C 21.7094494047619 8.82142857142857  22 10.375  22 12  C 22 13.6160714285714  21.7114955357143 15.1651785714286  21.1344866071429 16.6473214285714  C 20.5574776785714 18.1294642857143  19.7779017857143 19.40625  18.7957589285714 20.4776785714286  C 17.8136160714286 21.5491071428571  16.6432291666667 22.4040178571429  15.2845982142857 23.0424107142857  C 13.9259672619048 23.6808035714286  12.4977678571429 24  11 24  C 9.50223214285714 24  8.07403273809523 23.6830357142857  6.71540178571428 23.0491071428571  C 5.35677083333334 22.4151785714286  4.18843005952381 21.5602678571429  3.21037946428572 20.484375  C 2.23232886904762 19.4084821428571  1.45275297619047 18.1316964285714  0.871651785714285 16.6540178571429  C 0.290550595238095 15.1763392857143  0 13.625  0 12  C 0 10.375  0.290550595238095 8.82142857142857  0.871651785714285 7.33928571428571  C 1.45275297619047 5.85714285714286  2.234375 4.58035714285714  3.21651785714286 3.50892857142857  C 4.19866071428571 2.4375  5.36904761904762 1.58482142857143  6.72767857142857 0.950892857142851  Z M 14.8426339285714 13.7142857142857  C 16.8069196428571 13.7142857142857  18.0591517857143 15.1741071428571  18.5993303571429 18.09375  C 19.8188244047619 16.2633928571429  20.4285714285714 14.2321428571429  20.4285714285714 12  C 20.4285714285714 10.6071428571429  20.1789434523809 9.27678571428571  19.6796875 8.00892857142857  C 19.1804315476191 6.74107142857143  18.5093005952381 5.64732142857143  17.6662946428571 4.72767857142857  C 16.8232886904762 3.80803571428571  15.8206845238095 3.07589285714286  14.6584821428571 2.53125  C 13.4962797619048 1.98660714285713  12.2767857142857 1.71428571428572  11 1.71428571428572  C 9.72321428571428 1.71428571428572  8.50372023809523 1.98660714285713  7.34151785714286 2.53125  C 6.17931547619047 3.07589285714286  5.17671130952381 3.80803571428571  4.33370535714286 4.72767857142857  C 3.49069940476191 5.64732142857143  2.81956845238096 6.74107142857143  2.3203125 8.00892857142857  C 1.82105654761904 9.27678571428571  1.57142857142857 10.6071428571429  1.57142857142857 12  C 1.57142857142857 14.2321428571429  2.18117559523809 16.2633928571429  3.40066964285714 18.09375  C 3.94084821428571 15.1741071428571  5.19308035714286 13.7142857142857  7.15736607142857 13.7142857142857  C 8.22953869047619 14.8571428571429  9.51041666666667 15.4285714285714  11 15.4285714285714  C 12.4895833333333 15.4285714285714  13.7704613095238 14.8571428571429  14.8426339285714 13.7142857142857  Z M 14.3331473214286 13.0647321428571  C 15.25390625 12.0602678571429  15.7142857142857 10.8482142857143  15.7142857142857 9.42857142857143  C 15.7142857142857 8.00892857142857  15.25390625 6.796875  14.3331473214286 5.79241071428571  C 13.4123883928571 4.78794642857143  12.3013392857143 4.28571428571429  11 4.28571428571429  C 9.69866071428572 4.28571428571429  8.58761160714286 4.78794642857143  7.66685267857143 5.79241071428571  C 6.74609375 6.796875  6.28571428571428 8.00892857142857  6.28571428571428 9.42857142857143  C 6.28571428571428 10.8482142857143  6.74609375 12.0602678571429  7.66685267857143 13.0647321428571  C 8.58761160714286 14.0691964285714  9.69866071428572 14.5714285714286  11 14.5714285714286  C 12.3013392857143 14.5714285714286  13.4123883928571 14.0691964285714  14.3331473214286 13.0647321428571  Z " fill-rule="nonzero" fill="#000000" stroke="none" transform="matrix(1 0 0 1 28 60 )" />
  </g>
</svg>