<?xml version="1.0" encoding="utf-8"?>
<svg version="1.1" xmlns:xlink="http://www.w3.org/1999/xlink" width="30px" height="16px" xmlns="http://www.w3.org/2000/svg">
  <g transform="matrix(1 0 0 1 -550 -110 )">
    <path d="M 0.7470703125 11.10625  C 0.2490234375 10.11875  0 9.08333333333333  0 8  C 0 6.91666666666667  0.2490234375 5.88124999999999  0.7470703125 4.89375  C 1.2451171875 3.90625  1.91162109375 3.05625000000001  2.74658203125 2.34375  C 3.58154296875 1.63124999999999  4.57763671875 1.0625  5.73486328125 0.637500000000003  C 6.89208984375 0.212500000000006  8.10546875 0  9.375 0  L 20.625 0  C 21.89453125 0  23.10791015625 0.212500000000006  24.26513671875 0.637500000000003  C 25.42236328125 1.0625  26.41845703125 1.63124999999999  27.25341796875 2.34375  C 28.08837890625 3.05625000000001  28.7548828125 3.90625  29.2529296875 4.89375  C 29.7509765625 5.88124999999999  30 6.91666666666667  30 8  C 30 9.08333333333333  29.7509765625 10.11875  29.2529296875 11.10625  C 28.7548828125 12.09375  28.08837890625 12.94375  27.25341796875 13.65625  C 26.41845703125 14.36875  25.42236328125 14.9375  24.26513671875 15.3625  C 23.10791015625 15.7875  21.89453125 16  20.625 16  L 9.375 16  C 8.10546875 16  6.89208984375 15.7875  5.73486328125 15.3625  C 4.57763671875 14.9375  3.58154296875 14.36875  2.74658203125 13.65625  C 1.91162109375 12.94375  1.2451171875 12.09375  0.7470703125 11.10625  Z M 17.71728515625 13.89375  C 18.64013671875 14.23125  19.609375 14.4  20.625 14.4  C 21.640625 14.4  22.60986328125 14.23125  23.53271484375 13.89375  C 24.45556640625 13.55625  25.25390625 13.1  25.927734375 12.525  C 26.6015625 11.95  27.13623046875 11.26875  27.53173828125 10.48125  C 27.92724609375 9.69374999999999  28.125 8.86666666666666  28.125 8  C 28.125 7.13333333333333  27.92724609375 6.30625000000001  27.53173828125 5.51875  C 27.13623046875 4.73125  26.6015625 4.05  25.927734375 3.47499999999999  C 25.25390625 2.90000000000001  24.45556640625 2.44374999999999  23.53271484375 2.10625  C 22.60986328125 1.76875  21.640625 1.59999999999999  20.625 1.59999999999999  C 19.609375 1.59999999999999  18.64013671875 1.76875  17.71728515625 2.10625  C 16.79443359375 2.44374999999999  15.99609375 2.90000000000001  15.322265625 3.47499999999999  C 14.6484375 4.05  14.11376953125 4.73125  13.71826171875 5.51875  C 13.32275390625 6.30625000000001  13.125 7.13333333333333  13.125 8  C 13.125 8.86666666666666  13.32275390625 9.69374999999999  13.71826171875 10.48125  C 14.11376953125 11.26875  14.6484375 11.95  15.322265625 12.525  C 15.99609375 13.1  16.79443359375 13.55625  17.71728515625 13.89375  Z " fill-rule="nonzero" fill="#000000" stroke="none" transform="matrix(1 0 0 1 550 110 )" />
  </g>
</svg>