<?xml version="1.0" encoding="utf-8"?>
<svg version="1.1" xmlns:xlink="http://www.w3.org/1999/xlink" width="30px" height="15px" xmlns="http://www.w3.org/2000/svg">
  <g transform="matrix(1 0 0 1 -550 -186 )">
    <path d="M 16.28173828125 9.82617187499997  C 16.67724609375 9.087890625  16.875 8.3125  16.875 7.5  C 16.875 6.6875  16.67724609375 5.912109375  16.28173828125 5.17382812500003  C 15.88623046875 4.43554687499997  15.3515625 3.79687500000003  14.677734375 3.2578125  C 14.00390625 2.71875  13.20556640625 2.291015625  12.28271484375 1.97460937499997  C 11.35986328125 1.65820312500003  10.390625 1.5  9.375 1.5  C 8.359375 1.5  7.39013671875 1.65820312500003  6.46728515625 1.97460937499997  C 5.54443359375 2.291015625  4.74609375 2.71875  4.072265625 3.2578125  C 3.3984375 3.79687500000003  2.86376953125 4.43554687499997  2.46826171875 5.17382812500003  C 2.07275390625 5.912109375  1.875 6.6875  1.875 7.5  C 1.875 8.3125  2.07275390625 9.087890625  2.46826171875 9.82617187499997  C 2.86376953125 10.564453125  3.3984375 11.203125  4.072265625 11.7421875  C 4.74609375 12.28125  5.54443359375 12.708984375  6.46728515625 13.025390625  C 7.39013671875 13.341796875  8.359375 13.5  9.375 13.5  C 10.390625 13.5  11.35986328125 13.341796875  12.28271484375 13.025390625  C 13.20556640625 12.708984375  14.00390625 12.28125  14.677734375 11.7421875  C 15.3515625 11.203125  15.88623046875 10.564453125  16.28173828125 9.82617187499997  Z M 27.53173828125 9.82617187499997  C 27.92724609375 9.087890625  28.125 8.3125  28.125 7.5  C 28.125 6.6875  27.92724609375 5.912109375  27.53173828125 5.17382812500003  C 27.13623046875 4.43554687499997  26.6015625 3.79687500000003  25.927734375 3.2578125  C 25.25390625 2.71875  24.45556640625 2.291015625  23.53271484375 1.97460937499997  C 22.60986328125 1.65820312500003  21.640625 1.5  20.625 1.5  L 14.970703125 1.5  C 16.1328125 2.203125  17.05322265625 3.078125  17.73193359375 4.125  C 18.41064453125 5.171875  18.75 6.296875  18.75 7.5  C 18.75 8.703125  18.41064453125 9.828125  17.73193359375 10.875  C 17.05322265625 11.921875  16.1328125 12.796875  14.970703125 13.5  L 20.625 13.5  C 21.640625 13.5  22.60986328125 13.341796875  23.53271484375 13.025390625  C 24.45556640625 12.708984375  25.25390625 12.28125  25.927734375 11.7421875  C 26.6015625 11.203125  27.13623046875 10.564453125  27.53173828125 9.82617187499997  Z M 29.2529296875 4.58789062500003  C 29.7509765625 5.513671875  30 6.484375  30 7.5  C 30 8.515625  29.7509765625 9.486328125  29.2529296875 10.412109375  C 28.7548828125 11.337890625  28.08837890625 12.134765625  27.25341796875 12.802734375  C 26.41845703125 13.470703125  25.42236328125 14.00390625  24.26513671875 14.40234375  C 23.10791015625 14.80078125  21.89453125 15  20.625 15  L 9.375 15  C 8.10546875 15  6.89208984375 14.80078125  5.73486328125 14.40234375  C 4.57763671875 14.00390625  3.58154296875 13.470703125  2.74658203125 12.802734375  C 1.91162109375 12.134765625  1.2451171875 11.337890625  0.7470703125 10.412109375  C 0.2490234375 9.486328125  0 8.515625  0 7.5  C 0 6.484375  0.2490234375 5.513671875  0.7470703125 4.58789062500003  C 1.2451171875 3.662109375  1.91162109375 2.865234375  2.74658203125 2.197265625  C 3.58154296875 1.529296875  4.57763671875 0.99609375  5.73486328125 0.597656249999972  C 6.89208984375 0.19921875  8.10546875 0  9.375 0  L 20.625 0  C 21.89453125 0  23.10791015625 0.19921875  24.26513671875 0.597656249999972  C 25.42236328125 0.99609375  26.41845703125 1.529296875  27.25341796875 2.197265625  C 28.08837890625 2.865234375  28.7548828125 3.662109375  29.2529296875 4.58789062500003  Z " fill-rule="nonzero" fill="#000000" stroke="none" transform="matrix(1 0 0 1 550 186 )" />
  </g>
</svg>