<?xml version="1.0" encoding="utf-8"?>
<svg version="1.1" xmlns:xlink="http://www.w3.org/1999/xlink" width="24px" height="24px" xmlns="http://www.w3.org/2000/svg">
  <g transform="matrix(1 0 0 1 -336 -553 )">
    <path d="M 13.8593749999999 6.140625  C 13.9531249999999 6.234375  13.9999999999999 6.35416666666663  13.9999999999999 6.5  L 13.9999999999999 13.5  C 13.9999999999999 13.6458333333335  13.9531249999999 13.765625  13.8593749999999 13.859375  C 13.7656249999999 13.953125  13.6458333333333 14  13.5 14  L 8.50000000000006 14  C 8.35416666666674 14  8.23437499999994 13.953125  8.14062499999994 13.859375  C 8.04687499999994 13.765625  7.99999999999994 13.6458333333335  7.99999999999994 13.5  L 7.99999999999994 12.5  C 7.99999999999994 12.3541666666666  8.04687499999994 12.234375  8.14062499999994 12.140625  C 8.23437499999994 12.046875  8.35416666666674 12  8.50000000000006 12  L 12 12  L 12 6.5  C 12 6.35416666666663  12.046875 6.234375  12.140625 6.140625  C 12.234375 6.046875  12.3541666666666 6  12.4999999999999 6  L 13.5 6  C 13.6458333333333 6  13.7656249999999 6.046875  13.8593749999999 6.140625  Z M 19.359375 16.265625  C 20.1197916666667 14.9635416666665  20.5 13.5416666666665  20.5 12  C 20.5 10.4583333333335  20.1197916666667 9.03645833333348  19.359375 7.734375  C 18.5989583333333 6.43229166666652  17.5677083333333 5.40104166666652  16.265625 4.640625  C 14.9635416666667 3.88020833333348  13.5416666666667 3.5  12 3.5  C 10.4583333333333 3.5  9.03645833333326 3.88020833333348  7.734375 4.640625  C 6.43229166666674 5.40104166666652  5.40104166666674 6.43229166666652  4.640625 7.734375  C 3.88020833333326 9.03645833333348  3.5 10.4583333333335  3.5 12  C 3.5 13.5416666666665  3.88020833333326 14.9635416666665  4.640625 16.265625  C 5.40104166666674 17.5677083333335  6.43229166666674 18.5989583333335  7.734375 19.359375  C 9.03645833333326 20.1197916666665  10.4583333333333 20.5  12 20.5  C 13.5416666666667 20.5  14.9635416666667 20.1197916666665  16.265625 19.359375  C 17.5677083333333 18.5989583333335  18.5989583333333 17.5677083333335  19.359375 16.265625  Z M 22.3906250000001 5.9765625  C 23.4635416666666 7.81510416666652  24 9.82291666666663  24 12  C 24 14.1770833333334  23.4635416666666 16.1848958333335  22.3906250000001 18.0234375  C 21.3177083333333 19.8619791666665  19.8619791666667 21.3177083333335  18.0234375 22.390625  C 16.1848958333333 23.4635416666666  14.1770833333334 24  12 24  C 9.82291666666663 24  7.81510416666674 23.4635416666666  5.9765625 22.390625  C 4.13802083333326 21.3177083333335  2.68229166666674 19.8619791666665  1.60937500000006 18.0234375  C 0.536458333333371 16.1848958333335  0 14.1770833333334  0 12  C 0 9.82291666666663  0.536458333333371 7.81510416666652  1.60937500000006 5.9765625  C 2.68229166666674 4.13802083333348  4.13802083333326 2.68229166666652  5.9765625 1.609375  C 7.81510416666674 0.536458333333371  9.82291666666663 0  12 0  C 14.1770833333334 0  16.1848958333333 0.536458333333371  18.0234375 1.609375  C 19.8619791666667 2.68229166666652  21.3177083333333 4.13802083333348  22.3906250000001 5.9765625  Z " fill-rule="nonzero" fill="#000000" stroke="none" transform="matrix(1 0 0 1 336 553 )" />
  </g>
</svg>