<?xml version="1.0" encoding="utf-8"?>
<svg version="1.1" xmlns:xlink="http://www.w3.org/1999/xlink" width="20px" height="19px" xmlns="http://www.w3.org/2000/svg">
  <g transform="matrix(1 0 0 1 -449 -552 )">
    <path d="M 10 10.3636363636363  L 10 5.18181818181813  L 6.25 5.18181818181813  L 6.25 10.3636363636363  L 10 10.3636363636363  Z M 5 13.8181818181819  L 11.25 13.8181818181819  L 11.25 15.5454545454545  L 5 15.5454545454545  L 5 13.8181818181819  Z M 5 3.4545454545455  L 11.25 3.4545454545455  L 11.25 12.090909090909  L 5 12.090909090909  L 5 3.4545454545455  Z M 12.5 13.8181818181819  L 17.5 13.8181818181819  L 17.5 15.5454545454545  L 12.5 15.5454545454545  L 12.5 13.8181818181819  Z M 12.5 10.3636363636363  L 17.5 10.3636363636363  L 17.5 12.090909090909  L 12.5 12.090909090909  L 12.5 10.3636363636363  Z M 12.5 6.90909090909099  L 17.5 6.90909090909099  L 17.5 8.63636363636351  L 12.5 8.63636363636351  L 12.5 6.90909090909099  Z M 12.5 3.4545454545455  L 17.5 3.4545454545455  L 17.5 5.18181818181813  L 12.5 5.18181818181813  L 12.5 3.4545454545455  Z M 2.314453125 17.0163352272727  C 2.43815104166663 16.8454071969697  2.5 16.6429924242424  2.5 16.409090909091  L 2.5 3.4545454545455  L 1.25 3.4545454545455  L 1.25 16.409090909091  C 1.25 16.6429924242424  1.31184895833337 16.8454071969697  1.435546875 17.0163352272727  C 1.55924479166663 17.1872632575758  1.70572916666663 17.2727272727273  1.875 17.2727272727273  C 2.04427083333337 17.2727272727273  2.19075520833337 17.1872632575758  2.314453125 17.0163352272727  Z M 18.564453125 17.0163352272727  C 18.6881510416666 16.8454071969697  18.75 16.6429924242424  18.75 16.409090909091  L 18.75 2  L 4 2  L 4 16.409090909091  C 3.75 16.705965909091  3.71419270833337 16.9938446969697  3.642578125 17  L 18.125 17  C 18.2942708333334 17.2727272727273  18.4407552083334 17.1872632575758  18.564453125 17.0163352272727  Z M 2.5 0  L 20 0  L 20 16.409090909091  C 20 17.1287878787878  19.8177083333334 17.7405303030303  19.453125 18.2443181818181  C 19.0885416666666 18.7481060606061  18.6458333333334 19  18.125 19  L 1.875 19  C 1.35416666666663 19  0.911458333333371 18.7481060606061  0.546875 18.2443181818181  C 0.182291666666629 17.7405303030303  0 17.1287878787878  0 16.409090909091  L 0 1.72727272727275  L 2.5 1.72727272727275  L 2.5 0  Z " fill-rule="nonzero" fill="#000000" stroke="none" transform="matrix(1 0 0 1 449 552 )" />
  </g>
</svg>