<?xml version="1.0" encoding="utf-8"?>
<svg version="1.1" xmlns:xlink="http://www.w3.org/1999/xlink" width="23px" height="24px" xmlns="http://www.w3.org/2000/svg">
  <g transform="matrix(1 0 0 1 -555 -553 )">
    <path d="M 14.10546875 14.71875  C 15.3172075320513 13.454326923077  15.9230769230769 11.9326923076923  15.9230769230769 10.1538461538461  C 15.9230769230769 8.37499999999989  15.3172075320513 6.85336538461547  14.10546875 5.58894230769249  C 12.8937299679487 4.32451923076917  11.4354967948718 3.69230769230751  9.73076923076917 3.69230769230751  C 8.02604166666663 3.69230769230751  6.56780849358972 4.32451923076917  5.35606971153845 5.58894230769249  C 4.14433092948718 6.85336538461547  3.53846153846155 8.37499999999989  3.53846153846155 10.1538461538461  C 3.53846153846155 11.9326923076923  4.14433092948718 13.454326923077  5.35606971153845 14.71875  C 6.56780849358972 15.983173076923  8.02604166666663 16.6153846153846  9.73076923076917 16.6153846153846  C 11.4354967948718 16.6153846153846  12.8937299679487 15.983173076923  14.10546875 14.71875  Z M 22.4885817307692 20.8557692307691  C 22.8295272435897 21.2115384615385  23 21.6442307692308  23 22.1538461538461  C 23 22.6538461538462  22.8249198717949 23.0865384615385  22.4747596153845 23.4519230769231  C 22.1245993589744 23.8173076923077  21.7099358974359 24  21.2307692307692 24  C 20.7331730769231 24  20.3185096153845 23.8173076923077  19.9867788461539 23.4519230769231  L 15.2457932692308 18.5192307692309  C 13.5963541666666 19.7115384615385  11.7580128205128 20.3076923076925  9.73076923076917 20.3076923076925  C 8.41306089743591 20.3076923076925  7.15294471153845 20.0408653846154  5.95042067307691 19.5072115384615  C 4.74789663461547 18.9735576923075  3.71123798076917 18.2524038461539  2.84044471153845 17.34375  C 1.96965144230762 16.4350961538461  1.27854567307691 15.3533653846154  0.767127403846075 14.0985576923075  C 0.255709134615472 12.84375  0 11.5288461538462  0 10.1538461538461  C 0 8.77884615384619  0.255709134615472 7.46394230769249  0.767127403846075 6.20913461538464  C 1.27854567307691 4.95432692307691  1.96965144230762 3.87259615384608  2.84044471153845 2.96394230769249  C 3.71123798076917 2.05528846153845  4.74789663461547 1.33413461538464  5.95042067307691 0.800480769230944  C 7.15294471153845 0.266826923076906  8.41306089743591 0  9.73076923076917 0  C 11.0484775641025 0  12.30859375 0.266826923076906  13.5111177884615 0.800480769230944  C 14.7136418269231 1.33413461538464  15.7503004807692 2.05528846153845  16.62109375 2.96394230769249  C 17.4918870192308 3.87259615384608  18.1829927884615 4.95432692307691  18.6944110576924 6.20913461538464  C 19.2058293269231 7.46394230769249  19.4615384615385 8.77884615384619  19.4615384615385 10.1538461538461  C 19.4615384615385 12.2692307692307  18.8902243589744 14.1874999999999  17.7475961538461 15.9086538461539  L 22.4885817307692 20.8557692307691  Z " fill-rule="nonzero" fill="#000000" stroke="none" transform="matrix(1 0 0 1 555 553 )" />
  </g>
</svg>