<?xml version="1.0" encoding="utf-8"?>
<svg version="1.1" xmlns:xlink="http://www.w3.org/1999/xlink" width="29px" height="29px" xmlns="http://www.w3.org/2000/svg">
  <g transform="matrix(1 0 0 1 -585 -281 )">
    <path d="M 22.3106601717797 8.81066017178006  L 28.3917410714284 14.5000000000001  L 22.1692388155444 20.3307611844556  L 22.2142857142878 18.3571428571407  L 22.2142857142878 16.4285714285693  L 16.4285714285737 16.4285714285694  L 16.4285714285737 22.2142857142834  L 18.3571428571453 22.2142857142834  L 20.1186291501034 22.3813708498964  L 14.5000000000022 28.3917410714263  L 8.81066017178215 22.3106601717776  L 10.6428571428594 22.2142857142835  L 12.5714285714308 22.2142857142834  L 12.5714285714309 16.4285714285691  L 6.78571428571661 16.428571428569  L 6.78571428571645 18.3571428571407  L 6.76005050634127 20.2600505063366  L 0.608258928571413 14.5000000000001  L 6.61862915010159 8.88137084989841  L 6.78571428571436 10.6428571428571  L 6.78571428571452 12.5714285714284  L 12.5714285714285 12.5714285714285  L 12.5714285714285 6.78571428571436  L 10.6428571428571 6.78571428571436  L 8.66923881554248 6.83076118445753  L 14.4999999999998 0.608258928571654  L 20.2600505063388 6.7600505063391  L 18.3571428571427 6.78571428571436  L 16.4285714285715 6.78571428571436  L 16.4285714285715 12.5714285714286  L 22.2142857142857 12.5714285714286  L 22.2142857142856 10.6428571428573  L 22.3106601717797 8.81066017178006  Z " fill-rule="nonzero" fill="#f2f2f2" stroke="none" transform="matrix(1 0 0 1 585 281 )" />
  </g>
</svg>