<?xml version="1.0" encoding="utf-8"?>
<svg version="1.1" xmlns:xlink="http://www.w3.org/1999/xlink" width="17px" height="16px" xmlns="http://www.w3.org/2000/svg">
  <g transform="matrix(1 0 0 1 -591 -474 )">
    <path d="M 12.8828125 14.46875  C 13.012219551282 14.3368055555555  13.0769230769231 14.1805555555555  13.0769230769231 14  C 13.0769230769231 13.8194444444445  13.012219551282 13.6631944444445  12.8828125 13.53125  C 12.753405448718 13.3993055555555  12.6001602564103 13.3333333333333  12.4230769230769 13.3333333333333  C 12.2459935897436 13.3333333333333  12.0927483974359 13.3993055555555  11.9633413461538 13.53125  C 11.8339342948718 13.6631944444445  11.7692307692308 13.8194444444445  11.7692307692308 14  C 11.7692307692308 14.1805555555555  11.8339342948718 14.3368055555555  11.9633413461538 14.46875  C 12.0927483974359 14.6006944444445  12.2459935897436 14.6666666666667  12.4230769230769 14.6666666666667  C 12.6001602564103 14.6666666666667  12.753405448718 14.6006944444445  12.8828125 14.46875  Z M 15.4981971153846 14.46875  C 15.6276041666667 14.3368055555555  15.6923076923077 14.1805555555555  15.6923076923077 14  C 15.6923076923077 13.8194444444445  15.6276041666667 13.6631944444445  15.4981971153846 13.53125  C 15.3687900641025 13.3993055555555  15.2155448717949 13.3333333333333  15.0384615384615 13.3333333333333  C 14.8613782051282 13.3333333333333  14.7081330128205 13.3993055555555  14.5787259615385 13.53125  C 14.4493189102564 13.6631944444445  14.3846153846154 13.8194444444445  14.3846153846154 14  C 14.3846153846154 14.1805555555555  14.4493189102564 14.3368055555555  14.5787259615385 14.46875  C 14.7081330128205 14.6006944444445  14.8613782051282 14.6666666666667  15.0384615384615 14.6666666666667  C 15.2155448717949 14.6666666666667  15.3687900641025 14.6006944444445  15.4981971153846 14.46875  Z M 16.7139423076923 10.9583333333333  C 16.9046474358975 11.1527777777778  17 11.3888888888889  17 11.6666666666667  L 17 15  C 17 15.2777777777778  16.9046474358975 15.5138888888889  16.7139423076923 15.7083333333333  C 16.5232371794872 15.9027777777778  16.2916666666667 16  16.0192307692308 16  L 0.980769230769226 16  C 0.708333333333314 16  0.476762820512818 15.9027777777778  0.286057692307679 15.7083333333333  C 0.0953525641025408 15.5138888888889  0 15.2777777777778  0 15  L 0 11.6666666666667  C 0 11.3888888888889  0.0953525641025408 11.1527777777778  0.286057692307679 10.9583333333333  C 0.476762820512818 10.7638888888889  0.708333333333314 10.6666666666667  0.980769230769226 10.6666666666667  L 5.73137019230768 10.6666666666667  L 7.11057692307691 12.0833333333333  C 7.50560897435901 12.4722222222222  7.96875 12.6666666666667  8.5 12.6666666666667  C 9.03125 12.6666666666667  9.49439102564099 12.4722222222222  9.88942307692309 12.0833333333333  L 11.2788461538462 10.6666666666667  L 16.0192307692308 10.6666666666667  C 16.2916666666667 10.6666666666667  16.5232371794872 10.7638888888889  16.7139423076923 10.9583333333333  Z M 13.0769230769231 5.33333333333331  C 13.3629807692308 5.33333333333331  13.5639022435897 5.46875  13.6796875 5.73958333333331  C 13.7954727564103 6.02430555555554  13.747796474359 6.26736111111114  13.5366586538462 6.46875  L 8.95973557692309 11.1354166666667  C 8.83713942307691 11.2673611111111  8.68389423076923 11.3333333333333  8.5 11.3333333333333  C 8.31610576923077 11.3333333333333  8.16286057692309 11.2673611111111  8.04026442307691 11.1354166666667  L 3.46334134615381 6.46875  C 3.25220352564099 6.26736111111114  3.20452724358972 6.02430555555554  3.3203125 5.73958333333331  C 3.43609775641028 5.46875  3.63701923076923 5.33333333333331  3.92307692307691 5.33333333333331  L 6.53846153846155 5.33333333333331  L 6.53846153846155 0.666666666666686  C 6.53846153846155 0.486111111111143  6.60316506410254 0.329861111111143  6.73257211538464 0.197916666666686  C 6.86197916666669 0.0659722222222285  7.01522435897436 0  7.19230769230768 0  L 9.80769230769232 0  C 9.98477564102564 0  10.1380208333333 0.0659722222222285  10.2674278846154 0.197916666666686  C 10.3968349358975 0.329861111111143  10.4615384615385 0.486111111111143  10.4615384615385 0.666666666666686  L 10.4615384615385 5.33333333333331  L 13.0769230769231 5.33333333333331  Z " fill-rule="nonzero" fill="#000000" stroke="none" transform="matrix(1 0 0 1 591 474 )" />
  </g>
</svg>