<?xml version="1.0" encoding="utf-8"?>
<svg version="1.1" xmlns:xlink="http://www.w3.org/1999/xlink" width="16px" height="15px" xmlns="http://www.w3.org/2000/svg">
  <g transform="matrix(1 0 0 1 -470 -287 )">
    <path d="M 478 287  C 482.48 287  486 290.3  486 294.5  C 486 298.7  482.48 302  478 302  C 473.52 302  470 298.7  470 294.5  C 470 290.3  473.52 287  478 287  Z " fill-rule="nonzero" fill="#ffffff" stroke="none" />
    <path d="M 478 287.5  C 482.2 287.5  485.5 290.58  485.5 294.5  C 485.5 298.42  482.2 301.5  478 301.5  C 473.8 301.5  470.5 298.42  470.5 294.5  C 470.5 290.58  473.8 287.5  478 287.5  Z " stroke-width="1" stroke="#797979" fill="none" />
  </g>
</svg>