<?xml version="1.0" encoding="utf-8"?>
<svg version="1.1" xmlns:xlink="http://www.w3.org/1999/xlink" width="17px" height="15px" xmlns="http://www.w3.org/2000/svg">
  <g transform="matrix(1 0 0 1 -359 -288 )">
    <path d="M 7.84615384615381 0  L 8 0  L 8 15  L 7.84615384615381 15  L 6.73257211538464 13.7130801687764  L 3.33052884615381 10.2004219409283  L 0 10.2004219409283  L 0 4.79957805907173  L 3.33052884615381 4.79957805907173  L 6.73257211538464 1.2869198312236  L 7.84615384615381 0  Z M 11.3350360576923 6.00210970464138  L 11.7692307692308 7.5  L 11.3350360576923 8.99261603375527  L 10.1856971153846 9.9789029535865  L 9.93028846153845 10.0316455696203  L 9.47055288461536 9.83649789029533  L 9.27644230769232 9.3565400843882  L 9.39903846153845 8.98206751054852  L 9.6953125 8.71835443037975  L 10.0426682692308 8.47573839662448  L 10.3389423076923 8.09599156118145  L 10.4615384615385 7.5  L 10.3389423076923 6.90400843881855  L 10.0426682692308 6.52426160337552  L 9.6953125 6.28164556962025  L 9.39903846153845 6.01793248945148  L 9.27644230769232 5.6434599156118  L 9.47055288461536 5.16350210970467  L 9.93028846153845 4.96835443037975  L 10.1856971153846 5.0210970464135  L 11.3350360576923 6.00210970464138  Z M 13.5162259615385 4.52004219409287  L 14.3846153846154 7.5  L 13.5162259615385 10.4799578059071  L 11.2175480769231 12.4683544303797  L 10.9621394230769 12.5210970464135  L 10.4921875 12.3206751054852  L 10.2980769230769 11.8459915611814  L 10.6965144230769 11.2236286919831  L 11.4729567307692 10.7594936708861  L 12.6529447115385 9.33016877637135  L 13.0769230769231 7.5  L 12.6529447115385 5.66983122362865  L 11.4729567307692 4.24050632911394  L 10.6965144230769 3.77637130801691  L 10.2980769230769 3.15400843881855  L 10.4921875 2.67932489451476  L 10.9519230769231 2.4789029535865  L 11.2175480769231 2.53164556962025  L 13.5162259615385 4.52004219409287  Z M 15.7025240384615 3.0432489451477  L 17 7.5  L 15.7025240384615 11.9567510548523  L 12.2493990384615 14.9472573839662  L 11.9837740384615 15  L 11.5240384615385 14.7995780590717  L 11.3299278846154 14.3248945147679  L 11.7283653846154 13.7025316455696  L 11.9582331730769 13.5917721518987  L 12.1881009615385 13.4810126582278  L 13.0258413461538 12.9430379746835  L 14.9873798076923 10.548523206751  L 15.6923076923077 7.5  L 14.9873798076923 4.45147679324896  L 13.0258413461538 2.05696202531647  L 12.1881009615385 1.51898734177217  L 11.9582331730769 1.40822784810132  L 11.7283653846154 1.29746835443041  L 11.3299278846154 0.675105485232052  L 11.5240384615385 0.200421940928265  L 11.9837740384615 0  L 12.2493990384615 0.0527426160337541  L 15.7025240384615 3.0432489451477  Z " fill-rule="nonzero" fill="#d7d7d7" stroke="none" transform="matrix(1 0 0 1 359 288 )" />
  </g>
</svg>