<?xml version="1.0" encoding="utf-8"?>
<svg version="1.1" xmlns:xlink="http://www.w3.org/1999/xlink" width="22px" height="19px" xmlns="http://www.w3.org/2000/svg">
  <g transform="matrix(1 0 0 1 -586 -93 )">
    <path d="M 15.984375 16.6773787019534  L 15.0324519230769 11.6370510396975  L 19.078125 8.0812854442344  L 13.4987980769231 7.33900441083806  L 11 2.765595463138  L 8.50120192307692 7.33900441083806  L 2.921875 8.0812854442344  L 6.96754807692308 11.6370510396975  L 6.00240384615385 16.6773787019534  L 11 14.2948960302457  L 15.984375 16.6773787019534  Z M 21.2596153846154 6.8122243226213  C 21.7532051282051 6.88405797101449  22 7.06763285024155  22 7.36294896030246  C 22 7.53854232304138  21.8854166666667 7.73009871875656  21.65625 7.93761814744802  L 16.8569711538462 12.1758034026465  L 17.9939903846154 18.1619407687461  C 18.0028044871795 18.217811384163  18.0072115384615 18.2976265490443  18.0072115384615 18.40138626339  C 18.0072115384615 18.8004620877967  17.8265224358974 19  17.4651442307692 19  C 17.2976762820513 19  17.1213942307692 18.9521109010712  16.9362980769231 18.8563327032136  L 11 16.0308758664146  L 5.06370192307692 18.8563327032136  C 4.86979166666667 18.9521109010712  4.69350961538462 19  4.53485576923077 19  C 4.34975961538462 19  4.2109375 18.942134005461  4.11838942307692 18.8264020163831  C 4.02584134615385 18.7106700273052  3.97956730769231 18.5689981096408  3.97956730769231 18.40138626339  C 3.97956730769231 18.3534971644612  3.98838141025641 18.2736819995799  4.00600961538462 18.1619407687461  L 5.14302884615385 12.1758034026465  L 0.330528846153846 7.93761814744802  C 0.110176282051282 7.72211720226843  0 7.53056080655325  0 7.36294896030246  C 0 7.06763285024155  0.246794871794872 6.88405797101449  0.740384615384615 6.8122243226213  L 7.37740384615385 5.93824826717076  L 10.3521634615385 0.490863264020163  C 10.5196314102564 0.16362108800672  10.7355769230769 0  11 0  C 11.2644230769231 0  11.4803685897436 0.16362108800672  11.6478365384615 0.490863264020163  L 14.6225961538462 5.93824826717076  L 21.2596153846154 6.8122243226213  Z " fill-rule="nonzero" fill="#f2f2f2" stroke="none" transform="matrix(1 0 0 1 586 93 )" />
  </g>
</svg>