<?xml version="1.0" encoding="utf-8"?>
<svg version="1.1" xmlns:xlink="http://www.w3.org/1999/xlink" width="17px" height="15px" xmlns="http://www.w3.org/2000/svg">
  <g transform="matrix(1 0 0 1 -144 -295 )">
    <path d="M 7.65204326923072 1.2869198312236  C 7.78145032051282 1.42053445850911  7.84615384615381 1.57876230661043  8 1.76160337552739  L 8 13.2383966244726  C 7.84615384615381 13.4212376933896  7.78145032051282 13.5794655414908  7.65204326923072 13.7130801687764  C 7.52263621794873 13.8466947960619  7.36939102564099 13.9135021097046  7.19230769230768 13.9135021097046  C 7.01522435897436 13.9135021097046  6.86197916666669 13.8466947960619  6.73257211538464 13.7130801687764  L 3.33052884615381 10.2004219409283  L 0.653846153846189 10.2004219409283  C 0.476762820512818 10.2004219409283  0.323517628205138 10.1336146272855  0.194110576923094 10  C 0.0647035256409936 9.86638537271449  0 9.70815752461323  0 9.52531645569616  L 0 5.47468354430384  C 0 5.29184247538677  0.0647035256409936 5.13361462728551  0.194110576923094 5  C 0.323517628205138 4.86638537271449  0.476762820512818 4.79957805907173  0.653846153846189 4.79957805907173  L 3.33052884615381 4.79957805907173  L 6.73257211538464 1.2869198312236  C 6.86197916666669 1.15330520393815  7.01522435897436 1.08649789029539  7.19230769230768 1.08649789029539  C 7.36939102564099 1.08649789029539  7.52263621794873 1.15330520393815  7.65204326923072 1.2869198312236  Z M 11.3350360576923 6.00210970464138  C 11.624499198718 6.46624472573836  11.7692307692307 6.96554149085796  11.7692307692307 7.5  C 11.7692307692307 8.03445850914204  11.624499198718 8.53199718706048  11.3350360576923 8.99261603375527  C 11.0455729166667 9.45323488045005  10.6624599358975 9.78199718706048  10.1856971153846 9.9789029535865  C 10.1175881410256 10.014064697609  10.0324519230769 10.0316455696203  9.93028846153845 10.0316455696203  C 9.75320512820514 10.0316455696203  9.59995993589746 9.96659634317865  9.47055288461536 9.83649789029533  C 9.34114583333331 9.70639943741213  9.27644230769232 9.54641350210972  9.27644230769232 9.3565400843882  C 9.27644230769232 9.20886075949363  9.31730769230768 9.08403656821378  9.39903846153845 8.98206751054852  C 9.48076923076928 8.88009845288326  9.57952724358967 8.792194092827  9.6953125 8.71835443037975  C 9.81109775641033 8.64451476793249  9.9268830128205 8.56364275668074  10.0426682692307 8.47573839662448  C 10.158453525641 8.38783403656822  10.2572115384615 8.26125175808716  10.3389423076923 8.09599156118145  C 10.4206730769231 7.93073136427563  10.4615384615385 7.73206751054852  10.4615384615385 7.5  C 10.4615384615385 7.26793248945148  10.4206730769231 7.06926863572437  10.3389423076923 6.90400843881855  C 10.2572115384615 6.73874824191284  10.158453525641 6.61216596343178  10.0426682692307 6.52426160337552  C 9.9268830128205 6.43635724331926  9.81109775641033 6.35548523206751  9.6953125 6.28164556962025  C 9.57952724358967 6.207805907173  9.48076923076928 6.11990154711674  9.39903846153845 6.01793248945148  C 9.31730769230768 5.91596343178622  9.27644230769232 5.79113924050637  9.27644230769232 5.6434599156118  C 9.27644230769232 5.45358649789029  9.34114583333331 5.29360056258787  9.47055288461536 5.16350210970467  C 9.59995993589746 5.03340365682135  9.75320512820514 4.96835443037975  9.93028846153845 4.96835443037975  C 10.0324519230769 4.96835443037975  10.1175881410256 4.985935302391  10.1856971153846 5.0210970464135  C 10.6624599358975 5.21097046413507  11.0455729166667 5.53797468354429  11.3350360576923 6.00210970464138  Z M 13.5162259615385 4.52004219409287  C 14.0951522435897 5.43073136427569  14.3846153846154 6.42405063291142  14.3846153846154 7.5  C 14.3846153846154 8.57594936708858  14.0951522435897 9.56926863572431  13.5162259615385 10.4799578059071  C 12.9372996794872 11.3906469760901  12.1710737179487 12.0534458509142  11.2175480769231 12.4683544303797  C 11.1290064102564 12.5035161744023  11.0438701923077 12.5210970464135  10.9621394230769 12.5210970464135  C 10.7782451923077 12.5210970464135  10.621594551282 12.4542897327707  10.4921875 12.3206751054852  C 10.362780448718 12.1870604781997  10.2980769230769 12.0288326300985  10.2980769230769 11.8459915611814  C 10.2980769230769 11.5717299578059  10.4308894230769 11.3642756680731  10.6965144230769 11.2236286919831  C 11.0779246794872 11.0196905766526  11.3367387820513 10.8649789029536  11.4729567307693 10.7594936708861  C 11.9769631410256 10.379746835443  12.3702924679487 9.90330520393809  12.6529447115385 9.33016877637135  C 12.9355969551282 8.7570323488045  13.0769230769231 8.14697609001405  13.0769230769231 7.5  C 13.0769230769231 6.85302390998595  12.9355969551282 6.2429676511955  12.6529447115385 5.66983122362865  C 12.3702924679487 5.09669479606191  11.9769631410256 4.62025316455697  11.4729567307693 4.24050632911394  C 11.3367387820513 4.13502109704643  11.0779246794872 3.98030942334736  10.6965144230769 3.77637130801691  C 10.4308894230769 3.63572433192689  10.2980769230769 3.42827004219407  10.2980769230769 3.15400843881855  C 10.2980769230769 2.97116736990154  10.362780448718 2.81293952180027  10.4921875 2.67932489451476  C 10.621594551282 2.54571026722925  10.7748397435897 2.4789029535865  10.9519230769231 2.4789029535865  C 11.0404647435897 2.4789029535865  11.1290064102564 2.49648382559775  11.2175480769231 2.53164556962025  C 12.1710737179487 2.94655414908578  12.9372996794872 3.60935302390993  13.5162259615385 4.52004219409287  Z M 15.7025240384615 3.0432489451477  C 16.5675080128205 4.39697609001405  17 5.88255977496482  17 7.5  C 17 9.11744022503518  16.5675080128205 10.603023909986  15.7025240384615 11.9567510548523  C 14.8375400641025 13.3104781997187  13.6864983974359 14.3073136427567  12.2493990384615 14.9472573839662  C 12.1608573717949 14.9824191279887  12.0723157051282 15  11.9837740384615 15  C 11.8066907051282 15  11.6534455128205 14.9331926863572  11.5240384615385 14.7995780590717  C 11.3946314102564 14.6659634317862  11.3299278846154 14.507735583685  11.3299278846154 14.3248945147679  C 11.3299278846154 14.0717299578059  11.4627403846154 13.8642756680731  11.7283653846154 13.7025316455696  C 11.7760416666667 13.6744022503516  11.8526642628205 13.637482419128  11.9582331730769 13.5917721518987  C 12.0638020833333 13.5460618846695  12.1404246794872 13.5091420534459  12.1881009615385 13.4810126582278  C 12.5014022435897 13.3052039381154  12.7806490384615 13.1258790436005  13.0258413461538 12.9430379746835  C 13.8635817307693 12.303094233474  14.5174278846154 11.5049226441632  14.9873798076923 10.548523206751  C 15.4573317307693 9.59212376933897  15.6923076923077 8.57594936708858  15.6923076923077 7.5  C 15.6923076923077 6.42405063291142  15.4573317307693 5.40787623066103  14.9873798076923 4.45147679324896  C 14.5174278846154 3.49507735583683  13.8635817307693 2.69690576652602  13.0258413461538 2.05696202531647  C 12.7806490384615 1.87412095639945  12.5014022435897 1.69479606188469  12.1881009615385 1.51898734177217  C 12.1404246794872 1.49085794655412  12.0638020833333 1.45393811533052  11.9582331730769 1.40822784810132  C 11.8526642628205 1.36251758087201  11.7760416666667 1.32559774964841  11.7283653846154 1.29746835443041  C 11.4627403846154 1.13572433192689  11.3299278846154 0.928270042194129  11.3299278846154 0.675105485232052  C 11.3299278846154 0.492264416315038  11.3946314102564 0.334036568213776  11.5240384615385 0.200421940928265  C 11.6534455128205 0.0668073136427552  11.8066907051282 0  11.9837740384615 0  C 12.0723157051282 0  12.1608573717949 0.0175808720112514  12.2493990384615 0.0527426160337541  C 13.6864983974359 0.692686357243304  14.8375400641025 1.68952180028128  15.7025240384615 3.0432489451477  Z " fill-rule="nonzero" fill="#000000" stroke="none" transform="matrix(1 0 0 1 144 295 )" />
  </g>
</svg>