<?xml version="1.0" encoding="utf-8"?>
<svg version="1.1" xmlns:xlink="http://www.w3.org/1999/xlink" width="10px" height="11px" xmlns="http://www.w3.org/2000/svg">
  <g transform="matrix(1 0 0 1 -490 -291 )">
    <path d="M 9.76251604621314 4.54686446392446  C 9.92083868207101 4.73971679028995  10 4.96471117104966  10 5.22184760620365  C 10 5.48392897280291  9.92083868207101 5.70645088783999  9.76251604621314 5.88941335131489  L 5.58408215661109 10.7255563047876  C 5.41720154043639 10.9085187682625  5.22250748823274 11  5 11  C 4.77321352160891 11  4.58065896448431 10.9085187682625  4.42233632862644 10.7255563047876  L 0.243902439024396 5.88941335131489  C 0.0813008130081698 5.71139581928526  0 5.48887390424812  0 5.22184760620365  C 0 4.95976623960439  0.0813008130081698 4.73477185884468  0.243902439024396 4.54686446392446  L 0.718870346598237 3.99055967633177  C 0.885750962772818 3.80759721285682  1.08044501497648 3.71611598111934  1.30295250320921 3.71611598111934  C 1.52973898160042 3.71611598111934  1.72229353872478 3.80759721285682  1.88061617458277 3.99055967633177  L 3.76765083440307 6.17127444369521  L 3.76765083440307 0.949426837491558  C 3.76765083440307 0.692290402337619  3.84895164741124 0.469768487300485  4.01155327342747 0.281861092380325  C 4.17415489944381 0.0939536974601083  4.36670945656817 0  4.58921694480102 0  L 5.41078305519898 0  C 5.63329054343183 0  5.82584510055619 0.0939536974601083  5.98844672657253 0.281861092380325  C 6.15104835258876 0.469768487300485  6.23234916559693 0.692290402337619  6.23234916559693 0.949426837491558  L 6.23234916559693 6.17127444369521  L 8.11938382541723 3.99055967633177  C 8.27770646127522 3.80759721285682  8.47026101839958 3.71611598111934  8.69704749679079 3.71611598111934  C 8.91955498502352 3.71611598111934  9.11424903722718 3.80759721285682  9.28112965340176 3.99055967633177  L 9.76251604621314 4.54686446392446  Z " fill-rule="nonzero" fill="#000000" stroke="none" transform="matrix(1 0 0 1 490 291 )" />
  </g>
</svg>