<?xml version="1.0" encoding="utf-8"?>
<svg version="1.1" xmlns:xlink="http://www.w3.org/1999/xlink" width="11px" height="11px" xmlns="http://www.w3.org/2000/svg">
  <g transform="matrix(1 0 0 1 -496 -297 )">
    <path d="M 10.7387676508344 4.54686446392452  C 10.9129225502781 4.73971679029  11 4.96471117104966  11 5.22184760620371  C 11 5.48392897280291  10.9129225502781 5.70645088783999  10.7387676508344 5.88941335131483  L 6.14249037227216 10.7255563047876  C 5.95892169448007 10.9085187682625  5.74475823705603 11  5.5 11  C 5.25053487376982 11  5.0387248609328 10.9085187682625  4.86456996148911 10.7255563047876  L 0.268292682926813 5.88941335131483  C 0.0894308943089186 5.71139581928526  0 5.48887390424807  0 5.22184760620371  C 0 4.95976623960439  0.0894308943089186 4.73477185884462  0.268292682926813 4.54686446392452  L 0.790757381258004 3.99055967633171  C 0.9743260590501 3.80759721285676  1.18848951647414 3.71611598111929  1.43324775353017 3.71611598111929  C 1.6827128797604 3.71611598111929  1.89452289259731 3.80759721285676  2.06867779204111 3.99055967633171  L 4.14441591784345 6.17127444369521  L 4.14441591784345 0.949426837491501  C 4.14441591784345 0.692290402337676  4.23384681215236 0.469768487300485  4.41270860077015 0.281861092380268  C 4.59157038938815 0.0939536974601651  4.80338040222506 0  5.04813863928109 0  L 5.95186136071891 0  C 6.19661959777494 0  6.40842961061185 0.0939536974601651  6.58729139922986 0.281861092380268  C 6.76615318784764 0.469768487300485  6.85558408215655 0.692290402337676  6.85558408215655 0.949426837491501  L 6.85558408215655 6.17127444369521  L 8.93132220795889 3.99055967633171  C 9.10547710740269 3.80759721285676  9.3172871202396 3.71611598111929  9.56675224646983 3.71611598111929  C 9.81151048352586 3.71611598111929  10.0256739409499 3.80759721285676  10.209242618742 3.99055967633171  L 10.7387676508344 4.54686446392452  Z " fill-rule="nonzero" fill="#000000" stroke="none" transform="matrix(1 0 0 1 496 297 )" />
  </g>
</svg>