<?xml version="1.0" encoding="utf-8"?>
<svg version="1.1" xmlns:xlink="http://www.w3.org/1999/xlink" width="26px" height="26px" xmlns="http://www.w3.org/2000/svg">
  <g transform="matrix(1 0 0 1 -373 -360 )">
    <path d="M 1.4388020833334 0  L 24.5611979166666 0  C 24.9561631944444 0  25.2947048611111 0.141059027777749  25.5768229166666 0.42317708333328  C 25.8589409722222 0.705295138888907  26 1.04383680555556  26 1.43880208333328  L 26 24.5611979166667  C 26 24.9561631944445  25.8589409722222 25.2947048611111  25.5768229166666 25.5768229166667  C 25.2947048611111 25.8589409722223  24.9561631944444 26  24.5611979166666 26  L 18 26  L 18 15.9283854166667  L 21.3111979166666 15.9283854166667  L 21.8190104166666 12.0013020833333  L 17.9427083333334 12.0013020833333  L 17.9427083333334 9.49609375  C 17.9427083333334 8.86414930555556  18.0753038194444 8.39019097222225  18.3404947916666 8.07421875  C 18.6056857638889 7.75824652777775  19.1219618055556 7.60026041666672  19.8893229166666 7.60026041666672  L 21.9544270833334 7.58333333333328  L 21.9544270833334 4.07942708333328  C 21.2434895833334 3.97786458333328  20.2391493055556 3.92708333333328  18.94140625 3.92708333333328  C 17.4066840277778 3.92708333333328  16.1794704861111 4.37847222222225  15.259765625 5.28125  C 14.3400607638889 6.18402777777775  13.8802083333334 7.45920138888891  13.8802083333334 9.10677083333328  L 13.8802083333334 12.0013020833333  L 10.4947916666666 12.0013020833333  L 10.4947916666666 15.9283854166667  L 13.8802083333334 15.9283854166667  L 13.8802083333334 26  L 1.4388020833334 26  C 1.04383680555555 26  0.705295138888926 25.8589409722223  0.423177083333404 25.5768229166667  C 0.141059027777852 25.2947048611111  0 24.9561631944445  0 24.5611979166667  L 0 1.43880208333328  C 0 1.04383680555556  0.141059027777852 0.705295138888907  0.423177083333404 0.42317708333328  C 0.705295138888926 0.141059027777749  1.04383680555555 0  1.4388020833334 0  Z " fill-rule="nonzero" fill="#4267b2" stroke="none" transform="matrix(1 0 0 1 373 360 )" />
  </g>
</svg>