<?xml version="1.0" encoding="utf-8"?>
<svg version="1.1" xmlns:xlink="http://www.w3.org/1999/xlink" width="26px" height="26px" xmlns="http://www.w3.org/2000/svg">
  <defs>
    <path d="M 0 0  L 512 0  L 512 512  L 0 512  Z " fill-rule="evenodd" fill="black" id="path148" />
    <clipPath id="clip149">
      <use xlink:href="#path148" />
    </clipPath>
    <filter x="-50.00%" y="-50.00%" width="200.00%" height="200.00%" filterUnits="objectBoundingBox" id="filter150">
      <feColorMatrix type="matrix" values="1 0 0 0 0  0 1 0 0 0  0 0 1 0 0  0 0 0 1 0  " in="SourceGraphic" />
    </filter>
  </defs>
  <g transform="matrix(1 0 0 1 -373 -402 )">
    <g transform="matrix(0.05078125 0 0 0.05078125 373 402 )" clip-path="url(#clip149)" filter="url(#filter150)">
      <path style="fill:#FBBB00;" d="M113.47,309.408L95.648,375.94l-65.139,1.378C11.042,341.211,0,299.9,0,256  c0-42.451,10.324-82.483,28.624-117.732h0.014l57.992,10.632l25.404,57.644c-5.317,15.501-8.215,32.141-8.215,49.456  C103.821,274.792,107.225,292.797,113.47,309.408z" />
      <path style="fill:#518EF8;" d="M507.527,208.176C510.467,223.662,512,239.655,512,256c0,18.328-1.927,36.206-5.598,53.451  c-12.462,58.683-45.025,109.925-90.134,146.187l-0.014-0.014l-73.044-3.727l-10.338-64.535  c29.932-17.554,53.324-45.025,65.646-77.911h-136.89V208.176h138.887L507.527,208.176L507.527,208.176z" />
      <path style="fill:#28B446;" d="M416.253,455.624l0.014,0.014C372.396,490.901,316.666,512,256,512  c-97.491,0-182.252-54.491-225.491-134.681l82.961-67.91c21.619,57.698,77.278,98.771,142.53,98.771  c28.047,0,54.323-7.582,76.87-20.818L416.253,455.624z" />
      <path style="fill:#F14336;" d="M419.404,58.936l-82.933,67.896c-23.335-14.586-50.919-23.012-80.471-23.012  c-66.729,0-123.429,42.957-143.965,102.724l-83.397-68.276h-0.014C71.23,56.123,157.06,0,256,0  C318.115,0,375.068,22.126,419.404,58.936z" />
      <g>
</g>
      <g>
</g>
      <g>
</g>
      <g>
</g>
      <g>
</g>
      <g>
</g>
      <g>
</g>
      <g>
</g>
      <g>
</g>
      <g>
</g>
      <g>
</g>
      <g>
</g>
      <g>
</g>
      <g>
</g>
      <g>
</g>
    </g>
    <path d="M 373.5 427.5  L 373.5 402.5  L 398.5 402.5  L 398.5 427.5  L 373.5 427.5  Z " stroke-width="1" stroke="#797979" fill="none" />
  </g>
</svg>